<svg width="300" height="320" version="1.1" viewBox="0 0 79.374998 84.666669" xmlns="http://www.w3.org/2000/svg" xmlns:xlink="http://www.w3.org/1999/xlink">
  <defs>
    <linearGradient id="linearGradient14543-8" x1="-110.71" x2="-110.71" y1="243.62" y2="285.68" gradientTransform="matrix(8.1649 0 0 8.1649 2730.9 -1198)" gradientUnits="userSpaceOnUse">
      <stop stop-color="#ba752e" offset="0"/>
      <stop stop-color="#ba752e" stop-opacity="0" offset="1"/>
    </linearGradient>
    <linearGradient id="linearGradient14545-2" x1="-109.56" x2="-109.56" y1="578.78" y2="524.81" gradientTransform="matrix(8.1649 0 0 8.1649 2730.9 -1198)" gradientUnits="userSpaceOnUse">
      <stop stop-color="#a7440b" offset="0"/>
      <stop stop-color="#a7440b" stop-opacity="0" offset="1"/>
    </linearGradient>
  </defs>
  <g transform="translate(0 -212.33)">
    <g id="engep" transform="matrix(.43149 0 0 .43149 -128.85 63.108)" stroke-width=".65407">
      <g transform="matrix(.85995 0 0 .85995 1357.4 1568.5)" stroke-width=".65407">
        <g transform="matrix(.33448 0 0 .33448 -886.43 -1428.5)">
          <g transform="matrix(.61635 0 0 .61635 -1026.1 7.1275)" stroke-width=".39087">
            <g>
              <path d="m421.34 90.721c-1.3866 0.44896-2.7694 0.61929-4.3182 0.39767 0.19985 0.56637 0.37889 1.1793 0.51868 1.8025 1.244-0.76527 2.5112-1.4974 3.7995-2.2002zm157.43 0.32851c0.8315 0.46221 1.6554 0.93336 2.4681 1.4221v-1.2924c-0.88087 0.0678-1.6626 0.0177-2.4681-0.12971zm-78.777 18.215c-3.0026 0.0494-5.429 2.5079-5.429 5.5198 0 3.0119 2.4264 5.4668 5.429 5.5198 3.0036-0.0531 5.4334-2.5079 5.4334-5.5198 0-3.0119-2.4298-5.4706-5.4334-5.5198zm-53.028 7.5039c-3.0456 0-5.5242 2.4825-5.5242 5.5285 0 3.0441 2.4785 5.5198 5.5242 5.5198 3.0418 0 5.5241-2.4757 5.5241-5.5198 0-3.046-2.4823-5.5285-5.5241-5.5285zm106.06 0c-3.0421 0-5.5198 2.4825-5.5198 5.5285 0 3.0441 2.4778 5.5198 5.5198 5.5198 3.0464 0 5.5242-2.4757 5.5241-5.5198 0-3.046-2.4777-5.5285-5.5241-5.5285zm-53.028 10.517c-0.69256 0.0436-1.2636 0.5737-1.3486 1.2708-1.7738 14.794-8.5586 22.753-21.349 25.036-1.0144 0.17617-2.115 0.27232-3.2678 0.27232-4.018 0-17.582-1.3046-23.545-18.107-0.23811-0.67058-0.96193-1.0776-1.6685-0.93366-0.70372 0.14385-1.2002 0.79547-1.1498 1.5172 0.8945 12.942-3.1922 21.384-11.208 23.164-0.95226 0.21025-1.9377 0.31986-2.9263 0.31986-8.7478 0-16.568-8.0988-20.13-15.617-0.30402-0.64973-1.0957-0.98134-1.7809-0.75213-0.69613 0.23678-1.1085 0.95783-0.95092 1.6815 2.4294 11.176 0.55548 19.186-5.0184 21.418-1.6923 0.67435-3.3899 1.0158-5.04 1.0158-7.1155 0-11.884-6.3026-14.1-10.063-0.26194-0.45084-0.73201-0.72185-1.2492-0.72185-0.25898 0-0.51201 0.0728-0.73916 0.20737-0.33297 0.1932-0.56726 0.51051-0.66566 0.88178-0.0976 0.37887-0.044 0.76696 0.15137 1.1022 2.3057 3.9212 4.9839 6.856 7.9015 8.7919 3.432 5.1089 9.5981 14.492 11.917 19.084 17.404-7.2589 60.77-16.852 96.167-16.871 35.397 0.0199 78.766 9.6118 96.171 16.871 2.3186-4.5917 8.4847-13.975 11.917-19.084 2.9154-1.9359 5.5919-4.8708 7.8972-8.7919 0.19519-0.33528 0.25224-0.72337 0.15558-1.1022-0.0985-0.37127-0.33228-0.68855-0.66567-0.88178-0.22733-0.13461-0.4815-0.20737-0.73914-0.20737-0.51902 0-0.98776 0.27101-1.2492 0.72185-2.2163 3.7601-6.985 10.063-14.1 10.063-1.6518 0-3.3503-0.34144-5.04-1.0158-5.5749-2.2315-7.4487-10.242-5.0184-21.418 0.15736-0.72363-0.25582-1.4447-0.95094-1.6815-0.68573-0.22921-1.4778 0.10244-1.7809 0.75213-3.5612 7.5184-11.384 15.617-20.13 15.617-0.98883 0-1.9736-0.10951-2.9263-0.31986-8.0148-1.7806-12.103-10.222-11.208-23.164 0.0516-0.72173-0.44616-1.3732-1.1498-1.5172-0.70831-0.14408-1.4301 0.26308-1.6685 0.93366-5.9617 16.802-19.532 18.107-23.549 18.107-1.1526 0-2.2489-0.0963-3.2635-0.27232-12.789-2.2826-19.576-10.242-21.349-25.036-0.0847-0.6971-0.66022-1.2272-1.3529-1.2708zm-92.467 1.0244c-3.0443 0-5.5198 2.4801-5.5198 5.5242 0 3.046 2.4755 5.5198 5.5198 5.5198 3.0449 0 5.5242-2.4738 5.5242-5.5198 0-3.0441-2.4793-5.5242-5.5242-5.5242zm184.94 0c-3.046 0-5.5241 2.4801-5.5241 5.5242 0 3.046 2.4781 5.5198 5.5241 5.5198 3.044 0 5.5198-2.4738 5.5198-5.5198 0-3.0441-2.4758-5.5242-5.5198-5.5242zm-213.64 14.217c-3.0449 0-5.5241 2.48-5.5241 5.5241 0 3.0422 2.4792 5.5242 5.5241 5.5242 3.0456 0 5.5198-2.482 5.5198-5.5242 0-3.0441-2.4742-5.5241-5.5198-5.5241zm242.35 0c-3.0442 0-5.5241 2.48-5.5241 5.5241 0 3.0422 2.48 5.5242 5.5241 5.5242 3.046 0 5.5241-2.482 5.5241-5.5242 0-3.0441-2.4782-5.5241-5.5241-5.5241zm-121.18 30.361c-36.133 0.0156-80.573 10.083-96.551 17.299-0.35289 0.15713-0.62245 0.44459-0.76075 0.80829-0.13921 0.3618-0.12549 0.75667 0.0345 1.1109 0.31977 0.70654 1.2004 1.0501 1.9278 0.72615 15.735-7.1073 59.602-17.025 95.35-17.044 35.748 0.0199 79.62 9.9362 95.354 17.044 0.72739 0.32392 1.6053-0.0177 1.9235-0.72615 0.16111-0.35424 0.17682-0.74911 0.039-1.1109-0.13788-0.3637-0.40841-0.65107-0.76077-0.80829-15.978-7.2153-60.423-17.283-96.556-17.299zm-0.5792 5.8137 0.0136 9e-3c-33.885 0.22731-75.23 9.1732-91.836 16.019 4.0009 8.8425 7.7119 18.56 10.525 27.897 14.188-5.2471 51.514-12.384 81.885-12.397 30.371 0.0136 67.695 7.1498 81.885 12.397 2.8111-9.3369 6.5202-19.055 10.521-27.897-16.605-6.8459-57.951-15.792-91.836-16.019l0.0136-9e-3h-9e-3l-0.35877 4e-3h-0.44521l-0.35875-4e-3zm0.5792 34.429c-30.486 0.0156-67.983 7.2511-81.47 12.436-0.7467 0.28793-1.1235 1.1321-0.83423 1.8803 0.27675 0.71984 1.1447 1.1084 1.8803 0.82992 13.27-5.107 50.264-12.224 80.424-12.237 30.16 0.0136 67.157 7.13 80.428 12.237 0.73497 0.27845 1.6037-0.10993 1.8803-0.82992 0.28989-0.74822-0.0854-1.5924-0.83424-1.8803-13.487-5.1846-50.989-12.421-81.475-12.436z" fill="#eca620"/>
              <path d="m254.51 246.03s-14.688 13.662-14.281 30.037c0.42258 17.597 7.2056 29.172 9.181 32.215-0.88832 0.84815-1.7907 1.6844-2.641 2.5632-13.137 11.267-25.794 24.653-37.645 39.728 3.2776-7.5041 7.1448-18.109 6.8468-26.168-0.71521-19.38-19.062-37.217-19.062-37.217 0 0-13.834 18.329-10.128 36.72 3.7377 18.534 13.037 30.337 16.529 34.26-10.716 14.482-20.672 30.389-29.592 47.426 1.7752-8.2985 3.1702-18.521 1.5604-26.026-4.4871-20.881-27.772-36.707-27.772-36.707 0 0-11.508 22.524-3.981 41.751 7.2559 18.531 18.906 29.473 23.895 33.542-7.413 15.506-13.931 31.855-19.421 48.814 0.35475-8.7586-2.6e-4 -19.56-3.0171-26.981-8.2023-20.189-34.42-31.96-34.42-31.96s-7.5619 24.666 3.4234 42.65c10.615 17.401 24.311 26.327 29.998 29.501-4.5355 15.881-8.1611 32.229-10.668 48.926-1.2776-8.3316-3.4877-17.799-7.4304-24.081-11.818-18.828-40.242-26.017-40.242-26.017s-3.2389 26.127 10.975 42.261c13.172 14.942 27.872 21.599 34.614 24.055-1.6456 15.538-2.3237 31.315-1.9235 47.206-2.7036-7.5476-6.3206-15.559-10.936-20.67-15.232-16.828-45.062-19.019-45.062-19.019s1.3671 26.834 18.513 40.528c15.519 12.388 31.026 16.539 38.461 17.912 1.2052 15.178 3.4174 30.415 6.7647 45.611-4.0953-7.2314-9.2462-14.85-14.904-19.252-18.283-14.219-48.658-11.126-48.658-11.126s6.1516 26.716 25.81 37.441c18.007 9.8254 34.566 11.168 42.157 11.195 3.5212 14.496 8.0028 28.559 13.326 42.153-5.2093-6.1823-11.365-12.369-17.463-15.6-20.9-11.038-50.867-2.5546-50.867-2.5546s10.906 25.765 32.553 33.054c19.434 6.5449 35.945 5.1657 43.791 3.8686 6.4114 13.855 13.684 27.168 21.69 39.892-6.5252-5.5411-14.165-11.037-21.172-13.296-22.956-7.4028-51.559 6.4362-51.559 6.4362s15.52 23.952 38.57 27.443c21.102 3.1941 37.754-1.3689 45.2-4.0458 9.0146 12.753 18.775 24.812 29.073 36.184-7.7376-4.606-16.788-9.0699-24.526-10.141-24.369-3.3695-50.681 15.604-50.681 15.604s19.846 21.326 43.631 20.748c21.949-0.53334 37.983-8.2052 44.898-12.189 10.939 10.954 22.375 21.153 34.156 30.521-8.5001-3.1947-18.278-5.966-26.121-5.6754-25.08 0.93227-48.14 24.655-48.14 24.655s23.714 17.917 47.513 13.123c21.766-4.3922 36.427-14.777 42.762-20.048 11.846 8.4791 23.927 16.164 36.106 22.957-8.3581-1.3878-17.371-2.0882-24.4-0.5792-25.036 5.3778-44.016 33.309-44.016 33.309s27.011 13.804 50.072 4.7634c20.354-7.9717 32.998-20.32 38.755-26.955 13.086 6.2196 26.164 11.43 39.028 15.526-8.4533 0.12521-17.354 1.0503-23.977 3.7433-24.206 9.8456-38.332 41.275-38.332 41.275s29.581 9.0805 51.17-4.0847c19.666-12.008 30.299-27.323 34.649-34.766 30.311 5.4369 55.616 13.872 76.275 23.134-38.133 19.944-53.707 38.453-53.707 38.453l13.382 11.943s17.759-21.601 56.91-42.326c39.15 20.725 56.906 42.326 56.906 42.326l13.387-11.943s-15.574-18.509-53.707-38.453c20.659-9.262 45.964-17.697 76.275-23.134 4.3498 7.4431 14.984 22.758 34.649 34.766 21.589 13.165 51.17 4.0847 51.17 4.0847s-14.13-31.43-38.336-41.275c-6.6223-2.6929-15.519-3.618-23.972-3.7433 12.866-4.097 25.94-9.3101 39.028-15.531 5.7562 6.6342 18.399 18.987 38.755 26.959 23.061 9.0406 50.072-4.7634 50.072-4.7634s-18.98-27.931-44.016-33.309c-7.0296-1.5091-16.046-0.80873-24.405 0.5792 12.179-6.7929 24.263-14.478 36.11-22.957 6.3355 5.2709 20.992 15.656 42.758 20.048 23.799 4.7941 47.513-13.123 47.513-13.123s-23.059-23.723-48.14-24.655c-7.8401-0.29041-17.614 2.4778-26.112 5.6711 11.78-9.3665 23.211-19.564 34.148-30.517 6.915 3.9842 22.949 11.656 44.898 12.189 23.785 0.57819 43.635-20.748 43.635-20.748s-26.312-18.974-50.681-15.604c-7.7349 1.0702-16.786 5.532-24.521 10.136 10.297-11.37 20.051-23.428 29.064-36.179 7.4446 2.6768 24.099 7.2404 45.205 4.0458 23.05-3.4912 38.565-27.443 38.565-27.443s-28.599-13.839-51.554-6.4362c-7.0096 2.2601-14.653 7.7609-21.18 13.305 8.0083-12.727 15.286-26.043 21.699-39.901 7.8474 1.2969 24.359 2.6755 43.791-3.8686 21.647-7.2894 32.553-33.054 32.553-33.054s-29.971-8.4833-50.871 2.5546c-6.0969 3.23-12.25 9.4143-17.459 15.596 5.3228-13.592 9.8053-27.654 13.326-42.149 7.5923-0.0278 24.153-1.3712 42.157-11.195 19.658-10.725 25.81-37.441 25.81-37.441s-30.375-3.0932-48.658 11.126c-5.6558 4.4012-10.809 12.014-14.904 19.244 3.3463-15.193 5.5597-30.427 6.7647-45.602 7.4352-1.3734 22.938-5.5247 38.457-17.912 17.146-13.694 18.513-40.528 18.513-40.528s-29.826 2.191-45.058 19.019c-4.6136 5.1088-8.2326 13.116-10.936 20.661 0.39972-15.887-0.27818-31.662-1.9235-47.197 6.7423-2.4557 21.439-9.1131 34.61-24.055 14.214-16.134 10.979-42.261 10.979-42.261s-28.424 7.189-40.242 26.017c-3.942 6.2802-6.1526 15.746-7.4304 24.076-2.5068-16.695-6.1327-33.043-10.668-48.922 5.688-3.1743 19.379-12.101 29.994-29.501 10.985-17.984 3.4277-42.65 3.4277-42.65s-26.222 11.771-34.424 31.96c-3.0168 7.4214-3.3675 18.222-3.0128 26.981-5.4903-16.961-12.011-33.311-19.425-48.818 4.9901-4.0709 16.644-15.009 23.899-33.538 7.5274-19.226-3.9853-41.751-3.9853-41.751s-23.285 15.826-27.772 36.707c-1.6098 7.5044-0.21489 17.727 1.5604 26.026-8.9196-17.038-18.871-32.945-29.587-47.426 3.493-3.9244 12.792-15.728 16.529-34.26 3.7067-18.39-10.128-36.72-10.128-36.72 0 1e-5 -18.347 17.837-19.062 37.217-0.2979 8.0563 3.5614 18.656 6.8382 26.16-11.848-15.071-24.501-28.454-37.636-39.719-0.85059-0.87917-1.7568-1.7148-2.6454-2.5632 1.9753-3.044 8.7627-14.619 9.1853-32.215 0.40656-16.375-14.281-30.037-14.281-30.037s-13.069 18.116-10.733 34.891c1.0263 7.464 6.6293 16.8 10.685 22.754-12.388-10.356-26.904-18.037-37.692-22.862-0.89873-1.3466-11.528-16.921-26.047-20.355-10.804-2.5348-29.618 3.3413-29.618 3.3413s8.0473 12.547 25.455 19.762c12.544 5.2065 26.622-0.56571 29.427-1.8154 11.533 6.033 27.461 15.684 39.231 27.794-6.3403-3.3038-15.353-7.3072-22.403-7.5341-16.923-0.55954-33.56 14.338-33.56 14.338s15.139 13.157 31.377 11.031c15.601-2.0278 26.153-8.8057 30.266-11.878 13.474 12.129 26.366 26.492 38.302 42.659-6.4355-4.8438-15.216-10.584-22.689-12.155-18.975-3.9862-40.705 9.5052-40.705 9.5052s14.45 17.848 33.184 18.686c17.744 0.8003 31.013-4.6431 36.417-7.3353 10.911 15.815 20.905 33.143 29.639 51.671-6.0872-6.6633-15.093-15.37-23.38-18.695-19.81-7.9561-45.944 2.5243-45.944 2.5243s12.24 22.121 32.401 26.605c19.444 4.3458 35.022 0.78137 41.167-1.0806 6.9541 15.83 13.017 32.417 17.938 49.605-4.9165-7.4978-11.835-16.616-18.967-21.046-18.504-11.503-46.627-5.6106-46.627-5.6106s8.3926 24.396 27.854 32.479c18.163 7.5588 34.085 7.0311 40.994 6.2806 4.284 17.015 7.4537 34.529 9.3496 52.35-3.611-8.4772-9.0197-19.125-15.526-24.945-16.537-14.842-45.853-13.901-45.853-13.901s4.1015 26.008 22.244 37.58c17.03 10.887 33.239 13.137 40.234 13.586 1.2523 17.34 1.2704 34.922-0.11662 52.574-2.1182-9.192-5.6795-20.991-11.234-28.053-14.017-17.852-43.623-22.097-43.623-22.097s-0.46752 26.859 15.699 41.703c15.119 13.904 30.964 19.063 37.956 20.774-1.8266 15.764-4.7966 31.548-9.0297 47.232-0.64976-9.1211-2.2684-20.051-6.1552-27.314-10.919-20.416-39.931-29.925-39.931-29.925s-5.2368 26.904 8.3683 44.673c12.428 16.246 26.924 24.194 33.875 27.327-4.4417 15.705-10.047 30.835-16.616 45.36 1.0133-9.3904 1.4044-20.939-1.2665-29.099-7.3641-22.449-34.822-37.152-34.822-37.152s-10.039 26.108 0.49279 46.38c9.5663 18.456 22.657 28.992 29.112 33.4-6.9782 13.762-14.827 26.928-23.398 39.447 2.3812-8.7809 4.3275-19.052 3.19-26.972-3.4027-23.857-28.39-43.493-28.39-43.493s-14.714 24.452-7.7373 46.691c6.11 19.482 16.761 32.104 22.65 38.003-9.015 11.898-18.675 23.131-28.822 33.685 3.6415-8.0224 6.9528-17.179 7.2012-24.776 0.78291-24.577-20.843-48.736-20.843-48.736s-19.121 21.968-16.036 45.555c2.6293 20.272 10.825 34.663 15.738 41.79-10.686 10.042-21.811 19.316-33.197 27.845 4.8985-7.2499 9.5694-15.611 11.104-22.952 5.1649-24.557-12.31-52.669-12.31-52.669s-23.097 18.693-24.184 42.935c-0.93737 20.785 4.7185 36.671 8.3943 44.725-12.716 8.4854-25.652 16.012-38.617 22.512 6.6357-6.6847 13.493-14.832 16.538-22.438 9.5247-23.777-3.03-55.125-3.03-55.125s-26.542 14.692-31.917 38.868c-4.7274 21.164-1.6301 38.426 0.65702 46.985-13.61 5.839-27.131 10.487-40.329 13.927 7.4687-5.3871 15.162-11.991 19.334-18.712 13.793-22.197 6.7085-55.924 6.7085-55.924s-29.268 10.06-38.959 33.4c-7.9118 19.038-8.4067 35.906-7.8107 45.425-19.147 3.6406-36.539 8.5256-52.09 14.074-10.453 3.7066-19.853 7.5753-28.472 11.472-8.6201-3.8972-18.018-7.7647-28.472-11.472-15.551-5.5483-32.944-10.433-52.09-14.074 0.596-9.5192 0.0967-26.387-7.815-45.425-9.6907-23.34-38.954-33.4-38.954-33.4s-7.0847 33.727 6.7085 55.924c4.1724 6.7201 11.862 13.325 19.33 18.712-13.197-3.4397-26.715-8.0887-40.324-13.927 2.2871-8.5597 5.3844-25.822 0.65702-46.985-5.3751-24.176-31.922-38.868-31.922-38.868s-12.555 31.348-3.0301 55.125c3.0456 7.6076 9.9094 15.757 16.546 22.442-12.966-6.4994-25.905-14.03-38.621-22.516 3.6758-8.0542 9.3273-23.94 8.39-44.725-1.0872-24.242-24.184-42.935-24.184-42.935s-17.471 28.112-12.306 52.669c1.535 7.3409 6.2018 15.703 11.1 22.952-11.386-8.5293-22.512-17.803-33.197-27.845 4.9134-7.1272 13.109-21.518 15.738-41.79 3.0845-23.586-16.036-45.555-16.036-45.555s-21.622 24.159-20.839 48.736c0.2484 7.5973 3.5556 16.754 7.1969 24.776-10.146-10.553-19.804-21.788-28.818-33.685 5.8885-5.9002 16.54-18.522 22.65-38.003 6.9768-22.239-7.7416-46.691-7.7416-46.691s-24.987 19.635-28.39 43.493c-1.1377 7.9214 0.81255 18.195 3.1943 26.977-8.572-12.521-16.423-25.688-23.402-39.451 6.4542-4.4068 19.549-14.942 29.116-33.4 10.532-20.272 0.49277-46.38 0.49277-46.38s-27.458 14.702-34.822 37.152c-2.6709 8.1596-2.2798 19.709-1.2665 29.099-6.5683-14.525-12.174-29.656-16.616-45.36 6.9514-3.1329 21.448-11.081 33.875-27.327 13.605-17.769 8.3683-44.673 8.3683-44.673s-29.012 9.5086-39.931 29.925c-3.8874 7.2634-5.5056 18.196-6.1552 27.318-4.2337-15.685-7.2029-31.471-9.0297-47.236 6.9938-1.7119 22.839-6.872 37.956-20.774 16.167-14.844 15.699-41.703 15.699-41.703s-29.61 4.245-43.627 22.097c-5.552 7.0582-9.1112 18.85-11.23 28.04-1.3861-17.648-1.3731-35.225-0.12106-52.561 6.995-0.44905 23.208-2.6986 40.238-13.586 18.142-11.572 22.239-37.58 22.239-37.58s-29.311-0.94056-45.849 13.901c-6.5055 5.8187-11.915 16.464-15.526 24.941 1.8959-17.819 5.0659-35.332 9.3495-52.345 6.9093 0.75054 22.832 1.2782 40.994-6.2806 19.462-8.0834 27.85-32.479 27.85-32.479s-28.118-5.892-46.622 5.6106c-7.1324 4.4306-14.051 13.548-18.967 21.046 4.9217-17.188 10.984-33.775 17.938-49.605 6.1451 1.862 21.724 5.4264 41.167 1.0806 20.161-4.4843 32.397-26.605 32.397-26.605s-26.134-10.48-45.944-2.5243c-8.291 3.3261-17.297 12.039-23.385 18.703 8.7354-18.531 18.735-35.862 29.648-51.68 5.4042 2.6922 18.668 8.1356 36.413 7.3353 18.734-0.83825 33.184-18.686 33.184-18.686s-21.726-13.491-40.701-9.5052c-7.4719 1.5701-16.253 7.3073-22.689 12.151 11.935-16.165 24.828-30.526 38.302-42.654 4.1131 3.0725 14.661 9.8504 30.262 11.878 16.238 2.1263 31.377-11.031 31.377-11.031s-16.632-14.897-33.555-14.338c-7.0471 0.2268-16.059 4.2226-22.399 7.5254 11.77-12.107 27.696-21.753 39.227-27.785 2.8052 1.2497 16.883 7.022 29.428 1.8154 17.408-7.2158 25.455-19.762 25.455-19.762s-18.814-5.876-29.618-3.3413c-14.519 3.4336-25.148 19.007-26.047 20.355-10.788 4.8244-25.304 12.505-37.692 22.862 4.0559-5.9535 9.6546-15.29 10.681-22.754 2.3364-16.775-10.728-34.891-10.728-34.891z" fill="#eca620"/>
              <path d="m254.5 246.03s-14.688 13.662-14.282 30.037c0.42264 17.6 7.2113 29.174 9.1853 32.215-0.88862 0.84845-1.7947 1.6841-2.6454 2.5632-13.135 11.266-25.791 24.647-37.64 39.719 3.277-7.5038 7.1404-18.107 6.8425-26.164-0.71524-19.38-19.062-37.212-19.062-37.212s-13.834 18.325-10.128 36.715c3.7382 18.536 13.038 30.342 16.529 34.264-10.716 14.481-20.668 30.39-29.587 47.426 1.7756-8.2992 3.1705-18.52 1.5604-26.026-4.4871-20.881-27.772-36.707-27.772-36.707s-11.513 22.524-3.9853 41.751c7.2548 18.528 18.909 29.463 23.899 33.534-7.4147 15.509-13.935 31.86-19.425 48.822 0.35502-8.7593 4e-3 -19.558-3.0128-26.981-8.2024-20.189-34.424-31.965-34.424-31.965s-7.5576 24.67 3.4277 42.654c10.615 17.401 24.306 26.327 29.994 29.501-4.5348 15.878-8.1612 32.223-10.668 48.918-1.2778-8.3303-3.4885-17.792-7.4303-24.072-11.818-18.828-40.242-26.021-40.242-26.021s-3.2346 26.132 10.979 42.265c13.172 14.942 27.868 21.599 34.61 24.055-1.6455 15.538-2.3236 31.312-1.9235 47.202-2.7036-7.5476-6.3206-15.559-10.936-20.67-15.232-16.828-45.058-19.019-45.058-19.019s1.3671 26.834 18.513 40.528c15.519 12.388 31.022 16.543 38.457 17.917 1.205 15.172 3.4192 30.407 6.7647 45.598-4.0945-7.2287-9.2486-14.839-14.904-19.239-18.283-14.219-48.658-11.13-48.658-11.13s6.1516 26.716 25.81 37.441c18.004 9.824 34.565 11.172 42.157 11.2 3.5209 14.494 8.0036 28.557 13.326 42.149-5.2088-6.1814-11.366-12.365-17.463-15.596-20.9-11.038-50.867-2.5589-50.867-2.5589s10.906 25.769 32.553 33.058c19.432 6.5442 35.944 5.1612 43.791 3.8643 6.4131 13.859 13.69 27.178 21.699 39.905-6.5272-5.5437-14.171-11.044-21.18-13.305-22.956-7.4029-51.554 6.4362-51.554 6.4362s15.516 23.952 38.565 27.443c21.105 3.1945 37.76-1.3691 45.205-4.0459 9.0152 12.754 18.774 24.812 29.073 36.184-7.7376-4.606-16.792-9.0742-24.53-10.145-24.369-3.3695-50.681 15.608-50.681 15.608s19.85 21.322 43.636 20.744c21.951-0.5334 37.984-8.2013 44.898-12.185 10.934 10.95 22.363 21.144 34.139 30.508-8.4958-3.1918-18.266-5.9528-26.103-5.6625-25.08 0.93227-48.14 24.651-48.14 24.651s23.714 17.917 47.513 13.123c21.768-4.3925 36.424-14.777 42.758-20.048 11.843 8.4767 23.922 16.165 36.097 22.957-8.3549-1.3865-17.366-2.0832-24.392-0.57487-25.036 5.3778-44.016 33.305-44.016 33.305s27.011 13.808 50.072 4.7677c20.352-7.9709 32.993-20.324 38.751-26.959 13.092 6.2228 26.175 11.433 39.045 15.531-8.457 0.12465-17.36 1.049-23.985 3.7433-24.206 9.8456-38.336 41.275-38.336 41.275s29.581 9.0762 51.17-4.0891c19.661-12.005 30.293-27.317 34.645-34.761 30.313 5.4368 55.619 13.867 76.279 23.13-38.133 19.944-53.707 38.457-53.707 38.457l13.382 11.943s17.76-21.601 56.91-42.326c39.15 20.725 56.91 42.326 56.91 42.326l13.382-11.943s-15.573-18.513-53.707-38.457c20.66-9.2623 45.966-17.693 76.279-23.13 4.3513 7.4447 14.983 22.756 34.645 34.761 21.589 13.165 51.17 4.0891 51.17 4.0891s-14.126-31.43-38.332-41.275c-6.6259-2.6944-15.533-3.6188-23.99-3.7433 12.87-4.0977 25.953-9.3079 39.045-15.531 5.7581 6.6353 18.399 18.988 38.751 26.959 23.061 9.0406 50.072-4.7677 50.072-4.7677s-18.98-27.927-44.016-33.305c-7.0256-1.5082-16.033-0.81152-24.387 0.57487 12.175-6.7914 24.25-14.48 36.093-22.957 6.3343 5.2703 20.994 15.655 42.762 20.048 23.799 4.7941 47.513-13.123 47.513-13.123s-23.064-23.719-48.144-24.651c-7.8401-0.2904-17.61 2.4736-26.108 5.6668 11.778-9.3656 23.212-19.561 34.148-30.512 6.915 3.9842 22.949 11.652 44.898 12.185 23.785 0.57818 43.631-20.744 43.631-20.744s-26.312-18.978-50.681-15.608c-7.7389 1.0708-16.792 5.5425-24.53 10.149 10.3-11.373 20.061-23.433 29.077-36.188 7.4464 2.677 24.098 7.2399 45.2 4.0459 23.05-3.4912 38.57-27.443 38.57-27.443s-28.603-13.839-51.559-6.4362c-7.0097 2.2602-14.653 7.7609-21.18 13.305 8.0088-12.727 15.286-26.046 21.699-39.905 7.8462 1.2971 24.357 2.6807 43.791-3.8643 21.647-7.2894 32.553-33.058 32.553-33.058s-29.967-8.479-50.867 2.5589c-6.0974 3.2302-12.254 9.4139-17.463 15.596 5.3226-13.592 9.8053-27.654 13.326-42.149 7.5908-0.0274 24.15-1.3741 42.157-11.2 19.658-10.725 25.81-37.441 25.81-37.441s-30.375-3.0889-48.658 11.13c-5.6573 4.4024-10.809 12.017-14.904 19.248 3.3465-15.193 5.5595-30.431 6.7647-45.607 7.4352-1.3734 22.942-5.5291 38.461-17.917 17.146-13.694 18.509-40.528 18.509-40.528s-29.826 2.191-45.058 19.019c-4.6153 5.1108-8.2323 13.123-10.936 20.67 0.40008-15.89-0.27797-31.664-1.9235-47.202 6.7423-2.4557 21.439-9.113 34.61-24.055 14.214-16.134 10.979-42.265 10.979-42.265s-28.424 7.1933-40.242 26.021c-3.9425 6.2811-6.1527 15.745-7.4304 24.076-2.5067-16.696-6.1327-33.042-10.668-48.922 5.6873-3.1738 19.382-12.099 29.998-29.501 10.985-17.984 3.4234-42.654 3.4234-42.654s-26.222 11.776-34.424 31.965c-3.0173 7.4226-3.3678 18.222-3.0128 26.981-5.4903-16.961-12.011-33.311-19.425-48.818 4.9874-4.0678 16.642-15.003 23.899-33.538 7.5274-19.226-3.9853-41.751-3.9853-41.751s-23.281 15.826-27.768 36.707c-1.61 7.5057-0.21512 17.726 1.5604 26.026-8.9192-17.037-18.876-32.945-29.592-47.426 3.4914-3.922 12.791-15.729 16.529-34.264 3.7068-18.39-10.128-36.715-10.128-36.715s-18.347 17.833-19.062 37.212c-0.29802 8.06 3.5691 18.668 6.8468 26.173-11.85-15.075-24.507-28.46-37.645-39.728-0.85104-0.87958-1.7563-1.7144-2.6454-2.5632 1.9728-3.0393 8.7626-14.613 9.1853-32.215 0.40656-16.375-14.281-30.037-14.281-30.037s-13.065 18.112-10.728 34.887c1.0263 7.464 6.625 16.804 10.681 22.758-12.39-10.358-26.908-18.041-37.696-22.866-0.90735-1.3591-11.53-16.922-26.043-20.355-10.804-2.5348-29.618 3.3456-29.618 3.3456s8.0473 12.547 25.455 19.762c12.545 5.207 26.624-0.5708 29.427-1.8198 11.532 6.0323 27.456 15.686 39.227 27.794-6.3399-3.303-15.351-7.3073-22.399-7.5341-16.923-0.55953-33.56 14.338-33.56 14.338s15.143 13.157 31.381 11.031c15.6-2.0278 26.148-8.8013 30.262-11.874 13.472 12.128 26.367 26.486 38.302 42.65-6.4352-4.8432-15.217-10.576-22.689-12.146-18.975-3.9862-40.701 9.5008-40.701 9.5008s14.45 17.852 33.184 18.69c17.744 0.8003 31.008-4.6474 36.413-7.3396 10.913 15.818 20.912 33.152 29.648 51.684-6.0872-6.6644-15.094-15.377-23.385-18.703-19.81-7.9561-45.948 2.5243-45.948 2.5243s12.24 22.116 32.401 26.601c19.444 4.3457 35.022 0.78572 41.167-1.0763 6.9543 15.83 13.017 32.416 17.938 49.605-4.9165-7.498-11.834-16.62-18.967-21.051-18.504-11.503-46.627-5.6063-46.627-5.6063s8.3925 24.396 27.854 32.479c18.163 7.5588 34.085 7.0311 40.994 6.2806 4.284 17.015 7.4582 34.533 9.3538 52.354-3.6109-8.478-9.0226-19.133-15.531-24.954-16.537-14.842-45.849-13.897-45.849-13.897s4.0972 26.004 22.239 37.575c17.03 10.887 33.243 13.137 40.238 13.586 1.2521 17.336 1.2649 34.914-0.12112 52.561-2.1186-9.1902-5.6778-20.982-11.23-28.04-14.017-17.852-43.627-22.092-43.627-22.092s-0.46752 26.859 15.699 41.703c15.117 13.902 30.962 19.058 37.956 20.77-1.8268 15.765-4.796 31.551-9.0297 47.236-0.64957-9.122-2.2679-20.05-6.1552-27.314-10.919-20.416-39.931-29.929-39.931-29.929s-5.2368 26.909 8.3683 44.677c12.427 16.245 26.923 24.189 33.875 27.322-4.4419 15.705-10.047 30.839-16.616 45.364 1.0137-9.3911 1.4048-20.942-1.2665-29.103-7.3641-22.449-34.822-37.147-34.822-37.147s-10.039 26.108 0.49275 46.38c9.5662 18.456 22.657 28.992 29.112 33.4-6.9768 13.759-14.825 26.926-23.393 39.443 2.3806-8.78 4.3273-19.054 3.19-26.972-3.4026-23.857-28.39-43.493-28.39-43.493s-14.718 24.457-7.7416 46.696c6.1093 19.48 16.761 32.098 22.65 37.999-9.0144 11.898-18.672 23.136-28.818 33.689 3.6416-8.0226 6.9485-17.183 7.197-24.781 0.78288-24.577-20.839-48.736-20.839-48.736s-19.121 21.968-16.036 45.555c2.6295 20.273 10.825 34.667 15.738 41.794-10.686 10.043-21.814 19.315-33.201 27.845 4.8993-7.2508 9.5692-15.61 11.104-22.952 5.1648-24.557-12.306-52.674-12.306-52.674s-23.097 18.698-24.184 42.94c-0.93741 20.786 4.7142 36.671 8.3899 44.725-12.714 8.484-25.65 16.009-38.613 22.507 6.6345-6.6839 13.494-14.834 16.538-22.438 9.5247-23.777-3.0301-55.12-3.0301-55.12s-26.546 14.692-31.922 38.868c-4.7267 21.16-1.63 38.42 0.65701 46.981-13.61 5.839-27.131 10.492-40.329 13.931 7.469-5.3873 15.161-11.991 19.334-18.712 13.793-22.198 6.7085-55.929 6.7085-55.929s-29.264 10.06-38.954 33.4c-7.9131 19.041-8.4115 35.911-7.8151 45.429-19.146 3.6405-36.54 8.5258-52.09 14.074-10.453 3.7069-19.853 7.575-28.472 11.472-8.6193-3.8967-18.019-7.7652-28.472-11.472-15.551-5.5485-32.944-10.433-52.09-14.074 0.59644-9.5183 0.10244-26.388-7.8107-45.429-9.6907-23.34-38.959-33.4-38.959-33.4s-7.0847 33.731 6.7085 55.929c4.1729 6.7208 11.866 13.325 19.334 18.712-13.198-3.4398-26.718-8.0924-40.329-13.931 2.287-8.5611 5.3837-25.821 0.65701-46.981-5.3751-24.175-31.917-38.868-31.917-38.868s-12.555 31.343-3.03 55.12c3.0443 7.6045 9.899 15.754 16.533 22.438-12.964-6.4986-25.899-14.023-38.613-22.507 3.6757-8.0534 9.3317-23.938 8.3943-44.725-1.0872-24.242-24.184-42.94-24.184-42.94s-17.475 28.117-12.31 52.674c1.5352 7.3419 6.2055 15.702 11.104 22.952-11.386-8.5298-22.511-17.803-33.197-27.845 4.9133-7.127 13.109-21.522 15.738-41.794 3.0845-23.586-16.036-45.555-16.036-45.555s-21.626 24.159-20.843 48.736c0.24847 7.5993 3.5588 16.761 7.2013 24.785-10.148-10.554-19.807-21.794-28.822-33.694 5.8886-5.9004 16.54-18.518 22.65-37.999 6.9768-22.239-7.7372-46.696-7.7372-46.696s-24.992 19.635-28.394 43.493c-1.1375 7.92 0.81314 18.196 3.1943 26.977-8.5709-12.52-16.419-25.689-23.398-39.451 6.4556-4.4083 19.546-14.941 29.112-33.396 10.532-20.272 0.49274-46.38 0.49274-46.38s-27.458 14.698-34.822 37.147c-2.6713 8.1608-2.2801 19.712-1.2665 29.103-6.5687-14.526-12.174-29.659-16.616-45.364 6.9517-3.1332 21.448-11.077 33.875-27.322 13.605-17.769 8.3683-44.677 8.3683-44.677s-29.012 9.5129-39.931 29.929c-3.8868 7.2623-5.5054 18.188-6.1552 27.309-4.2331-15.684-7.2031-31.468-9.0297-47.232 6.9939-1.712 22.839-6.8677 37.956-20.77 16.167-14.844 15.699-41.703 15.699-41.703s-29.605 4.2407-43.622 22.092c-5.5547 7.0616-9.1159 18.861-11.234 28.053-1.387-17.652-1.3691-35.234-0.11662-52.574 6.995-0.44907 23.204-2.6986 40.234-13.586 18.142-11.572 22.244-37.575 22.244-37.575s-29.315-0.94489-45.853 13.897c-6.5067 5.8198-11.915 16.472-15.526 24.949 1.8957-17.82 5.066-35.336 9.3495-52.35 6.9092 0.75054 22.832 1.2782 40.994-6.2806 19.462-8.0834 27.854-32.479 27.854-32.479s-28.122-5.8964-46.627 5.6063c-7.1328 4.4308-14.051 13.552-18.967 21.051 4.9216-17.188 10.984-33.775 17.938-49.605 6.1453 1.862 21.724 5.422 41.167 1.0763 20.161-4.4843 32.401-26.601 32.401-26.601s-26.134-10.48-45.944-2.5243c-8.2874 3.3247-17.293 12.031-23.38 18.695 8.7345-18.528 18.728-35.86 29.639-51.675 5.4042 2.6922 18.668 8.1399 36.413 7.3396 18.734-0.83826 33.188-18.69 33.188-18.69s-21.73-13.487-40.705-9.5008c-7.4732 1.5704-16.253 7.3067-22.689 12.15 11.936-16.165 24.828-30.526 38.302-42.654 4.1133 3.0726 14.666 9.8461 30.266 11.874 16.238 2.1263 31.377-11.031 31.377-11.031s-16.636-14.897-33.56-14.338c-7.0508 0.22694-16.063 4.2346-22.403 7.5384 11.771-12.11 27.698-21.765 39.231-27.798 2.8033 1.249 16.882 7.0268 29.427 1.8198 17.408-7.2158 25.455-19.762 25.455-19.762s-18.814-5.8804-29.618-3.3456c-14.513 3.4323-25.136 18.996-26.043 20.355-10.788 4.8247-25.307 12.508-37.696 22.866 4.0559-5.9535 9.6589-15.294 10.685-22.758 2.3364-16.775-10.733-34.887-10.733-34.887z" fill="url(#linearGradient14543-8)"/>
              <path d="m254.5 246.03s-14.688 13.662-14.282 30.037c0.42264 17.6 7.2113 29.174 9.1853 32.215-0.88862 0.84847-1.7947 1.6841-2.6454 2.5633-13.135 11.266-25.791 24.647-37.64 39.719 3.277-7.5038 7.1404-18.107 6.8425-26.164-0.71524-19.38-19.062-37.212-19.062-37.212s-13.834 18.325-10.128 36.715c3.7382 18.536 13.038 30.342 16.529 34.264-10.716 14.481-20.668 30.39-29.587 47.426 1.7756-8.2992 3.1705-18.52 1.5604-26.026-4.4871-20.881-27.772-36.707-27.772-36.707s-11.513 22.524-3.9853 41.751c7.2548 18.528 18.909 29.463 23.899 33.534-7.4147 15.509-13.935 31.86-19.425 48.822 0.35502-8.7593 4e-3 -19.558-3.0128-26.981-8.2024-20.189-34.424-31.965-34.424-31.965s-7.5576 24.67 3.4277 42.654c10.615 17.401 24.306 26.327 29.994 29.501-4.5348 15.878-8.1612 32.223-10.668 48.918-1.2778-8.3303-3.4885-17.792-7.4303-24.072-11.818-18.828-40.242-26.021-40.242-26.021s-3.2346 26.132 10.979 42.265c13.172 14.942 27.868 21.599 34.61 24.055-1.6455 15.538-2.3236 31.312-1.9235 47.202-2.7036-7.5476-6.3206-15.559-10.936-20.67-15.232-16.828-45.058-19.019-45.058-19.019s1.3671 26.834 18.513 40.528c15.519 12.388 31.022 16.543 38.457 17.917 1.205 15.172 3.4192 30.407 6.7647 45.598-4.0945-7.2287-9.2486-14.839-14.904-19.239-18.283-14.219-48.658-11.13-48.658-11.13s6.1516 26.716 25.81 37.441c18.004 9.824 34.565 11.172 42.157 11.2 3.5209 14.494 8.0036 28.557 13.326 42.149-5.2088-6.1814-11.366-12.365-17.463-15.596-20.9-11.038-50.867-2.5589-50.867-2.5589s10.906 25.769 32.553 33.058c19.432 6.5442 35.944 5.1612 43.791 3.8643 6.4131 13.859 13.69 27.178 21.699 39.905-6.5272-5.5437-14.171-11.044-21.18-13.305-22.956-7.4029-51.554 6.4362-51.554 6.4362s15.516 23.952 38.565 27.443c21.105 3.1945 37.76-1.3691 45.205-4.0459 9.0152 12.754 18.774 24.812 29.073 36.184-7.7376-4.606-16.792-9.0742-24.53-10.145-24.369-3.3695-50.681 15.608-50.681 15.608s19.85 21.322 43.636 20.744c21.951-0.5334 37.984-8.2013 44.898-12.185 10.934 10.95 22.363 21.144 34.139 30.508-8.4958-3.1918-18.266-5.9528-26.103-5.6625-25.08 0.93227-48.14 24.651-48.14 24.651s23.714 17.917 47.513 13.123c21.768-4.3926 36.424-14.777 42.758-20.048 11.843 8.4767 23.922 16.165 36.097 22.957-8.3549-1.3865-17.366-2.0832-24.392-0.57487-25.036 5.3778-44.016 33.305-44.016 33.305s27.011 13.808 50.072 4.7677c20.352-7.9709 32.993-20.324 38.751-26.959 13.092 6.2228 26.175 11.433 39.045 15.531-8.457 0.12465-17.36 1.049-23.985 3.7433-24.206 9.8456-38.336 41.275-38.336 41.275s29.581 9.0762 51.17-4.0891c19.661-12.005 30.293-27.317 34.645-34.761 30.313 5.4368 55.619 13.867 76.279 23.13-38.133 19.944-53.707 38.457-53.707 38.457l13.382 11.943s17.76-21.601 56.91-42.326c39.15 20.725 56.91 42.326 56.91 42.326l13.382-11.943s-15.573-18.513-53.707-38.457c20.66-9.2623 45.966-17.693 76.279-23.13 4.3513 7.4447 14.983 22.756 34.645 34.761 21.589 13.165 51.17 4.0891 51.17 4.0891s-14.126-31.43-38.332-41.275c-6.6259-2.6944-15.533-3.6188-23.99-3.7433 12.87-4.0977 25.953-9.3079 39.045-15.531 5.7581 6.6353 18.399 18.988 38.751 26.959 23.061 9.0406 50.072-4.7677 50.072-4.7677s-18.98-27.927-44.016-33.305c-7.0256-1.5082-16.033-0.81152-24.387 0.57487 12.175-6.7914 24.25-14.48 36.093-22.957 6.3343 5.2703 20.994 15.655 42.762 20.048 23.799 4.7941 47.513-13.123 47.513-13.123s-23.064-23.719-48.144-24.651c-7.8401-0.2904-17.61 2.4736-26.108 5.6668 11.778-9.3656 23.212-19.561 34.148-30.512 6.915 3.9842 22.949 11.652 44.898 12.185 23.785 0.57818 43.631-20.744 43.631-20.744s-26.312-18.978-50.681-15.608c-7.7389 1.0708-16.792 5.5425-24.53 10.149 10.3-11.373 20.061-23.433 29.077-36.188 7.4464 2.677 24.098 7.2399 45.2 4.0459 23.05-3.4912 38.57-27.443 38.57-27.443s-28.603-13.839-51.559-6.4362c-7.0097 2.2602-14.653 7.7609-21.18 13.305 8.0088-12.727 15.286-26.046 21.699-39.905 7.8462 1.2971 24.357 2.6807 43.791-3.8643 21.647-7.2894 32.553-33.058 32.553-33.058s-29.967-8.479-50.867 2.5589c-6.0974 3.2302-12.254 9.4139-17.463 15.596 5.3226-13.592 9.8053-27.654 13.326-42.149 7.5908-0.0274 24.15-1.3741 42.157-11.2 19.658-10.725 25.81-37.441 25.81-37.441s-30.375-3.0889-48.658 11.13c-5.6573 4.4024-10.809 12.017-14.904 19.248 3.3465-15.193 5.5595-30.431 6.7647-45.607 7.4352-1.3734 22.942-5.5291 38.461-17.917 17.146-13.694 18.509-40.528 18.509-40.528s-29.826 2.191-45.058 19.019c-4.6153 5.1108-8.2323 13.122-10.936 20.67 0.40008-15.89-0.27797-31.664-1.9235-47.202 6.7423-2.4557 21.439-9.1131 34.61-24.055 14.214-16.134 10.979-42.265 10.979-42.265s-28.424 7.1933-40.242 26.021c-3.9425 6.281-6.1527 15.745-7.4304 24.076-2.5067-16.696-6.1327-33.042-10.668-48.922 5.6873-3.1737 19.382-12.099 29.998-29.501 10.985-17.984 3.4234-42.654 3.4234-42.654s-26.222 11.776-34.424 31.965c-3.0173 7.4226-3.3678 18.222-3.0128 26.981-5.4903-16.961-12.011-33.311-19.425-48.818 4.9874-4.0678 16.642-15.003 23.899-33.538 7.5274-19.226-3.9853-41.751-3.9853-41.751s-23.281 15.826-27.768 36.707c-1.61 7.5057-0.21512 17.726 1.5604 26.026-8.9192-17.037-18.876-32.945-29.592-47.426 3.4914-3.922 12.791-15.729 16.529-34.264 3.7068-18.39-10.128-36.715-10.128-36.715s-18.347 17.833-19.062 37.212c-0.29802 8.06 3.5691 18.668 6.8468 26.173-11.85-15.075-24.507-28.46-37.645-39.728-0.85104-0.8796-1.7563-1.7144-2.6454-2.5633 1.9728-3.0393 8.7626-14.613 9.1853-32.215 0.40656-16.375-14.281-30.037-14.281-30.037s-13.065 18.112-10.728 34.887c1.0263 7.464 6.625 16.804 10.681 22.758-12.39-10.358-26.908-18.041-37.696-22.866-0.90735-1.3592-11.53-16.922-26.043-20.355-10.804-2.5348-29.618 3.3456-29.618 3.3456s8.0473 12.547 25.455 19.762c12.545 5.207 26.624-0.5708 29.427-1.8198 11.532 6.0323 27.456 15.686 39.227 27.794-6.3399-3.303-15.351-7.3073-22.399-7.5341-16.923-0.55954-33.56 14.338-33.56 14.338s15.143 13.157 31.381 11.031c15.6-2.0277 26.148-8.8012 30.262-11.874 13.472 12.128 26.367 26.486 38.302 42.65-6.4352-4.8432-15.217-10.576-22.689-12.146-18.975-3.9862-40.701 9.5008-40.701 9.5008s14.45 17.852 33.184 18.69c17.744 0.80031 31.008-4.6474 36.413-7.3396 10.913 15.818 20.912 33.152 29.648 51.684-6.0872-6.6644-15.094-15.377-23.385-18.703-19.81-7.9562-45.948 2.5243-45.948 2.5243s12.24 22.116 32.401 26.601c19.444 4.3457 35.022 0.78571 41.167-1.0763 6.9543 15.83 13.017 32.416 17.938 49.605-4.9165-7.498-11.834-16.62-18.967-21.051-18.504-11.503-46.627-5.6062-46.627-5.6062s8.3925 24.396 27.854 32.479c18.163 7.5588 34.085 7.0311 40.994 6.2806 4.284 17.015 7.4582 34.533 9.3538 52.354-3.6109-8.478-9.0226-19.133-15.531-24.954-16.537-14.842-45.849-13.897-45.849-13.897s4.0972 26.004 22.239 37.575c17.03 10.887 33.243 13.137 40.238 13.586 1.2521 17.336 1.2649 34.914-0.12112 52.561-2.1186-9.1902-5.6778-20.982-11.23-28.04-14.017-17.852-43.627-22.092-43.627-22.092s-0.46752 26.859 15.699 41.703c15.117 13.902 30.962 19.058 37.956 20.77-1.8268 15.765-4.796 31.551-9.0297 47.236-0.64957-9.122-2.2678-20.05-6.1552-27.314-10.919-20.416-39.931-29.929-39.931-29.929s-5.2368 26.909 8.3683 44.677c12.427 16.245 26.923 24.189 33.875 27.322-4.4419 15.705-10.047 30.839-16.616 45.364 1.0137-9.3911 1.4048-20.942-1.2665-29.103-7.3641-22.449-34.822-37.147-34.822-37.147s-10.039 26.108 0.49277 46.38c9.5662 18.456 22.657 28.992 29.112 33.4-6.9768 13.759-14.825 26.926-23.393 39.443 2.3807-8.78 4.3273-19.054 3.19-26.972-3.4026-23.857-28.39-43.493-28.39-43.493s-14.718 24.457-7.7416 46.696c6.1093 19.48 16.761 32.098 22.65 37.999-9.0144 11.898-18.672 23.136-28.818 33.689 3.6416-8.0226 6.9485-17.183 7.1969-24.781 0.78288-24.577-20.839-48.736-20.839-48.736s-19.121 21.968-16.036 45.555c2.6295 20.273 10.825 34.667 15.738 41.794-10.686 10.043-21.814 19.315-33.201 27.845 4.8993-7.2508 9.5692-15.61 11.104-22.952 5.1648-24.557-12.306-52.674-12.306-52.674s-23.097 18.698-24.184 42.94c-0.93741 20.786 4.7142 36.671 8.39 44.725-12.714 8.484-25.65 16.009-38.613 22.507 6.6345-6.6839 13.494-14.834 16.538-22.438 9.5247-23.777-3.0301-55.12-3.0301-55.12s-26.546 14.692-31.922 38.868c-4.7267 21.16-1.63 38.42 0.65701 46.981-13.61 5.839-27.131 10.492-40.329 13.931 7.469-5.3873 15.161-11.991 19.334-18.712 13.793-22.198 6.7085-55.929 6.7085-55.929s-29.264 10.06-38.954 33.4c-7.9131 19.041-8.4115 35.911-7.8151 45.429-19.146 3.6405-36.54 8.5258-52.09 14.074-10.453 3.7069-19.853 7.575-28.472 11.472-8.6193-3.8967-18.019-7.7652-28.472-11.472-15.551-5.5485-32.944-10.433-52.09-14.074 0.59644-9.5183 0.10244-26.388-7.8107-45.429-9.6907-23.34-38.959-33.4-38.959-33.4s-7.0847 33.731 6.7085 55.929c4.1729 6.7208 11.866 13.325 19.334 18.712-13.198-3.4398-26.718-8.0924-40.329-13.931 2.287-8.5611 5.3837-25.821 0.65701-46.981-5.3751-24.176-31.917-38.868-31.917-38.868s-12.555 31.343-3.03 55.12c3.0443 7.6045 9.899 15.754 16.533 22.438-12.964-6.4985-25.899-14.023-38.613-22.507 3.6757-8.0534 9.3317-23.938 8.3943-44.725-1.0872-24.242-24.184-42.94-24.184-42.94s-17.475 28.117-12.31 52.674c1.5352 7.3419 6.2055 15.702 11.104 22.952-11.386-8.5298-22.511-17.803-33.197-27.845 4.9133-7.127 13.109-21.522 15.738-41.794 3.0845-23.586-16.036-45.555-16.036-45.555s-21.626 24.159-20.843 48.736c0.24847 7.5993 3.5588 16.761 7.2013 24.785-10.148-10.554-19.807-21.794-28.822-33.694 5.8886-5.9004 16.54-18.518 22.65-37.999 6.9768-22.239-7.7372-46.696-7.7372-46.696s-24.992 19.635-28.394 43.493c-1.1375 7.92 0.81314 18.196 3.1943 26.977-8.5709-12.52-16.419-25.689-23.398-39.451 6.4556-4.4083 19.546-14.941 29.112-33.396 10.532-20.272 0.49274-46.38 0.49274-46.38s-27.458 14.698-34.822 37.147c-2.6713 8.1608-2.2801 19.712-1.2665 29.103-6.5687-14.526-12.174-29.659-16.616-45.364 6.9517-3.1332 21.448-11.077 33.875-27.322 13.605-17.769 8.3683-44.677 8.3683-44.677s-29.012 9.5129-39.931 29.929c-3.8868 7.2623-5.5054 18.188-6.1552 27.309-4.2331-15.684-7.2031-31.468-9.0297-47.232 6.9939-1.7119 22.839-6.8677 37.956-20.77 16.167-14.844 15.699-41.703 15.699-41.703s-29.605 4.2407-43.622 22.092c-5.5547 7.0616-9.1159 18.861-11.234 28.053-1.387-17.652-1.3691-35.234-0.11662-52.574 6.995-0.44908 23.204-2.6986 40.234-13.586 18.142-11.572 22.244-37.575 22.244-37.575s-29.315-0.94489-45.853 13.897c-6.5067 5.8198-11.915 16.472-15.526 24.949 1.8957-17.82 5.066-35.336 9.3495-52.35 6.9092 0.75053 22.832 1.2782 40.994-6.2806 19.462-8.0834 27.854-32.479 27.854-32.479s-28.122-5.8964-46.627 5.6062c-7.1328 4.4309-14.051 13.553-18.967 21.051 4.9216-17.188 10.984-33.775 17.938-49.605 6.1453 1.862 21.724 5.422 41.167 1.0763 20.161-4.4843 32.401-26.601 32.401-26.601s-26.134-10.48-45.944-2.5243c-8.2874 3.3247-17.293 12.031-23.38 18.695 8.7345-18.528 18.728-35.86 29.639-51.675 5.4042 2.6922 18.668 8.1399 36.413 7.3396 18.734-0.83826 33.188-18.69 33.188-18.69s-21.73-13.487-40.705-9.5008c-7.4732 1.5704-16.253 7.3068-22.689 12.15 11.936-16.165 24.828-30.526 38.302-42.654 4.1133 3.0726 14.666 9.8461 30.266 11.874 16.238 2.1263 31.377-11.031 31.377-11.031s-16.636-14.897-33.56-14.338c-7.0508 0.22694-16.063 4.2346-22.403 7.5384 11.771-12.11 27.698-21.765 39.231-27.798 2.8033 1.249 16.882 7.0268 29.427 1.8198 17.408-7.2158 25.455-19.762 25.455-19.762s-18.814-5.8804-29.618-3.3456c-14.513 3.4323-25.136 18.996-26.043 20.355-10.788 4.8247-25.307 12.508-37.696 22.866 4.0559-5.9535 9.6589-15.294 10.685-22.758 2.3364-16.775-10.733-34.887-10.733-34.887z" fill="url(#linearGradient14545-2)"/>
            </g>
            <g fill="#eca620">
              <text x="515.53809" y="707.95923" font-family="'Caviar Dreams'" font-size="62.514px" letter-spacing="0px" stroke-width=".5976px" text-anchor="middle" word-spacing="0px" style="line-height:125%" xml:space="preserve"><tspan x="515.53809" y="707.95923" text-align="center">Cosméticos</tspan><tspan x="515.53809" y="786.10223" text-align="center">Artesanais</tspan></text>
              <path d="m267.36 624.12v4.4247h235.12c-0.0902-0.6311-0.15185-1.2707-0.15185-1.926 0-0.85404 0.0884-1.6874 0.23977-2.4987zm262.01 0c0.15151 0.8113 0.23975 1.6447 0.23975 2.4987 0 0.65525-0.0616 1.2949-0.15182 1.926h235.12v-4.4247z" color="#000000" color-rendering="auto" fill-rule="evenodd" image-rendering="auto" shape-rendering="auto" solid-color="#000000" style="isolation:auto;mix-blend-mode:normal;text-decoration-color:#000000;text-decoration-line:none;text-decoration-style:solid;text-indent:0;text-transform:none;white-space:normal"/>
              <circle cx="515.97" cy="626.62" r="10.986" fill-rule="evenodd"/>
              <text x="340.7785" y="480.68457" font-family="sans-serif" font-size="226.46px" letter-spacing="0px" stroke-width=".5976px" word-spacing="0px" style="line-height:125%" xml:space="preserve"><tspan x="340.7785" y="480.68457" fill="#eca620" font-family="'Crimson Text'" stroke-width=".5976px">L<tspan fill="#eca620" font-size="150.97px" stroke-width=".5976px">e</tspan></tspan></text>
              <text x="381.92755" y="574.73944" font-family="sans-serif" font-size="226.46px" letter-spacing="0px" stroke-width=".5976px" word-spacing="0px" style="line-height:125%" xml:space="preserve"><tspan x="381.92755" y="574.73944" fill="#eca620" font-family="'Crimson Text'" stroke-width=".5976px">L<tspan fill="#eca620" font-size="150.97px" stroke-width=".5976px">uxe</tspan></tspan></text>
            </g>
          </g>
        </g>
      </g>
    </g>
  </g>
</svg>
