<svg width="300" height="320" version="1.1" viewBox="0 0 79.374998 84.666669" xmlns="http://www.w3.org/2000/svg">
  <defs>
    <filter id="filter22467" x="-.02655" y="-.02398" width="1.0531" height="1.048" color-interpolation-filters="sRGB">
      <feGaussianBlur stdDeviation="2.9365748"/>
    </filter>
  </defs>
  <g transform="translate(0 -212.33)">
    <g id="engep" transform="matrix(.43149 0 0 .43149 -128.85 63.108)" stroke-width=".65407">
      <g transform="matrix(.85995 0 0 .85995 1357.4 1568.5)" stroke-width=".65407">
        <g transform="matrix(.33448 0 0 .33448 -886.43 -1428.5)">
          <g id="sebio" transform="matrix(2.7908 0 0 2.7908 -991.51 -1542.3)" stroke-width=".53292">
            <rect x="27.287" y="604.95" width="150.24" height="150.24" rx="34.134" ry="34.134" fill="#b3b3b3"/>
            <path transform="matrix(.42837 0 0 .42837 -70.887 457.8)" d="m409.21 374.42c-10.575 0-19.311 7.8359-20.729 18.021-11.405 8.004-21.387 22.511-28.947 41.381-6.8768-1.0257-13.51-1.5586-19.801-1.5586-10.37 0-19.471 1.497-27.035 4.3476-3.78-3.7189-8.9625-6.0195-14.686-6.0195-11.564 0-20.934 9.3676-20.934 20.934 0 7.9485 4.4338 14.868 10.965 18.412-0.17045 14.087 6.6972 30.434 19.188 47.02-1.1034 1.3008-2.1783 2.6048-3.2129 3.9141-11.384 14.401-17.687 28.22-18.664 40.438-5.6994 3.7399-9.4688 10.178-9.4688 17.508 0 11.556 9.3698 20.934 20.934 20.934 3.7842 0 7.325-1.0177 10.389-2.7734 9.1237 4.2072 20.819 6.418 34.615 6.418 5.2713 0 10.733-0.31787 16.34-0.93164 7.6613 20.486 18.092 36.251 30.115 44.783-2.9e-4 0.0458-4e-3 0.0909-4e-3 0.13672 0 11.566 9.372 20.934 20.938 20.934 11.564 0 20.934-9.3681 20.934-20.934 0-0.1578-8e-3 -0.31375-0.0117-0.47071 11.132-8.0979 20.885-22.394 28.299-40.902 6.8714 1.0243 13.499 1.5547 19.785 1.5547 10.966 0 20.513-1.6758 28.326-4.8555 3.631 3.0294 8.2995 4.8555 13.398 4.8555 11.566 0 20.939-9.378 20.939-20.934 0-7.9973-4.4832-14.94-11.072-18.465-0.3947-12.117-5.8204-26.074-16.135-40.898-1.0237-1.4714-2.0896-2.9416-3.1934-4.4082 16.125-19.053 24.296-38.266 21.672-54.01 5.5422-3.7671 9.1836-10.122 9.1836-17.324 0-11.566-9.3698-20.934-20.934-20.934-7.2809 0-13.688 3.7172-17.439 9.3535-7.6874-2.3086-16.69-3.5137-26.836-3.5137-5.2732 0-10.735 0.31699-16.344 0.93165-7.593-20.296-17.904-35.959-29.791-44.541-1.2503-10.37-10.075-18.402-20.783-18.402zm1.9668 6.4883c2.762 0 5.0039 2.2586 5.0039 5.043 0 0.10868-0.0174 0.21421-0.0254 0.32031 0.0546 0.0176 0.10426 0.0455 0.15821 0.0644 8e-3 3e-3 0.0154 7e-3 0.0234 0.01 0.30883 0.1099 0.60895 0.24155 0.89454 0.39453 0.2922 0.15652 0.57039 0.33372 0.83398 0.53125 7.2e-4 5.4e-4 1e-3 1e-3 2e-3 2e-3 6e-3 5e-3 0.0113 0.0109 0.0176 0.0156 0.25723 0.19436 0.50096 0.4071 0.72656 0.63672 0.23045 0.23455 0.44355 0.48667 0.63672 0.7539 5.4e-4 7.5e-4 1e-3 1e-3 2e-3 2e-3 7e-3 0.0104 0.0121 0.0228 0.0195 0.0332 0.18241 0.25574 0.34953 0.52313 0.49414 0.80468 0.0432 0.0846 0.0717 0.17699 0.11132 0.26368 0.0987 0.21492 0.19815 0.42933 0.27344 0.65625 0.0669 0.20262 0.10906 0.41598 0.15625 0.62695 0.0283 0.1257 0.0689 0.2466 0.0899 0.375 0.0559 0.34511 0.0859 0.69921 0.0859 1.0606 0 0.36066-0.0322 0.71203-0.0879 1.0566-6.2e-4 4e-3 -1e-3 8e-3 -2e-3 0.0117-0.45044 2.7648-2.6157 4.9425-5.3633 5.3945-0.90571 1.2732-2.377 2.1074-4.0508 2.1074-0.52316 0-1.0266-0.0891-1.498-0.24219v9.3184h4c0.2743 0 0.5 0.22745 0.5 0.50391 0 0.27905-0.2257 0.50586-0.5 0.50586h-9.0039c-0.27602 0-0.5-0.22681-0.5-0.50586 0-0.27861 0.22398-0.50391 0.5-0.50391h4.002v-8.9316h-4e-3l4e-3 -2e-3v-0.0312h-2e-3c-0.6836 0.55723-1.5494 0.89844-2.5 0.89843-2.2091 0-4-1.8047-4-4.0332 0-0.23247 0.0247-0.45973 0.0645-0.67969-2.09-0.47685-3.7848-1.9674-4.5762-3.9277-0.0668-0.1654-0.12517-0.33466-0.17969-0.50586-0.0702-0.22634-0.13598-0.45512-0.18164-0.69141-0.0406-0.19943-0.0723-0.40152-0.0937-0.60742-0.022-0.21117-0.0352-0.42695-0.0352-0.64453 0-0.30012 0.0276-0.59345 0.0664-0.88281 0.0104-0.0773 0.0222-0.15403 0.0351-0.23047 0.0485-0.28473 0.10768-0.56504 0.19141-0.83594 4.3e-4 -1e-3 2e-3 -3e-3 2e-3 -4e-3 8e-4 -3e-3 1e-3 -5e-3 2e-3 -8e-3 0.0854-0.27429 0.19362-0.53744 0.3125-0.79492 0.0279-0.0605 0.0563-0.12025 0.0859-0.17969 0.12533-0.25106 0.2609-0.49714 0.41602-0.72851 1e-3 -2e-3 3e-3 -4e-3 4e-3 -6e-3s3e-3 -4e-3 4e-3 -6e-3c1.1692-1.737 3.1427-2.8789 5.3828-2.8789 0.92296 0 1.7983 0.20491 2.5957 0.55469 0.44165-2.3247 2.4698-4.084 4.9062-4.084zm-22.574 18.113c1.7355 9.8076 10.296 17.266 20.607 17.266 10.19 0 18.675-7.2812 20.551-16.916 9.6812 8.0298 18.154 21.482 24.631 38.676-13.828 1.9546-28.451 5.6611-43.312 10.98-15.824-6.7542-31.508-11.629-46.207-14.316 6.3889-15.833 14.517-28.222 23.73-35.689zm-48.869 38.818c5.6568 0 11.608 0.45291 17.773 1.3203-4.5643 12.632-8.0846 26.982-10.297 42.506-13.954 9.596-26.225 20.074-36.162 30.953-10.719-14.44-16.91-28.521-17.393-40.617 1.406 0.29788 2.8626 0.45703 4.3574 0.45703 11.566 0 20.941-9.378 20.941-20.934 0-3.7365-0.99031-7.2356-2.7051-10.271 6.6081-2.2387 14.503-3.4141 23.484-3.4141zm182.27 0.69922c0.62492 0.0289 1.2751 0.13035 1.9492 0.3164 5.3929 1.488 6.6725 6.9066 5.7715 10.172-0.70072 2.5398-3.6608 5.202-5.1562 7.0117-0.0903 0.1089-0.16512 0.21186-0.24414 0.31445-0.11229 0.14676-0.23596 0.29929-0.32031 0.43164-9e-3 0.0147-0.0163 0.0285-0.0254 0.043-0.12103 0.19531-0.21777 0.37786-0.26172 0.53711-0.31038 1.1253-0.37961 1.3751-0.47266 1.7129-0.0382 0.13862-0.19336 0.70312-0.19336 0.70312l-0.28906-0.0918c0.0796 0.12288 0.15088 0.25098 0.22851 0.375l-0.82421 2.9922c-0.14621 0.53049-0.75707 1.5255-3.0684 1.3008l-0.20508 0.73632c-0.10696 0.38773-0.50723 0.61478-0.89453 0.50782l-2.0645-0.57032c-0.3873-0.10696-0.61672-0.5068-0.50976-0.89453l0.20508-0.74023c-2.2319-1.083-2.207-2.4805-2.207-2.4805l1.0625-3.8457-0.0371-0.0117s0.79431-2.4598 0.63085-3.5527c-0.0596-0.39668-0.37912-1.2288-0.71679-2.2812-0.13399-0.4173-0.26775-0.87392-0.39258-1.3496-0.0351-0.13396-0.0629-0.27672-0.0957-0.41406-0.0849-0.35463-0.15886-0.71742-0.22071-1.0879-0.0553-0.33208-0.10864-0.66644-0.13672-1.0039l-6e-3 -0.0645c-8e-3 -0.10628-0.0107-0.21204-0.0156-0.31836-7e-3 -0.1603-0.0126-0.32065-0.0117-0.48047 5e-4 -0.0997 4e-3 -0.19952 8e-3 -0.29883 8e-3 -0.18558 0.0222-0.36951 0.043-0.55273 8e-3 -0.0737 0.0148-0.14757 0.0254-0.2207 0.0377-0.25916 0.0851-0.51701 0.1543-0.76758 0.81853-2.9666 3.9166-6.3295 8.291-6.127zm-223.54 0.25976c0.16-5e-3 0.32404 0.0223 0.48243 0.084l6.4688 2.5156v2e-3c0.63484 0.24713 0.9483 0.96085 0.70117 1.5957l-0.23438 0.60351c-0.24152 0.62103-0.93256 0.93155-1.5566 0.71289-0.0328 0.12636-0.0712 0.25122-0.11914 0.375l-1.707 4.3887-5.5859 14.355c-0.49843 1.2813-1.6706 2.0888-2.9531 2.2051-0.24866 0.0226-0.50123 0.0172-0.75391-0.0117-0.0182-2e-3 -0.0364-1e-3 -0.0547-4e-3 -0.0685-9e-3 -0.13668-0.0239-0.20507-0.0371-0.19058-0.0392-0.38099-0.0853-0.56836-0.1582-1.8032-0.70173-2.6959-2.7324-1.9941-4.5352l7.293-18.744c0.0479-0.12206 0.1021-0.2401 0.1621-0.35352l-0.0215-8e-3c-0.63351-0.24669-0.94787-0.96323-0.70117-1.5977l0.23437-0.60351c0.18535-0.47614 0.6333-0.77116 1.1133-0.78516zm64.395 1.2051c12.903 2.273 26.642 6.3216 40.596 11.902-7.7554 3.0468-15.547 6.502-23.299 10.381-9.3789 4.6929-18.326 9.8188-26.746 15.262 2.1878-13.716 5.4038-26.376 9.4492-37.545zm113.28 2.0137c9.236 0 17.415 1.0259 24.373 3-0.66966 2.0489-1.0371 4.2347-1.0371 6.5078 0 11.556 9.3739 20.934 20.939 20.934 2.2902 0 4.4924-0.373 6.5547-1.0527 1.7152 13.735-5.6554 30.412-19.791 47.207-9.6852-11.995-21.96-23.709-36.092-34.549-1.9857-14.953-5.1801-28.86-9.3516-41.246 4.962-0.51479 9.786-0.80078 14.404-0.80078zm-19.812 1.4531c3.6546 10.821 6.5548 22.928 8.5293 35.957-7.4366-5.364-15.314-10.487-23.57-15.271-7.4835-4.3344-15.058-8.2471-22.633-11.762 12.948-4.2668 25.685-7.2804 37.674-8.9238zm-45.32 11.594c9.1746 4.0166 18.392 8.6631 27.482 13.928 9.7152 5.6267 18.898 11.718 27.414 18.129 1.26 10.476 1.9375 21.462 1.9375 32.793 0 12.125-0.77277 23.857-2.209 34.988-9.3145 6.2673-19.451 12.216-30.297 17.643-9.3593 4.6849-18.884 8.7684-28.363 12.229-9.1739-4.0152-18.391-8.6638-27.48-13.93-9.809-5.6811-18.976-11.779-27.412-18.123-1.2616-10.481-1.9492-21.469-1.9492-32.807 0-12.118 0.77616-23.842 2.2109-34.967 9.4125-6.3428 19.57-12.288 30.311-17.664 9.3553-4.6814 18.879-8.7601 28.355-12.219zm-1.7285 24.561c-8.8014 0-16.943 2.8568-23.566 7.6816h0.0762c-10.076 7.2722-16.641 19.101-16.641 32.469 0 16.586 10.094 30.817 24.48 36.895 4.8114 2.0468 10.1 3.1797 15.65 3.1797h0.0918c12.503-0.0276 23.676-5.8087 31.02-14.826h-0.0644c5.6094-6.8889 8.9746-15.675 8.9746-25.248 0-3.9148-0.57079-7.6935-1.6191-11.27l0.0781-0.0723c-0.31657-1.0795-0.67986-2.139-1.084-3.1797l-0.10352 2e-3c-2.3445-6.0142-6.0981-11.32-10.861-15.516l0.0527-0.0937c-7.0499-6.2115-16.286-9.9971-26.393-10.02-0.0302-4.3e-4 -0.0616-2e-3 -0.0918-2e-3zm-63.025 9.5527c-1.1113 9.8758-1.7031 20.163-1.7031 30.736 0 9.6311 0.50477 19.017 1.4316 28.08-12.473-9.9884-23.103-20.476-31.455-30.871 8.7862-9.7418 19.524-19.179 31.727-27.945zm125.74 2.6894c12.265 9.8412 22.925 20.33 31.445 31.021-8.6147 9.4745-19.325 18.904-31.727 27.793 1.1137-9.8857 1.709-20.183 1.709-30.768 0-9.6201-0.50287-18.994-1.4277-28.047zm-161.23 29.59c9.4844 11.673 21.683 23.366 36.133 34.389 1.9864 14.923 5.1723 28.81 9.3359 41.174-4.961 0.51446-9.7849 0.79883-14.402 0.79883-11.697 0-21.698-1.6435-29.67-4.7793 3.4697-3.7364 5.6074-8.7257 5.6074-14.223 0-11.566-9.3759-20.936-20.941-20.936-1.9171 0-3.7714 0.26374-5.5352 0.7461 1.6338-10.331 7.3988-22.005 17.115-34.299 0.75898-0.96003 1.5597-1.9154 2.3574-2.8711zm195.95 5.6953c0.81366 1.0995 1.6218 2.1989 2.3887 3.3008 9.058 13.019 14.12 25.165 15.035 35.664-1.3524-0.27413-2.7522-0.41992-4.1856-0.41992-11.564 0-20.936 9.3676-20.936 20.934 0 4.3111 1.307 8.3174 3.543 11.648-6.7752 2.4273-14.966 3.6992-24.332 3.6992-5.654 0-11.6-0.45154-17.762-1.3164 4.5703-12.653 8.0981-27.031 10.309-42.582 14.089-9.7472 26.232-20.267 35.939-30.928zm-153.59 33.307c7.3588 5.2819 15.228 10.381 23.568 15.211 7.4864 4.3366 15.066 8.2514 22.645 11.768-12.953 4.2696-25.695 7.2861-37.688 8.9297-3.6508-10.807-6.5504-22.897-8.5254-35.908zm111.45 1.7754c-2.1873 13.733-5.4117 26.403-9.4609 37.584-12.903-2.2699-26.642-6.3131-40.594-11.891 7.7596-3.0478 15.555-6.5047 23.311-10.387 9.4684-4.7376 18.4-9.8852 26.744-15.307zm-163.71 1.3379c0.24767-0.0119 0.60065 0.0707 1.0977 0.36328 1.5962 0.64176 1.1641 1.3555 1.1641 1.3555l-1.2617 2.7637 0.64453 0.34375-0.35937 0.72266c0.72276 0.31921 1.2886 0.88683 1.6113 1.582 0.34704 0.0444 3.834 0.55827 4.3867 3.7148 0.58052 3.3184-2.0021 9.0747-3.2559 11.07-0.6207 0.98775-1.4962 1.7582-2.4688 2.2422-0.43503 0.21664-0.88758 0.37596-1.3476 0.46875-0.022 4e-3 -0.0444 4e-3 -0.0664 8e-3 -0.20572 0.0386-0.41243 0.0692-0.61914 0.0801-0.2342 0.0115-0.46917 6e-3 -0.70117-0.0195 0.42662 1.7025 0.78001 3.1651 0.82812 3.3691l3.0645 0.5586-0.33985 1.8652-14.254-2.6016 0.33984-1.8633 3.9922 0.72851 0.41797-2.418-5.8809 0.10743-0.0234-1.2148 6.1172-0.11328 0.16992-0.98437-9.3594-4.6895 1.0898-2.1738 9.6894 4.8555c0.23977-0.0756 0.50903-0.12551 0.83789-0.10351 1.3472 0.0898 1.9925 0.49588 2.5059 1.8027l-2e-3 -0.0117s0.11954 0.0476 0.29101 0.10157c6e-3 2e-3 0.01 2e-3 0.0156 4e-3 0.46075 0.14306 1.3366 0.31313 1.8066-0.3125 0.65298-0.86948 2.7658-6.2175 2.8926-7.7266 0.12724-1.5091-0.4986-2.4142-2.125-2.168l0.23242-0.24023c-0.14425 0.0553-0.28924 0.11044-0.44141 0.14453h-2e-3c-0.40631 0.0905-0.83818 0.10292-1.2734 0.0234-0.352-0.0642-0.67198-0.19538-0.96875-0.35937l-0.23242 0.46875 1.0332 0.5293-1.1074 2.166-2.5293-1.2949-0.21289 1.168-1.3887-0.25391 0.28906-1.5859-2.6523-1.3574-1.125-0.57617-0.29102 1.5938-1.3867-0.25195 0.36718-2.0117-1.873-0.95898 1.1074-2.166 2.2617 1.1562 2.5391 1.3008 3.8965-6.7793 0.85157 0.45508 1.4766-2.5762s0.11847-0.28099 0.53125-0.30078zm215.7 9.3418c1.444 0 2.6152 1.1704 2.6152 2.6152 0 0.54149-0.16537 1.0437-0.44727 1.4609-0.094 0.13907-0.20008 0.26846-0.31836 0.38672-0.19039 0.19035-0.41665 0.34219-0.6582 0.46679l1.4375 3.4727-0.0195 8e-3c0.26521-0.041 0.53581-0.0684 0.8125-0.0684 0.70918 0 1.3753 0.15925 1.9902 0.41602 0.18682 0.0776 0.36989 0.16282 0.54688 0.25781 0.19827 0.11069 0.39392 0.22564 0.57617 0.35938l-0.0762-0.0742 2.4551-2.5352c-0.1154-0.25364-0.1836-0.5333-0.1836-0.83008 0-0.69384 0.3523-1.3063 0.88672-1.668h2e-3c0.10661-0.0719 0.22003-0.13487 0.33984-0.18554 0.24068-0.1018 0.50545-0.15821 0.7832-0.15821 0.1666 0 0.328 0.0261 0.48242 0.0645 0.0382 9e-3 0.0741 0.0236 0.11133 0.0351 0.11781 0.0369 0.2306 0.0817 0.33789 0.13868 0.0328 0.0173 0.066 0.0337 0.0977 0.0527 0.27456 0.16619 0.50858 0.39279 0.67773 0.66602 0.19022 0.30724 0.30469 0.66678 0.30469 1.0547 0 0.69437-0.35152 1.3083-0.88672 1.6699-0.0495 0.0335-0.10958 0.0491-0.16211 0.0781-0.13979 0.0773-0.28802 0.14126-0.44336 0.1875-0.16649 0.0446-0.33902 0.0781-0.51953 0.0781-0.40884 0-0.78795-0.12441-1.1055-0.33399l-2.3516 2.4277c0.76528 0.82507 1.2798 1.8879 1.3965 3.0703 0.0167 0.16891 0.0254 0.34022 0.0254 0.51367 0 0.0879-9e-3 0.17287-0.0137 0.25977l3.9238 0.43554c0.36662-1.0014 1.3172-1.7207 2.4453-1.7207 0.36099 0 0.7067 0.0728 1.0195 0.20508 0.46926 0.19841 0.86842 0.52993 1.1504 0.94726v2e-3c0.2814 0.41704 0.44531 0.91973 0.44531 1.4609 0 1.2635-0.89642 2.3186-2.0879 2.5625-0.17021 0.0348-0.34685 0.0527-0.52734 0.0527-1.3737 0-2.4855-1.0637-2.5918-2.4102l-3.9473-0.4375c-0.33746 1.2713-1.1378 2.3473-2.207 3.0508-0.0107 7e-3 -0.0225 0.0126-0.0332 0.0195-0.14239 0.0922-0.28803 0.17941-0.43946 0.25782-0.0788 0.0412-0.16114 0.076-0.24218 0.11328-0.13167 0.0599-0.26512 0.11689-0.40235 0.16601-0.0692 0.0251-0.13846 0.0501-0.20898 0.0723-0.21427 0.0666-0.43309 0.12488-0.6582 0.16406l0.0547 1.4512 0.0547 1.4746c1.5331 0.15261 2.7344 1.4302 2.7344 3.0039v2e-3c-1e-3 1.6755-1.3598 3.0332-3.0352 3.0332-1.676 0-3.0332-1.3572-3.0332-3.0332 0-1.4168 0.97341-2.5969 2.2852-2.9316l-0.0586 2e-3 -0.0176-0.46484-0.0937-2.4629c-0.22761-8e-3 -0.4488-0.0358-0.66797-0.0723-0.0649-0.0109-0.12931-0.0238-0.19336-0.0371-0.15202-0.0312-0.30039-0.0712-0.44726-0.11523-0.0795-0.0241-0.16045-0.0445-0.23828-0.0723-0.16707-0.0588-0.32947-0.12837-0.48828-0.20312-0.61108-0.29095-1.159-0.69644-1.6152-1.1875-0.38386-0.41319-0.71148-0.88034-0.94922-1.4004l-2.1504 0.6875c0.0186 0.15421 0.0469 0.3056 0.0469 0.46484 0 1.073-0.43361 2.0449-1.1367 2.748-0.5272 0.52678-1.2065 0.90343-1.9648 1.0586-0.25295 0.0517-0.51494 0.0801-0.7832 0.0801-2.1457 0-3.8848-1.7406-3.8848-3.8867s1.7391-3.8848 3.8848-3.8848c0.80479 0 1.5518 0.24521 2.1719 0.66406 0.20671 0.13962 0.39843 0.29886 0.57421 0.47461 0.34317 0.34312 0.62041 0.75154 0.81641 1.2031l2.0664-0.6582c-0.0808-0.36737-0.12696-0.74696-0.12696-1.1387 0-2.2584 1.4176-4.1806 3.4102-4.9375l-1.4277-3.4492 0.0742-0.0312c-0.065 5e-3 -0.12716 0.0195-0.19335 0.0195-1.444 0-2.6133-1.1693-2.6133-2.6133 0-1.4444 1.1693-2.6152 2.6133-2.6152zm-109.66 17.891c15.821 6.7528 31.502 11.625 46.199 14.312-6.4359 15.951-14.639 28.404-23.938 35.854-2.7074-8.4259-10.605-14.521-19.932-14.521-9.4403 0-17.416 6.2428-20.029 14.826-10.096-7.9176-18.928-21.71-25.627-39.492 13.832-1.953 28.46-5.6586 43.326-10.979zm0.0723 41.271 2.1934 0.82812c-1.9e-4 2e-3 5e-3 0.10359 4e-3 0.13672l0.0391-0.10938 10.23 3.6504c4e-3 -0.01 0.0161-0.0176 0.0195-0.0273l2.0391 0.79883c-0.6271 1.7571-2.7993 2.6787-5.334 3.0371-0.73189-0.77762-1.5107-1.4698-2.1719-2.0137 0.96816-0.0882 2.0029-0.25591 2.916-0.48438l-6.7383-2.4043c0.48315 0.65225 1.1717 1.3762 2.2402 2.1406 0.14276 0.10179 0.35342 0.25755 0.61133 0.45508 0.0703 0.0539 0.1439 0.10952 0.2207 0.16992 0.0686 0.0539 0.13869 0.11042 0.21289 0.16992 0.65039 0.51927 1.4711 1.221 2.25 2.0254 0.0548 0.0565 0.10977 0.11302 0.16407 0.16992 0.0513 0.0552 0.10209 0.11107 0.15429 0.16797 1.4841 1.6122 2.7032 3.5597 2.1055 5.2344-0.33444 0.9372-1.199 1.5155-2.3887 1.9082-9e-3 2e-3 -0.0182 6e-3 -0.0273 8e-3 -0.24263 0.0792-0.49816 0.15135-0.76563 0.2168-0.24996 0.0612-0.51148 0.11503-0.78125 0.16602-0.59989 0.11084-1.2371 0.20413-1.916 0.28125-6e-3 -6e-3 -0.012-0.0119-0.0176-0.0176-0.47553-0.48487-0.97837-0.97822-1.4941-1.4863-0.17036-0.16648-0.35625-0.34777-0.54688-0.53711 0.82641-0.0768 1.8736-0.19531 2.8652-0.3418l-5.5469-1.9785c0.56155 0.66931 1.2166 1.3762 1.8555 2.0215 0.0565 0.0574 0.11432 0.11382 0.16992 0.16992 0.0578 0.0582 0.11578 0.11538 0.17188 0.17188 0.2756 0.27517 0.5375 0.53205 0.76953 0.75977 0.44078 0.43352 0.87127 0.85794 1.2832 1.2734l0.0176 0.0176c0.0561 0.0569 0.11276 0.11302 0.16797 0.16992 0.0557 0.0562 0.11153 0.11268 0.16601 0.16797v2e-3c0.45653 0.46904 0.86856 0.92232 1.25 1.3692 0.32271 0.37972 0.62027 0.7529 0.86719 1.1172 4.8e-4 7.1e-4 1e-3 1e-3 2e-3 2e-3 2e-3 3e-3 4e-3 5e-3 6e-3 8e-3 0.53298 0.78859 0.86596 1.5418 0.90625 2.2637 4e-5 6.3e-4 -3e-5 1e-3 0 2e-3 0.0178 0.32381-4e-3 0.64391-0.11523 0.95508-0.59777 1.6751-2.774 2.4119-4.9434 2.7207-0.63486-0.67843-1.3393-1.362-2.0664-2.0547 1.1481-0.0572 2.1269-0.20663 2.9121-0.40039l-1.7129-0.61133-4.3066-1.5371c0.44688 0.47939 0.92211 0.95595 1.3867 1.4121l4e-3 4e-3c0.27679 0.27171 0.55546 0.54468 0.80664 0.78321 0.0504 0.0474 0.10247 0.0969 0.15039 0.14258 0.0156 0.0142 0.0298 0.0288 0.0449 0.043 0.0651 0.0608 0.12906 0.1224 0.19336 0.1836 0.74484 0.70775 1.4725 1.4069 2.1289 2.0957 0.0522 0.0548 0.10494 0.10926 0.15624 0.16406 0.0569 0.0604 0.11343 0.12124 0.16993 0.18164 1.729 1.8783 2.8524 3.6889 2.2266 5.4434l-2.1074-0.75195c2e-3 -5e-3 1.5e-4 -0.0123 2e-3 -0.0176l-10.127-3.6152 0.0332-0.0898c-0.0142 0.018-0.0734 0.0748-0.0742 0.0762l-2.0469-0.73047c0.14707-0.27603 1.4587-2.6023 5.8203-2.8145 0.55809 0.56111 1.1585 1.1353 1.7812 1.7266 0.17683 0.16777 0.37635 0.35654 0.58984 0.56054-0.32476-0.0103-0.58509-0.024-0.75976-0.0351-1.1214-0.0723-2.0141-0.0185-2.7344 0.0976l6.1934 2.2109c-0.53184-0.6245-1.1306-1.2672-1.7578-1.8828-0.066-0.0647-0.13087-0.128-0.19727-0.19141-0.0643-0.0634-0.12906-0.1254-0.19336-0.1875-0.30621-0.29543-0.60463-0.5798-0.88281-0.84375-0.52963-0.50247-1.045-0.99086-1.5293-1.4688-0.0621-0.0621-0.11995-0.12474-0.18165-0.18554-0.0608-0.0608-0.12214-0.11929-0.18164-0.17969-0.41325-0.41904-0.77829-0.82536-1.1211-1.2285-0.6227-0.73224-1.1114-1.44-1.3867-2.1309-0.0425-0.10654-0.0696-0.21265-0.10156-0.31836-0.0297-0.10041-0.0603-0.20107-0.0801-0.30078-0.0175-0.0858-0.0293-0.1706-0.0391-0.25586-0.0131-0.11984-0.0166-0.23849-0.0137-0.35742 2e-3 -0.0748 2e-3 -0.15014 0.01-0.22461 0.0216-0.18995 0.056-0.38039 0.12305-0.56836 0.0658-0.18448 0.15641-0.35189 0.25781-0.51172 0.0469-0.0728 0.10412-0.13914 0.1582-0.20703 0.0587-0.075 0.11859-0.14935 0.18555-0.21875 0.0834-0.085 0.17231-0.16701 0.26758-0.24414 0.0459-0.0377 0.094-0.0735 0.14258-0.10937 0.11826-0.0863 0.24007-0.16928 0.37304-0.2461 0.94833-0.54825 2.2634-0.86239 3.8008-1.0781 0.54511 0.58359 1.1555 1.1863 1.7793 1.8008 0.0756 0.0744 0.13857 0.14383 0.21485 0.21875-0.59547 0.0626-1.2163 0.14239-1.8223 0.23242l3.998 1.4258c-0.47508-0.49475-0.94531-0.97059-1.3457-1.3652-0.0587-0.0582-0.11822-0.11512-0.17382-0.16992-0.0487-0.0491-0.0956-0.0957-0.14258-0.14063-9e-3 -0.0103-0.0213-0.0204-0.0312-0.0312-0.0539-0.0529-0.0988-0.10165-0.15235-0.1543-6.5e-4 0-1e-3 1e-5 -2e-3 0-0.65473-0.64349-1.2921-1.2724-1.8691-1.8789-0.0539-0.0561-0.10561-0.11237-0.1582-0.16797-0.0531-0.0556-0.103-0.11042-0.1543-0.16602-1.7856-1.9326-2.9362-3.6846-2.3574-5.3066 0.60123-1.6846 2.7175-2.2254 5.4277-2.5156 0.3791 0.33468 0.80272 0.67251 1.2793 1.0137 0.45501 0.32519 0.89174 0.66517 1.3066 1.0098-0.6359 0.0473-1.3682 0.11088-2.1055 0.1875l4.4922 1.6035c-0.408-0.47008-0.89135-0.96787-1.4629-1.4844-0.0634-0.0578-0.12395-0.11603-0.18945-0.17383-0.0651-0.0574-0.13438-0.11448-0.20118-0.17188-0.48995-0.4218-1.0292-0.84904-1.623-1.2734-0.35754-0.25662-0.68181-0.51137-0.98242-0.76368-0.0664-0.0561-0.13542-0.11186-0.19922-0.16797-0.0647-0.0556-0.1267-0.11186-0.1875-0.16796-3.2425-2.9254-2.8264-5.9687-2.7656-6.2754zm2.25 1.4531c0.0586 0.30563 0.19364 0.70856 0.44922 1.1894l8.1465 2.9062c0.50733-0.17397 0.92494-0.37306 1.2188-0.59375zm-0.36523 7.5742c-0.83256 0.12199-1.563 0.27905-2.0332 0.49023l9.1875 3.2793c-0.0754-0.36988-0.33651-0.88441-0.77343-1.4922zm-2.5606 0.89453c-1e-3 3e-3 -5e-3 6e-3 -6e-3 0.01-0.10656 0.29855 0.1388 0.8076 0.56055 1.4062l7.3379 2.6172c0.7997-0.16288 1.451-0.35876 1.7129-0.60351l-9.6055-3.4297zm-0.83203 7.4102c-0.76719 0.15518-1.4166 0.3408-1.793 0.57617l9.0273 3.2207c-0.27024-0.47143-0.76057-1.0651-1.3164-1.6856zm-2.1582 1.0371c-0.0178 0.34518 0.323 0.8917 0.82812 1.5137l6.6113 2.3594 1.0781 0.38477c0.47627-0.18045 0.8148-0.37796 0.98633-0.57422 0.0493-0.0566 0.0894-0.11398 0.10938-0.16992 8e-3 -0.0233 9e-3 -0.0532 0.0117-0.0801l-9.623-3.4336h-2e-3zm-1.7559 7.4766c-0.53709 0.16873-0.91538 0.362-1.1699 0.53711l9.6582 3.4492c-0.0965-0.34624-0.31106-0.74571-0.61719-1.1777z" fill-opacity=".37433" filter="url(#filter22467)"/>
            <g transform="matrix(.42837 0 0 .42837 -70.887 457.8)" stroke-width=".53292">
              <g fill="#fff">
                <path d="m412.25 383.84c2.5393 0.89244 4.3672 3.3045 4.3672 6.166 0 0.36469-0.033 0.72006-0.0898 1.0684 26.909 11.843 47.238 63.988 47.238 126.34 0 66.086-22.835 120.7-52.135 128.02-0.9705 0.31691-2.1487 0.51479-3.4629 0.66406-6e-3 -6e-3 -0.012-0.0119-0.0176-0.0176-0.15748 0.0188-0.31484 0.0367-0.47265 0.0527l0.0176 0.0176c0.0561 0.0569 0.11276 0.11302 0.16797 0.16992 0.0557 0.0562 0.11153 0.11268 0.16601 0.16797v2e-3c1.6887 1.7349 2.9513 3.3117 3.0312 4.7617 32.657-6.4842 58.289-64.035 58.289-133.84 0-68.958-25.012-125.95-57.1-133.58zm-18.021 0.98047c-30.463 10.65-53.754 66.051-53.754 132.6 0 69.71 25.559 127.2 58.146 133.82-1.2454-1.4645-1.9598-2.8347-1.4883-4.1563 0.23968-0.67171 0.73302-1.1662 1.4023-1.5488-29.461-6.9802-52.48-61.764-52.48-128.11 0-62.592 20.489-114.89 47.545-126.47-0.30614-0.75829-0.49023-1.5789-0.49023-2.4492 0-1.3626 0.41301-2.6274 1.1191-3.6758zm9.8691 261.44c0.0756 0.0744 0.13857 0.14383 0.21484 0.21875-0.59547 0.0626-1.2163 0.14239-1.8223 0.23242l3.998 1.4258c-0.47508-0.49475-0.94531-0.97059-1.3457-1.3652-0.0587-0.0582-0.11823-0.11512-0.17383-0.16992-0.0487-0.0491-0.0956-0.0957-0.14257-0.14063-9e-3 -0.0103-0.0213-0.0204-0.0312-0.0312-0.0539-0.0529-0.0988-0.10164-0.15235-0.15429-0.18209-2e-3 -0.36321-0.0102-0.54492-0.0156zm-2.7148 0.64844c-0.76719 0.15518-1.4166 0.3408-1.793 0.57617l9.0273 3.2207c-0.27024-0.47143-0.76057-1.0651-1.3164-1.6855zm-2.1582 1.0371c-0.0178 0.34518 0.32301 0.8917 0.82813 1.5137l6.6113 2.3594c0.69103-0.0388 1.3789-0.10539 2.0644-0.18946 0.0493-0.0566 0.0894-0.11398 0.10937-0.16992 8e-3 -0.0233 7e-3 -0.0532 0.01-0.0801l-9.623-3.4336zm1.6035 2.3828c0.44867 0.48132 0.9243 0.9583 1.3906 1.416 0.89245 0.0769 1.7881 0.12695 2.6895 0.12695 0.0758 0 0.15086-5e-3 0.22656-6e-3l-4.3066-1.5371z"/>
                <path d="m335.67 429.77c-14.694 0-26.858 2.9899-35.682 8.6074l1.3555 0.52734v2e-3c0.63484 0.24713 0.94831 0.96084 0.70118 1.5957l-0.23438 0.60352c-0.24152 0.62103-0.93256 0.93155-1.5566 0.71289-0.0328 0.12636-0.0712 0.25122-0.11914 0.375l-1.707 4.3887c7.8591-7.295 20.735-11.236 37.242-11.236 28.583 0 64.575 11.363 98.744 31.152 30.083 17.423 55.161 39.255 70.615 61.461 13.982 20.096 18.453 38.114 12.826 51.201 0.41204 0.16843 0.80566 0.37463 1.1602 0.63477l-0.0762-0.0742 2.4551-2.5352c-0.1154-0.25364-0.18359-0.53329-0.18359-0.83007 0-1.111 0.90071-2.0117 2.0117-2.0117 0.7231 0 1.3524 0.38428 1.707 0.95703 3.0884-14.068-2.1475-31.597-15.318-50.527-15.908-22.865-41.625-45.277-72.4-63.111-34.993-20.268-72.001-31.893-101.54-31.893zm-44.729 16.73c-0.87089 1.1236-1.6636 2.3007-2.375 3.5293-18.111 31.261 18.809 85.362 84.049 123.15 34.989 20.268 71.997 31.895 101.54 31.895 18.352 0 32.767-4.6604 41.643-13.285l-0.0937-2.4629c-1.4462-0.0539-2.7307-0.69771-3.6504-1.6875-7.7898 7.6897-20.924 11.85-37.898 11.85-28.589 0-64.577-11.343-98.738-31.135-54.583-31.613-89.697-75.998-85.527-105.21-0.52178 0.0474-1.0607-8e-3 -1.582-0.21093-1.8032-0.70172-2.6959-2.7324-1.9941-4.5352l4.6289-11.896zm231.18 131.54-2.3516 2.4277c0.8746 0.94293 1.4219 2.1964 1.4219 3.584 0 0.0879-9e-3 0.17288-0.0137 0.25977l0.34375 0.0391c1.1049-1.9825 1.993-4.0667 2.668-6.2422-0.28823 0.15941-0.61031 0.26563-0.96289 0.26563-0.40884 0-0.78795-0.12441-1.1055-0.33399zm-3.3203 10.42c-0.59049 0.38874-1.2597 0.66686-1.9844 0.79297l0.0547 1.4512c0.67955-0.7227 1.3241-1.4705 1.9297-2.2442z"/>
                <path d="m472.06 433.94c-28.578 0-62.661 9.1826-95.98 25.855-31.817 15.92-58.85 36.717-76.129 58.584-17.736 22.437-23.164 43.465-15.279 59.217 0.0476 0.0952 0.10183 0.18654 0.15039 0.28125l6.6328 3.3242c0.23977-0.0756 0.50903-0.12552 0.83789-0.10352 1.3472 0.0898 1.9925 0.49588 2.5059 1.8027l-2e-3 -0.0117s0.46078 0.20044 0.97851 0.23046c-2.5638-2.3565-4.6188-5.0323-6.1133-8.0195-0.47167-0.94294-0.88049-1.9133-1.2383-2.9043l-1.125-0.57618-0.29102 1.5938-1.3867-0.25195 0.36719-2.0117-1.873-0.95898 1.1074-2.166 2.2617 1.1562c-2.9745-12.974 2.8378-29.418 16.848-47.145 16.779-21.224 43.148-41.483 74.24-57.045 32.088-16.057 66.166-25.266 93.488-25.266 16.375 0 29.432 3.2173 38.242 9.2461-0.59733-1.8538-1.2613-4.4195-0.66015-6.5977 0.025-0.0905 0.0607-0.1823 0.0898-0.27344-9.5098-5.2051-22.284-7.9609-37.672-7.9609zm49.803 18.074c-1.071 1.1651-2.0345 2.1989-2.2168 2.8594-0.43776 1.5872-0.66601 2.416-0.66601 2.416l-0.28906-0.0918c0.53466 0.82522 1.0251 1.6759 1.4648 2.5547 14.525 29.032-25.359 78.511-88.9 110.3-32.098 16.067-66.175 25.273-93.5 25.273-17.12 0-30.614-3.5165-39.418-10.088-0.87007 0.43328-1.8163 0.63852-2.7344 0.5371 0.42662 1.7025 0.78001 3.1651 0.82812 3.3691l3.0644 0.5586-0.33984 1.8652-1.9941-0.36328c9.7409 6.3309 23.569 9.6973 40.594 9.6973 28.578 0 62.67-9.1733 95.994-25.854 66.298-33.173 107.3-86.02 91.402-117.79-0.92614-1.8517-2.0253-3.6001-3.2891-5.2441zm-234.68 129.77c0.59057 0.83552 1.221 1.6458 1.8926 2.4297l0.79101-0.0156 0.16993-0.98437-2.8535-1.4297z"/>
              </g>
              <g>
                <path d="m516.34 428.1c-11.566 0-20.939 9.3676-20.939 20.934 0 11.556 9.3739 20.934 20.939 20.934 11.564 0 20.934-9.378 20.934-20.934 0-11.566-9.3698-20.934-20.934-20.934zm1.5976 7.9473c0.62492 0.0289 1.2751 0.13036 1.9492 0.31641 5.3929 1.488 6.6725 6.9066 5.7715 10.172-0.90053 3.264-5.5696 6.7503-6.0078 8.3379-0.31038 1.1253-0.3796 1.3751-0.47265 1.7129l0.0176 4e-3 -1.0957 3.9746c-0.14621 0.53049-0.75707 1.5255-3.0684 1.3008l-0.20507 0.73633c-0.10696 0.38773-0.50724 0.61477-0.89454 0.50781l-2.0644-0.57031c-0.3873-0.10696-0.61672-0.50681-0.50976-0.89454l0.20507-0.74023c-2.2319-1.083-2.207-2.4805-2.207-2.4805l1.0625-3.8457-0.0371-0.0117s0.79432-2.4598 0.63086-3.5527c-0.16432-1.0942-2.3011-5.4486-1.3652-8.8398 0.81853-2.9666 3.9166-6.3295 8.291-6.127z" fill="#eb6d3f"/>
                <path d="m293.95 428.1c-11.564 0-20.934 9.3676-20.934 20.934 0 11.556 9.3698 20.934 20.934 20.934 11.566 0 20.941-9.378 20.941-20.934 0-11.566-9.3759-20.934-20.941-20.934zm0.44336 8.207c0.16-5e-3 0.32403 0.0223 0.48242 0.084l6.4688 2.5156v2e-3c0.63484 0.24713 0.94831 0.96084 0.70118 1.5957l-0.23438 0.60352c-0.24152 0.62103-0.93256 0.93155-1.5566 0.71289-0.0328 0.12636-0.0712 0.25122-0.11914 0.375l-7.293 18.744c-0.70128 1.8028-2.7328 2.695-4.5352 1.9941-1.8032-0.70172-2.6959-2.7324-1.9941-4.5352l7.293-18.744c0.0479-0.12206 0.10211-0.24009 0.16211-0.35351l-0.0215-8e-3c-0.63351-0.24669-0.94787-0.96322-0.70117-1.5976l0.23437-0.60352c0.18535-0.47614 0.6333-0.77116 1.1133-0.78516z" fill="#96d0d3"/>
                <path d="m405.14 623.95c-11.566 0-20.938 9.3681-20.938 20.934s9.372 20.934 20.938 20.934c11.564 0 20.934-9.3681 20.934-20.934s-9.3698-20.934-20.934-20.934zm-2.2578 5.627 2.1934 0.82812c-1.9e-4 2e-3 5e-3 0.10359 4e-3 0.13672l0.0391-0.10937 10.23 3.6504c4e-3 -0.01 0.0161-0.0177 0.0195-0.0274l2.0391 0.79883c-0.6271 1.7571-2.7993 2.6787-5.334 3.0371-0.73189-0.77762-1.5107-1.4698-2.1719-2.0137 0.96816-0.0882 2.0029-0.25591 2.916-0.48438l-6.7383-2.4043c0.48315 0.65226 1.1717 1.3762 2.2402 2.1406 0.14276 0.10179 0.35342 0.25755 0.61133 0.45508 0.0703 0.0539 0.1439 0.10952 0.2207 0.16992 0.0686 0.0539 0.13869 0.11042 0.21289 0.16992 0.65039 0.51927 1.4711 1.221 2.25 2.0254 0.0548 0.0565 0.10976 0.11303 0.16406 0.16993 0.0513 0.0552 0.1021 0.11107 0.1543 0.16797 1.4841 1.6122 2.7032 3.5597 2.1055 5.2344-0.60855 1.7053-2.9362 2.2458-5.8789 2.5801-0.48046-0.49038-0.98986-0.98981-1.5117-1.5039-0.17036-0.16648-0.35624-0.34777-0.54687-0.53711 0.82641-0.0768 1.8736-0.1953 2.8652-0.34179l-5.5469-1.9785c0.56155 0.66931 1.2166 1.3762 1.8555 2.0215 0.0565 0.0574 0.11432 0.11383 0.16992 0.16993 0.0578 0.0582 0.11577 0.11537 0.17187 0.17187 0.2756 0.27517 0.5375 0.53205 0.76953 0.75977 0.44684 0.43949 0.88373 0.87007 1.3008 1.291 0.0561 0.0569 0.11276 0.11302 0.16797 0.16992 0.0557 0.0562 0.11153 0.11268 0.16601 0.16797v2e-3c2.0658 2.1224 3.524 4.0122 2.916 5.7168-0.59777 1.6751-2.774 2.4119-4.9434 2.7207-0.63486-0.67843-1.3393-1.362-2.0664-2.0547 1.1481-0.0572 2.1269-0.20663 2.9121-0.40039l-6.0195-2.1484c0.71448 0.76646 1.5234 1.5592 2.1973 2.1992 0.0504 0.0474 0.10248 0.0969 0.1504 0.14258 0.0156 0.0142 0.0298 0.0288 0.0449 0.043 0.0651 0.0608 0.12906 0.12239 0.19336 0.18359 0.74484 0.70775 1.4725 1.4069 2.1289 2.0957 0.0522 0.0548 0.10495 0.10927 0.15625 0.16407 0.0569 0.0604 0.11342 0.12124 0.16992 0.18164 1.729 1.8783 2.8524 3.6889 2.2266 5.4434l-2.1074-0.75196c2e-3 -5e-3 2e-4 -0.0123 2e-3 -0.0176l-10.127-3.6152 0.0332-0.0898c-0.0142 0.018-0.0734 0.0748-0.0742 0.0762l-2.0469-0.73047c0.14707-0.27603 1.4587-2.6022 5.8203-2.8144 0.55809 0.56111 1.1585 1.1353 1.7812 1.7266 0.17683 0.16777 0.37635 0.35655 0.58984 0.56055-0.32476-0.0103-0.5851-0.024-0.75977-0.0352-1.1214-0.0723-2.0141-0.0184-2.7344 0.0977l6.1934 2.2109c-0.53184-0.6245-1.1306-1.2672-1.7578-1.8828-0.066-0.0647-0.13087-0.128-0.19727-0.19141-0.0643-0.0634-0.12906-0.1254-0.19336-0.1875-0.30621-0.29543-0.60463-0.57979-0.88281-0.84374-0.52963-0.50247-1.045-0.99087-1.5293-1.4688-0.0621-0.0621-0.11994-0.12474-0.18164-0.18554-0.0608-0.0608-0.12214-0.11929-0.18164-0.17969-1.9141-1.9408-3.2106-3.6997-2.6094-5.3848 0.5788-1.6221 2.5792-2.2495 5.1855-2.6152 0.61114 0.65427 1.2881 1.326 1.9941 2.0195-0.59547 0.0626-1.2163 0.14239-1.8223 0.23242l3.998 1.4258c-0.47508-0.49475-0.94531-0.97059-1.3457-1.3652-0.0587-0.0582-0.11823-0.11512-0.17383-0.16992-0.0487-0.0491-0.0956-0.0957-0.14257-0.14063-9e-3 -0.0103-0.0213-0.0204-0.0312-0.0312-0.71293-0.69999-1.3989-1.3768-2.0234-2.0332-0.0539-0.0561-0.10561-0.11237-0.1582-0.16797-0.0531-0.0556-0.103-0.11041-0.1543-0.16601-1.7856-1.9326-2.9362-3.6846-2.3574-5.3066 0.60123-1.6846 2.7175-2.2254 5.4277-2.5156 0.3791 0.33468 0.80272 0.67251 1.2793 1.0137 0.45501 0.32519 0.89174 0.66517 1.3066 1.0098-0.6359 0.0473-1.3682 0.11088-2.1055 0.1875l4.4922 1.6035c-0.408-0.47008-0.89135-0.96787-1.4629-1.4844-0.0634-0.0578-0.12396-0.11603-0.18946-0.17383-0.0651-0.0574-0.13437-0.11447-0.20117-0.17187-0.48995-0.4218-1.0292-0.84905-1.623-1.2734-0.35754-0.25662-0.68181-0.51136-0.98242-0.76367-0.0664-0.0561-0.13542-0.11187-0.19922-0.16797-0.0647-0.0556-0.1267-0.11187-0.1875-0.16797-3.2425-2.9254-2.8264-5.9687-2.7656-6.2754zm2.25 1.4531c0.0586 0.30563 0.19364 0.70857 0.44922 1.1895l8.1465 2.9062c0.50733-0.17397 0.92494-0.37306 1.2188-0.59375zm-0.36524 7.5742c-0.83256 0.12199-1.563 0.27906-2.0332 0.49024l9.1875 3.2793c-0.0754-0.36988-0.33652-0.8844-0.77344-1.4922zm-2.5605 0.89453c-1e-3 3e-3 -5e-3 6e-3 -6e-3 0.01-0.10656 0.29855 0.13879 0.8076 0.56054 1.4062l7.3379 2.6172c0.7997-0.16288 1.451-0.35877 1.7129-0.60352l-9.6055-3.4297zm-0.83203 7.4102c-0.76719 0.15518-1.4166 0.3408-1.793 0.57617l9.0273 3.2207c-0.27024-0.47143-0.76057-1.0651-1.3164-1.6855zm-2.1582 1.0371c-0.0178 0.34518 0.32301 0.8917 0.82813 1.5137l7.6894 2.7441c0.61429-0.23274 1.0066-0.49399 1.0957-0.74414 8e-3 -0.0233 7e-3 -0.0532 0.01-0.0801l-9.623-3.4336zm-1.7559 7.4766c-0.53709 0.16873-0.91537 0.362-1.1699 0.53711l9.6582 3.4492c-0.0965-0.34624-0.31105-0.7457-0.61718-1.1777z" fill="#e7d14f"/>
                <path d="m292.75 555.38c-11.564 0-20.934 9.3696-20.934 20.936 0 11.556 9.3698 20.934 20.934 20.934 11.566 0 20.941-9.378 20.941-20.934 0-11.566-9.3759-20.936-20.941-20.936zm4.0274 5.6914c0.24767-0.0119 0.60064 0.0707 1.0976 0.36328 1.5962 0.64176 1.1641 1.3555 1.1641 1.3555l-1.2617 2.7637 0.64453 0.34375-0.35938 0.72266c0.72276 0.31921 1.2886 0.88683 1.6113 1.582 0.34704 0.0444 3.834 0.55828 4.3867 3.7148 0.58052 3.3184-2.0021 9.0747-3.2559 11.07-1.1758 1.8711-3.2593 2.994-5.2031 2.7793 0.42662 1.7025 0.78001 3.1651 0.82812 3.3691l3.0644 0.5586-0.33984 1.8652-14.254-2.6016 0.33985-1.8633 3.9922 0.72851 0.41796-2.418-5.8809 0.10742-0.0234-1.2148 6.1172-0.11328 0.16993-0.98437-9.3594-4.6895 1.0898-2.1738 9.6895 4.8555c0.23977-0.0756 0.50903-0.12552 0.83789-0.10352 1.3472 0.0898 1.9925 0.49588 2.5059 1.8027l-2e-3 -0.0117s1.4607 0.66158 2.1133-0.20704c0.65298-0.86948 2.7658-6.2175 2.8926-7.7266 0.12724-1.5091-0.4986-2.4142-2.125-2.168l0.23243-0.24023c-0.14425 0.0553-0.28924 0.11044-0.44141 0.14453h-2e-3c-0.40631 0.0905-0.83818 0.10289-1.2734 0.0234-0.352-0.0642-0.67198-0.19539-0.96875-0.35938l-0.23242 0.46875 1.0332 0.5293-1.1074 2.166-2.5293-1.2949-0.21289 1.168-1.3887-0.2539 0.28906-1.5859-3.7773-1.9336-0.29102 1.5938-1.3867-0.25195 0.36719-2.0117-1.873-0.95898 1.1074-2.166 4.8008 2.457 3.8965-6.7793 0.85156 0.45507 1.4766-2.5762s0.11847-0.28099 0.53125-0.30078z" fill="#eb6d3f"/>
                <path d="m515.88 563.2c-11.564 0-20.936 9.3676-20.936 20.934 0 11.556 9.3718 20.934 20.936 20.934 11.566 0 20.939-9.378 20.939-20.934 0-11.566-9.3739-20.934-20.939-20.934zm-3.3984 7.2168c1.444 0 2.6152 1.1704 2.6152 2.6152 0 0.54149-0.16537 1.0437-0.44727 1.4609-0.094 0.13907-0.20008 0.26846-0.31836 0.38672-0.19039 0.19035-0.41665 0.3422-0.6582 0.4668l1.4375 3.4726-0.0195 8e-3c0.26521-0.041 0.53581-0.0684 0.8125-0.0684 1.1686 0 2.2383 0.39111 3.1133 1.0332l-0.0762-0.0742 2.4551-2.5352c-0.1154-0.25364-0.18359-0.53329-0.18359-0.83007 0-1.111 0.90071-2.0117 2.0117-2.0117s2.0117 0.90071 2.0117 2.0117c0 0.69437-0.35152 1.3083-0.88672 1.6699-0.32112 0.21696-0.70837 0.34375-1.125 0.34375-0.40884 0-0.78795-0.12441-1.1055-0.33399l-2.3516 2.4277c0.8746 0.94293 1.4219 2.1964 1.4219 3.584 0 0.0879-9e-3 0.17288-0.0137 0.25977l3.9238 0.43554c0.36662-1.0014 1.3172-1.7207 2.4453-1.7207 0.361 0 0.7067 0.0728 1.0195 0.20508 0.46926 0.19841 0.86842 0.52994 1.1504 0.94727v2e-3c0.2814 0.41704 0.44532 0.91974 0.44532 1.4609 0 1.2635-0.89642 2.3186-2.0879 2.5625-0.17021 0.0348-0.34685 0.0527-0.52735 0.0527-1.3737 0-2.4855-1.0637-2.5918-2.4102l-3.9472-0.43768c-0.52372 1.9729-2.1554 3.4894-4.1914 3.8438l0.10938 2.9258c1.5331 0.15261 2.7344 1.4302 2.7344 3.0039v2e-3c-1e-3 1.6755-1.3598 3.0332-3.0352 3.0332-1.676 0-3.0332-1.3572-3.0332-3.0332 0-1.4168 0.97342-2.5969 2.2852-2.9316l-0.0586 2e-3 -0.11133-2.9277c-2.05-0.0765-3.7923-1.3218-4.5996-3.0879l-2.1504 0.6875c0.0186 0.15421 0.0469 0.30561 0.0469 0.46485 0 1.073-0.4336 2.0449-1.1367 2.748-0.5272 0.52678-1.2065 0.90344-1.9648 1.0586-0.25295 0.0517-0.51494 0.0801-0.7832 0.0801-2.1457 0-3.8848-1.7406-3.8848-3.8867s1.7391-3.8848 3.8848-3.8848c0.80479 0 1.5518 0.24521 2.1719 0.66406 0.20671 0.13962 0.39844 0.29886 0.57422 0.47461 0.34317 0.34312 0.62041 0.75155 0.81641 1.2031l2.0664-0.65821c-0.0808-0.36737-0.12695-0.74696-0.12695-1.1387 0-2.2584 1.4176-4.1806 3.4102-4.9375l-1.4277-3.4492 0.0742-0.0312c-0.065 5e-3 -0.12717 0.0195-0.19336 0.0195-1.444 0-2.6133-1.1693-2.6133-2.6133 0-1.4444 1.1693-2.6152 2.6133-2.6152z" fill="#96d0d3"/>
                <path d="m405.14 371.92c-11.564 0-20.936 9.3676-20.936 20.934 0 11.556 9.3718 20.934 20.936 20.934 11.566 0 20.939-9.378 20.939-20.934 0-11.566-9.3739-20.934-20.939-20.934zm1.9668 6.4883c2.762 0 5.0039 2.2586 5.0039 5.043 0 0.10868-0.0174 0.21421-0.0254 0.32031 2.624 0.84447 4.5254 3.308 4.5254 6.2305 0 3.2588-2.3599 5.954-5.4531 6.4629-0.90571 1.2732-2.377 2.1074-4.0508 2.1074-0.52316 0-1.0266-0.0891-1.498-0.24219v9.3184h4c0.2743 0 0.5 0.22745 0.5 0.50391 0 0.27905-0.2257 0.50586-0.5 0.50586h-9.0039c-0.27602 0-0.5-0.22681-0.5-0.50586 0-0.27861 0.22398-0.50391 0.5-0.50391h4.002v-8.9316h-4e-3l4e-3 -2e-3v-0.0312h-2e-3c-0.6836 0.55723-1.5494 0.89844-2.5 0.89844-2.2091 0-4-1.8047-4-4.0332 0-0.23247 0.0247-0.45972 0.0645-0.67968-2.8978-0.66117-5.0664-3.257-5.0664-6.377 0-3.619 2.9097-6.5547 6.502-6.5547 0.92296 0 1.7983 0.2049 2.5957 0.55468 0.44165-2.3247 2.4699-4.084 4.9063-4.084zm-2.166 20.158-0.0234 8e-3h4e-3l0.0195-8e-3z" fill="#e7d14f"/>
              </g>
              <path d="m405.14 477.24c-22.133 0-40.076 17.925-40.076 40.039 0 22.113 17.943 40.039 40.076 40.039 0.0487 0 0.0981-9.5e-4 0.14649-2e-3v2e-3c22.066-0.0785 39.93-17.975 39.93-40.039 0-22.065-17.864-39.959-39.93-40.037-0.0483 0-0.0977-2e-3 -0.14649-2e-3z" fill="none" stroke="#fff" stroke-width=".14643"/>
              <path d="m405.2 477.13c-8.8014 0-16.943 2.8568-23.566 7.6816l2.0234-0.0156 0.90039 0.49805 1.6992 0.36719 0.13086 0.66601 2.7031 0.0996-0.36718-0.86523-2.4004-0.0664 0.5664-0.5332-0.19726-0.63477h-2.1699l2.3672-1.7656h2.2676l1.0644 1.4668 1.7695 0.0996 1.0645-1.0332 0.80273 0.40039-1.4688 1.4336s-2.0321 0.0332-1.9316 0.0332 0.16797 1.3984 0.16797 1.3984l2.4629-0.0664 0.26953-0.66602 1.6973-0.0996 0.20117-1-1-0.16796 0.33398-0.89844 0.76563-0.23242 2.668 0.13086-1.4727 1.334 0.24024 1.0332 1.5312 0.23438-0.0996-1.8672 1.4668-0.76758 2.6016-0.29883 3 1.3281 0.76367 0.33789v1.4336l1.2031 0.29883-0.60156 1.1348h-1.6992l-0.50391 1.2988-3.8867-0.91797 3.0547-1.625-1.166-0.99024-2.6328 0.33399-0.23047 0.23828-0.01-4e-3 -0.041 0.0566-0.75782 0.78711-1.252 0.10547 0.0996 0.625 0.43555 0.18164-0.0156 0.20508-1.0195 0.14648-0.0742 0.5918-0.97656 0.0508-0.17578-1.1758-1.75 0.5332-3.5742 2.0938 0.40234 1.4727 0.99805 0.65039 2 0.27734v2.2715l0.92383-0.14844 0.85156-1.7754 2.125-0.67383v-2.7246l1.1816-0.89453 2.8594 0.67578-0.20118 1.8008h0.76758l2.0996-1.0332 0.10156 2.3652 0.70118 0.42773 0.82812 0.50391-0.0645 1.4023-0.76367 0.26172-0.70118 0.23828 0.0996 0.46289 0.60157 0.27539v-2e-3l1.1641 0.53125-0.0332 0.96484-0.51368 0.0449c-2e-3 -0.0164-2e-3 -0.0273-2e-3 -0.0273l-0.61523-0.18945-1.6152-0.49805-0.0937-0.71289h-4e-3l0.6504-0.44922v-0.65039l-0.69922-0.17578-0.17383 0.60156-1.2266 0.18945-0.12305-0.041v0.0605l-0.42578 0.0664-0.34766-0.70117-0.40234-0.17578h-0.875l-0.39844 0.32617v0.72461l0.75 0.24805 0.73828 0.10547-0.16601 0.0703-0.67383 0.74804-0.29688-0.37304-0.65234-0.17188-1.7754 1.6719 0.23242 0.18945-2.623 1.4531-2.4688 2.5664-0.16601 1.1426-2.4746 1.625-1.2246 1.2324 0.13476 2.4668-1.7012-0.79297 0.0137-1.4414-4.7324 2e-3 -2.4492 1.2402-1.0644 1.9609-0.42187 1.5547 0.68945 1.5098 1.9297 0.23438 3.0684-2.0508 0.26757 1.0156-0.93554 1.7676 2.3359 0.40039 0.23243 3.6055 3.2012 0.54297 2.0312-2.3496 2.4688 0.50195 0.86719 1.2051 2.3652-0.14063 0.0664-0.69921 1.2988 0.63281 1.4687 2.2988 2.5313 0.0352 0.93359 1.6348 0.13281 1.998 1.8027 0.68555v2e-3l1 0.37891 3.5312 0.0352 1.0352 1.6973 1.5645 0.50196-0.30079 1.4004-1.7168 2.1816-0.5 4.8262-1.5488 1.2266-2.3008-0.0684-0.76367 1.3281-2e-3 2e-3 2e-3 0.01 0.5664 2.4941-0.5664 0.72461-1.9356 2.4746-0.79883 1.4668-2.3848 1.1465-1.5684 0.23828-0.0645 0.66601 1.0996 0.31446-0.13281 0.71679-0.98633 0.94922 0.59961 0.75196 1.1856 0.0332-0.0664 0.91797-0.31445 0.89843-0.10156 0.73243 1.7539 1.4785-0.23437 0.76758-2.3848-0.0469-2.377-2.0723-1.8516-3.252 0.25976-3.1406-1.4004-1.8672 0.56836-3.1641-0.83398-0.23437v-6.8672s-2.332-1.7676-2.4648-1.7676-1.2344-0.29883-1.2344-0.29883l-0.23438-1.3008-3.0312-3.7988 0.29883-1.3672 0.0996-2.2344 2.0977-1.4668-0.29883-2.5-3.0664-0.23047-2.3984-2.7363-1.7012-0.46485-1.0976-0.20117 0.13086-1-1.4004-0.19922v0.56641l-3.5-0.86524-1.4082-2.1562 0.57422-1.0449-2.2168-3.2344-0.38086-2.3652h-0.90039l0.29883 2.2988 1.5332 2.3672-0.16601 0.93359-1.2988-0.19922-1.5996-2.7266v-3.1738l-1.666-0.80078v-2.2832c-2.0611 4.824-3.2031 10.131-3.2031 15.699 0 22.118 17.993 40.111 40.111 40.111h0.0918c12.503-0.0276 23.676-5.8087 31.02-14.826h-1.3242v-2.668l-1.5293-2.0606v-3.207l-1.1699-1.1641-0.0996-1.334 1.4824-2.834-2.8144-4.9668 0.33398-3.3691-2.5352-0.26367-0.93164-0.9336h-1.7012l-0.86523 0.79883h-3l-0.10156 0.26758h-1.666l-3.832-4.3652 0.0293-3.4023 0.63476-0.23242 0.23438-1.3008h-0.89844l-0.36914-1.3652 4.4356-3.1992v-2.2676l2.1699-1.2051 0.87695 0.0879h1.7871l1.3965-0.75 4.5-0.34961v2.3008l3.5508 0.89844 0.70117 0.5h0.65039v-1.25l2.0488-0.19922 1.9512 1.4492h3.1992l0.22461-0.20508c-0.31657-1.0795-0.67987-2.139-1.084-3.1797l-2.0898 0.0352-1.0508-1.1504-0.20117-1.8496-1.0723 0.58594-0.57812 2.2617-1.5488-1.6504-0.0625-1.5586-1.498-1.2891-0.55273-0.54883h-1.7383l0.55079 1.5469 2.0898 1.166 0.36328 0.38477-0.45117 0.22656 0.0156 1.2246-1.0156 0.42578-0.87109-0.19141-0.54102-0.76953 1.4121 0.0762 0.38086-0.51562-3.1328-2.1113-0.23633-0.90039-1.2734 1.1504-1.291-0.26562-1.9629 2.5527-0.38476 1-1.2559 0.11328-1.8574 0.0117-1.1113-0.51953-0.32617-2.2051 0.39843-1.0527 1.8906-0.41407 2.0625 0.41407 0.25-1.1406-0.875-0.20703 0.29883-1.7754 2.0742-0.32617 1.4512-2.0488 1.498-0.25195 1.3535 0.20117h0.49609l-0.27148-1.9258-1.6445 0.66406-0.57813-1.4375-0.95312-0.13281-0.17969-0.98633 0.78125-0.84766 1.8477-0.72461 0.47851-0.85156c-7.0499-6.2115-16.286-9.9971-26.393-10.02-0.0302-4.3e-4 -0.0616-2e-3 -0.0918-2e-3zm20.141 13.381 0.33204 1.6016 0.70117 1.1328 0.46484 0.5332 0.84961 0.33204-0.79883 0.95117-1.5488 0.15039h-1.168l0.13085-1.3828 0.97071-0.20117-0.082-0.65039-0.9043-0.5664-0.63281-0.4336v-0.63476l0.36914-0.56641 1.3164-0.26562zm-1.9707 1.8008 0.77148 0.33398-0.0703 0.86524-1.6484 1.166h-0.9336v-0.83203l0.80274-1.2832 1.0781-0.25zm-21.045 4.8691 0.52344 0.10742-0.22266 0.46484-0.57031 0.0488-0.11719 0.55274-0.43945 0.27343-0.70313 0.0586c-0.0237-0.16519-0.041-0.29297-0.041-0.29297h-0.27149v-0.5918h1.1484l0.23828-0.61133 0.45508-0.01zm-3.0449 0.62109 0.50195 0.39453-0.0859 0.58203-0.83398 0.0684 0.0449-0.58008 0.37305-0.46484z" fill="#fff"/>
            </g>
          </g>
        </g>
      </g>
    </g>
  </g>
</svg>
