<svg xmlns="http://www.w3.org/2000/svg" viewBox="0 0 105 285" width="105" height="285"><path class="fil0" d="M6.64 63.872V4.388h26.362c5.32 0 9.345.54 12.095 1.6s4.96 2.947 6.613 5.643c1.635 2.713 2.462 5.696 2.462 8.967 0 4.223-1.366 7.781-4.097 10.675-2.732 2.893-6.937 4.726-12.652 5.517 2.103.988 3.666 1.995 4.744 2.965 2.3 2.103 4.475 4.744 6.524 7.907l10.28 16.21h-9.83L41.268 51.49c-2.282-3.576-4.17-6.308-5.661-8.213-1.492-1.887-2.821-3.216-3.99-3.971a11.945 11.945 0 0 0-3.594-1.582c-.88-.18-2.336-.27-4.385-.27h-9.11v26.418h-7.89zm7.888-33.228h16.91c3.595 0 6.398-.378 8.411-1.132 2.03-.737 3.558-1.923 4.6-3.577 1.043-1.617 1.582-3.396 1.582-5.319 0-2.821-1.024-5.14-3.055-6.955-2.03-1.815-5.247-2.713-9.632-2.713H14.528v19.696z" fill="#303036"/><path class="fil0" d="M101.453 64.465V4.98H75.09c-5.301 0-9.345.54-12.094 1.6-2.75 1.06-4.96 2.947-6.614 5.66-1.635 2.696-2.462 5.68-2.462 8.95 0 4.223 1.384 7.782 4.098 10.675 2.731 2.893 6.936 4.726 12.651 5.517-2.085.988-3.666 1.995-4.744 2.965-2.3 2.103-4.475 4.744-6.524 7.907l-10.279 16.21h9.83l7.871-12.382c2.283-3.576 4.17-6.308 5.661-8.213 1.492-1.887 2.822-3.216 4.008-3.971a11.661 11.661 0 0 1 3.576-1.582c.88-.18 2.336-.27 4.385-.27h9.11v26.418h7.89zm-7.89-33.228H76.672c-3.612 0-6.397-.378-8.428-1.132-2.013-.737-3.558-1.923-4.6-3.577-1.043-1.617-1.582-3.396-1.582-5.319 0-2.821 1.024-5.14 3.055-6.955 2.03-1.815 5.248-2.713 9.632-2.713h18.816v19.696z" fill="#303036"/><path class="fil0" d="M101.471 63.962v59.483H75.108c-5.301 0-9.327-.539-12.094-1.6-2.75-1.06-4.96-2.947-6.596-5.642-1.653-2.714-2.462-5.697-2.462-8.968 0-4.223 1.366-7.78 4.098-10.674 2.731-2.894 6.936-4.727 12.633-5.517-2.085-.989-3.666-1.995-4.744-2.965-2.3-2.103-4.475-4.745-6.506-7.908L49.14 63.961h9.83l7.871 12.383c2.283 3.576 4.188 6.307 5.661 8.212 1.492 1.887 2.822 3.217 4.008 3.972a12.05 12.05 0 0 0 3.576 1.581c.898.18 2.354.27 4.385.27h9.11V63.962h7.89zm-7.89 33.228H76.69c-3.594 0-6.397.377-8.428 1.132-2.013.737-3.558 1.923-4.583 3.576a9.51 9.51 0 0 0-1.581 5.32c0 2.82 1.006 5.14 3.037 6.954 2.049 1.815 5.248 2.714 9.65 2.714h18.798V97.19z" fill="#303036"/><path class="fil0" d="M6.657 63.602v59.484H33.02c5.302 0 9.327-.54 12.095-1.6 2.75-1.078 4.96-2.965 6.595-5.66 1.653-2.696 2.462-5.697 2.462-8.95 0-4.223-1.366-7.781-4.097-10.693-2.714-2.893-6.937-4.708-12.634-5.499 2.085-1.006 3.666-1.994 4.744-2.965 2.3-2.102 4.475-4.744 6.506-7.925l10.297-16.192h-9.83l-7.871 12.364c-2.282 3.594-4.187 6.326-5.661 8.213-1.492 1.905-2.821 3.217-4.007 3.99a12.466 12.466 0 0 1-3.577 1.563c-.898.18-2.354.287-4.385.287h-9.11V63.602h-7.89zm7.89 33.228h16.892c3.612 0 6.397.378 8.428 1.115 2.013.736 3.558 1.922 4.583 3.576a9.61 9.61 0 0 1 1.581 5.337c0 2.803-1.006 5.14-3.037 6.955-2.03 1.815-5.247 2.713-9.632 2.713H14.546V96.83z" fill="#303036"/><path class="fil2" d="M16.494 134.335l1.743-.054s-.305-.413-.593-.862l-1.474-2.498c.899-.306 1.636-1.079 1.636-2.085 0-1.563-1.132-2.534-3.11-2.534h-2.461s.072.575.072 1.15v6.83h1.617s-.054-.54-.054-1.061v-1.761h.953l1.67 2.875zm-2.624-3.918v-3.073h.665c1.096 0 1.671.558 1.671 1.42 0 .97-.557 1.653-1.905 1.653h-.43zm7.853 2.948c-.88 0-1.258-.827-1.258-2.031 0-1.15.414-1.851 1.204-1.851.953 0 1.24.809 1.24 2.103 0 1.132-.413 1.779-1.186 1.779zm-.18 1.024c1.798 0 2.912-1.204 2.912-3.145 0-1.69-.97-2.785-2.606-2.785-1.815 0-2.911 1.204-2.911 3.163 0 1.67.97 2.767 2.606 2.767zm6.596 0c.773 0 1.276-.288 1.51-.593l.035.54 1.492-.055s-.072-.593-.072-1.186v-7.422l-1.581.054s.072.521.072 1.168v1.941c-.216-.18-.558-.377-1.276-.377-1.456 0-2.732 1.096-2.732 3.198 0 1.582 1.006 2.732 2.552 2.732zm.395-1.078c-1.006 0-1.384-.845-1.384-1.923 0-1.186.504-1.905 1.402-1.905.521 0 .863.216 1.043.467v2.912c-.162.215-.54.449-1.06.449zm6.83.054c-.863 0-1.24-.827-1.24-2.031 0-1.15.395-1.851 1.185-1.851.97 0 1.258.809 1.258 2.103 0 1.132-.413 1.779-1.204 1.779zm-.18 1.024c1.814 0 2.91-1.204 2.91-3.145 0-1.69-.97-2.785-2.605-2.785-1.797 0-2.911 1.204-2.911 3.163 0 1.67.97 2.767 2.605 2.767zm4.384-.108h1.582s-.054-.539-.054-1.06v-7.566l-1.6.054s.072.593.072 1.186v7.386zm3.559 0h1.58s-.053-.539-.053-1.06v-3.612l1.671.036.054-1.06h-1.725v-.81c0-.664.234-1.042.737-1.042.467 0 .719.216 1.455.27l.216-1.168c-.61-.036-.988-.216-1.743-.216-1.42 0-2.175.88-2.175 2.085v.88h-.646v.989h.629v4.708zm6.685-.916c-.863 0-1.24-.827-1.24-2.031 0-1.15.395-1.851 1.186-1.851.97 0 1.258.809 1.258 2.103 0 1.132-.414 1.779-1.204 1.779zm-.18 1.024c1.815 0 2.911-1.204 2.911-3.145 0-1.69-.97-2.785-2.606-2.785-1.797 0-2.91 1.204-2.91 3.163 0 1.67.97 2.767 2.605 2.767zm7.26-.108h1.635s-.053-.539-.053-1.06v-1.761h.754c1.905 0 3.073-1.258 3.073-2.786 0-1.222-1.042-2.372-3-2.372h-2.48s.071.575.071 1.15v6.83zm1.582-3.882v-3.055h.664c1.043 0 1.564.594 1.564 1.384 0 1.007-.503 1.671-1.653 1.671h-.575zm7.637 3.99c1.258 0 1.94-.377 1.94-.377v-1.06s-.754.305-1.706.305c-1.043 0-1.761-.647-1.797-1.671h3.72c.215-1.69-.504-3.127-2.409-3.127-1.635 0-2.857 1.132-2.857 3.055 0 1.815 1.222 2.875 3.11 2.875zm-1.491-3.774c.09-.665.557-1.15 1.204-1.15.575 0 .88.306.916 1.114l-2.12.036zm5.121 3.666h1.582s-.054-.539-.054-1.06v-4.708l-1.6.071s.072.593.072 1.169v4.528zm.683-6.793c.557 0 .935-.323.935-.862 0-.486-.342-.773-.845-.773-.54 0-.935.287-.935.79 0 .504.378.845.845.845zm6.128 6.847l1.78-.054s-.36-.45-.666-.862l-1.581-2.085.665-.88a25.238 25.238 0 0 0 1.276-1.87h-1.312s-.18.306-.863 1.366l-.36.54-1.275-1.977-1.797.071s.36.396.719.935l1.401 2.013-.862 1.078c-.63.79-1.24 1.671-1.24 1.671h1.455s.306-.557.97-1.545l.27-.396 1.42 1.995zm5.068-.97c-.88 0-1.258-.827-1.258-2.031 0-1.15.413-1.851 1.204-1.851.952 0 1.24.809 1.24 2.103 0 1.132-.413 1.779-1.186 1.779zm-.18 1.024c1.797 0 2.911-1.204 2.911-3.145 0-1.69-.97-2.785-2.605-2.785-1.815 0-2.912 1.204-2.912 3.163 0 1.67.97 2.767 2.606 2.767zm6.721 0c.647 0 1.186-.234 1.186-.234v-1.006s-.485.18-.97.18c-.647 0-.917-.378-.917-1.096v-2.624l1.851.018.036-1.043H87.46v-1.33h-.683l-.808 1.33-.647.126v.863h.683s-.054.503-.054.934v2.013c0 1.312.755 1.869 2.21 1.869zm4.978-1.024c-.863 0-1.24-.827-1.24-2.031 0-1.15.395-1.851 1.186-1.851.97 0 1.258.809 1.258 2.103 0 1.132-.413 1.779-1.204 1.779zm-.18 1.024c1.815 0 2.912-1.204 2.912-3.145 0-1.69-.97-2.785-2.606-2.785-1.797 0-2.911 1.204-2.911 3.163 0 1.67.97 2.767 2.605 2.767z" fill="#4c4d4f"/><g fill="#fff"><path d="M19.103 171.633c-.257.048-.37.169-.337.362.032.192.176.257.433.192.257-.064.37-.177.337-.337-.031-.177-.176-.249-.433-.217zm-1.373.193c-.257 0-.385.088-.385.265 0 .209.136.297.409.265.257 0 .386-.088.386-.265 0-.208-.137-.297-.41-.265zm-1.879-.073c-.064.177.04.297.313.362.241.096.394.048.458-.145.048-.176-.056-.304-.313-.385-.241-.064-.394-.009-.458.168z"/><path d="M40.722 143.92c-1.357-1.358-2.99-2.036-4.902-2.036H12.695c-1.91 0-3.545.678-4.902 2.035-1.357 1.357-2.035 2.991-2.035 4.902v23.126c0 1.91.678 3.545 2.035 4.902 1.357 1.357 2.991 2.035 4.902 2.035h5.396c.353 0 .618-.012.795-.036.176-.024.353-.128.53-.313.176-.185.265-.454.265-.807l-.013-1.638a332.857 332.857 0 0 1-.012-2.482l-.554.097a7.09 7.09 0 0 1-1.337.084 10.287 10.287 0 0 1-1.674-.169 3.753 3.753 0 0 1-1.614-.722 3.058 3.058 0 0 1-1.06-1.481l-.24-.555c-.161-.369-.414-.778-.76-1.228-.345-.45-.694-.755-1.047-.915l-.169-.12a1.771 1.771 0 0 1-.313-.29 1.338 1.338 0 0 1-.216-.337c-.049-.113-.009-.205.12-.278.129-.072.361-.108.699-.108l.481.072c.321.064.719.257 1.193.578a3.9 3.9 0 0 1 1.168 1.253c.37.658.815 1.16 1.337 1.505.522.346 1.048.518 1.577.518.53 0 .988-.04 1.374-.12.385-.08.746-.2 1.083-.361.145-1.076.539-1.904 1.18-2.482a16.495 16.495 0 0 1-2.468-.434 9.84 9.84 0 0 1-2.265-.94 6.483 6.483 0 0 1-1.939-1.613c-.514-.643-.935-1.486-1.264-2.53-.33-1.044-.494-2.248-.494-3.613 0-1.943.634-3.597 1.903-4.962-.594-1.462-.538-3.1.169-4.914.465-.145 1.156-.036 2.071.325.916.362 1.586.67 2.012.927.425.257.767.474 1.024.651a17.098 17.098 0 0 1 4.625-.626c1.59 0 3.131.208 4.625.626l.915-.578a12.959 12.959 0 0 1 2.217-1.06c.85-.321 1.501-.41 1.95-.265.723 1.815.788 3.453.193 4.914 1.269 1.365 1.904 3.02 1.904 4.962 0 1.365-.165 2.574-.494 3.626-.33 1.052-.754 1.895-1.277 2.53a6.736 6.736 0 0 1-1.95 1.601c-.78.434-1.534.747-2.265.94-.731.192-1.554.337-2.47.434.835.722 1.253 1.862 1.253 3.42v5.757c0 .273.04.494.12.663.08.168.209.284.386.349.177.064.333.104.47.12.136.016.333.024.59.024h5.396c1.91 0 3.545-.678 4.901-2.035 1.357-1.357 2.036-2.992 2.036-4.902V148.82c0-1.91-.679-3.545-2.036-4.902z"/><path d="M13.08 168.815c-.112.08-.096.208.049.385.16.16.289.185.385.072.113-.08.097-.208-.048-.385-.16-.144-.289-.169-.385-.072zm-.794-.602c-.048.112.008.209.169.289.128.08.233.065.313-.048.048-.113-.008-.21-.169-.29-.16-.048-.265-.032-.313.049zm1.542 1.542c-.145.08-.145.225 0 .433.144.21.28.265.409.169.145-.113.145-.266 0-.458-.128-.209-.265-.257-.41-.144zm.843 1.083c-.145.129-.113.28.096.458.193.192.353.217.482.072.128-.128.096-.28-.097-.458-.192-.192-.353-.216-.481-.072z"/></g><g fill="#fff"><path d="M62.61 155.57c.468.33 1.879 1.312 4.233 2.943a1082.44 1082.44 0 0 1 5.41 3.767c.137.097.43.307.876.63.448.324.82.586 1.115.785.296.2.654.423 1.074.671.42.247.816.434 1.188.557.371.124.715.186 1.032.186h.041c.317 0 .661-.062 1.033-.186.371-.123.768-.31 1.187-.557.42-.248.778-.472 1.074-.67.296-.2.667-.462 1.115-.786.447-.323.74-.533.877-.63l9.663-6.71a9.809 9.809 0 0 0 2.519-2.54c.675-.99 1.012-2.03 1.012-3.117 0-.908-.328-1.686-.981-2.333-.654-.647-1.429-.97-2.323-.97H62.362c-1.06 0-1.875.357-2.447 1.073-.57.716-.856 1.61-.856 2.684 0 .867.378 1.807 1.135 2.819.757 1.011 1.563 1.806 2.416 2.384z"/><path d="M93.994 157.78c-4.515 3.055-7.943 5.43-10.282 7.123a48.72 48.72 0 0 1-1.91 1.352c-.489.324-1.14.654-1.951.991-.812.338-1.57.506-2.271.506h-.042c-.702 0-1.46-.168-2.271-.506-.812-.337-1.463-.667-1.951-.99a48.899 48.899 0 0 1-1.91-1.353c-1.858-1.363-5.279-3.738-10.262-7.124a10.937 10.937 0 0 1-2.085-1.796v16.394c0 .909.323 1.686.97 2.333a3.18 3.18 0 0 0 2.333.97h30.393a3.18 3.18 0 0 0 2.333-.97 3.18 3.18 0 0 0 .97-2.333v-16.394c-.591.66-1.28 1.26-2.064 1.796z"/></g><path d="M38.154 185.18H8.723a3.782 3.782 0 0 0-3.782 3.782v29.43a3.782 3.782 0 0 0 3.782 3.783h29.431a3.782 3.782 0 0 0 3.787-3.782v-29.431a3.782 3.782 0 0 0-3.787-3.783zm-.645 8.145s-5.477-1.999-5.477 2.07v3.072h5.343l-.474 5.075h-4.87v17.299h-6.544v-17.299H22.28v-5.075h3.207v-5.34s-.068-4.123 5.31-5.31c3.775-.836 7.445.37 7.445.37l-.733 5.138zm50.206-6.962H64.59a6.937 6.937 0 0 0-6.937 6.937v23.125a6.937 6.937 0 0 0 6.937 6.938h23.125a6.937 6.937 0 0 0 6.938-6.938V193.3a6.937 6.937 0 0 0-6.938-6.937zm-2.359 14.346l.014.59c0 6.022-4.58 12.96-12.96 12.96a12.89 12.89 0 0 1-6.98-2.047 9.14 9.14 0 0 0 6.743-1.885 4.562 4.562 0 0 1-4.255-3.164 4.753 4.753 0 0 0 .858.08 4.56 4.56 0 0 0 1.2-.158 4.56 4.56 0 0 1-3.654-4.465v-.058a4.548 4.548 0 0 0 2.063.571 4.554 4.554 0 0 1-2.026-3.79c0-.835.224-1.617.615-2.29a12.927 12.927 0 0 0 9.389 4.76 4.555 4.555 0 0 1 4.438-5.592c1.309 0 2.493.553 3.325 1.438a9.224 9.224 0 0 0 2.893-1.105 4.567 4.567 0 0 1-2.003 2.52 9.13 9.13 0 0 0 2.616-.716 9.207 9.207 0 0 1-2.276 2.351zm-44.203 34.028c-1.356-1.357-2.99-2.035-4.902-2.035H13.126c-1.911 0-3.545.678-4.902 2.035-1.357 1.357-2.036 2.991-2.036 4.902v23.126c0 1.91.679 3.545 2.036 4.902 1.357 1.357 2.991 2.035 4.902 2.035H36.25c1.911 0 3.545-.678 4.902-2.035 1.357-1.357 2.035-2.992 2.035-4.902v-23.126c0-1.91-.678-3.545-2.035-4.902zM17.462 263.68h-5.565v-16.718h5.565v16.718zm-.506-19.813c-.578.554-1.34.831-2.288.831h-.025c-.915 0-1.657-.277-2.228-.831-.57-.554-.855-1.24-.855-2.06 0-.835.293-1.525.88-2.071.586-.546 1.344-.82 2.276-.82.931 0 1.678.274 2.24.82.562.546.851 1.236.867 2.071 0 .82-.289 1.506-.867 2.06zM37.48 263.68h-5.565v-8.937c0-2.52-.931-3.782-2.794-3.782-.706 0-1.301.197-1.783.59a3.707 3.707 0 0 0-1.084 1.434c-.112.289-.168.738-.168 1.348v9.347H20.52c.048-10.085.048-15.658 0-16.718h5.565v2.36c1.17-1.83 2.831-2.746 4.986-2.746 1.927 0 3.477.635 4.65 1.903 1.172 1.269 1.758 3.14 1.758 5.613v9.588zm56.466-12.883c0 9.954-8.131 18.023-18.164 18.023-3.184 0-6.177-.814-8.78-2.242l-10.056 3.195 3.279-9.67a17.834 17.834 0 0 1-2.607-9.306c0-9.954 8.132-18.024 18.164-18.024 10.034 0 18.164 8.07 18.164 18.024zm-18.164-15.153c-8.42 0-15.27 6.798-15.27 15.153 0 3.316 1.08 6.386 2.908 8.884l-1.908 5.628 5.869-1.865a15.261 15.261 0 0 0 8.402 2.506c8.42 0 15.27-6.797 15.27-15.152 0-8.356-6.85-15.154-15.27-15.154zm9.173 19.304c-.113-.184-.409-.295-.854-.516-.445-.22-2.635-1.29-3.042-1.436-.408-.148-.706-.222-1.002.22-.297.443-1.15 1.437-1.41 1.732-.26.296-.52.333-.965.111-.445-.22-1.88-.687-3.58-2.192-1.324-1.17-2.217-2.616-2.477-3.06-.26-.441-.027-.68.195-.9.2-.198.446-.516.668-.774.223-.258.297-.442.445-.737.15-.295.075-.552-.037-.774-.111-.22-1.002-2.395-1.373-3.28-.371-.883-.741-.736-1.002-.736-.259 0-.556-.037-.853-.037-.297 0-.78.11-1.188.553-.408.442-1.557 1.51-1.557 3.684 0 2.174 1.594 4.275 1.817 4.569.223.294 3.08 4.9 7.606 6.67 4.527 1.768 4.527 1.178 5.343 1.104.816-.074 2.634-1.069 3.006-2.1.37-1.033.37-1.917.26-2.101z" fill="#fff"/></svg>