<?xml version="1.0" encoding="UTF-8" standalone="no"?>
<!-- Generator: Adobe Illustrator 16.0.0, SVG Export Plug-In . SVG Version: 6.00 Build 0)  -->

<svg
   xmlns:dc="http://purl.org/dc/elements/1.1/"
   xmlns:cc="http://creativecommons.org/ns#"
   xmlns:rdf="http://www.w3.org/1999/02/22-rdf-syntax-ns#"
   xmlns:svg="http://www.w3.org/2000/svg"
   xmlns="http://www.w3.org/2000/svg"
   xmlns:sodipodi="http://sodipodi.sourceforge.net/DTD/sodipodi-0.dtd"
   xmlns:inkscape="http://www.inkscape.org/namespaces/inkscape"
   version="1.1"
   id="Capa_1"
   x="0px"
   y="0px"
   width="297mm"
   height="210mm"
   viewBox="0 0 67.298564 47.584843"
   xml:space="preserve"
   sodipodi:docname="canudoLogo.svg"
   inkscape:version="0.92.1 unknown"><metadata
     id="metadata8535"><rdf:RDF><cc:Work
         rdf:about=""><dc:format>image/svg+xml</dc:format><dc:type
           rdf:resource="http://purl.org/dc/dcmitype/StillImage" /><dc:title></dc:title></cc:Work></rdf:RDF></metadata><defs
     id="defs8533" /><sodipodi:namedview
     pagecolor="#ffffff"
     bordercolor="#666666"
     borderopacity="1"
     objecttolerance="10"
     gridtolerance="10"
     guidetolerance="10"
     inkscape:pageopacity="0"
     inkscape:pageshadow="2"
     inkscape:window-width="1920"
     inkscape:window-height="1014"
     id="namedview8531"
     showgrid="false"
     units="mm"
     inkscape:zoom="0.73925781"
     inkscape:cx="675.48838"
     inkscape:cy="354.74909"
     inkscape:window-x="0"
     inkscape:window-y="27"
     inkscape:window-maximized="1"
     inkscape:current-layer="Capa_1" /><text
     id="text8543"
     y="29.799961"
     x="15.037978"
     style="font-style:normal;font-weight:normal;font-size:2.03925538px;line-height:1.27453458px;font-family:sans-serif;letter-spacing:0px;word-spacing:0px;fill:#483737;fill-opacity:1;stroke:none;stroke-width:0.05995313px;stroke-linecap:butt;stroke-linejoin:miter;stroke-opacity:1"
     xml:space="preserve"><tspan
       style="font-style:normal;font-variant:normal;font-weight:normal;font-stretch:normal;font-size:10.53615284px;font-family:'Roboto Condensed';-inkscape-font-specification:'Roboto Condensed, ';fill:#483737;fill-opacity:1;stroke-width:0.05995313px"
       y="29.799961"
       x="15.037978"
       id="tspan8541"
       sodipodi:role="line">CANUDO</tspan></text>
<g
     id="g8500"
     transform="translate(0,16.888842)" /><g
     id="g8502"
     transform="translate(0,16.888842)" /><g
     id="g8504"
     transform="translate(0,16.888842)" /><g
     id="g8506"
     transform="translate(0,16.888842)" /><g
     id="g8508"
     transform="translate(0,16.888842)" /><g
     id="g8510"
     transform="translate(0,16.888842)" /><g
     id="g8512"
     transform="translate(0,16.888842)" /><g
     id="g8514"
     transform="translate(0,16.888842)" /><g
     id="g8516"
     transform="translate(0,16.888842)" /><g
     id="g8518"
     transform="translate(0,16.888842)" /><g
     id="g8520"
     transform="translate(0,16.888842)" /><g
     id="g8522"
     transform="translate(0,16.888842)" /><g
     id="g8524"
     transform="translate(0,16.888842)" /><g
     id="g8526"
     transform="translate(0,16.888842)" /><g
     id="g8528"
     transform="translate(0,16.888842)" /><g
     id="g8498"
     transform="matrix(0.32775278,0,0,0.32775278,29.601872,11.870135)"
     style="fill:#483737;stroke-width:3.05107975"><path
       d="M 28.278,2.705 27.816,2.225 27.351,2.704 C 26.961,3.105 26.58,3.496 26.205,3.876 25.286,3.05 23.142,1.454 20.383,1.566 L 20.025,1.581 19.848,1.894 C 16.646,7.556 4.765,15.648 3.376,16.581 2.844,16.77 2.256,17.139 1.63,17.787 c -2.257,2.343 -1.889,5.903 -0.59,8.221 1.116,1.993 2.847,3.129 4.673,3.129 0.319,0 0.642,-0.034 0.965,-0.105 0.896,-0.197 1.586,-0.646 2.114,-1.258 0.884,-0.906 5.29,-5.388 9.507,-9.1 0.436,0.517 1.611,2.004 2.09,3.567 0.591,1.939 0.85,4.909 0.85,4.909 l 0.967,-2.102 1.398,0.441 c 0,0 -0.205,-2.709 -1.013,-4.27 -0.806,-1.561 -1.936,-3.171 -1.936,-3.171 0,0 2.086,1.051 3.278,2.363 1.193,1.314 2.28,3.978 2.28,3.978 l 0.793,-1.55 2.289,-0.539 c 0,0 -3.545,-3.217 -4.396,-3.822 -0.756,-0.539 -2.845,-1.89 -3.42,-2.477 3.328,-2.656 6.388,-4.736 6.652,-4.886 C 29.597,10.286 30.47,9.172 30.656,7.897 30.888,6.33 30.088,4.581 28.278,2.705 Z M 8.866,18.348 C 9.284,20.726 9.655,27.055 6.399,27.773 4.5,28.192 2.966,26.811 2.164,25.378 1.093,23.463 0.759,20.552 2.56,18.683 3.461,17.745 4.282,17.48 5.001,17.888 c 0.475,0.27 0.871,0.773 1.17,1.359 -0.468,0.454 -1.455,1.373 -3.274,2.92 l -0.288,0.246 0.073,0.372 c 0.48,2.396 1.791,2.698 2.332,2.718 1.262,0.025 2.461,-1.129 2.954,-2.922 0.42,-1.525 -0.39,-4.71 -2.329,-5.813 -0.044,-0.026 -0.091,-0.05 -0.141,-0.076 1.684,-1.171 4.497,-3.203 7.324,-5.548 1.148,0.216 2.652,0.704 3.595,1.796 -5.007,4.09 -7.034,4.662 -7.06,4.667 L 8.76,17.743 Z m -2.212,2.22 c 0.152,0.644 0.184,1.257 0.07,1.669 -0.355,1.292 -1.105,1.978 -1.643,1.978 -0.008,0 -0.015,0 -0.022,-0.002 -0.43,-0.015 -0.802,-0.5 -1.028,-1.318 1.256,-1.075 2.09,-1.828 2.623,-2.327 z m 3.53,3.977 c 0.432,-2.291 0.182,-4.8 0.034,-5.885 0.942,-0.396 3.099,-1.526 6.893,-4.615 0.576,1.168 0.831,2.305 0.94,3.135 -2.838,2.457 -5.833,5.349 -7.867,7.365 z M 15.875,8.469 c 2.024,-1.887 3.821,-3.838 4.903,-5.618 2.076,0.05 3.752,1.276 4.513,1.942 C 23.049,7.035 21.079,8.889 19.36,10.42 18.242,9.036 16.93,8.576 15.875,8.469 Z M 29.383,7.714 c -0.129,0.879 -0.762,1.647 -1.886,2.284 -0.407,0.23 -3.188,2.142 -6.24,4.54 -0.008,-0.595 -0.18,-1.45 -1.158,-3.043 2.167,-1.926 4.718,-4.35 7.704,-7.405 1.199,1.372 1.73,2.59 1.58,3.624 z"
       id="path8496"
       inkscape:connector-curvature="0"
       style="fill:#483737;stroke-width:9.23453045" /></g></svg>