<svg width="300" height="320" version="1.1" viewBox="0 0 79.374998 84.666669" xmlns="http://www.w3.org/2000/svg" xmlns:xlink="http://www.w3.org/1999/xlink">
  <defs>
    <linearGradient id="linearGradient8625" x1="647.6" x2="367.12" y1="648.1" y2="359.38" gradientTransform="matrix(.49118 0 0 .49118 -1290.1 -1480.9)" gradientUnits="userSpaceOnUse">
      <stop offset="0"/>
      <stop stop-opacity="0" offset="1"/>
    </linearGradient>
  </defs>
  <g transform="translate(0 -212.33)">
    <g id="engep" transform="matrix(.43149 0 0 .43149 -128.85 63.108)" stroke-width=".65407">
      <g transform="matrix(.85995 0 0 .85995 1357.4 1568.5)" stroke-width=".65407">
        <path d="m-1188.5-1392h130.59c12.767 0 23.045 10.278 23.045 23.045v130.59c0 12.767-10.278 23.045-23.045 23.045h-130.59c-12.767 0-23.045-10.278-23.045-23.045v-130.59c0-12.767 10.278-23.045 23.045-23.045z" fill="#0c262d"/>
        <g transform="matrix(.33448 0 0 .33448 -883.76 -1426.5)" fill-opacity=".22156">
          <g transform="matrix(.84083 0 0 .84083 -107.33 -3.6396)" fill-opacity=".22156">
            <rect x="-902.57" y="454.35" width="347.49" height="23.234" ry="0"/>
            <rect x="-771.25" y="380.61" width="19.193" height="76.267"/>
            <g transform="translate(-846)" fill-rule="evenodd">
              <path d="m41.669 305.83h5.8084l0.75761 138.67z"/>
              <path d="m31.429 314.51 0.17857 3.9286 26.429-2.1429z"/>
              <path d="m65.536 447.72-10.179-131.07-2.6786 0.17857z"/>
              <path d="m33.146 316.09h3.6076l-10.751 133.5z"/>
              <path d="m35.804 325.84-0.26786 3.5714 19.196 11.429z"/>
              <path d="m54.464 325.84 0.26786 3.5714-19.196 11.429z"/>
              <path d="m34.554 340.93-0.44643 3.0357 21.078-1.4034z"/>
              <g transform="matrix(1.1182 0 0 1.1182 -5.5462 -22.095)">
                <path d="m35.804 325.84-0.26786 3.5714 19.196 11.429z"/>
                <path d="m54.464 325.84 0.26786 3.5714-19.196 11.429z"/>
                <path d="m34.554 340.93-0.44643 3.0357 21.078-2.4414z"/>
              </g>
              <path d="m33.125 359.59-0.44643 3.75l26.071 13.839z"/>
              <path d="m56.429 360.49 0.35714 3.0357-22.143 14.196z"/>
              <path d="m32.143 379.95 0.08929-2.5l24.018 1.1607z"/>
              <path d="m58.929 379.33 0.17857 3.75l-24.107 14.643z"/>
              <path d="m31.786 380.04 4.4643-0.66964 23.033 17.655z"/>
              <path d="m30.368 399.49 2.336-1.7678 24.875 0.44194z"/>
              <path d="m30 399.68 5.2679-0.35714 24.375 18.482z"/>
              <path d="m58.571 397.54 2.3214 2.1429-31.696 19.821z"/>
              <path d="m59.464 419.86-30.536 2.1429 0.17857-2.5893z"/>
              <path d="m60.804 420.93 2.5893 2.5-35.714 21.429z"/>
              <path d="m63.036 443.88-31.518-21.786h-2.6786z"/>
            </g>
            <rect x="-860.65" y="402.33" width="54.548" height="59.599"/>
            <rect x="-743.97" y="369.5" width="55.558" height="87.883"/>
            <rect x="-742.79" y="359.51" width="80.714" height="6.4286"/>
            <rect x="-699.53" y="424.68" width="61.304" height="34.724"/>
            <path d="m-675.29 173.53 0.38086 10.633-12.346-0.63281-0.17773 3.6543 2.002-0.17773-14.102 234.77 2.2793-30.525 0.12305 1.3613 1.166-0.043 24.594 14.918-24.385 17 26.297-15.842 25.703 15.592-24.105-16.553 23.98-14.447-2.75-3-20.352 14.189-0.22461-12.902 18.201-0.66211-18.219-0.37695-0.27734-15.883 22.621 13.385-22.654-15.35-0.01-0.55469 19.039-11.721-1.75-2.125-17.322 11.904-0.22656-12.926 17.549 0.14649-0.25-3.125-17.346 0.19531-0.23047-13.166 17.502 11.148-17.535-13.061-8e-3 -0.45118 16.836-10.971-2.209-2.2109-14.664 11.006-0.21289-12.186 14.258-0.67579-14.277-0.45703-0.18164-10.498 16.443 9.8262-16.471-11.375-0.0293-1.6836 15.055-9.75 12.506 116.04-20.707-231.06 0.52734-0.0469-9.5625-0.49024-0.18359-10.59-4.2949-0.25195zm9.3594 11.748 1.1894 11.037-5.7793 4.75-0.26758-15.355zm-8.9102 0.79102 0.58203 16.232-8.3828-6.8066 0.6582-8.793zm-8.0762 13.115 8.3984 5.166-8.2832 6.8086 8.6738-5.2266 0.23438 6.5527-9.9688-0.6211zm18.576 0.84766 1.2207 11.312-7.3242-5.9453-0.0293-1.6699zm-6.0781 6.8398 7.2988 4.4902 0.19531 1.8047-7.3926-0.46094zm7.4961 6.3164 0.16797 1.5488-7.4238 5.9551-0.12305-7.1152zm-10.924 0.57617 0.26172 7.2812-8.6191-6.8418zm-9.209 0.48438c-0.40883 0.69045-0.66703 1.1047-1.127 1.8906l0.13867-1.8379 0.98828-0.0527zm-1.1523 2.2441 10.699 6.6934 6e-3 0.17383-9.1094 7.3066 9.1621-5.8242 0.24023 6.6875-12.08-0.54492 1.082-14.492zm21.787 1.3398 1.5859 14.717-9.0117 7.2148-0.125-7.1367 7.3145-0.62109-7.3301-0.33008-0.11133-6.3574 8.9512 5.5996-8.9766-7.127-0.0195-1.0508 7.7226-4.9082zm-10.74 15.064 0.23437 6.5078-8.127-5.8379zm-12.412 1.875 12.73 6.9727 0.0137 0.40625-10.186 8.1582 10.248-6.4277 0.27149 7.5488-13.559-0.56055-0.41015 1.8945 0.88671-0.0273-1.3496 0.16992 1.3535-18.135zm25.125 1.3828 4.0723 37.773-2.0039-2.5039-1.9609 1.6094-8.9336-0.40039-0.14453-8.2285 10.545 6.8262-10.566-8.1133-4e-3 -0.23633 10.877-6.8945-0.125-3.0625-10.783 8.2109-0.1543-8.8945 9.5879-0.29687-9.5996-0.39648-0.14062-8.127 10.295 5.6387-10.039-7.2109 9.0781-5.6934zm-12.016 16.176 0.3125 8.7031-10.906-8.375zm-14.475 0.73242 14.846 9.6094 0.0156 0.4414-11.24 8.5606 11.291-7.1582 0.2871 8.0059-12.609-0.5664-0.38086 1.5039-1.4688-1.123-2.1211 1.8555 14.76 9.6914-13.758 11.291 15.482-10.158 0.55664 0.36524 0.39063 10.879-19.219-0.76172 3.168-42.436zm26.566 19.998-8.7695 7.1973-0.11523-6.5996zm-11.32 0.76172 0.29688 8.2852-0.97657 0.80078-10.867-8.3086zm15.41 0.99023 2.707 25.102-2.3672-2.8027-12.732 9.9473-0.17188-9.8457 11.592-0.41406-11.607-0.45899-0.16406-9.4805 12.879 8.457-12.904-9.8691-0.0391-2.2324 12.809-8.4023zm-14.568 22.471 0.40039 11.162-1.1133 0.86914-16.531-11.416zm-19.41 0.69141-0.0332 0.0469 4e-3 -0.0449 0.0293-2e-3zm-0.16992 1.8789 17.553 10.488-15.627 12.207 17.305-11.207 0.87304 0.52148 0.41211 11.496-22.217-0.7129zm20.561 24.758 0.46679 13.049-0.48828 0.36718-16.934-12.611zm-22.053 1.0449-0.28711 0.24219 20.816 13.258-18.959 14.23 20.416-13.303 0.63476 0.4043 0.50196 13.953-25.729 0.28906 2.1699-29.053 0.43555-0.0215zm-2.7734 31.334 4.0254 0.0332-2.584 2.3379 22.225 13.15-23.975 16.475 25.395-15.633 1.5195 0.89843 0.58203 16.227-29.641-0.61329 2.4531-32.875zm4.123 0.0352 21.871 0.18164 0.48047 13.375-1.1641 0.79883zm23.104 34.508 0.46289 12.91-2.7656 1.9277-20.406-14.012z" fill-rule="evenodd"/>
            <rect x="-688.44" y="425.64" width="55" height="3"/>
            <path d="m-509.51 344.33c-2.367-1.5e-4 -4.2862 1.9182-4.2871 4.2852-1.5e-4 2.3678 1.9193 4.2873 4.2871 4.2871 1.2167-1e-3 2.3755-0.51972 3.1875-1.4258l0.61328 0.41016 0.8457 60.994c-1.9698 0.0258-3.5664 1.6316-3.5664 3.6074 0 1.9918 1.6214 3.6133 3.6133 3.6133 0.68937 0 1.5175-0.20444 1.7792-0.35533 0.26174-0.15089 0.11471 0.85809 0 1.0858-0.56348 1.1184-3.8313 0.89404-4.7794-1.125 0 3.6512 5.2471 4.6164 6.3766 1.2812 0.49641-1.4659 0.20708-4.2484 0.20098-5.1396-6e-3 -0.89125-0.89061-2.1306-2.1479-2.6749l-0.50977-63.232-1.3574-0.83789c0.0197-0.16203 0.0301-0.32506 0.0312-0.48828-9.2e-4 -2.367-1.9201-4.2853-4.2871-4.2852zm-5.5237 3.9766 1.547-0.47187s1.3338-1.1831-3.1863 0.14451c-15.808 4.6428-76.855 23.446-92.579 28.064l-24.09-0.0274v0.17578h-1.1914v79.729h4.5723v-10.607h15.287c1.0926 0 2.4399-1.1478 2.3867-2.2969s-1.5069-2.2988-2.3867-2.2988h-15.287v-40.34c1.7532 3.8675 6.2581 6.6113 11.582 6.6113h12.5c6.8558 0 12.375-4.5436 12.375-10.188 0-3.5315-2.1619-6.6307-5.459-8.457h6e-3l-2.7793-12.303-1.9766 6e-3 19.275-6.0137 3.7578 9.6426-12.604 5.5147c-0.41031 0.21684-2.8914 1.5526-2.8914 1.5526-0.0765 0.21129 4.232-1.186 8.3805-2.8552 6.7555-2.7183 22.309-9.1612 37.862-15.604s31.106-12.885 37.86-15.602l-0.79687-1.1484-8.6758 3.6016-1.8848-4.1387zm-9.6814 3.0898-0.73437 0.19922 1.752 4.4316-26.979 11.195-2.4726-6.9531zm-30.76 9.5977 3.0605 6.9512-27 11.205-3.3691-9.5859-0.22656 0.0234zm-74.486 19.266h25.049l0.45508 6.4258c-0.46692-0.0436-0.94033-0.0723-1.4219-0.0723h-12.5c-5.3239 0-9.8288 2.7458-11.582 6.6133zm4.3945 29.791s-4.1751 0.68456-4.125 2.25c0.0316 0.98749 2.6875 1.25 2.6875 1.25l7.25 0.0625 10.688 40.844c0.68244 1.182 2.6329 1.4297 3.2441-0.91016l-10.994-43.496zm122.2 4.0859-4e-3 0.041c-4e-3 -3e-3 -8e-3 -5e-3 -0.0117-8e-3 8.8e-4 -2e-3 0.0156-0.0332 0.0156-0.0332zm-1.5293 0.41015c0.0844 0 0.16469 0.0148 0.2461 0.0254 0.11837 0.21408 0.30092 0.42578 0.55468 0.42578 0.0976 0 0.18909-0.0477 0.27149-0.11718 0.49723 0.34142 0.82422 0.91198 0.82422 1.5625 0 1.0496-0.84686 1.8984-1.8965 1.8984s-1.8984-0.8488-1.8984-1.8984 0.84881-1.8965 1.8984-1.8965z"/>
            <path d="m-876.62 548.65c11.102-11.934 27.992-22.084 44.699-16.286 17.413 4.4488 30.486 21.47 49.574 19.655 15.835-0.0989 25.165-14.174 38.002-20.884 12.398-7.0315 28.195-3.5306 38.09 6.1521 8.8942 8.0017 19.233 16.7 32.059 15.34 12.511 0.44853 24.923-3.9591 34.033-12.598 11.552-9.0227 26.817-17.706 41.745-11.73 6.9386 2.626 18.131 12.678 19.539 15.632-10.449-7.9897-23.488-17.937-37.361-12.424-20.094 6.2267-33.602 28.139-56.212 27.104-16.902 0.0123-30.985-10.725-43.105-21.269-10.905-6.8193-26.485-5.538-35.199 4.9985-9.1397 11.051-24.422 16.634-38.862 14.338-21.131-1.079-34.969-23.327-56.714-21.549-11.732 0.0959-21.187 6.9778-30.289 13.519z" fill-rule="evenodd"/>
            <path d="m-870.44 476.97 45.602 58.906-52.934 61.266 10.57 0.11947 47.118-55.241 42.913 55.434 23.954-0.16989-53.335-71.133 41.952-49.183h-9.3439l-37.2 43.056-32.284-43.056h-27.012z" fill-rule="evenodd"/>
            <rect x="-735.38" y="476.97" width="20.387" height="122.7"/>
            <g transform="matrix(1.3591 0 0 1.3591 -897.11 -172.12)" fill-rule="evenodd">
              <path d="m148.75 477.59h16.25l33.5 71.277-4 21.25z"/>
              <path d="m194.5 570.11 42.5-92.527h-6.75l-31.75 71.277z"/>
            </g>
            <path d="m-870.44 476.97 45.602 58.906-52.934 61.266 10.57 0.11947 47.118-55.241 42.913 55.434 23.954-0.16989-53.335-71.133 41.952-49.183h-9.3439l-37.2 43.056-32.284-43.056h-27.012z" fill-rule="evenodd"/>
            <rect x="-735.38" y="476.97" width="20.387" height="122.7"/>
            <g transform="matrix(1.3591 0 0 1.3591 -897.11 -172.12)" fill-rule="evenodd">
              <path d="m148.75 477.59h16.25l33.5 71.277-4 21.25z"/>
              <path d="m194.5 570.11 42.5-92.527h-6.75l-31.75 71.277z"/>
            </g>
            <rect x="-927.41" y="596.58" width="404.47" height="11.314"/>
          </g>
        </g>
        <g transform="matrix(.33448 0 0 .33448 -886.43 -1428.5)">
          <g transform="matrix(.84083 0 0 .84083 -107.33 -3.6396)" fill="#fff">
            <rect x="-902.57" y="454.35" width="347.49" height="23.234" ry="0"/>
            <rect x="-771.25" y="380.61" width="19.193" height="76.267"/>
            <g transform="translate(-846)" fill-rule="evenodd">
              <path d="m41.669 305.83h5.8084l0.75761 138.67z"/>
              <path d="m31.429 314.51 0.17857 3.9286 26.429-2.1429z"/>
              <path d="m65.536 447.72-10.179-131.07-2.6786 0.17857z"/>
              <path d="m33.146 316.09h3.6076l-10.751 133.5z"/>
              <path d="m35.804 325.84-0.26786 3.5714 19.196 11.429z"/>
              <path d="m54.464 325.84 0.26786 3.5714-19.196 11.429z"/>
              <path d="m34.554 340.93-0.44643 3.0357 21.078-1.4034z"/>
              <g transform="matrix(1.1182 0 0 1.1182 -5.5462 -22.095)">
                <path d="m35.804 325.84-0.26786 3.5714 19.196 11.429z"/>
                <path d="m54.464 325.84 0.26786 3.5714-19.196 11.429z"/>
                <path d="m34.554 340.93-0.44643 3.0357 21.078-2.4414z"/>
              </g>
              <path d="m33.125 359.59-0.44643 3.75l26.071 13.839z"/>
              <path d="m56.429 360.49 0.35714 3.0357-22.143 14.196z"/>
              <path d="m32.143 379.95 0.08929-2.5l24.018 1.1607z"/>
              <path d="m58.929 379.33 0.17857 3.75l-24.107 14.643z"/>
              <path d="m31.786 380.04 4.4643-0.66964 23.033 17.655z"/>
              <path d="m30.368 399.49 2.336-1.7678 24.875 0.44194z"/>
              <path d="m30 399.68 5.2679-0.35714 24.375 18.482z"/>
              <path d="m58.571 397.54 2.3214 2.1429-31.696 19.821z"/>
              <path d="m59.464 419.86-30.536 2.1429 0.17857-2.5893z"/>
              <path d="m60.804 420.93 2.5893 2.5-35.714 21.429z"/>
              <path d="m63.036 443.88-31.518-21.786h-2.6786z"/>
            </g>
            <rect x="-860.65" y="402.33" width="54.548" height="59.599"/>
            <rect x="-743.97" y="369.5" width="55.558" height="87.883"/>
            <rect x="-742.79" y="359.51" width="80.714" height="6.4286"/>
            <rect x="-699.53" y="424.68" width="61.304" height="34.724"/>
            <path d="m-675.29 173.53 0.38086 10.633-12.346-0.63281-0.17773 3.6543 2.002-0.17773-14.102 234.77 2.2793-30.525 0.12305 1.3613 1.166-0.043 24.594 14.918-24.385 17 26.297-15.842 25.703 15.592-24.105-16.553 23.98-14.447-2.75-3-20.352 14.189-0.22461-12.902 18.201-0.66211-18.219-0.37695-0.27734-15.883 22.621 13.385-22.654-15.35-0.01-0.55469 19.039-11.721-1.75-2.125-17.322 11.904-0.22656-12.926 17.549 0.14649-0.25-3.125-17.346 0.19531-0.23047-13.166 17.502 11.148-17.535-13.061-8e-3 -0.45118 16.836-10.971-2.209-2.2109-14.664 11.006-0.21289-12.186 14.258-0.67579-14.277-0.45703-0.18164-10.498 16.443 9.8262-16.471-11.375-0.0293-1.6836 15.055-9.75 12.506 116.04-20.707-231.06 0.52734-0.0469-9.5625-0.49024-0.18359-10.59-4.2949-0.25195zm9.3594 11.748 1.1894 11.037-5.7793 4.75-0.26758-15.355zm-8.9102 0.79102 0.58203 16.232-8.3828-6.8066 0.6582-8.793zm-8.0762 13.115 8.3984 5.166-8.2832 6.8086 8.6738-5.2266 0.23438 6.5527-9.9688-0.6211zm18.576 0.84766 1.2207 11.312-7.3242-5.9453-0.0293-1.6699zm-6.0781 6.8398 7.2988 4.4902 0.19531 1.8047-7.3926-0.46094zm7.4961 6.3164 0.16797 1.5488-7.4238 5.9551-0.12305-7.1152zm-10.924 0.57617 0.26172 7.2812-8.6191-6.8418zm-9.209 0.48438c-0.40883 0.69045-0.66703 1.1047-1.127 1.8906l0.13867-1.8379 0.98828-0.0527zm-1.1523 2.2441 10.699 6.6934 6e-3 0.17383-9.1094 7.3066 9.1621-5.8242 0.24023 6.6875-12.08-0.54492 1.082-14.492zm21.787 1.3398 1.5859 14.717-9.0117 7.2148-0.125-7.1367 7.3145-0.62109-7.3301-0.33008-0.11133-6.3574 8.9512 5.5996-8.9766-7.127-0.0195-1.0508 7.7226-4.9082zm-10.74 15.064 0.23437 6.5078-8.127-5.8379zm-12.412 1.875 12.73 6.9727 0.0137 0.40625-10.186 8.1582 10.248-6.4277 0.27149 7.5488-13.559-0.56055-0.41015 1.8945 0.88671-0.0273-1.3496 0.16992 1.3535-18.135zm25.125 1.3828 4.0723 37.773-2.0039-2.5039-1.9609 1.6094-8.9336-0.40039-0.14453-8.2285 10.545 6.8262-10.566-8.1133-4e-3 -0.23633 10.877-6.8945-0.125-3.0625-10.783 8.2109-0.1543-8.8945 9.5879-0.29687-9.5996-0.39648-0.14062-8.127 10.295 5.6387-10.039-7.2109 9.0781-5.6934zm-12.016 16.176 0.3125 8.7031-10.906-8.375zm-14.475 0.73242 14.846 9.6094 0.0156 0.4414-11.24 8.5606 11.291-7.1582 0.2871 8.0059-12.609-0.5664-0.38086 1.5039-1.4688-1.123-2.1211 1.8555 14.76 9.6914-13.758 11.291 15.482-10.158 0.55664 0.36524 0.39063 10.879-19.219-0.76172 3.168-42.436zm26.566 19.998-8.7695 7.1973-0.11523-6.5996zm-11.32 0.76172 0.29688 8.2852-0.97657 0.80078-10.867-8.3086zm15.41 0.99023 2.707 25.102-2.3672-2.8027-12.732 9.9473-0.17188-9.8457 11.592-0.41406-11.607-0.45899-0.16406-9.4805 12.879 8.457-12.904-9.8691-0.0391-2.2324 12.809-8.4023zm-14.568 22.471 0.40039 11.162-1.1133 0.86914-16.531-11.416zm-19.41 0.69141-0.0332 0.0469 4e-3 -0.0449 0.0293-2e-3zm-0.16992 1.8789 17.553 10.488-15.627 12.207 17.305-11.207 0.87304 0.52148 0.41211 11.496-22.217-0.7129zm20.561 24.758 0.46679 13.049-0.48828 0.36718-16.934-12.611zm-22.053 1.0449-0.28711 0.24219 20.816 13.258-18.959 14.23 20.416-13.303 0.63476 0.4043 0.50196 13.953-25.729 0.28906 2.1699-29.053 0.43555-0.0215zm-2.7734 31.334 4.0254 0.0332-2.584 2.3379 22.225 13.15-23.975 16.475 25.395-15.633 1.5195 0.89843 0.58203 16.227-29.641-0.61329 2.4531-32.875zm4.123 0.0352 21.871 0.18164 0.48047 13.375-1.1641 0.79883zm23.104 34.508 0.46289 12.91-2.7656 1.9277-20.406-14.012z" fill-rule="evenodd"/>
            <rect x="-688.44" y="425.64" width="55" height="3"/>
            <path d="m-509.51 344.33c-2.367-1.5e-4 -4.2862 1.9182-4.2871 4.2852-1.5e-4 2.3678 1.9193 4.2873 4.2871 4.2871 1.2167-1e-3 2.3755-0.51972 3.1875-1.4258l0.61328 0.41016 0.8457 60.994c-1.9698 0.0258-3.5664 1.6316-3.5664 3.6074 0 1.9918 1.6214 3.6133 3.6133 3.6133 0.68937 0 1.5175-0.20444 1.7792-0.35533 0.26174-0.15089 0.11471 0.85809 0 1.0858-0.56348 1.1184-3.8313 0.89404-4.7794-1.125 0 3.6512 5.2471 4.6164 6.3766 1.2812 0.49641-1.4659 0.20708-4.2484 0.20098-5.1396-6e-3 -0.89125-0.89061-2.1306-2.1479-2.6749l-0.50977-63.232-1.3574-0.83789c0.0197-0.16203 0.0301-0.32506 0.0312-0.48828-9.2e-4 -2.367-1.9201-4.2853-4.2871-4.2852zm-5.5237 3.9766 1.547-0.47187s1.3338-1.1831-3.1863 0.14451c-15.808 4.6428-76.855 23.446-92.579 28.064l-24.09-0.0274v0.17578h-1.1914v79.729h4.5723v-10.607h15.287c1.0926 0 2.4399-1.1478 2.3867-2.2969s-1.5069-2.2988-2.3867-2.2988h-15.287v-40.34c1.7532 3.8675 6.2581 6.6113 11.582 6.6113h12.5c6.8558 0 12.375-4.5436 12.375-10.188 0-3.5315-2.1619-6.6307-5.459-8.457h6e-3l-2.7793-12.303-1.9766 6e-3 19.275-6.0137 3.7578 9.6426-12.604 5.5147c-0.41031 0.21684-2.8914 1.5526-2.8914 1.5526-0.0765 0.21129 4.232-1.186 8.3805-2.8552 6.7555-2.7183 22.309-9.1612 37.862-15.604s31.106-12.885 37.86-15.602l-0.79687-1.1484-8.6758 3.6016-1.8848-4.1387zm-9.6814 3.0898-0.73437 0.19922 1.752 4.4316-26.979 11.195-2.4726-6.9531zm-30.76 9.5977 3.0605 6.9512-27 11.205-3.3691-9.5859-0.22656 0.0234zm-74.486 19.266h25.049l0.45508 6.4258c-0.46692-0.0436-0.94033-0.0723-1.4219-0.0723h-12.5c-5.3239 0-9.8288 2.7458-11.582 6.6133zm4.3945 29.791s-4.1751 0.68456-4.125 2.25c0.0316 0.98749 2.6875 1.25 2.6875 1.25l7.25 0.0625 10.688 40.844c0.68244 1.182 2.6329 1.4297 3.2441-0.91016l-10.994-43.496zm122.2 4.0859-4e-3 0.041c-4e-3 -3e-3 -8e-3 -5e-3 -0.0117-8e-3 8.8e-4 -2e-3 0.0156-0.0332 0.0156-0.0332zm-1.5293 0.41015c0.0844 0 0.16469 0.0148 0.2461 0.0254 0.11837 0.21408 0.30092 0.42578 0.55468 0.42578 0.0976 0 0.18909-0.0477 0.27149-0.11718 0.49723 0.34142 0.82422 0.91198 0.82422 1.5625 0 1.0496-0.84686 1.8984-1.8965 1.8984s-1.8984-0.8488-1.8984-1.8984 0.84881-1.8965 1.8984-1.8965z"/>
            <path d="m-876.62 548.65c11.102-11.934 27.992-22.084 44.699-16.286 17.413 4.4488 30.486 21.47 49.574 19.655 15.835-0.0989 25.165-14.174 38.002-20.884 12.398-7.0315 28.195-3.5306 38.09 6.1521 8.8942 8.0017 19.233 16.7 32.059 15.34 12.511 0.44853 24.923-3.9591 34.033-12.598 11.552-9.0227 26.817-17.706 41.745-11.73 6.9386 2.626 18.131 12.678 19.539 15.632-10.449-7.9897-23.488-17.937-37.361-12.424-20.094 6.2267-33.602 28.139-56.212 27.104-16.902 0.0123-30.985-10.725-43.105-21.269-10.905-6.8193-26.485-5.538-35.199 4.9985-9.1397 11.051-24.422 16.634-38.862 14.338-21.131-1.079-34.969-23.327-56.714-21.549-11.732 0.0959-21.187 6.9778-30.289 13.519z" fill-rule="evenodd"/>
            <path d="m-870.44 476.97 45.602 58.906-52.934 61.266 10.57 0.11947 47.118-55.241 42.913 55.434 23.954-0.16989-53.335-71.133 41.952-49.183h-9.3439l-37.2 43.056-32.284-43.056h-27.012z" fill-rule="evenodd"/>
            <rect x="-735.38" y="476.97" width="20.387" height="122.7"/>
            <g transform="matrix(1.3591 0 0 1.3591 -897.11 -172.12)" fill-rule="evenodd">
              <path d="m148.75 477.59h16.25l33.5 71.277-4 21.25z"/>
              <path d="m194.5 570.11 42.5-92.527h-6.75l-31.75 71.277z"/>
            </g>
            <rect x="-927.41" y="596.58" width="404.47" height="11.314"/>
          </g>
          <text x="69.586502" y="233.09615" fill="#ffffff" font-family="sans-serif" font-size="119.52px" letter-spacing="-2.656px" stroke-width=".65407px" word-spacing="0px" style="line-height:100%" xml:space="preserve"><tspan x="69.586502" y="233.09615">ENGEP</tspan></text>
        </g>
        <path d="m-1187.9-1391.2h129.36c12.647 0 22.828 10.182 22.828 22.828v129.36c0 12.647-10.182 22.828-22.828 22.828h-129.36c-12.647 0-22.828-10.181-22.828-22.828v-129.36c0-12.647 10.181-22.828 22.828-22.828z" fill="none" stroke="url(#linearGradient8625)" stroke-linecap="round" stroke-linejoin="round" stroke-opacity=".4491" stroke-width="1.2605"/>
        <text x="-1187.4937" y="-1223.406" fill="#ffffff" font-family="sans-serif" font-size="39.977px" letter-spacing="-.88837px" stroke-width=".21877px" word-spacing="0px" style="line-height:100%" xml:space="preserve"><tspan x="-1187.4937" y="-1223.406" fill="#ffffff" stroke-width=".21877px"><tspan x="-1187.4937" y="-1223.406" fill="#ffffff" font-family="'Source Serif Pro'" font-size="39.977px" stroke-width=".21877px">ENGEP</tspan></tspan></text>
      </g>
    </g>
  </g>
</svg>
