<svg width="300" height="320" viewBox="0 0 79.374998 84.666669" xmlns="http://www.w3.org/2000/svg"><defs><linearGradient id="a" x1="647.6" x2="367.12" y1="648.1" y2="359.38" gradientTransform="translate(-1290.1 -1480.9) scale(.49118)" gradientUnits="userSpaceOnUse"><stop offset="0"/><stop stop-opacity="0" offset="1"/></linearGradient></defs><g stroke-width=".654"><path d="M15.85 11.055h48.457a8.532 8.532 0 0 1 8.55 8.55v48.458a8.532 8.532 0 0 1-8.55 8.55H15.85a8.532 8.532 0 0 1-8.551-8.55V19.606a8.532 8.532 0 0 1 8.55-8.551z" fill="#0c262d"/><g transform="translate(115.606 -2.198) scale(.10436)" fill-opacity=".222"><rect x="-902.57" y="454.35" width="347.49" height="23.234" ry="0"/><path d="M-771.25 380.61h19.193v76.267h-19.193z"/><g fill-rule="evenodd"><path d="M-804.331 305.83h5.808l.758 138.67z"/><path d="M-814.571 314.51l.179 3.929 26.429-2.143zm34.107 133.21l-10.179-131.07-2.679.179z"/><path d="M-812.854 316.09h3.608l-10.751 133.5z"/><path d="M-810.196 325.84l-.268 3.571 19.196 11.43z"/><path d="M-791.536 325.84l.268 3.571-19.196 11.43zm-19.91 15.09l-.446 3.036 21.078-1.404z"/><path d="M-811.51 342.26l-.3 3.993 21.465 12.78z"/><path d="M-790.645 342.26l.3 3.993-21.465 12.78zm-22.263 16.873l-.5 3.394 23.57-2.73z"/><path d="M-812.875 359.59l-.446 3.75 26.07 13.839z"/><path d="M-789.571 360.49l.357 3.036-22.143 14.196z"/><path d="M-813.857 379.95l.09-2.5 24.017 1.16zm26.786-.62l.179 3.75L-811 397.723z"/><path d="M-814.214 380.04l4.464-.67 23.033 17.655zm-1.418 19.45l2.336-1.768 24.875.442zm-.368.19l5.268-.357 24.375 18.482z"/><path d="M-787.429 397.54l2.321 2.143-31.696 19.82z"/><path d="M-786.536 419.86l-30.536 2.143.179-2.59zm1.34 1.07l2.59 2.5-35.715 21.429z"/><path d="M-782.964 443.88l-31.518-21.786h-2.679z"/></g><path d="M-860.65 402.33h54.548v59.599h-54.548zm116.68-32.83h55.558v87.883h-55.558zm1.18-9.99h80.714v6.429h-80.714z"/><path d="M-699.53 424.68h61.304v34.724h-61.304z"/><path d="M-675.29 173.53l.38 10.633-12.345-.633-.178 3.654 2.002-.177-14.102 234.77 2.28-30.525.122 1.361 1.166-.043 24.594 14.918-24.385 17 26.297-15.842 25.703 15.592-24.105-16.553 23.98-14.447-2.75-3-20.352 14.19-.224-12.903 18.2-.662-18.218-.377-.277-15.883 22.62 13.385-22.653-15.35-.01-.555 19.039-11.72-1.75-2.126-17.322 11.904-.227-12.926 17.549.147-.25-3.125-17.346.195-.23-13.166 17.502 11.148-17.535-13.06-.008-.452 16.836-10.971-2.21-2.211-14.663 11.006-.213-12.186 14.258-.676-14.277-.457-.182-10.498 16.443 9.826-16.471-11.375-.03-1.683 15.056-9.75 12.506 116.04-20.707-231.06.527-.047-9.562-.49-.184-10.59-4.295-.252zm9.36 11.748l1.189 11.037-5.78 4.75-.267-15.355zm-8.91.791l.581 16.232-8.383-6.807.659-8.793zm-8.077 13.115l8.398 5.166-8.283 6.809 8.674-5.227.234 6.553-9.968-.621zm18.576.848l1.22 11.312-7.323-5.946-.03-1.67zm-6.078 6.84l7.299 4.49.195 1.804-7.393-.46zm7.496 6.316l.168 1.549-7.424 5.955-.123-7.115zm-10.924.576l.262 7.281-8.62-6.842zm-9.209.484c-.409.69-.667 1.105-1.127 1.891l.139-1.838.988-.053zm-1.152 2.245l10.699 6.693.006.174-9.11 7.306 9.162-5.824.24 6.688-12.08-.545 1.083-14.492zm21.787 1.34l1.586 14.716-9.012 7.215-.125-7.137 7.314-.62-7.33-.33-.111-6.358 8.951 5.6-8.976-7.128-.02-1.05 7.723-4.909zm-10.74 15.063l.234 6.508-8.127-5.838zm-12.412 1.875l12.73 6.973.013.406-10.186 8.158 10.248-6.427.272 7.549-13.56-.561-.41 1.895.887-.028-1.35.17 1.354-18.135zm25.125 1.383l4.072 37.773-2.004-2.504-1.96 1.61-8.934-.4-.145-8.23 10.545 6.827-10.566-8.113-.004-.237 10.877-6.894-.125-3.063-10.783 8.211-.154-8.894 9.588-.297-9.6-.397-.14-8.127 10.294 5.64-10.039-7.212 9.079-5.693zm-12.016 16.176l.312 8.703-10.906-8.375zm-14.475.733l14.846 9.609.015.441-11.24 8.56 11.291-7.157.287 8.006-12.609-.567-.38 1.504-1.47-1.123-2.12 1.856 14.76 9.691-13.758 11.291 15.482-10.158.556.365.39 10.88-19.218-.762 3.168-42.436zm26.566 19.998l-8.77 7.197-.115-6.6zm-11.32.761l.297 8.285-.977.801-10.867-8.308zm15.41.99l2.707 25.102-2.367-2.802-12.732 9.947-.172-9.846 11.592-.414-11.607-.459-.164-9.48 12.879 8.457-12.904-9.87-.04-2.232 12.81-8.402zm-14.568 22.471l.4 11.162-1.113.87-16.531-11.416zm-19.41.692l-.033.047.004-.045.029-.002zm-.17 1.879l17.553 10.488-15.627 12.207 17.305-11.207.873.521.412 11.496-22.217-.713zm20.56 24.758l.468 13.049-.489.367-16.934-12.611zm-22.052 1.045l-.287.242 20.816 13.258-18.96 14.23 20.417-13.303.634.404.502 13.953-25.729.29 2.17-29.054.436-.021zm-2.774 31.334l4.026.033-2.584 2.338 22.225 13.15-23.975 16.475 25.395-15.633 1.52.898.581 16.227-29.64-.613 2.452-32.875zm4.123.035l21.871.182.48 13.375-1.163.798zm23.104 34.508l.463 12.91-2.765 1.928-20.406-14.012z" fill-rule="evenodd"/><path d="M-688.44 425.64h55v3h-55z"/><path d="M-509.51 344.33a4.287 4.287 0 1 0 0 8.572 4.285 4.285 0 0 0 3.188-1.426l.613.41.845 60.995a3.614 3.614 0 0 0-3.566 3.607 3.618 3.618 0 0 0 3.613 3.613c.69 0 1.518-.204 1.78-.355.261-.15.114.858 0 1.086-.564 1.118-3.832.894-4.78-1.125 0 3.651 5.247 4.616 6.377 1.281.496-1.466.207-4.248.2-5.14-.005-.89-.89-2.13-2.147-2.674l-.51-63.232-1.357-.838a4.287 4.287 0 0 0-4.256-4.773zm-5.524 3.977l1.547-.472s1.334-1.183-3.186.144c-15.808 4.643-76.855 23.446-92.579 28.064l-24.09-.027v.176h-1.191v79.729h4.572v-10.607h15.287c1.093 0 2.44-1.148 2.387-2.297s-1.507-2.3-2.387-2.3h-15.287v-40.34c1.753 3.868 6.258 6.612 11.582 6.612h12.5c6.856 0 12.375-4.543 12.375-10.188 0-3.531-2.162-6.63-5.46-8.457h.007l-2.78-12.303-1.976.006 19.275-6.013 3.758 9.642-12.604 5.515c-.41.217-2.892 1.552-2.892 1.552-.076.212 4.232-1.186 8.38-2.855 6.756-2.718 22.31-9.161 37.863-15.604s31.106-12.885 37.86-15.602l-.797-1.148-8.676 3.601-1.885-4.138zm-9.681 3.09l-.734.199 1.752 4.431-26.98 11.195-2.472-6.953zm-30.76 9.597l3.06 6.951-27 11.205-3.369-9.586-.226.024zm-74.486 19.266h25.049l.455 6.426c-.467-.044-.94-.072-1.422-.072h-12.5c-5.324 0-9.829 2.745-11.582 6.613zm4.394 29.791s-4.175.685-4.125 2.25c.032.988 2.688 1.25 2.688 1.25l7.25.063 10.688 40.844c.682 1.182 2.633 1.43 3.244-.91l-10.994-43.497zm122.2 4.086l-.004.041-.011-.008.015-.033zm-1.529.41c.085 0 .165.015.246.026.119.214.301.425.555.425a.43.43 0 0 0 .271-.117 1.895 1.895 0 0 1-1.072 3.46 1.897 1.897 0 1 1 0-3.794z"/><path d="M-876.62 548.65c11.102-11.934 27.992-22.084 44.699-16.286 17.413 4.449 30.486 21.47 49.574 19.655 15.835-.099 25.165-14.174 38.002-20.884 12.398-7.032 28.195-3.53 38.09 6.152 8.894 8.002 19.233 16.7 32.059 15.34 12.511.449 24.923-3.959 34.033-12.598 11.552-9.023 26.817-17.706 41.745-11.73 6.939 2.626 18.131 12.678 19.539 15.632-10.449-7.99-23.488-17.937-37.361-12.424-20.094 6.227-33.602 28.14-56.212 27.104-16.902.012-30.985-10.725-43.105-21.269-10.905-6.82-26.485-5.538-35.199 4.999-9.14 11.05-24.422 16.634-38.862 14.338-21.131-1.08-34.969-23.327-56.714-21.55-11.732.097-21.187 6.978-30.289 13.52z" fill-rule="evenodd"/><path d="M-870.44 476.97l45.602 58.906-52.934 61.266 10.57.12 47.118-55.242 42.913 55.434 23.954-.17-53.335-71.132 41.952-49.183h-9.344l-37.2 43.056-32.284-43.056h-27.012z" fill-rule="evenodd"/><path d="M-735.38 476.97h20.387v122.7h-20.387z"/><g fill-rule="evenodd"><path d="M-694.944 476.973h22.085l45.53 96.872-5.436 28.881z"/><path d="M-632.765 602.717l57.762-125.754h-9.174l-43.152 96.873z"/></g><path d="M-870.44 476.97l45.602 58.906-52.934 61.266 10.57.12 47.118-55.242 42.913 55.434 23.954-.17-53.335-71.132 41.952-49.183h-9.344l-37.2 43.056-32.284-43.056h-27.012z" fill-rule="evenodd"/><path d="M-735.38 476.97h20.387v122.7h-20.387z"/><g fill-rule="evenodd"><path d="M-694.944 476.973h22.085l45.53 96.872-5.436 28.881z"/><path d="M-632.765 602.717l57.762-125.754h-9.174l-43.152 96.873z"/></g><path d="M-927.41 596.58h404.47v11.314h-404.47z"/></g><g fill="#fff"><g transform="translate(114.615 -2.94) scale(.10436)"><rect x="-902.57" y="454.35" width="347.49" height="23.234" ry="0"/><path d="M-771.25 380.61h19.193v76.267h-19.193z"/><g fill-rule="evenodd"><path d="M-804.331 305.83h5.808l.758 138.67z"/><path d="M-814.571 314.51l.179 3.929 26.429-2.143zm34.107 133.21l-10.179-131.07-2.679.179z"/><path d="M-812.854 316.09h3.608l-10.751 133.5z"/><path d="M-810.196 325.84l-.268 3.571 19.196 11.43z"/><path d="M-791.536 325.84l.268 3.571-19.196 11.43zm-19.91 15.09l-.446 3.036 21.078-1.404z"/><path d="M-811.51 342.26l-.3 3.993 21.465 12.78z"/><path d="M-790.645 342.26l.3 3.993-21.465 12.78zm-22.263 16.873l-.5 3.394 23.57-2.73z"/><path d="M-812.875 359.59l-.446 3.75 26.07 13.839z"/><path d="M-789.571 360.49l.357 3.036-22.143 14.196z"/><path d="M-813.857 379.95l.09-2.5 24.017 1.16zm26.786-.62l.179 3.75L-811 397.723z"/><path d="M-814.214 380.04l4.464-.67 23.033 17.655zm-1.418 19.45l2.336-1.768 24.875.442zm-.368.19l5.268-.357 24.375 18.482z"/><path d="M-787.429 397.54l2.321 2.143-31.696 19.82z"/><path d="M-786.536 419.86l-30.536 2.143.179-2.59zm1.34 1.07l2.59 2.5-35.715 21.429z"/><path d="M-782.964 443.88l-31.518-21.786h-2.679z"/></g><path d="M-860.65 402.33h54.548v59.599h-54.548zm116.68-32.83h55.558v87.883h-55.558zm1.18-9.99h80.714v6.429h-80.714z"/><path d="M-699.53 424.68h61.304v34.724h-61.304z"/><path d="M-675.29 173.53l.38 10.633-12.345-.633-.178 3.654 2.002-.177-14.102 234.77 2.28-30.525.122 1.361 1.166-.043 24.594 14.918-24.385 17 26.297-15.842 25.703 15.592-24.105-16.553 23.98-14.447-2.75-3-20.352 14.19-.224-12.903 18.2-.662-18.218-.377-.277-15.883 22.62 13.385-22.653-15.35-.01-.555 19.039-11.72-1.75-2.126-17.322 11.904-.227-12.926 17.549.147-.25-3.125-17.346.195-.23-13.166 17.502 11.148-17.535-13.06-.008-.452 16.836-10.971-2.21-2.211-14.663 11.006-.213-12.186 14.258-.676-14.277-.457-.182-10.498 16.443 9.826-16.471-11.375-.03-1.683 15.056-9.75 12.506 116.04-20.707-231.06.527-.047-9.562-.49-.184-10.59-4.295-.252zm9.36 11.748l1.189 11.037-5.78 4.75-.267-15.355zm-8.91.791l.581 16.232-8.383-6.807.659-8.793zm-8.077 13.115l8.398 5.166-8.283 6.809 8.674-5.227.234 6.553-9.968-.621zm18.576.848l1.22 11.312-7.323-5.946-.03-1.67zm-6.078 6.84l7.299 4.49.195 1.804-7.393-.46zm7.496 6.316l.168 1.549-7.424 5.955-.123-7.115zm-10.924.576l.262 7.281-8.62-6.842zm-9.209.484c-.409.69-.667 1.105-1.127 1.891l.139-1.838.988-.053zm-1.152 2.245l10.699 6.693.006.174-9.11 7.306 9.162-5.824.24 6.688-12.08-.545 1.083-14.492zm21.787 1.34l1.586 14.716-9.012 7.215-.125-7.137 7.314-.62-7.33-.33-.111-6.358 8.951 5.6-8.976-7.128-.02-1.05 7.723-4.909zm-10.74 15.063l.234 6.508-8.127-5.838zm-12.412 1.875l12.73 6.973.013.406-10.186 8.158 10.248-6.427.272 7.549-13.56-.561-.41 1.895.887-.028-1.35.17 1.354-18.135zm25.125 1.383l4.072 37.773-2.004-2.504-1.96 1.61-8.934-.4-.145-8.23 10.545 6.827-10.566-8.113-.004-.237 10.877-6.894-.125-3.063-10.783 8.211-.154-8.894 9.588-.297-9.6-.397-.14-8.127 10.294 5.64-10.039-7.212 9.079-5.693zm-12.016 16.176l.312 8.703-10.906-8.375zm-14.475.733l14.846 9.609.015.441-11.24 8.56 11.291-7.157.287 8.006-12.609-.567-.38 1.504-1.47-1.123-2.12 1.856 14.76 9.691-13.758 11.291 15.482-10.158.556.365.39 10.88-19.218-.762 3.168-42.436zm26.566 19.998l-8.77 7.197-.115-6.6zm-11.32.761l.297 8.285-.977.801-10.867-8.308zm15.41.99l2.707 25.102-2.367-2.802-12.732 9.947-.172-9.846 11.592-.414-11.607-.459-.164-9.48 12.879 8.457-12.904-9.87-.04-2.232 12.81-8.402zm-14.568 22.471l.4 11.162-1.113.87-16.531-11.416zm-19.41.692l-.033.047.004-.045.029-.002zm-.17 1.879l17.553 10.488-15.627 12.207 17.305-11.207.873.521.412 11.496-22.217-.713zm20.56 24.758l.468 13.049-.489.367-16.934-12.611zm-22.052 1.045l-.287.242 20.816 13.258-18.96 14.23 20.417-13.303.634.404.502 13.953-25.729.29 2.17-29.054.436-.021zm-2.774 31.334l4.026.033-2.584 2.338 22.225 13.15-23.975 16.475 25.395-15.633 1.52.898.581 16.227-29.64-.613 2.452-32.875zm4.123.035l21.871.182.48 13.375-1.163.798zm23.104 34.508l.463 12.91-2.765 1.928-20.406-14.012z" fill-rule="evenodd"/><path d="M-688.44 425.64h55v3h-55z"/><path d="M-509.51 344.33a4.287 4.287 0 1 0 0 8.572 4.285 4.285 0 0 0 3.188-1.426l.613.41.845 60.995a3.614 3.614 0 0 0-3.566 3.607 3.618 3.618 0 0 0 3.613 3.613c.69 0 1.518-.204 1.78-.355.261-.15.114.858 0 1.086-.564 1.118-3.832.894-4.78-1.125 0 3.651 5.247 4.616 6.377 1.281.496-1.466.207-4.248.2-5.14-.005-.89-.89-2.13-2.147-2.674l-.51-63.232-1.357-.838a4.287 4.287 0 0 0-4.256-4.773zm-5.524 3.977l1.547-.472s1.334-1.183-3.186.144c-15.808 4.643-76.855 23.446-92.579 28.064l-24.09-.027v.176h-1.191v79.729h4.572v-10.607h15.287c1.093 0 2.44-1.148 2.387-2.297s-1.507-2.3-2.387-2.3h-15.287v-40.34c1.753 3.868 6.258 6.612 11.582 6.612h12.5c6.856 0 12.375-4.543 12.375-10.188 0-3.531-2.162-6.63-5.46-8.457h.007l-2.78-12.303-1.976.006 19.275-6.013 3.758 9.642-12.604 5.515c-.41.217-2.892 1.552-2.892 1.552-.076.212 4.232-1.186 8.38-2.855 6.756-2.718 22.31-9.161 37.863-15.604s31.106-12.885 37.86-15.602l-.797-1.148-8.676 3.601-1.885-4.138zm-9.681 3.09l-.734.199 1.752 4.431-26.98 11.195-2.472-6.953zm-30.76 9.597l3.06 6.951-27 11.205-3.369-9.586-.226.024zm-74.486 19.266h25.049l.455 6.426c-.467-.044-.94-.072-1.422-.072h-12.5c-5.324 0-9.829 2.745-11.582 6.613zm4.394 29.791s-4.175.685-4.125 2.25c.032.988 2.688 1.25 2.688 1.25l7.25.063 10.688 40.844c.682 1.182 2.633 1.43 3.244-.91l-10.994-43.497zm122.2 4.086l-.004.041-.011-.008.015-.033zm-1.529.41c.085 0 .165.015.246.026.119.214.301.425.555.425a.43.43 0 0 0 .271-.117 1.895 1.895 0 0 1-1.072 3.46 1.897 1.897 0 1 1 0-3.794z"/><path d="M-876.62 548.65c11.102-11.934 27.992-22.084 44.699-16.286 17.413 4.449 30.486 21.47 49.574 19.655 15.835-.099 25.165-14.174 38.002-20.884 12.398-7.032 28.195-3.53 38.09 6.152 8.894 8.002 19.233 16.7 32.059 15.34 12.511.449 24.923-3.959 34.033-12.598 11.552-9.023 26.817-17.706 41.745-11.73 6.939 2.626 18.131 12.678 19.539 15.632-10.449-7.99-23.488-17.937-37.361-12.424-20.094 6.227-33.602 28.14-56.212 27.104-16.902.012-30.985-10.725-43.105-21.269-10.905-6.82-26.485-5.538-35.199 4.999-9.14 11.05-24.422 16.634-38.862 14.338-21.131-1.08-34.969-23.327-56.714-21.55-11.732.097-21.187 6.978-30.289 13.52z" fill-rule="evenodd"/><path d="M-870.44 476.97l45.602 58.906-52.934 61.266 10.57.12 47.118-55.242 42.913 55.434 23.954-.17-53.335-71.132 41.952-49.183h-9.344l-37.2 43.056-32.284-43.056h-27.012z" fill-rule="evenodd"/><path d="M-735.38 476.97h20.387v122.7h-20.387z"/><g fill-rule="evenodd"><path d="M-694.944 476.973h22.085l45.53 96.872-5.436 28.881z"/><path d="M-632.765 602.717l57.762-125.754h-9.174l-43.152 96.873z"/></g><path d="M-927.41 596.58h404.47v11.314h-404.47z"/></g><text x="69.587" y="233.096" font-family="sans-serif" font-size="119.52" letter-spacing="-2.656" word-spacing="0" style="line-height:100%" transform="translate(127.936 -2.489) scale(.12411)"><tspan x="69.587" y="233.096">ENGEP</tspan></text></g><path d="M-1187.9-1391.2h129.36a22.778 22.778 0 0 1 22.828 22.828v129.36a22.778 22.778 0 0 1-22.828 22.828h-129.36a22.778 22.778 0 0 1-22.828-22.828v-129.36a22.778 22.778 0 0 1 22.828-22.828z" fill="none" stroke="url(#a)" stroke-linecap="round" stroke-linejoin="round" stroke-opacity=".449" stroke-width="1.26" transform="translate(456.855 527.57) scale(.37106)"/><text x="-1187.494" y="-1223.406" fill="#fff" font-family="sans-serif" font-size="39.977" letter-spacing="-.888" stroke-width=".219" word-spacing="0" style="line-height:100%" transform="translate(456.855 527.57) scale(.37106)"><tspan x="-1187.494" y="-1223.406"><tspan x="-1187.494" y="-1223.406" font-family="'Source Serif Pro'">ENGEP</tspan></tspan></text></g></svg>