<svg width="300" height="320" viewBox="0 0 79.374998 84.666669" xmlns="http://www.w3.org/2000/svg"><defs><linearGradient id="a" x1="-110.71" x2="-110.71" y1="243.62" y2="285.68" gradientTransform="translate(2730.9 -1198) scale(8.1649)" gradientUnits="userSpaceOnUse"><stop stop-color="#ba752e" offset="0"/><stop stop-color="#ba752e" stop-opacity="0" offset="1"/></linearGradient><linearGradient id="b" x1="-109.56" x2="-109.56" y1="578.78" y2="524.81" gradientTransform="translate(2730.9 -1198) scale(8.1649)" gradientUnits="userSpaceOnUse"><stop stop-color="#a7440b" offset="0"/><stop stop-color="#a7440b" stop-opacity="0" offset="1"/></linearGradient></defs><g stroke-width=".391"><path d="M32.816 5.336a.712.712 0 0 1-.33.03c.015.043.028.09.039.138.095-.059.192-.115.29-.168zm12.042.025c.064.035.127.071.19.108v-.098a.715.715 0 0 1-.19-.01zm-6.026 1.393a.423.423 0 0 0 0 .845.423.423 0 0 0 0-.845zm-4.056.574a.423.423 0 1 0 .001.847.423.423 0 0 0-.001-.847zm8.113 0a.423.423 0 1 0 .002.847.423.423 0 0 0-.002-.847zm-4.056.805a.11.11 0 0 0-.104.097c-.135 1.132-.654 1.74-1.633 1.915-.077.013-.162.02-.25.02-.307 0-1.345-.099-1.8-1.384a.11.11 0 1 0-.216.045c.068.99-.245 1.635-.858 1.771a1.04 1.04 0 0 1-.224.025c-.669 0-1.267-.62-1.54-1.195a.11.11 0 1 0-.209.071c.186.855.043 1.468-.383 1.639-.13.051-.26.077-.386.077-.544 0-.909-.482-1.079-.77a.11.11 0 0 0-.152-.039.11.11 0 0 0-.04.152c.177.3.382.524.605.672.263.391.735 1.11.912 1.46 1.331-.555 4.649-1.289 7.357-1.29 2.707.001 6.025.735 7.356 1.29.178-.35.65-1.069.912-1.46a2.01 2.01 0 0 0 .604-.672.111.111 0 0 0-.096-.168.11.11 0 0 0-.095.056c-.17.287-.534.77-1.079.77a1.04 1.04 0 0 1-.385-.078c-.427-.171-.57-.784-.384-1.639a.111.111 0 0 0-.073-.128.113.113 0 0 0-.136.057c-.273.575-.871 1.195-1.54 1.195a1.04 1.04 0 0 1-.224-.025c-.613-.136-.926-.782-.857-1.772a.11.11 0 0 0-.088-.116.113.113 0 0 0-.128.072c-.456 1.285-1.494 1.385-1.801 1.385-.088 0-.172-.008-.25-.021-.978-.175-1.497-.783-1.633-1.915a.111.111 0 0 0-.104-.097zm-7.074.078a.423.423 0 1 0 .002.846.423.423 0 0 0-.002-.846zm14.147 0a.423.423 0 1 0 .002.846.423.423 0 0 0-.002-.846zM29.564 9.299a.423.423 0 1 0 .001.846.423.423 0 0 0-.001-.846zm18.539 0a.423.423 0 1 0 .001.846.423.423 0 0 0-.001-.846zm-9.27 2.322c-2.764.001-6.164.771-7.386 1.323a.11.11 0 0 0-.058.062.11.11 0 0 0 .002.085c.025.054.092.08.148.056 1.204-.544 4.56-1.303 7.294-1.304 2.734.001 6.09.76 7.294 1.304a.113.113 0 0 0 .147-.056.11.11 0 0 0-.055-.147c-1.222-.552-4.622-1.322-7.386-1.323zm-.045.445h.002c-2.593.018-5.755.702-7.026 1.226.306.676.59 1.42.806 2.134 1.085-.402 3.94-.947 6.263-.948 2.324 0 5.179.546 6.264.948a17.62 17.62 0 0 1 .805-2.134c-1.27-.524-4.433-1.208-7.025-1.226h.001-.09zm.045 2.633c-2.332.002-5.2.555-6.232.952a.111.111 0 0 0-.064.144.114.114 0 0 0 .144.063c1.015-.39 3.845-.935 6.152-.936 2.307.001 5.137.545 6.152.936a.114.114 0 0 0 .144-.063.111.111 0 0 0-.064-.144c-1.031-.397-3.9-.95-6.232-.952zm-18.779 2.517s-1.124 1.045-1.093 2.298c.033 1.346.551 2.231.703 2.464-.068.065-.137.13-.202.196a21.536 21.536 0 0 0-2.88 3.04c.25-.575.546-1.386.524-2.002-.055-1.483-1.459-2.847-1.459-2.847s-1.058 1.402-.774 2.809c.286 1.417.997 2.32 1.264 2.62a27.737 27.737 0 0 0-2.264 3.628c.136-.635.243-1.417.12-1.99-.344-1.598-2.125-2.809-2.125-2.809s-.88 1.723-.304 3.194c.555 1.418 1.446 2.255 1.828 2.566a30.314 30.314 0 0 0-1.486 3.734c.027-.67 0-1.496-.23-2.064-.628-1.544-2.634-2.445-2.634-2.445s-.578 1.887.262 3.263c.812 1.331 1.86 2.014 2.295 2.257a29.689 29.689 0 0 0-.816 3.742c-.098-.637-.267-1.361-.569-1.842-.904-1.44-3.078-1.99-3.078-1.99s-.248 1.999.84 3.233a6.65 6.65 0 0 0 2.647 1.84 27.679 27.679 0 0 0-.147 3.611c-.207-.577-.483-1.19-.836-1.581-1.166-1.287-3.447-1.455-3.447-1.455s.104 2.053 1.416 3.1a6.774 6.774 0 0 0 2.942 1.37c.092 1.161.261 2.327.517 3.49-.313-.554-.707-1.136-1.14-1.473-1.398-1.088-3.722-.851-3.722-.851s.47 2.043 1.974 2.864a6.91 6.91 0 0 0 3.225.856 25.07 25.07 0 0 0 1.02 3.225c-.399-.473-.87-.946-1.336-1.194-1.599-.844-3.891-.195-3.891-.195s.834 1.97 2.49 2.528a7.032 7.032 0 0 0 3.35.296 27.111 27.111 0 0 0 1.659 3.052c-.5-.424-1.084-.844-1.62-1.017-1.756-.566-3.944.492-3.944.492s1.188 1.833 2.95 2.1a7.197 7.197 0 0 0 3.458-.31 29.62 29.62 0 0 0 2.224 2.768c-.592-.352-1.284-.694-1.876-.776-1.864-.257-3.877 1.194-3.877 1.194s1.518 1.631 3.338 1.587a7.342 7.342 0 0 0 3.434-.932 30.706 30.706 0 0 0 2.613 2.334c-.65-.244-1.398-.456-1.998-.434-1.918.072-3.682 1.886-3.682 1.886s1.814 1.37 3.634 1.004a7.497 7.497 0 0 0 3.271-1.533c.906.648 1.83 1.236 2.762 1.756-.64-.106-1.329-.16-1.866-.045-1.915.412-3.367 2.548-3.367 2.548s2.066 1.056 3.83.365a7.642 7.642 0 0 0 2.965-2.062c1 .476 2.001.874 2.985 1.187-.646.01-1.327.08-1.834.287-1.852.753-2.932 3.157-2.932 3.157s2.263.695 3.914-.312a7.805 7.805 0 0 0 2.65-2.66c2.32.416 4.255 1.061 5.835 1.77-2.917 1.526-4.108 2.941-4.108 2.941l1.024.914s1.358-1.652 4.353-3.238c2.995 1.586 4.353 3.238 4.353 3.238l1.024-.914s-1.191-1.415-4.108-2.941c1.58-.709 3.516-1.354 5.835-1.77a7.805 7.805 0 0 0 2.65 2.66c1.652 1.007 3.914.312 3.914.312s-1.08-2.404-2.932-3.157c-.507-.206-1.187-.277-1.834-.287a23.808 23.808 0 0 0 2.986-1.188 7.641 7.641 0 0 0 2.964 2.063c1.764.691 3.83-.365 3.83-.365s-1.451-2.136-3.367-2.548c-.537-.115-1.227-.062-1.866.045a29.18 29.18 0 0 0 2.762-1.757 7.495 7.495 0 0 0 3.27 1.534c1.821.367 3.635-1.004 3.635-1.004s-1.764-1.815-3.682-1.886c-.6-.022-1.348.19-1.998.434a30.677 30.677 0 0 0 2.612-2.334 7.341 7.341 0 0 0 3.435.932c1.82.044 3.338-1.587 3.338-1.587s-2.013-1.452-3.877-1.194c-.592.082-1.284.423-1.876.776a29.457 29.457 0 0 0 2.224-2.768 7.195 7.195 0 0 0 3.458.31c1.763-.268 2.95-2.1 2.95-2.1s-2.188-1.058-3.944-.492c-.536.173-1.121.594-1.62 1.018a27.117 27.117 0 0 0 1.66-3.053c.6.1 1.863.205 3.35-.296 1.655-.557 2.49-2.528 2.49-2.528s-2.293-.65-3.892.195c-.466.247-.937.72-1.335 1.193a25.06 25.06 0 0 0 1.02-3.224 6.912 6.912 0 0 0 3.224-.856c1.504-.82 1.974-2.864 1.974-2.864s-2.323-.237-3.722.85c-.432.337-.827.92-1.14 1.473.256-1.162.425-2.328.518-3.489a6.774 6.774 0 0 0 2.941-1.37c1.312-1.047 1.417-3.1 1.417-3.1s-2.282.168-3.447 1.455c-.353.39-.63 1.003-.837 1.58a27.679 27.679 0 0 0-.147-3.61 6.649 6.649 0 0 0 2.648-1.84c1.087-1.234.84-3.233.84-3.233s-2.175.55-3.079 1.99c-.301.48-.47 1.205-.568 1.842a29.685 29.685 0 0 0-.816-3.742c.435-.243 1.482-.926 2.294-2.257.84-1.376.262-3.263.262-3.263s-2.006.9-2.633 2.445c-.23.568-.258 1.394-.23 2.064a30.307 30.307 0 0 0-1.486-3.734 6.354 6.354 0 0 0 1.828-2.566c.576-1.47-.305-3.194-.305-3.194s-1.781 1.21-2.125 2.808c-.123.574-.016 1.356.12 1.991a27.722 27.722 0 0 0-2.264-3.628c.268-.3.979-1.203 1.265-2.62.283-1.407-.775-2.81-.775-2.81s-1.403 1.365-1.458 2.847c-.023.617.272 1.428.523 2.002a21.53 21.53 0 0 0-2.879-3.039c-.065-.067-.134-.13-.202-.196.15-.233.67-1.118.702-2.464.031-1.253-1.092-2.298-1.092-2.298s-1 1.386-.821 2.67c.078.57.507 1.284.817 1.74-.947-.792-2.058-1.38-2.883-1.75-.069-.102-.882-1.293-1.993-1.556-.826-.194-2.265.255-2.265.255s.615.96 1.947 1.512c.96.398 2.036-.043 2.251-.139.882.462 2.1 1.2 3.001 2.126-.485-.252-1.174-.559-1.714-.576-1.294-.043-2.567 1.097-2.567 1.097s1.158 1.006 2.4.844c1.194-.155 2-.674 2.316-.909a21.854 21.854 0 0 1 2.93 3.263c-.493-.37-1.164-.81-1.736-.93-1.452-.304-3.114.728-3.114.728s1.105 1.365 2.539 1.43a5.78 5.78 0 0 0 2.785-.562 27.98 27.98 0 0 1 2.268 3.953c-.466-.51-1.155-1.176-1.789-1.43-1.515-.61-3.514.193-3.514.193s.936 1.692 2.478 2.035c1.487.332 2.68.06 3.15-.083.531 1.211.995 2.48 1.371 3.795-.376-.574-.905-1.271-1.45-1.61-1.416-.88-3.567-.43-3.567-.43s.642 1.867 2.13 2.485a6.503 6.503 0 0 0 3.136.48 29.09 29.09 0 0 1 .716 4.005c-.277-.648-.69-1.463-1.188-1.908-1.265-1.135-3.508-1.063-3.508-1.063s.314 1.99 1.702 2.874a6.636 6.636 0 0 0 3.078 1.04 26.748 26.748 0 0 1-.01 4.021c-.161-.703-.434-1.605-.859-2.146-1.072-1.365-3.337-1.69-3.337-1.69s-.035 2.055 1.201 3.19a6.779 6.779 0 0 0 2.904 1.59 24.821 24.821 0 0 1-.691 3.612c-.05-.697-.174-1.533-.47-2.09-.836-1.56-3.055-2.288-3.055-2.288s-.401 2.058.64 3.417a6.913 6.913 0 0 0 2.591 2.09 24.792 24.792 0 0 1-1.271 3.47c.077-.718.107-1.601-.097-2.226-.563-1.717-2.664-2.842-2.664-2.842s-.768 1.998.038 3.548a7.046 7.046 0 0 0 2.227 2.555 26.793 26.793 0 0 1-1.79 3.018c.182-.672.331-1.458.244-2.063-.26-1.825-2.172-3.327-2.172-3.327s-1.125 1.87-.591 3.571a7.189 7.189 0 0 0 1.732 2.907c-.69.91-1.428 1.77-2.205 2.577.279-.614.532-1.314.551-1.895.06-1.88-1.594-3.728-1.594-3.728s-1.463 1.68-1.227 3.485a7.335 7.335 0 0 0 1.204 3.196 29.772 29.772 0 0 1-2.54 2.13c.375-.554.733-1.194.85-1.755.395-1.879-.942-4.03-.942-4.03s-1.766 1.43-1.85 3.285a7.495 7.495 0 0 0 .642 3.421 27.701 27.701 0 0 1-2.954 1.722c.508-.511 1.033-1.134 1.266-1.716.728-1.819-.232-4.217-.232-4.217s-2.03 1.124-2.442 2.973a7.63 7.63 0 0 0 .05 3.595 21.782 21.782 0 0 1-3.085 1.065c.572-.412 1.16-.917 1.48-1.431 1.055-1.698.513-4.278.513-4.278s-2.24.77-2.98 2.555a7.855 7.855 0 0 0-.598 3.474 26.702 26.702 0 0 0-3.985 1.077c-.8.284-1.519.58-2.178.878a27.857 27.857 0 0 0-2.178-.878 26.709 26.709 0 0 0-3.985-1.077 7.856 7.856 0 0 0-.597-3.474c-.742-1.786-2.98-2.555-2.98-2.555s-.542 2.58.513 4.278c.32.514.907 1.019 1.479 1.43A21.781 21.781 0 0 1 28 68.156a7.63 7.63 0 0 0 .05-3.595c-.41-1.849-2.442-2.973-2.442-2.973s-.96 2.398-.231 4.217c.233.582.758 1.205 1.265 1.717a27.685 27.685 0 0 1-2.954-1.723 7.496 7.496 0 0 0 .642-3.421c-.083-1.854-1.85-3.284-1.85-3.284s-1.337 2.15-.942 4.029c.118.561.475 1.2.85 1.755a29.765 29.765 0 0 1-2.54-2.13 7.335 7.335 0 0 0 1.204-3.196c.236-1.805-1.227-3.485-1.227-3.485s-1.654 1.848-1.594 3.728c.02.581.272 1.281.55 1.895a28.924 28.924 0 0 1-2.204-2.577 7.19 7.19 0 0 0 1.733-2.907c.533-1.7-.592-3.571-.592-3.571s-1.912 1.502-2.172 3.327c-.087.606.062 1.391.244 2.063A26.804 26.804 0 0 1 14 55.006a7.045 7.045 0 0 0 2.227-2.555c.806-1.55.038-3.547.038-3.547s-2.1 1.124-2.664 2.842c-.204.624-.174 1.507-.097 2.225a24.806 24.806 0 0 1-1.27-3.47 6.912 6.912 0 0 0 2.59-2.09c1.041-1.36.64-3.417.64-3.417s-2.219.727-3.054 2.289c-.297.556-.421 1.392-.47 2.09a24.821 24.821 0 0 1-.691-3.614 6.78 6.78 0 0 0 2.903-1.589c1.237-1.135 1.201-3.19 1.201-3.19s-2.265.325-3.337 1.69c-.425.54-.697 1.442-.86 2.145a26.747 26.747 0 0 1-.009-4.02 6.637 6.637 0 0 0 3.078-1.04c1.388-.885 1.702-2.874 1.702-2.874s-2.243-.072-3.508 1.063c-.497.445-.911 1.26-1.187 1.908.145-1.363.387-2.703.715-4.004a6.503 6.503 0 0 0 3.136-.48c1.489-.62 2.13-2.485 2.13-2.485s-2.15-.451-3.566.429c-.546.339-1.075 1.036-1.451 1.61a29.93 29.93 0 0 1 1.372-3.795c.47.143 1.662.415 3.15.083 1.541-.343 2.477-2.035 2.477-2.035s-1.999-.802-3.514-.193c-.634.254-1.323.92-1.789 1.43a27.986 27.986 0 0 1 2.268-3.953 5.778 5.778 0 0 0 2.785.561c1.434-.064 2.539-1.43 2.539-1.43s-1.662-1.031-3.114-.726c-.571.12-1.243.559-1.735.93a21.85 21.85 0 0 1 2.93-3.264 5 5 0 0 0 2.315.909c1.242.163 2.4-.844 2.4-.844s-1.272-1.14-2.567-1.097c-.539.018-1.228.323-1.713.576.9-.926 2.118-1.664 3-2.126.215.096 1.292.538 2.252.14 1.331-.553 1.947-1.512 1.947-1.512s-1.44-.45-2.266-.256c-1.11.263-1.924 1.454-1.992 1.557-.826.37-1.936.957-2.884 1.749.31-.455.739-1.17.817-1.74.18-1.284-.82-2.67-.82-2.67z" fill="#eca620"/><path d="M254.5 246.03s-14.688 13.662-14.282 30.037c.423 17.6 7.211 29.174 9.185 32.215-.888.848-1.794 1.684-2.645 2.563-13.135 11.266-25.791 24.647-37.64 39.72 3.277-7.505 7.14-18.108 6.842-26.165-.715-19.38-19.062-37.212-19.062-37.212s-13.834 18.325-10.128 36.715c3.739 18.536 13.038 30.342 16.53 34.264-10.717 14.481-20.669 30.39-29.588 47.426 1.776-8.299 3.17-18.52 1.56-26.026-4.486-20.88-27.771-36.707-27.771-36.707s-11.513 22.524-3.986 41.751c7.255 18.528 18.91 29.463 23.9 33.534-7.415 15.51-13.935 31.86-19.425 48.822.355-8.76.003-19.558-3.013-26.98-8.203-20.19-34.424-31.966-34.424-31.966s-7.558 24.67 3.427 42.654c10.615 17.401 24.306 26.327 29.994 29.501-4.534 15.878-8.16 32.223-10.668 48.918-1.277-8.33-3.488-17.792-7.43-24.072-11.818-18.828-40.242-26.02-40.242-26.02s-3.235 26.131 10.98 42.264c13.171 14.942 27.867 21.6 34.61 24.055-1.646 15.538-2.325 31.312-1.924 47.202-2.704-7.547-6.321-15.559-10.936-20.67-15.232-16.828-45.058-19.019-45.058-19.019s1.367 26.834 18.513 40.528c15.519 12.388 31.022 16.543 38.457 17.917 1.205 15.172 3.419 30.407 6.764 45.598-4.094-7.228-9.248-14.839-14.904-19.239-18.283-14.219-48.658-11.13-48.658-11.13s6.152 26.716 25.81 37.441c18.004 9.824 34.565 11.172 42.157 11.2a327.752 327.752 0 0 0 13.326 42.15c-5.208-6.182-11.366-12.366-17.463-15.597-20.9-11.038-50.867-2.559-50.867-2.559s10.906 25.77 32.553 33.058c19.432 6.545 35.944 5.162 43.791 3.865a354.36 354.36 0 0 0 21.7 39.905c-6.528-5.544-14.172-11.044-21.18-13.305-22.957-7.403-51.555 6.436-51.555 6.436s15.516 23.952 38.565 27.443c21.105 3.194 37.76-1.37 45.205-4.046 9.016 12.754 18.774 24.812 29.073 36.184-7.737-4.606-16.792-9.074-24.53-10.145-24.369-3.37-50.68 15.608-50.68 15.608s19.85 21.322 43.635 20.744c21.951-.533 37.984-8.201 44.898-12.185a401.038 401.038 0 0 0 34.14 30.508c-8.496-3.192-18.267-5.953-26.104-5.663-25.08.933-48.14 24.651-48.14 24.651s23.714 17.917 47.513 13.123c21.768-4.392 36.424-14.777 42.758-20.048 11.843 8.477 23.922 16.165 36.097 22.957-8.355-1.386-17.366-2.083-24.392-.574-25.036 5.377-44.016 33.305-44.016 33.305s27.011 13.808 50.072 4.767c20.352-7.97 32.993-20.324 38.751-26.959 13.092 6.223 26.175 11.433 39.045 15.531-8.457.125-17.36 1.05-23.985 3.744-24.206 9.845-38.336 41.275-38.336 41.275s29.581 9.076 51.17-4.09c19.661-12.005 30.293-27.317 34.645-34.76 30.313 5.436 55.62 13.866 76.28 23.13-38.134 19.943-53.708 38.456-53.708 38.456l13.382 11.943s17.76-21.6 56.91-42.326c39.15 20.725 56.91 42.326 56.91 42.326l13.382-11.943s-15.573-18.513-53.707-38.457c20.66-9.262 45.966-17.693 76.28-23.13 4.35 7.445 14.982 22.756 34.644 34.761 21.59 13.165 51.17 4.09 51.17 4.09s-14.126-31.43-38.332-41.275c-6.626-2.695-15.533-3.62-23.99-3.744 12.87-4.097 25.953-9.308 39.045-15.53 5.758 6.635 18.4 18.987 38.751 26.958 23.061 9.04 50.072-4.767 50.072-4.767s-18.98-27.927-44.016-33.305c-7.025-1.509-16.033-.812-24.387.574 12.175-6.791 24.25-14.48 36.093-22.957 6.335 5.27 20.994 15.655 42.762 20.048 23.8 4.795 47.513-13.123 47.513-13.123s-23.064-23.719-48.144-24.65c-7.84-.291-17.61 2.473-26.108 5.666a401.298 401.298 0 0 0 34.148-30.512c6.915 3.984 22.95 11.652 44.898 12.185 23.785.578 43.631-20.744 43.631-20.744s-26.312-18.978-50.68-15.608c-7.74 1.071-16.793 5.543-24.53 10.15 10.3-11.374 20.06-23.434 29.076-36.189 7.447 2.677 24.098 7.24 45.2 4.046 23.05-3.491 38.57-27.443 38.57-27.443s-28.603-13.839-51.559-6.436c-7.01 2.26-14.653 7.76-21.18 13.305a354.377 354.377 0 0 0 21.7-39.905c7.846 1.297 24.356 2.68 43.79-3.864 21.647-7.29 32.553-33.058 32.553-33.058s-29.967-8.48-50.867 2.559c-6.097 3.23-12.254 9.413-17.463 15.596a327.64 327.64 0 0 0 13.326-42.15c7.591-.027 24.15-1.374 42.157-11.2 19.658-10.724 25.81-37.44 25.81-37.44s-30.375-3.09-48.658 11.13c-5.657 4.402-10.809 12.017-14.904 19.248 3.347-15.193 5.56-30.431 6.765-45.607 7.435-1.374 22.942-5.53 38.461-17.917 17.146-13.694 18.509-40.528 18.509-40.528s-29.826 2.19-45.058 19.019c-4.615 5.11-8.232 13.123-10.936 20.67.4-15.89-.278-31.664-1.923-47.202 6.742-2.456 21.439-9.113 34.61-24.055 14.214-16.134 10.979-42.265 10.979-42.265s-28.424 7.193-40.242 26.02c-3.943 6.282-6.153 15.746-7.43 24.077-2.508-16.696-6.134-33.042-10.669-48.922 5.687-3.174 19.382-12.1 29.998-29.501 10.985-17.984 3.424-42.654 3.424-42.654s-26.222 11.776-34.424 31.965c-3.018 7.422-3.368 18.222-3.013 26.98-5.49-16.96-12.011-33.31-19.425-48.817 4.987-4.068 16.642-15.003 23.899-33.538 7.527-19.226-3.986-41.751-3.986-41.751s-23.28 15.826-27.768 36.707c-1.61 7.505-.215 17.726 1.56 26.026-8.918-17.037-18.875-32.945-29.591-47.426 3.491-3.922 12.79-15.73 16.529-34.264 3.707-18.39-10.128-36.715-10.128-36.715s-18.347 17.833-19.062 37.212c-.298 8.06 3.569 18.668 6.847 26.173-11.85-15.075-24.507-28.46-37.645-39.728-.851-.88-1.757-1.715-2.646-2.564 1.973-3.039 8.763-14.613 9.186-32.215.406-16.375-14.281-30.037-14.281-30.037s-13.065 18.112-10.728 34.887c1.026 7.464 6.625 16.804 10.68 22.758-12.39-10.358-26.907-18.04-37.695-22.866-.908-1.359-11.53-16.922-26.043-20.355-10.804-2.534-29.618 3.346-29.618 3.346s8.047 12.547 25.455 19.762c12.545 5.207 26.624-.57 29.427-1.82 11.532 6.032 27.456 15.686 39.227 27.794-6.34-3.303-15.351-7.307-22.4-7.534-16.922-.56-33.56 14.338-33.56 14.338s15.144 13.157 31.382 11.031c15.6-2.028 26.148-8.801 30.262-11.874 13.472 12.128 26.367 26.486 38.302 42.65-6.436-4.843-15.217-10.576-22.69-12.146-18.974-3.986-40.7 9.5-40.7 9.5s14.45 17.853 33.184 18.69c17.744.801 31.008-4.647 36.413-7.339 10.913 15.818 20.912 33.152 29.648 51.684-6.088-6.664-15.094-15.377-23.385-18.703-19.81-7.956-45.948 2.525-45.948 2.525s12.24 22.116 32.4 26.6c19.445 4.346 35.023.786 41.168-1.076 6.954 15.83 13.017 32.416 17.938 49.605-4.917-7.498-11.834-16.62-18.967-21.05-18.504-11.504-46.627-5.607-46.627-5.607s8.392 24.396 27.854 32.479c18.163 7.559 34.085 7.031 40.994 6.28 4.284 17.016 7.458 34.534 9.353 52.355-3.61-8.478-9.022-19.133-15.53-24.954-16.538-14.842-45.85-13.897-45.85-13.897s4.098 26.004 22.24 37.575c17.03 10.887 33.242 13.137 40.237 13.586 1.252 17.336 1.265 34.914-.12 52.56-2.12-9.19-5.679-20.981-11.23-28.04-14.018-17.851-43.628-22.091-43.628-22.091s-.467 26.859 15.7 41.703c15.116 13.902 30.961 19.058 37.955 20.77-1.827 15.765-4.796 31.55-9.03 47.236-.65-9.122-2.267-20.05-6.155-27.314-10.919-20.416-39.93-29.93-39.93-29.93s-5.238 26.91 8.368 44.678c12.427 16.245 26.923 24.189 33.875 27.322-4.442 15.705-10.047 30.839-16.616 45.364 1.013-9.392 1.404-20.942-1.267-29.103-7.364-22.45-34.822-37.147-34.822-37.147s-10.039 26.108.493 46.38c9.566 18.456 22.657 28.992 29.112 33.4a350.488 350.488 0 0 1-23.393 39.443c2.38-8.78 4.327-19.054 3.19-26.972-3.403-23.857-28.39-43.493-28.39-43.493s-14.718 24.457-7.742 46.696c6.11 19.48 16.761 32.098 22.65 37.999a378.093 378.093 0 0 1-28.818 33.689c3.642-8.023 6.949-17.183 7.197-24.781.783-24.577-20.839-48.736-20.839-48.736s-19.12 21.968-16.036 45.555c2.63 20.273 10.825 34.667 15.738 41.794-10.686 10.043-21.814 19.315-33.2 27.845 4.899-7.251 9.568-15.61 11.103-22.952 5.165-24.557-12.306-52.674-12.306-52.674s-23.097 18.698-24.184 42.94c-.937 20.786 4.714 36.67 8.39 44.725-12.714 8.484-25.65 16.009-38.613 22.507 6.635-6.684 13.494-14.834 16.538-22.438 9.525-23.777-3.03-55.12-3.03-55.12s-26.546 14.692-31.922 38.868c-4.727 21.16-1.63 38.42.657 46.98-13.61 5.84-27.131 10.493-40.329 13.932 7.469-5.388 15.161-11.991 19.334-18.712 13.793-22.198 6.709-55.93 6.709-55.93s-29.264 10.06-38.954 33.4c-7.914 19.042-8.412 35.912-7.816 45.43-19.146 3.64-36.54 8.525-52.09 14.074a364.065 364.065 0 0 0-28.472 11.472 364.19 364.19 0 0 0-28.472-11.472c-15.55-5.549-32.944-10.433-52.09-14.074.597-9.519.103-26.388-7.81-45.43-9.691-23.34-38.96-33.4-38.96-33.4s-7.084 33.732 6.71 55.93c4.172 6.72 11.865 13.325 19.333 18.712-13.198-3.44-26.718-8.093-40.329-13.931 2.287-8.562 5.384-25.821.657-46.981-5.375-24.175-31.917-38.868-31.917-38.868s-12.555 31.343-3.03 55.12c3.045 7.604 9.9 15.754 16.533 22.438-12.964-6.5-25.899-14.023-38.613-22.507 3.676-8.054 9.332-23.938 8.395-44.725-1.088-24.242-24.184-42.94-24.184-42.94s-17.475 28.117-12.31 52.674c1.535 7.341 6.205 15.702 11.104 22.952-11.386-8.53-22.511-17.803-33.197-27.845 4.913-7.127 13.109-21.522 15.738-41.794 3.084-23.586-16.036-45.555-16.036-45.555s-21.626 24.159-20.843 48.736c.248 7.599 3.558 16.76 7.2 24.785a377.83 377.83 0 0 1-28.821-33.694c5.888-5.9 16.54-18.518 22.65-38 6.977-22.238-7.737-46.695-7.737-46.695s-24.992 19.635-28.394 43.493c-1.138 7.92.813 18.196 3.194 26.977a350.526 350.526 0 0 1-23.398-39.451c6.456-4.409 19.546-14.941 29.112-33.396 10.532-20.272.493-46.38.493-46.38s-27.458 14.698-34.822 37.147c-2.672 8.16-2.28 19.712-1.267 29.103-6.569-14.526-12.174-29.66-16.616-45.364 6.952-3.134 21.448-11.077 33.875-27.322 13.605-17.77 8.368-44.677 8.368-44.677s-29.012 9.512-39.93 29.929c-3.887 7.262-5.506 18.188-6.156 27.309-4.233-15.684-7.203-31.468-9.03-47.232 6.994-1.712 22.84-6.868 37.957-20.77 16.167-14.844 15.699-41.703 15.699-41.703s-29.605 4.24-43.622 22.092c-5.555 7.061-9.116 18.86-11.234 28.053-1.387-17.652-1.37-35.234-.117-52.574 6.995-.45 23.204-2.7 40.234-13.586 18.142-11.572 22.244-37.575 22.244-37.575s-29.315-.945-45.853 13.897c-6.507 5.82-11.915 16.472-15.526 24.949a378.678 378.678 0 0 1 9.35-52.35c6.909.75 22.831 1.278 40.993-6.281 19.462-8.083 27.854-32.48 27.854-32.48s-28.122-5.895-46.627 5.607c-7.132 4.431-14.05 13.552-18.967 21.051 4.922-17.188 10.984-33.775 17.938-49.605 6.146 1.862 21.724 5.422 41.167 1.077 20.161-4.485 32.401-26.601 32.401-26.601s-26.134-10.48-45.944-2.525c-8.287 3.325-17.293 12.031-23.38 18.695 8.735-18.528 18.728-35.86 29.64-51.675 5.404 2.692 18.667 8.14 36.412 7.34 18.734-.838 33.188-18.69 33.188-18.69s-21.73-13.487-40.705-9.501c-7.473 1.57-16.253 7.307-22.689 12.15 11.936-16.165 24.828-30.526 38.302-42.654 4.114 3.073 14.666 9.846 30.266 11.874 16.238 2.126 31.377-11.031 31.377-11.031s-16.636-14.897-33.56-14.338c-7.05.227-16.063 4.235-22.403 7.538 11.771-12.11 27.698-21.765 39.231-27.798 2.804 1.25 16.882 7.027 29.427 1.82 17.408-7.216 25.455-19.762 25.455-19.762s-18.814-5.88-29.618-3.345c-14.513 3.432-25.136 18.996-26.043 20.355-10.788 4.824-25.307 12.508-37.696 22.866 4.056-5.954 9.66-15.294 10.685-22.758 2.337-16.775-10.733-34.887-10.733-34.887z" fill="url(#a)" transform="translate(.585 -1.604) scale(.0765)"/><path d="M254.5 246.03s-14.688 13.662-14.282 30.037c.423 17.6 7.211 29.174 9.185 32.215-.888.848-1.794 1.684-2.645 2.563-13.135 11.266-25.791 24.647-37.64 39.72 3.277-7.504 7.14-18.108 6.842-26.165-.715-19.38-19.062-37.212-19.062-37.212s-13.834 18.325-10.128 36.715c3.739 18.536 13.038 30.342 16.53 34.264-10.717 14.481-20.669 30.39-29.588 47.426 1.776-8.299 3.17-18.52 1.56-26.026-4.486-20.88-27.771-36.707-27.771-36.707s-11.513 22.524-3.986 41.751c7.255 18.528 18.91 29.463 23.9 33.534-7.415 15.51-13.935 31.86-19.425 48.822.355-8.759.003-19.558-3.013-26.98-8.203-20.19-34.424-31.966-34.424-31.966s-7.558 24.67 3.427 42.654c10.615 17.401 24.306 26.327 29.994 29.501-4.534 15.878-8.16 32.223-10.668 48.918-1.277-8.33-3.488-17.792-7.43-24.072-11.818-18.828-40.242-26.02-40.242-26.02s-3.235 26.131 10.98 42.264c13.171 14.942 27.867 21.6 34.61 24.055-1.646 15.538-2.325 31.312-1.924 47.202-2.704-7.547-6.321-15.559-10.936-20.67-15.232-16.828-45.058-19.019-45.058-19.019s1.367 26.834 18.513 40.528c15.519 12.388 31.022 16.543 38.457 17.917 1.205 15.172 3.419 30.407 6.764 45.598-4.094-7.228-9.248-14.839-14.904-19.239-18.283-14.219-48.658-11.13-48.658-11.13s6.152 26.716 25.81 37.441c18.004 9.824 34.565 11.172 42.157 11.2a327.752 327.752 0 0 0 13.326 42.15c-5.208-6.182-11.366-12.366-17.463-15.597-20.9-11.038-50.867-2.559-50.867-2.559s10.906 25.77 32.553 33.058c19.432 6.545 35.944 5.162 43.791 3.865a354.36 354.36 0 0 0 21.7 39.905c-6.528-5.544-14.172-11.044-21.18-13.305-22.957-7.403-51.555 6.436-51.555 6.436s15.516 23.952 38.565 27.443c21.105 3.194 37.76-1.37 45.205-4.046 9.016 12.754 18.774 24.812 29.073 36.184-7.737-4.606-16.792-9.074-24.53-10.145-24.369-3.37-50.68 15.608-50.68 15.608s19.85 21.322 43.635 20.744c21.951-.533 37.984-8.201 44.898-12.185a401.038 401.038 0 0 0 34.14 30.508c-8.496-3.192-18.267-5.953-26.104-5.662-25.08.932-48.14 24.65-48.14 24.65s23.714 17.917 47.513 13.123c21.768-4.392 36.424-14.776 42.758-20.047 11.843 8.476 23.922 16.165 36.097 22.957-8.355-1.387-17.366-2.084-24.392-.575-25.036 5.377-44.016 33.305-44.016 33.305s27.011 13.808 50.072 4.767c20.352-7.97 32.993-20.324 38.751-26.959 13.092 6.223 26.175 11.433 39.045 15.531-8.457.125-17.36 1.05-23.985 3.744-24.206 9.845-38.336 41.275-38.336 41.275s29.581 9.076 51.17-4.09c19.661-12.004 30.293-27.316 34.645-34.76 30.313 5.436 55.62 13.867 76.28 23.13-38.134 19.944-53.708 38.457-53.708 38.457l13.382 11.943s17.76-21.601 56.91-42.326c39.15 20.725 56.91 42.326 56.91 42.326l13.382-11.943s-15.573-18.513-53.707-38.457c20.66-9.263 45.966-17.693 76.28-23.13 4.35 7.444 14.982 22.756 34.644 34.76 21.59 13.166 51.17 4.09 51.17 4.09s-14.126-31.43-38.332-41.275c-6.626-2.695-15.533-3.62-23.99-3.744 12.87-4.097 25.953-9.308 39.045-15.53 5.758 6.635 18.4 18.987 38.751 26.958 23.061 9.04 50.072-4.767 50.072-4.767s-18.98-27.927-44.016-33.305c-7.025-1.509-16.033-.812-24.387.575 12.175-6.792 24.25-14.48 36.093-22.957 6.335 5.27 20.994 15.655 42.762 20.048 23.8 4.794 47.513-13.123 47.513-13.123s-23.064-23.72-48.144-24.651c-7.84-.29-17.61 2.473-26.108 5.666a401.298 401.298 0 0 0 34.148-30.512c6.915 3.985 22.95 11.652 44.898 12.185 23.785.578 43.631-20.744 43.631-20.744s-26.312-18.978-50.68-15.608c-7.74 1.071-16.793 5.543-24.53 10.15 10.3-11.374 20.06-23.434 29.076-36.189 7.447 2.677 24.098 7.24 45.2 4.046 23.05-3.491 38.57-27.443 38.57-27.443s-28.603-13.839-51.559-6.436c-7.01 2.26-14.653 7.76-21.18 13.305a354.377 354.377 0 0 0 21.7-39.905c7.846 1.297 24.356 2.68 43.79-3.864 21.647-7.29 32.553-33.058 32.553-33.058s-29.967-8.48-50.867 2.559c-6.097 3.23-12.254 9.414-17.463 15.596a327.64 327.64 0 0 0 13.326-42.15c7.591-.027 24.15-1.373 42.157-11.2 19.658-10.724 25.81-37.44 25.81-37.44s-30.375-3.09-48.658 11.13c-5.657 4.402-10.809 12.017-14.904 19.248 3.347-15.193 5.56-30.431 6.765-45.607 7.435-1.374 22.942-5.53 38.461-17.917 17.146-13.694 18.509-40.528 18.509-40.528s-29.826 2.19-45.058 19.019c-4.615 5.11-8.232 13.122-10.936 20.67.4-15.89-.278-31.664-1.923-47.202 6.742-2.456 21.439-9.114 34.61-24.055 14.214-16.134 10.979-42.265 10.979-42.265s-28.424 7.193-40.242 26.02c-3.943 6.282-6.153 15.746-7.43 24.077-2.508-16.696-6.134-33.042-10.669-48.922 5.687-3.174 19.382-12.1 29.998-29.501 10.985-17.984 3.424-42.654 3.424-42.654s-26.222 11.776-34.424 31.965c-3.018 7.422-3.368 18.222-3.013 26.98-5.49-16.96-12.011-33.31-19.425-48.817 4.987-4.068 16.642-15.003 23.899-33.538 7.527-19.226-3.986-41.751-3.986-41.751s-23.28 15.826-27.768 36.707c-1.61 7.505-.215 17.726 1.56 26.026-8.918-17.037-18.875-32.945-29.591-47.426 3.491-3.922 12.79-15.73 16.529-34.264 3.707-18.39-10.128-36.715-10.128-36.715s-18.347 17.833-19.062 37.212c-.298 8.06 3.569 18.668 6.847 26.173-11.85-15.075-24.507-28.46-37.645-39.728-.851-.88-1.757-1.715-2.646-2.564 1.973-3.039 8.763-14.613 9.186-32.215.406-16.375-14.281-30.037-14.281-30.037s-13.065 18.112-10.728 34.887c1.026 7.464 6.625 16.804 10.68 22.758-12.39-10.358-26.907-18.04-37.695-22.866-.908-1.359-11.53-16.922-26.043-20.355-10.804-2.534-29.618 3.346-29.618 3.346s8.047 12.547 25.455 19.762c12.545 5.207 26.624-.57 29.427-1.82 11.532 6.032 27.456 15.686 39.227 27.794-6.34-3.303-15.351-7.307-22.4-7.534-16.922-.56-33.56 14.338-33.56 14.338s15.144 13.157 31.382 11.031c15.6-2.028 26.148-8.801 30.262-11.874 13.472 12.128 26.367 26.486 38.302 42.65-6.436-4.843-15.217-10.576-22.69-12.146-18.974-3.986-40.7 9.5-40.7 9.5s14.45 17.853 33.184 18.69c17.744.801 31.008-4.647 36.413-7.339 10.913 15.818 20.912 33.152 29.648 51.684-6.088-6.664-15.094-15.377-23.385-18.703-19.81-7.956-45.948 2.525-45.948 2.525s12.24 22.116 32.4 26.6c19.445 4.346 35.023.786 41.168-1.076 6.954 15.83 13.017 32.416 17.938 49.605-4.917-7.498-11.834-16.62-18.967-21.05-18.504-11.504-46.627-5.607-46.627-5.607s8.392 24.396 27.854 32.479c18.163 7.559 34.085 7.031 40.994 6.28 4.284 17.016 7.458 34.534 9.353 52.355-3.61-8.478-9.022-19.133-15.53-24.954-16.538-14.842-45.85-13.897-45.85-13.897s4.098 26.004 22.24 37.575c17.03 10.887 33.242 13.137 40.237 13.586 1.252 17.336 1.265 34.914-.12 52.56-2.12-9.19-5.679-20.981-11.23-28.04-14.018-17.851-43.628-22.091-43.628-22.091s-.467 26.859 15.7 41.703c15.116 13.902 30.961 19.058 37.955 20.77-1.827 15.765-4.796 31.55-9.03 47.236-.65-9.122-2.267-20.05-6.155-27.314-10.919-20.416-39.93-29.93-39.93-29.93s-5.238 26.91 8.368 44.678c12.427 16.245 26.923 24.189 33.875 27.322-4.442 15.705-10.047 30.839-16.616 45.364 1.013-9.391 1.404-20.942-1.267-29.103-7.364-22.45-34.822-37.147-34.822-37.147s-10.039 26.108.493 46.38c9.566 18.456 22.657 28.992 29.112 33.4a350.488 350.488 0 0 1-23.393 39.443c2.38-8.78 4.327-19.054 3.19-26.972-3.403-23.857-28.39-43.493-28.39-43.493s-14.718 24.457-7.742 46.696c6.11 19.48 16.761 32.098 22.65 37.999a378.093 378.093 0 0 1-28.818 33.689c3.642-8.023 6.949-17.183 7.197-24.781.783-24.577-20.839-48.736-20.839-48.736s-19.12 21.968-16.036 45.555c2.63 20.273 10.825 34.667 15.738 41.794-10.686 10.043-21.814 19.315-33.2 27.845 4.898-7.251 9.568-15.61 11.103-22.952 5.165-24.557-12.306-52.674-12.306-52.674s-23.097 18.698-24.184 42.94c-.937 20.786 4.714 36.67 8.39 44.725-12.714 8.484-25.65 16.009-38.613 22.507 6.635-6.684 13.494-14.834 16.538-22.438 9.525-23.777-3.03-55.12-3.03-55.12s-26.546 14.692-31.922 38.868c-4.727 21.16-1.63 38.42.657 46.98-13.61 5.84-27.13 10.493-40.329 13.932 7.47-5.388 15.161-11.991 19.334-18.712 13.793-22.198 6.709-55.93 6.709-55.93s-29.264 10.06-38.954 33.4c-7.914 19.042-8.412 35.912-7.816 45.43-19.146 3.64-36.54 8.525-52.09 14.074a364.065 364.065 0 0 0-28.472 11.472 364.19 364.19 0 0 0-28.472-11.472c-15.55-5.549-32.944-10.433-52.09-14.074.597-9.519.103-26.388-7.81-45.43-9.69-23.34-38.96-33.4-38.96-33.4s-7.084 33.732 6.71 55.93c4.172 6.72 11.865 13.325 19.333 18.712-13.198-3.44-26.718-8.093-40.329-13.931 2.287-8.561 5.384-25.821.657-46.981-5.375-24.176-31.917-38.868-31.917-38.868s-12.555 31.343-3.03 55.12c3.045 7.604 9.9 15.754 16.533 22.438-12.964-6.499-25.899-14.023-38.613-22.507 3.676-8.054 9.332-23.938 8.395-44.725-1.088-24.242-24.184-42.94-24.184-42.94s-17.475 28.117-12.31 52.674c1.535 7.342 6.205 15.702 11.104 22.952-11.386-8.53-22.511-17.803-33.197-27.845 4.913-7.127 13.109-21.522 15.738-41.794 3.084-23.586-16.036-45.555-16.036-45.555s-21.626 24.159-20.843 48.736c.248 7.599 3.558 16.76 7.2 24.785a377.83 377.83 0 0 1-28.821-33.694c5.888-5.9 16.54-18.518 22.65-38 6.977-22.238-7.737-46.695-7.737-46.695s-24.992 19.635-28.394 43.493c-1.138 7.92.813 18.196 3.194 26.977a350.526 350.526 0 0 1-23.398-39.451c6.456-4.409 19.546-14.941 29.112-33.396 10.532-20.272.493-46.38.493-46.38s-27.458 14.698-34.822 37.147c-2.672 8.16-2.28 19.712-1.267 29.103-6.568-14.526-12.174-29.66-16.616-45.364 6.952-3.134 21.448-11.077 33.875-27.322 13.605-17.77 8.369-44.677 8.369-44.677s-29.012 9.513-39.931 29.929c-3.887 7.262-5.506 18.188-6.156 27.309-4.233-15.684-7.203-31.468-9.03-47.232 6.995-1.712 22.84-6.868 37.957-20.77 16.167-14.844 15.699-41.703 15.699-41.703s-29.605 4.24-43.622 22.092c-5.555 7.061-9.116 18.86-11.234 28.053-1.387-17.652-1.37-35.234-.117-52.574 6.995-.45 23.204-2.699 40.234-13.586 18.142-11.572 22.244-37.575 22.244-37.575s-29.315-.945-45.853 13.897c-6.507 5.82-11.915 16.472-15.526 24.949a378.678 378.678 0 0 1 9.35-52.35c6.909.75 22.831 1.278 40.993-6.281 19.462-8.083 27.854-32.479 27.854-32.479s-28.122-5.896-46.627 5.606c-7.132 4.431-14.05 13.553-18.967 21.051 4.922-17.188 10.984-33.775 17.938-49.605 6.146 1.862 21.724 5.422 41.167 1.077 20.161-4.485 32.401-26.601 32.401-26.601s-26.134-10.48-45.944-2.525c-8.287 3.325-17.293 12.031-23.38 18.695 8.735-18.528 18.728-35.86 29.64-51.675 5.404 2.692 18.667 8.14 36.412 7.34 18.734-.838 33.188-18.69 33.188-18.69s-21.73-13.487-40.705-9.501c-7.473 1.57-16.253 7.307-22.689 12.15 11.936-16.165 24.828-30.526 38.302-42.654 4.114 3.073 14.666 9.846 30.266 11.874 16.238 2.126 31.377-11.031 31.377-11.031s-16.636-14.897-33.56-14.338c-7.05.227-16.063 4.235-22.403 7.538 11.771-12.11 27.698-21.765 39.231-27.798 2.804 1.25 16.882 7.027 29.427 1.82 17.408-7.216 25.455-19.762 25.455-19.762s-18.814-5.88-29.618-3.345c-14.513 3.432-25.136 18.996-26.043 20.355-10.788 4.824-25.307 12.508-37.696 22.866 4.056-5.954 9.66-15.294 10.685-22.758 2.337-16.775-10.733-34.887-10.733-34.887z" fill="url(#b)" transform="translate(.585 -1.604) scale(.0765)"/><g fill="#eca620" transform="translate(.585 -1.604) scale(.0765)"><text x="515.538" y="707.959" font-family="'Caviar Dreams'" font-size="62.514" letter-spacing="0" stroke-width=".598" text-anchor="middle" word-spacing="0" style="line-height:125%"><tspan x="515.538" y="707.959">Cosméticos</tspan><tspan x="515.538" y="786.102">Artesanais</tspan></text><path d="M267.36 624.12v4.425h235.12a13.598 13.598 0 0 1-.152-1.926c0-.854.089-1.688.24-2.499zm262.01 0c.152.811.24 1.645.24 2.499 0 .655-.062 1.295-.152 1.926h235.12v-4.425z" color="#000" fill-rule="evenodd" solid-color="#000000" style="isolation:auto;mix-blend-mode:normal;text-decoration-color:#000;text-decoration-line:none;text-decoration-style:solid;text-indent:0;text-transform:none" white-space="normal"/><circle cx="515.97" cy="626.62" r="10.986" fill-rule="evenodd"/><text x="340.779" y="480.685" font-family="sans-serif" font-size="226.46" letter-spacing="0" stroke-width=".598" word-spacing="0" style="line-height:125%"><tspan x="340.779" y="480.685" font-family="'Crimson Text'">L<tspan font-size="150.97">e</tspan></tspan></text><text x="381.928" y="574.739" font-family="sans-serif" font-size="226.46" letter-spacing="0" stroke-width=".598" word-spacing="0" style="line-height:125%"><tspan x="381.928" y="574.739" font-family="'Crimson Text'">L<tspan font-size="150.97">uxe</tspan></tspan></text></g></g></svg>