<svg width="90" height="110" viewBox="0 0 23.812494 29.10416" xmlns="http://www.w3.org/2000/svg"><g stroke-width="1.364"><g fill="#303036"><path class="fil0" d="M2.547 13.403V1.092h5.457c1.1 0 1.934.111 2.503.33s1.026.61 1.368 1.169a3.52 3.52 0 0 1 .51 1.856c0 .874-.283 1.61-.848 2.209s-1.436.978-2.618 1.142c.435.204.758.413.981.614.477.435.927.982 1.35 1.636l2.128 3.355h-2.034l-1.63-2.563a22.654 22.654 0 0 0-1.171-1.7c-.309-.39-.584-.665-.826-.821s-.49-.264-.744-.328c-.182-.037-.483-.055-.907-.055H4.18v5.467zM4.18 6.526h3.5c.744 0 1.324-.078 1.74-.234.42-.153.737-.398.953-.74A2 2 0 0 0 10.7 4.45c0-.584-.212-1.063-.632-1.439s-1.086-.562-1.994-.562H4.18z"/><path class="fil0" d="M22.17 13.526V1.214h-5.456c-1.097 0-1.934.112-2.503.332s-1.026.61-1.368 1.171a3.504 3.504 0 0 0-.51 1.852c0 .874.286 1.61.848 2.21.565.599 1.436.978 2.618 1.142-.431.204-.758.413-.981.613-.477.436-.927.982-1.35 1.637l-2.128 3.355h2.034l1.63-2.563c.472-.74.862-1.305 1.171-1.7.309-.39.584-.665.83-.822a2.41 2.41 0 0 1 .74-.327c.182-.037.483-.056.907-.056h1.886v5.468zm-1.632-6.877h-3.496c-.748 0-1.324-.079-1.745-.235-.416-.152-.736-.398-.952-.74a1.998 1.998 0 0 1-.327-1.1c0-.585.212-1.065.632-1.44s1.086-.562 1.994-.562h3.894z"/><path class="fil0" d="M22.175 13.422v12.311h-5.457c-1.097 0-1.93-.112-2.503-.331-.57-.22-1.027-.61-1.365-1.168a3.493 3.493 0 0 1-.51-1.856c0-.874.283-1.61.848-2.21s1.436-.977 2.615-1.141c-.431-.205-.759-.413-.982-.614a8.219 8.219 0 0 1-1.346-1.636l-2.131-3.355h2.034l1.63 2.562c.472.74.866 1.306 1.17 1.7.31.39.585.666.83.822.242.156.491.264.74.327.186.038.488.056.908.056h1.886v-5.467zm-1.633 6.877h-3.496c-.744 0-1.325.078-1.745.234-.416.153-.736.398-.948.74-.22.335-.328.703-.328 1.101 0 .584.209 1.064.629 1.44.424.375 1.086.561 1.997.561h3.89z"/><path class="fil0" d="M2.55 13.347V25.66h5.457c1.097 0 1.93-.112 2.503-.331a2.742 2.742 0 0 0 1.365-1.172 3.48 3.48 0 0 0 .51-1.852c0-.874-.283-1.61-.848-2.213-.562-.6-1.436-.975-2.615-1.138.432-.209.759-.413.982-.614a8.142 8.142 0 0 0 1.347-1.64l2.13-3.352h-2.034l-1.629 2.56a22.42 22.42 0 0 1-1.171 1.7c-.31.393-.584.665-.83.825a2.58 2.58 0 0 1-.74.323c-.186.038-.487.06-.908.06H4.184v-5.468zm1.634 6.878H7.68c.748 0 1.324.078 1.744.23.417.153.737.398.949.74.22.339.327.707.327 1.105 0 .58-.208 1.064-.628 1.44s-1.087.561-1.994.561H4.184z"/></g><path class="fil2" d="M4.587 27.984l.36-.01s-.062-.086-.122-.18l-.305-.516c.186-.064.339-.223.339-.432 0-.323-.235-.524-.644-.524h-.51s.015.119.015.238v1.413h.335s-.01-.111-.01-.22v-.364h.196zm-.543-.81v-.637h.138c.227 0 .346.116.346.294 0 .201-.116.343-.395.343zm1.625.61c-.182 0-.26-.172-.26-.42 0-.239.086-.384.25-.384.196 0 .256.167.256.435 0 .235-.086.368-.246.368zm-.037.211c.372 0 .603-.249.603-.65 0-.35-.201-.577-.54-.577-.375 0-.602.25-.602.655 0 .346.2.573.54.573zm1.365 0c.16 0 .264-.059.313-.122l.007.111.309-.01s-.015-.124-.015-.246v-1.536l-.327.01s.014.109.014.243v.401c-.044-.037-.115-.078-.264-.078-.3 0-.565.227-.565.662 0 .327.208.565.528.565zm.082-.223c-.208 0-.286-.174-.286-.398 0-.245.104-.394.29-.394.108 0 .178.045.215.097v.602a.277.277 0 0 1-.219.093zm1.413.011c-.178 0-.256-.17-.256-.42 0-.238.082-.383.245-.383.201 0 .26.167.26.435 0 .235-.085.368-.249.368zm-.037.212c.376 0 .603-.249.603-.65 0-.35-.201-.577-.54-.577-.372 0-.602.25-.602.655 0 .346.2.573.54.573zm.908-.022h.327s-.011-.111-.011-.22v-1.565l-.331.011s.015.123.015.246zm.736 0h.327s-.01-.111-.01-.22v-.747l.345.008.011-.22h-.357v-.167c0-.138.049-.216.153-.216.096 0 .148.045.301.056l.045-.242c-.127-.007-.205-.045-.361-.045-.294 0-.45.183-.45.432v.182h-.134V27h.13zm1.384-.19c-.179 0-.257-.17-.257-.42 0-.238.082-.383.245-.383.201 0 .26.167.26.435 0 .235-.085.368-.248.368zm-.038.212c.376 0 .603-.249.603-.65 0-.35-.2-.577-.54-.577-.371 0-.602.25-.602.655 0 .346.201.573.54.573zm1.503-.022h.339s-.012-.111-.012-.22v-.364h.157c.394 0 .636-.26.636-.576 0-.253-.216-.491-.622-.491h-.513s.015.119.015.238zm.327-.803v-.632h.138c.216 0 .324.122.324.286 0 .208-.105.346-.343.346zm1.581.826c.26 0 .402-.079.402-.079v-.219s-.156.063-.354.063c-.215 0-.364-.134-.371-.346h.77c.044-.35-.105-.647-.499-.647-.338 0-.591.234-.591.632 0 .376.253.595.643.595zm-.309-.782c.019-.137.116-.238.25-.238.119 0 .182.064.19.231zm1.06.76h.328s-.011-.112-.011-.22v-.975l-.331.015s.014.123.014.242zm.142-1.407c.115 0 .193-.067.193-.178 0-.1-.07-.16-.175-.16-.111 0-.193.06-.193.163a.17.17 0 0 0 .175.175zm1.268 1.417l.368-.01s-.074-.094-.137-.18l-.328-.43.138-.183c.156-.208.264-.387.264-.387h-.272s-.037.063-.178.283l-.074.111-.264-.409-.372.015s.074.082.148.194l.29.416-.178.223c-.13.164-.257.346-.257.346h.302s.063-.115.2-.32l.056-.082zm1.049-.2c-.182 0-.26-.172-.26-.42 0-.239.085-.384.249-.384.197 0 .256.167.256.435 0 .235-.085.368-.245.368zm-.037.211c.372 0 .602-.249.602-.65 0-.35-.2-.577-.54-.577-.375 0-.602.25-.602.655 0 .346.201.573.54.573zm1.39 0a.688.688 0 0 0 .246-.048v-.208s-.1.037-.2.037c-.135 0-.19-.078-.19-.227v-.543l.383.004.007-.216h-.39v-.275h-.142l-.167.275-.134.026V27h.141s-.01.104-.01.193v.417c0 .271.155.386.457.386zm1.031-.212c-.179 0-.257-.17-.257-.42 0-.238.082-.383.246-.383.2 0 .26.167.26.435 0 .235-.085.368-.249.368zm-.037.212c.375 0 .602-.249.602-.65 0-.35-.2-.577-.539-.577-.372 0-.603.25-.603.655 0 .346.201.573.54.573z" fill="#4c4d4f"/></g></svg>