<svg width="300" height="320" version="1.1" viewBox="0 0 79.374998 84.666669" xmlns="http://www.w3.org/2000/svg">
  <defs>
    <filter id="filter4403" x="-.02597" y="-.039069" width="1.0519" height="1.0781" color-interpolation-filters="sRGB">
      <feGaussianBlur stdDeviation="1.3104534"/>
    </filter>
  </defs>
  <g transform="translate(0 -212.33)">
    <g transform="matrix(.47275 0 0 .47275 -6.7144 37.349)" stroke-width=".59698">
      <g id="pedeae" stroke-width=".59698">
        <g fill-rule="evenodd">
          <path d="m77.994 444.24c-24.367 1.0424-29.907 21.294-39.918 36.983 17.473-5.4192 39.203-2.9921 47.032-26.95z" fill="#fd5"/>
          <path d="m79.623 446.58c-13.366 0.5718-16.404 11.68-21.896 20.286 9.5842-2.9726 21.504-1.6412 25.798-14.783z" fill="#ff2a2a"/>
          <path d="m81.422 432.28-2.2235 0.26193-3.6397 5.0892c2.3326 9.7536 7.6138 16.587 15.388 20.951l5.9789-2.1714 0.13347-2.8404z" fill="#f9f9f9"/>
          <path d="m172.38 382.67c-0.64922 47.563-59.44 68.375-75.382 73.742-9.5581-4.2581-15.555-12.141-17.741-23.903 13.21-18.067 49.198-62.842 93.124-49.839z" fill="#800000"/>
        </g>
        <g fill="#ffd42a">
          <path d="m172.38 382.67c-8.9232-2.6414-17.519-2.8981-25.663-1.4791a22.623 16.67 53.703 0 0 5.5256 16.177 22.623 16.67 53.703 0 0 13.891 10.124c3.7888-7.3156 6.1196-15.561 6.246-24.822z"/>
          <path d="m125.16 444.32c-3.8803 9.348-6.981 18.436-9.1734 20.09-2.53 3.4016-20.073 9.6504-30.109 14.476l11.118-22.464z" fill-rule="evenodd"/>
          <path d="m99.171 409.29c-10.081 0.90615-19.68 1.1464-21.914 2.7435-4.0027 1.3966-15.213 16.266-22.82 24.4l24.762-3.8886z" fill-rule="evenodd"/>
        </g>
        <path d="m172.38 382.78-134.26 98.427c17.441-5.3957 39.107-3.0076 46.958-26.84 1.7623 1.5988 3.7183 3.0055 5.8732 4.2153l5.9784-2.1716v-0.0362c0.0231 0.01 0.0461 0.0219 0.0708 0.0324 15.929-5.3625 74.636-26.147 75.379-73.628z" fill-rule="evenodd" opacity=".185"/>
        <g transform="matrix(.48872 0 0 .48872 -89.888 278.46)" stroke-width=".59698">
          <circle transform="rotate(53.703)" cx="489.38" cy="-211.58" r="28.747" fill="#fff" stroke="#ffd42a" stroke-width="8.9121"/>
          <circle cx="464.86" cy="277.48" r="8.7381" fill="#241c1c"/>
          <path d="m449.5 258.49c1.5639-5.109 5.0448-5.7447 9.2614-4.664 10.094-6.3182 14.296 6.6592 7.1959 9.7944l1.6657 6.1299c-3.5536 0.43219-7.1071 1.9262-10.661 5.1971l-4.131-4.7973c-10.514 3.0356-11.751-10.208-3.3314-11.66z" fill="#fff" fill-rule="evenodd" stroke="#241c1c" stroke-width=".69369px"/>
        </g>
        <g fill="#800000">
          <path d="m45.54 503.57c0-1.4452 2.455-1.4579 2.455 0v32.972c0 1.6197-2.455 1.5921-2.455 0zm9.3733-4.5218c-0.09538 3e-3 -12.198 8e-3 -12.293 0.0144-1.3208 0-1.2169 2.4923 0 2.4923 0.09526-5e-3 12.198-8e-3 12.293-0.0102 4.6825-2e-5 8.4785 3.7959 8.4784 8.4784-8.4e-5 4.6824-3.796 8.4783-8.4784 8.4783-0.0954-3e-3 -4.3207-8e-3 -4.416-0.0144-1.6746 0-1.6365 2.5007 0 2.5007 0.09527 4e-3 4.3206 8e-3 4.416 0.0102 6.0612 4e-5 10.975-4.9135 10.975-10.975 3.9e-5 -6.0613-4.9136-10.975-10.975-10.975z"/>
          <g transform="matrix(.11545 0 0 .11545 -41.468 537.79)" stroke-width=".59698">
            <path d="m943.53-168.04c-46.304 4.6e-4 -83.841 37.537-83.842 83.842 4.6e-4 46.304 37.537 83.841 83.842 83.842 28.382-9e-3 54.833-14.376 70.291-38.18 3.6897-10.209-14.117-16.897-19.928-5.0195-12.28 15.239-30.792 24.108-50.363 24.129-35.772 2e-4 -64.772-28.999-64.771-64.771 8.8e-4 -35.772 29-64.77 64.771-64.77 18.037 0.0218 35.248 7.5638 47.49 20.811 4.4454-4.8122 8.9808-9.6689 13.053-13.898-15.79-16.56-37.662-25.947-60.543-25.984z"/>
            <path d="m920.69-81.979 66.978-70.128 13.606 12.995-66.978 70.128c-7.5414 7.5414-22.57-4.0299-13.606-12.995z"/>
          </g>
          <g transform="matrix(.11545 0 0 .11545 -41.468 538.6)" stroke-width=".59698">
            <path d="m1236.5-175.11c-46.304 4.6e-4 -83.841 37.537-83.842 83.842 4e-4 46.304 37.537 83.841 83.842 83.842 28.382-9e-3 54.833-14.376 70.291-38.18 3.6896-10.209-14.117-16.897-19.928-5.0195-12.28 15.239-30.792 24.108-50.363 24.129-35.772 2e-4 -64.772-28.999-64.772-64.771 9e-4 -35.772 29-64.77 64.772-64.77 18.037 0.0218 35.248 7.5638 47.49 20.811 4.4454-4.8122 8.9808-9.6689 13.053-13.898-15.79-16.56-37.662-25.947-60.543-25.984z"/>
            <path d="m1213.6-89.05 66.978-70.128 13.606 12.995-66.979 70.128c-7.5414 7.5414-22.57-4.0299-13.606-12.995z"/>
          </g>
          <path d="m88.31 505.91c0-1.346 2.223-1.3579 2.223 0v30.71c0 1.5086-2.223 1.4829-2.223 0z"/>
          <path d="m86.395 517.52c-5.346 5e-5 -9.6798 4.3339-9.6799 9.6799 5e-5 5.346 4.3338 9.6798 9.6799 9.6799 0.13611-4e-5 0.27177-4e-3 0.40703-0.01 1.2709 0 1.2551-2.2036 0-2.2036-0.13513 8e-3 -0.27086 0.0113-0.40703 0.0115-4.1301 2e-5 -7.4782-3.3481-7.4781-7.4781 9e-5 -4.13 3.3482-7.478 7.4781-7.4779 0.13609 1.2e-4 0.2719 4e-3 0.40703 0.0119 1.0904 0 1.0874-2.2038 0-2.2038-0.13533-6e-3 -0.27099-0.01-0.40703-0.0102z"/>
        </g>
      </g>
      <g fill="#800000">
        <path d="m117.75 507.96c0.34838-1.3002 2.4987-0.7363 2.1472 0.57535l-7.9484 29.664c-0.39044 1.4572-2.531 0.85699-2.1472-0.57535z"/>
        <path d="m140.04 518.45c-5.346 4e-5 -9.6798 4.3339-9.6799 9.6799 6e-5 5.346 4.3339 9.6799 9.6799 9.6799 3.2768-9.8e-4 6.3307-1.6598 8.1154-4.408 0.42597-1.1787-1.6299-1.9508-2.3007-0.57954-1.4178 1.7594-3.5551 2.7834-5.8147 2.7858-4.1301 2e-5 -7.4782-3.3481-7.4782-7.4782 1e-4 -4.13 3.3482-7.4779 7.4782-7.4779 2.0825 4e-3 4.0696 0.87327 5.4829 2.4027 0.51324-0.55559 1.0369-1.1163 1.507-1.6046-1.823-1.9119-4.3482-2.9957-6.9899-3z"/>
        <path d="m137.41 528.38 7.733-8.0966 1.5708 1.5003-7.733 8.0966c-0.87068 0.87069-2.6058-0.46527-1.5708-1.5003z"/>
      </g>
      <g transform="matrix(.060293 -.037486 .037486 .060293 159.26 391.48)" stroke-width=".59698">
        <g fill-rule="evenodd">
          <path d="m-1019.7 1183.9c-49.859 2.1329-61.193 43.57-81.677 75.672 35.751-11.088 80.216-6.1222 96.235-55.144z" fill="#fd5"/>
          <path d="m-1016.4 1188.7c-27.349 1.17-33.566 23.899-44.801 41.508 19.61-6.0823 44-3.3582 52.787-30.248z" fill="#ff2a2a"/>
          <path d="m-1012.7 1159.4-4.5493 0.5359-7.4477 10.413c4.7728 19.957 15.579 33.939 31.486 42.868l12.233-4.4431 0.27349-5.8118z" fill="#f9f9f9"/>
          <path d="m-826.6 1057.9c-1.3283 97.32-121.62 139.9-154.24 150.89-19.557-8.7127-31.828-24.842-36.301-48.909 27.03-36.968 100.67-128.58 190.54-101.98z" fill="#800000"/>
        </g>
        <g fill="#ffd42a">
          <path d="m-826.6 1057.9c-18.258-5.4047-35.846-5.9299-52.509-3.0266a46.29 34.108 53.703 0 0 11.306 33.101 46.29 34.108 53.703 0 0 28.423 20.714c7.7525-14.969 12.522-31.841 12.78-50.788z"/>
          <path d="m-923.21 1184.1c-7.9396 19.127-14.284 37.722-18.77 41.106-5.1768 6.9603-41.071 19.746-61.607 29.619l22.749-45.965z" fill-rule="evenodd"/>
          <path d="m-976.39 1112.4c-20.627 1.8541-40.267 2.3456-44.839 5.6136-8.1902 2.8576-31.128 33.284-46.692 49.925l50.666-7.9565z" fill-rule="evenodd"/>
        </g>
        <path d="m-826.6 1058.2-274.72 201.4c35.687-11.04 80.018-6.1541 96.082-54.918 3.6057 3.2714 7.6081 6.1498 12.018 8.625l12.232-4.4434 4e-3 -0.074c0.0486 0.022 0.0958 0.045 0.14453 0.066 32.593-10.972 152.72-53.499 154.24-150.65z" fill-rule="evenodd" opacity=".185"/>
        <g transform="translate(-1363.2 844.7)" stroke-width=".59698">
          <circle transform="rotate(53.703)" cx="489.38" cy="-211.58" r="28.747" fill="#fff" stroke="#ffd42a" stroke-width="8.9121"/>
          <circle cx="464.86" cy="277.48" r="8.7381" fill="#241c1c"/>
          <path d="m449.5 258.49c1.5639-5.109 5.0448-5.7447 9.2614-4.664 10.094-6.3182 14.296 6.6592 7.1959 9.7944l1.6657 6.1299c-3.5536 0.43219-7.1071 1.9262-10.661 5.1971l-4.131-4.7973c-10.514 3.0356-11.751-10.208-3.3314-11.66z" fill="#fff" fill-rule="evenodd" stroke="#241c1c" stroke-width=".69369px"/>
        </g>
      </g>
      <path d="m120.28 508.54c-0.34839-1.3002 1.7958-1.887 2.1472-0.57535l7.9484 29.664c0.39046 1.4572-1.7634 2.0077-2.1472 0.57535z" fill="#800000"/>
      <path transform="matrix(.17403 0 0 .21476 286.03 376.26)" d="m-933.9 659.03c-33.955 18.302-42.236 30.007-37.055 44.804 5.1811 14.797 36.907 11.957 70.863-6.3446 15.342-7.4301 49.879-47.117 48.801-64.679-4.1256 10.985-20.516 27.132-41.149 40.536-27.378 17.771-53.16 24.965-57.586 16.067-4.4262-8.8977-0.86573-15.391 26.512-33.162 4.0234-2.6028 8.1084-5.0355 12.165-7.2443-7.4069 2.5949-15.049 5.9914-22.55 10.022z" fill="#e0e7e6" fill-opacity=".60479" filter="url(#filter4403)"/>
      <path d="m124.18 514.57 2.0299 7.6163-2.0964 0.56857-2.0299-7.6164c-0.29493-1.1955 1.7459-1.9897 2.0964-0.56855z" fill="#800000"/>
    </g>
  </g>
</svg>
