<svg class="pedeae-logo" xmlns="http://www.w3.org/2000/svg" width="704.546" height="704.549" viewBox="0 0 660.51167 660.51453"><defs><filter id="a" x="-.026" width="1.052" y="-.039" height="1.078" color-interpolation-filters="sRGB"><feGaussianBlur stdDeviation="1.31"/></filter></defs><g transform="translate(-41.791 -195.924)"><circle cx="377.88" cy="526.181" r="305.47" fill="#ccc"/><path d="M147.487 314.572a45.88 45.88 0 0 0-45.88 45.882 45.88 45.88 0 0 0 12.82 31.796 45.88 45.88 0 0 0-31.379 43.468 45.88 45.88 0 0 0 .13 2.578H74.8v75.995l-26.906 6.12 53.451 194.185 62.163 25.852 32.952-43.984v36.706h289.72v-56.601a30.255 30.255 0 0 0 15.272 4.17 30.255 30.255 0 0 0 18.904-6.64 30.255 30.255 0 0 0-.313 4.088 30.255 30.255 0 0 0 30.255 30.255 30.255 30.255 0 0 0 27.681-18.134 38.64 38.64 0 0 0 31.737 16.675 38.64 38.64 0 0 0 38.64-38.64 38.64 38.64 0 0 0-38.64-38.637 38.64 38.64 0 0 0-37.131 28.072 30.255 30.255 0 0 0-22.287-9.848 30.255 30.255 0 0 0-18.902 6.64 30.255 30.255 0 0 0 .313-4.088 30.255 30.255 0 0 0-30.257-30.255 30.255 30.255 0 0 0-13.02 2.976 47.427 47.427 0 0 0-45.555-34.377 47.427 47.427 0 0 0-44.781 31.961h-.327a39.179 39.179 0 0 0-33.251-18.557 39.179 39.179 0 0 0-24.45 8.574 45.88 45.88 0 0 0-44.112-33.32 45.88 45.88 0 0 0-11.475 1.494l67.541-90.151-23.894-32.15-121.745 27.69a45.88 45.88 0 0 0-34.195-33.522 45.88 45.88 0 0 0 2.622-15.127 45.88 45.88 0 0 0-12.82-31.796 45.88 45.88 0 0 0 31.38-43.468 45.88 45.88 0 0 0-45.883-45.882z" fill="#fff" fill-rule="evenodd"/><path d="M342.822 453.698c-50.89 2.177-62.457 44.47-83.364 77.236 36.49-11.318 81.873-6.249 98.223-56.283z" fill="#fd5" fill-rule="evenodd"/><path d="M346.225 458.594c-27.914 1.194-34.259 24.393-45.727 42.365 20.016-6.208 44.91-3.427 53.878-30.872z" fill="#ff2a2a" fill-rule="evenodd"/><path d="M349.982 428.731l-4.644.547-7.601 10.629c4.871 20.37 15.9 34.64 32.137 43.754l12.486-4.535.279-5.932z" fill="#f9f9f9" fill-rule="evenodd"/><path d="M539.942 325.115c-1.356 99.33-124.137 142.795-157.43 154.004-19.962-8.893-32.486-25.356-37.051-49.92 27.588-37.732 102.746-131.24 194.48-104.084z" fill="maroon" fill-rule="evenodd"/><path d="M539.942 325.114c-18.635-5.516-36.587-6.052-53.594-3.089a47.246 34.813 53.703 0 0 11.54 33.785 47.246 34.813 53.703 0 0 29.01 21.142c7.913-15.278 12.78-32.499 13.044-51.838z" fill="#ffd42a"/><path d="M441.333 453.878c-8.104 19.523-14.58 38.501-19.158 41.956-5.284 7.104-41.92 20.154-62.88 30.23l23.219-46.914zm-54.283-73.163c-21.053 1.892-41.1 2.394-45.765 5.73-8.36 2.916-31.772 33.97-47.658 50.956l51.713-8.12z" fill="#ffd42a" fill-rule="evenodd"/><path d="M96.534 654.317a309.115 329.249 0 0 0 276.243 181.708 309.115 329.249 0 0 0 275.947-181.708H96.534z" fill="#ffd42a"/><path d="M372.047 195.924A330.257 330.257 0 0 0 41.791 526.18a330.257 330.257 0 0 0 330.256 330.258A330.257 330.257 0 0 0 702.303 526.18a330.257 330.257 0 0 0-330.256-330.256zm0 47.924A282.333 282.333 0 0 1 654.382 526.18a282.333 282.333 0 0 1-282.335 282.334A282.333 282.333 0 0 1 89.713 526.18a282.333 282.333 0 0 1 282.334-282.332z" fill="#800"/><path d="M539.934 325.353L259.541 530.911c36.424-11.269 81.67-6.281 98.067-56.053 3.68 3.339 7.766 6.277 12.266 8.803l12.485-4.535v-.076c.049.021.097.046.148.068 33.267-11.199 155.873-54.605 157.424-153.765z" opacity=".185" fill-rule="evenodd"/><g transform="translate(-7.785 107.485) scale(1.02066)"><circle transform="rotate(53.703)" r="28.747" cy="-211.577" cx="489.38" fill="#fff" stroke="#ffd42a" stroke-width="7.148"/><circle r="8.738" cy="277.484" cx="464.865" fill="#241c1c"/><path d="M449.504 258.493c1.563-5.109 5.044-5.745 9.26-4.664 10.095-6.318 14.297 6.66 7.197 9.795l1.666 6.13c-3.554.432-7.107 1.926-10.661 5.196l-4.131-4.797c-10.514 3.036-11.75-10.207-3.331-11.66z" fill="#fff" fill-rule="evenodd" stroke="#241c1c" stroke-width=".556"/></g><path d="M685.883 424.006l-42.033 25.918a282.333 282.333 0 0 1 10.532 76.256 282.333 282.333 0 0 1-282.335 282.335 282.333 282.333 0 0 1-189.931-73.89l-42.352 26.114a330.257 330.257 0 0 0 232.283 95.7A330.257 330.257 0 0 0 702.303 526.18a330.257 330.257 0 0 0-16.42-102.174z" opacity=".397"/><path d="M370.742 229.512c-86.935.12-172.96 40.615-227.728 108.27-53.622 64.6-77.763 152.67-63.77 235.526 12.075 76.516 55.424 147.543 118.384 192.767 65.44 47.83 150.927 67.304 230.51 51.334 79.06-14.933 151.083-63.571 193.943-131.733 42.656-66.384 57.308-150.125 38.766-226.914-18.057-78.941-70.087-149.366-140.526-189.408-45.217-26.128-97.328-40.187-149.579-39.842zm2.147 16.361c70.412.265 141.112 28.325 192.013 77.1 56.832 53.54 89.605 132.17 87.237 210.029-1.726 80.494-40.181 159.927-103.384 210.537-61.84 50.477-145.229 72.776-223.742 58.78-68.282-11.478-131.81-49.306-174.171-104.226-51.055-65.295-70.984-153.61-51.865-234.213 16.941-75.763 66.942-143.393 134.777-181.253 42.273-24.035 90.645-36.727 139.135-36.754z" fill="#ffd42a"/><path d="M263.617 694.75c0-3.018 5.127-3.044 5.127 0v68.859c0 3.383-5.127 3.325-5.127 0zm19.575-9.443c-.199.007-25.474.017-25.672.03-2.759 0-2.542 5.205 0 5.205.198-.01 25.473-.018 25.672-.021 9.78 0 17.707 7.927 17.707 17.706 0 9.78-7.928 17.706-17.707 17.706-.199-.007-9.023-.016-9.222-.03-3.497 0-3.418 5.223 0 5.223.199.01 9.023.017 9.222.021 12.659 0 22.92-10.261 22.92-22.92 0-12.658-10.261-22.92-22.92-22.92z" fill="maroon"/><g fill="maroon"><path d="M309.409 725.693c-11.165 0-20.216 9.05-20.216 20.216 0 11.164 9.05 20.215 20.216 20.215a20.216 20.216 0 0 0 16.948-9.205c.89-2.462-3.404-4.075-4.805-1.21a15.617 15.617 0 0 1-12.143 5.817c-8.626 0-15.618-6.992-15.618-15.617s6.993-15.617 15.618-15.617a15.617 15.617 0 0 1 11.45 5.017 230.62 230.62 0 0 1 3.148-3.35 20.216 20.216 0 0 0-14.598-6.266z"/><path d="M303.903 746.444l16.15-16.91 3.28 3.134-16.15 16.909c-1.818 1.818-5.442-.972-3.28-3.133z"/></g><g fill="maroon"><path d="M380.042 725.693c-11.164 0-20.215 9.05-20.215 20.216 0 11.164 9.05 20.215 20.215 20.215a20.216 20.216 0 0 0 16.949-9.205c.89-2.462-3.404-4.075-4.805-1.21a15.617 15.617 0 0 1-12.144 5.817c-8.625 0-15.617-6.992-15.617-15.617s6.992-15.617 15.617-15.617a15.617 15.617 0 0 1 11.451 5.017 230.661 230.661 0 0 1 3.147-3.35 20.216 20.216 0 0 0-14.598-6.266z"/><path d="M374.536 746.444l16.15-16.91 3.28 3.134-16.15 16.909c-1.817 1.818-5.441-.972-3.28-3.133z"/></g><path d="M352.939 699.646c0-2.811 4.642-2.836 4.642 0v64.136c0 3.15-4.642 3.096-4.642 0zm-4.001 24.244c-11.164 0-20.215 9.051-20.215 20.216 0 11.165 9.05 20.215 20.215 20.216.285 0 .568-.008.85-.02 2.654 0 2.621-4.603 0-4.603a15.6 15.6 0 0 1-.85.024c-8.625 0-15.617-6.992-15.617-15.617s6.992-15.617 15.617-15.617c.284 0 .568.009.85.025 2.277 0 2.271-4.603 0-4.603a20.01 20.01 0 0 0-.85-.02zm82.699-20.094c.728-2.715 5.218-1.538 4.484 1.202l-16.6 61.95c-.815 3.043-5.285 1.79-4.484-1.202zm46.55 21.897c-11.164 0-20.215 9.05-20.215 20.216 0 11.164 9.05 20.215 20.215 20.215a20.216 20.216 0 0 0 16.949-9.205c.89-2.462-3.404-4.075-4.805-1.21a15.617 15.617 0 0 1-12.144 5.817c-8.625 0-15.617-6.992-15.617-15.617s6.992-15.617 15.617-15.617a15.616 15.616 0 0 1 11.451 5.017 230.66 230.66 0 0 1 3.147-3.35 20.216 20.216 0 0 0-14.598-6.266z" fill="maroon"/><path d="M472.681 746.444l16.15-16.91 3.28 3.134-16.15 16.909c-1.818 1.818-5.441-.972-3.28-3.133z" fill="maroon"/><path d="M482.602 689.444c-6.112 4.172-4.295 10.277-4.36 15.923 3.633-4.195 9.62-7.051 7.8-14.478z" fill="#fd5" fill-rule="evenodd"/><path d="M483.397 689.787c-3.352 2.288-2.356 5.637-2.392 8.734 1.993-2.301 5.278-3.868 4.279-7.941z" fill="#ff2a2a" fill-rule="evenodd"/><path d="M481.57 685.815l-.531.423-.123 1.895c2.164 2.139 4.619 3.054 7.321 2.933l1.193-1.518-.421-.753z" fill="#f9f9f9" fill-rule="evenodd"/><path d="M497.057 658.462c7.452 12.358-4.362 27.137-7.61 31.074-3.144.434-5.952-.636-8.4-3.317.51-6.77 2.61-24.071 16.01-27.757z" fill="maroon" fill-rule="evenodd"/><path d="M497.057 658.462a16.882 16.882 0 0 0-6.848 3.73 6.863 5.057 21.833 0 0 4.014 3.282 6.863 5.057 21.833 0 0 5.201.383 16.67 16.67 0 0 0-2.367-7.395z" fill="#ffd42a"/><path d="M494.768 681.91c.498 3.03 1.155 5.868.855 6.646-.107 1.281-3.626 5.701-5.439 8.552l-.734-7.568zm-12.308-4.862c-2.452 1.848-4.887 3.448-5.207 4.217-.807 1.001-1.314 6.628-1.97 9.942l5.756-4.968z" fill="#ffd42a" fill-rule="evenodd"/><path d="M497.075 658.492l-18.825 46.865c3.629-4.184 9.593-7.039 7.799-14.437.71.13 1.44.18 2.188.146l1.193-1.518-.006-.01.024-.002c3.245-3.933 15.041-18.692 7.627-31.044z" opacity=".185" fill-rule="evenodd"/><g transform="rotate(-31.871 1386.038 -386.056) scale(.14827)"><circle transform="rotate(53.703)" r="28.747" cy="-211.577" cx="489.38" fill="#fff" stroke="#ffd42a" stroke-width="7.148"/><circle r="8.738" cy="277.484" cx="464.865" fill="#241c1c"/><path d="M449.504 258.493c1.563-5.109 5.044-5.745 9.26-4.664 10.095-6.318 14.297 6.66 7.197 9.795l1.666 6.13c-3.554.432-7.107 1.926-10.661 5.196l-4.131-4.797c-10.514 3.036-11.75-10.207-3.331-11.66z" fill="#fff" fill-rule="evenodd" stroke="#241c1c" stroke-width=".556"/></g><path d="M436.906 705.003c-.727-2.715 3.75-3.94 4.485-1.201l16.6 61.95c.815 3.043-3.684 4.193-4.485 1.201z" fill="maroon"/><path transform="matrix(.36344 0 0 .44851 783.071 428.746)" d="M-933.905 659.027c-33.955 18.302-42.236 30.007-37.055 44.805 5.182 14.797 36.908 11.956 70.863-6.345 15.342-7.43 49.879-47.117 48.801-64.679-4.125 10.985-20.516 27.132-41.15 40.536-27.377 17.772-53.16 24.965-57.586 16.068-4.426-8.898-.865-15.391 26.512-33.162a187.993 187.993 0 0 1 12.165-7.245c-7.406 2.595-15.049 5.992-22.55 10.022z" fill="#e0e7e6" fill-opacity=".605" filter="url(#a)"/><path d="M445.056 717.596l4.24 15.906-4.379 1.188-4.239-15.907c-.616-2.496 3.646-4.155 4.378-1.187z" fill="maroon"/></g></svg>