<svg width="300" height="320" viewBox="0 0 79.374998 84.666669" xmlns="http://www.w3.org/2000/svg"><defs><filter id="a" x="-.026" y="-.039" width="1.052" height="1.078" color-interpolation-filters="sRGB"><feGaussianBlur stdDeviation="1.31"/></filter></defs><g stroke-width=".597"><g fill-rule="evenodd"><path d="M30.157 35.033c-11.52.493-14.138 10.067-18.871 17.484 8.26-2.562 18.533-1.414 22.234-12.74z" fill="#fd5"/><path d="M30.927 36.14c-6.318.27-7.755 5.521-10.351 9.59 4.531-1.405 10.166-.776 12.196-6.989z" fill="#ff2a2a"/><path d="M31.778 29.38l-1.051.123-1.721 2.406c1.103 4.611 3.6 7.842 7.275 9.905l2.826-1.027.063-1.343z" fill="#f9f9f9"/><path d="M74.778 5.926c-.307 22.486-28.1 32.325-35.637 34.862-4.518-2.013-7.353-5.74-8.387-11.3C37 20.946 54.013-.221 74.78 5.926z" fill="maroon"/></g><g fill="#ffd42a"><path d="M74.778 5.926a26.308 26.308 0 0 0-12.132-.699 10.695 7.88 53.703 0 0 2.612 7.648 10.695 7.88 53.703 0 0 6.567 4.786c1.791-3.459 2.893-7.357 2.953-11.735z"/><path d="M52.455 35.071c-1.834 4.42-3.3 8.716-4.337 9.498-1.196 1.608-9.49 4.562-14.234 6.843l5.256-10.62zM40.169 18.51c-4.766.43-9.304.543-10.36 1.298-1.892.66-7.192 7.69-10.788 11.535l11.706-1.838z" fill-rule="evenodd"/></g><path d="M74.778 5.978L11.307 52.51c8.245-2.551 18.488-1.422 22.2-12.689a15.16 15.16 0 0 0 2.776 1.993l2.826-1.027v-.017l.034.015c7.53-2.535 35.284-12.36 35.635-34.807z" fill-rule="evenodd" opacity=".185"/><g transform="translate(-49.209 -43.339) scale(.23104)"><circle transform="rotate(53.703)" cx="489.38" cy="-211.58" r="28.747" fill="#fff" stroke="#ffd42a" stroke-width="8.912"/><circle cx="464.86" cy="277.48" r="8.738" fill="#241c1c"/><path d="M449.5 258.49c1.564-5.109 5.045-5.745 9.261-4.664 10.094-6.318 14.296 6.66 7.196 9.794l1.666 6.13c-3.554.432-7.107 1.927-10.661 5.197l-4.131-4.797c-10.514 3.036-11.751-10.208-3.331-11.66z" fill="#fff" fill-rule="evenodd" stroke="#241c1c" stroke-width=".694"/></g><g fill="maroon"><path d="M14.815 63.082c0-.684 1.16-.69 1.16 0v15.587c0 .766-1.16.753-1.16 0zm4.43-2.138c-.044.001-5.766.004-5.81.007-.625 0-.576 1.178 0 1.178.044-.002 5.766-.004 5.81-.005a4.008 4.008 0 1 1 0 8.017c-.044-.002-2.042-.004-2.087-.007-.791 0-.773 1.182 0 1.182.045.002 2.043.004 2.088.005a5.188 5.188 0 1 0 0-10.377zm5.934 9.144a4.576 4.576 0 1 0 3.836 7.068c.201-.557-.77-.922-1.088-.274a3.535 3.535 0 0 1-2.748 1.317 3.535 3.535 0 1 1 0-7.07 3.535 3.535 0 0 1 2.591 1.136c.243-.263.49-.528.713-.759a4.576 4.576 0 0 0-3.304-1.418z"/><path d="M23.932 74.785l3.656-3.828.742.71-3.655 3.827c-.412.412-1.232-.22-.743-.71zm17.237-4.7a4.576 4.576 0 1 0 3.836 7.068c.201-.557-.77-.922-1.088-.274a3.535 3.535 0 0 1-2.748 1.317 3.535 3.535 0 1 1 0-7.07 3.535 3.535 0 0 1 2.591 1.136c.243-.263.49-.528.713-.759a4.576 4.576 0 0 0-3.304-1.418z"/><path d="M39.919 74.782l3.655-3.828.743.71-3.656 3.827c-.411.412-1.232-.22-.742-.71zm-4.885-10.594c0-.636 1.051-.642 1.051 0v14.518c0 .713-1.05.701-1.05 0zm-.905 5.489a4.576 4.576 0 1 0 .192 9.147c.601 0 .594-1.042 0-1.042a3.535 3.535 0 1 1 0-7.06c.516.001.514-1.04 0-1.04a4.492 4.492 0 0 0-.192-.006z"/></g><g fill="maroon"><path d="M48.952 65.157c.165-.615 1.181-.348 1.015.272l-3.758 14.024c-.184.689-1.196.405-1.015-.272zm10.538 4.959a4.576 4.576 0 1 0 3.836 7.069c.201-.558-.77-.923-1.088-.274a3.535 3.535 0 0 1-2.748 1.317 3.535 3.535 0 1 1 0-7.07 3.538 3.538 0 0 1 2.592 1.135c.242-.263.49-.528.712-.758a4.576 4.576 0 0 0-3.304-1.419z"/><path d="M58.246 74.81l3.656-3.827.743.71-3.656 3.827c-.412.412-1.232-.22-.743-.71z"/></g><g fill-rule="evenodd"><path d="M60.491 61.907c-1.383.944-.972 2.326-.987 3.604.823-.95 2.178-1.596 1.766-3.277z" fill="#fd5"/><path d="M60.67 61.985c-.758.518-.533 1.276-.541 1.978.451-.521 1.195-.876.969-1.798z" fill="#ff2a2a"/><path d="M60.257 61.085l-.12.096-.028.428c.49.485 1.045.692 1.657.664l.27-.343-.095-.17z" fill="#f9f9f9"/><path d="M63.762 54.894c1.687 2.797-.987 6.143-1.722 7.034-.712.098-1.347-.144-1.901-.75.115-1.534.59-5.45 3.623-6.284z" fill="maroon"/></g><g fill="#ffd42a"><path d="M63.762 54.894a3.822 3.822 0 0 0-1.55.844 1.554 1.145 21.833 0 0 .909.743 1.554 1.145 21.833 0 0 1.177.087 3.773 3.773 0 0 0-.536-1.674z"/><path d="M63.245 60.203c.113.686.261 1.328.194 1.504-.025.29-.821 1.29-1.232 1.936l-.166-1.713zm-2.786-1.101c-.555.418-1.107.78-1.179.954-.183.227-.297 1.5-.446 2.25l1.303-1.124z" fill-rule="evenodd"/></g><path d="M63.768 54.902l-4.262 10.61c.822-.948 2.172-1.594 1.766-3.269.16.03.326.04.495.033l.27-.343-.001-.003h.005c.735-.89 3.405-4.232 1.727-7.028z" fill-rule="evenodd" opacity=".185"/><g transform="rotate(-31.872 124.482 -49.092) scale(.03356)"><circle transform="rotate(53.703)" cx="489.38" cy="-211.58" r="28.747" fill="#fff" stroke="#ffd42a" stroke-width="8.912"/><circle cx="464.86" cy="277.48" r="8.738" fill="#241c1c"/><path d="M449.5 258.49c1.564-5.109 5.045-5.745 9.261-4.664 10.094-6.318 14.296 6.66 7.196 9.794l1.666 6.13c-3.554.432-7.107 1.927-10.661 5.197l-4.131-4.797c-10.514 3.036-11.751-10.208-3.331-11.66z" fill="#fff" fill-rule="evenodd" stroke="#241c1c" stroke-width=".694"/></g><path d="M50.148 65.431c-.165-.614.849-.892 1.015-.272l3.758 14.024c.184.689-.834.95-1.015.272z" fill="maroon"/><path transform="matrix(.08227 0 0 .10153 128.506 2.896)" d="M-933.9 659.03c-33.955 18.302-42.236 30.007-37.055 44.804 5.181 14.797 36.907 11.957 70.863-6.345 15.342-7.43 49.879-47.117 48.801-64.679-4.126 10.985-20.516 27.132-41.149 40.536-27.378 17.771-53.16 24.965-57.586 16.067-4.426-8.897-.866-15.39 26.512-33.162a188.014 188.014 0 0 1 12.165-7.244c-7.407 2.595-15.049 5.991-22.55 10.022z" fill="#e0e7e6" fill-opacity=".605" filter="url(#a)"/><path d="M51.992 68.282l.96 3.6-.992.27L51 68.55c-.139-.565.826-.94.992-.27z" fill="maroon"/></g></svg>