<svg width="1122.5" height="793.7" version="1.1" viewBox="0 0 297 210" xmlns="http://www.w3.org/2000/svg">
  <g transform="translate(0,-87)" stroke-width=".18846">
    <g id="marca" transform="matrix(.026912 0 0 .026912 -524.9 64.798)">
      <g stroke-width=".18846">
        <path class="fil0" d="m22490 4515v-3310h1467c296 0 520 30 673 89s276 164 368 314c91 151 137 317 137 499 0 235-76 433-228 594s-386 263-704 307c117 55 204 111 264 165 128 117 249 264 363 440l572 902h-547l-438-689c-127-199-232-351-315-457-83-105-157-179-222-221s-132-71-200-88c-49-10-130-15-244-15h-507v1470zm439-1849h941c200 0 356-21 468-63 113-41 198-107 256-199 58-90 88-189 88-296 0-157-57-286-170-387s-292-151-536-151h-1047z" fill="#303036"/>
        <path class="fil0" d="m27766 4548v-3310h-1467c-295 0-520 30-673 89s-276 164-368 315c-91 150-137 316-137 498 0 235 77 433 228 594 152 161 386 263 704 307-116 55-204 111-264 165-128 117-249 264-363 440l-572 902h547l438-689c127-199 232-351 315-457 83-105 157-179 223-221 64-42 131-71 199-88 49-10 130-15 244-15h507v1470zm-439-1849h-940c-201 0-356-21-469-63-112-41-198-107-256-199-58-90-88-189-88-296 0-157 57-286 170-387s292-151 536-151h1047z" fill="#303036"/>
        <path class="fil0" d="m27767 4520v3310h-1467c-295 0-519-30-673-89-153-59-276-164-367-314-92-151-137-317-137-499 0-235 76-433 228-594s386-263 703-307c-116-55-204-111-264-165-128-117-249-264-362-440l-573-902h547l438 689c127 199 233 351 315 457 83 105 157 179 223 221 65 42 132 71 199 88 50 10 131 15 244 15h507v-1470zm-439 1849h-940c-200 0-356 21-469 63-112 41-198 107-255 199-59 90-88 189-88 296 0 157 56 286 169 387 114 101 292 151 537 151h1046z" fill="#303036" stroke-width=".18846"/>
        <path class="fil0" d="m22491 4500v3310h1467c295 0 519-30 673-89 153-60 276-165 367-315 92-150 137-317 137-498 0-235-76-433-228-595-151-161-386-262-703-306 116-56 204-111 264-165 128-117 249-264 362-441l573-901h-547l-438 688c-127 200-233 352-315 457-83 106-157 179-223 222-65 41-132 70-199 87-50 10-131 16-244 16h-507v-1470zm439 1849h940c201 0 356 21 469 62 112 41 198 107 255 199 59 91 88 190 88 297 0 156-56 286-169 387s-292 151-536 151h-1047z" fill="#303036" stroke-width=".18846"/>
      </g>
    </g>
    <g id="logo-marca " transform="matrix(.033737 0 0 .033737 -370.68 -68.833)">
      <path class="fil2" d="m13807 10690 77.377-2.394s-13.561-18.347-26.324-38.29l-65.412-110.88c39.885-13.561 72.59-47.862 72.59-92.533 0-69.4-50.254-112.48-138-112.48h-109.28s3.191 25.526 3.191 51.052v303.12h71.792s-2.393-23.932-2.393-47.064v-78.175h42.278zm-116.46-173.9v-136.41h29.515c48.66 0 74.185 24.729 74.185 63.018 0 43.076-24.729 73.388-84.555 73.388zm348.59 130.82c-39.087 0-55.84-36.694-55.84-90.139 0-51.053 18.348-82.163 53.446-82.163 42.278 0 55.041 35.896 55.041 93.33 0 50.255-18.346 78.972-52.647 78.972zm-7.977 45.47c79.77 0 129.23-53.446 129.23-139.6 0-74.984-43.075-123.64-115.67-123.64-80.566 0-129.23 53.446-129.23 140.4 0 74.185 43.075 122.85 115.67 122.85zm292.75 0c34.301 0 56.636-12.765 67.006-26.326l1.596 23.933 66.209-2.394s-3.192-26.325-3.192-52.649v-329.45l-70.197 2.394s3.192 23.132 3.192 51.85v86.151c-9.573-7.977-24.729-16.752-56.637-16.752-64.613 0-121.25 48.659-121.25 141.99 0 70.197 44.671 121.25 113.27 121.25zm17.55-47.863c-44.671 0-61.424-37.491-61.424-85.353 0-52.649 22.336-84.556 62.221-84.556 23.133 0 38.289 9.572 46.267 20.74v129.23c-7.179 9.572-23.932 19.942-47.064 19.942zm303.12 2.393c-38.29 0-55.041-36.694-55.041-90.139 0-51.053 17.549-82.163 52.647-82.163 43.077 0 55.839 35.896 55.839 93.33 0 50.255-18.347 78.972-53.445 78.972zm-7.977 45.47c80.567 0 129.23-53.446 129.23-139.6 0-74.984-43.075-123.64-115.66-123.64-79.769 0-129.23 53.446-129.23 140.4 0 74.185 43.075 122.85 115.67 122.85zm194.64-4.787h70.197s-2.393-23.932-2.393-47.064v-335.83l-70.995 2.393s3.191 26.324 3.191 52.648zm157.94 0h70.197s-2.393-23.932-2.393-47.064v-160.34l74.186 1.595 2.393-47.064h-76.579v-35.896c0-29.515 10.371-46.266 32.706-46.266 20.739 0 31.907 9.571 64.612 11.965l9.573-51.85c-27.122-1.596-43.873-9.573-77.376-9.573-63.019 0-96.521 39.087-96.521 92.533v39.087h-28.718v43.873h27.92zm296.74-40.683c-38.29 0-55.041-36.694-55.041-90.139 0-51.053 17.549-82.163 52.647-82.163 43.076 0 55.839 35.896 55.839 93.33 0 50.255-18.347 78.972-53.445 78.972zm-7.977 45.47c80.566 0 129.23-53.446 129.23-139.6 0-74.984-43.076-123.64-115.67-123.64-79.77 0-129.23 53.446-129.23 140.4 0 74.185 43.075 122.85 115.67 122.85zm322.27-4.787h72.592s-2.393-23.932-2.393-47.064v-78.175h33.503c84.556 0 136.4-55.839 136.4-123.64 0-54.244-46.266-105.3-133.22-105.3h-110.08s3.19 25.526 3.19 51.052zm70.199-172.3v-135.61h29.514c46.267 0 69.399 26.324 69.399 61.423 0 44.671-22.335 74.185-73.388 74.185zm339.02 177.09c55.839 0 86.151-16.753 86.151-16.753v-47.064s-33.504 13.561-75.781 13.561c-46.267 0-78.174-28.717-79.77-74.186h165.12c9.572-74.983-22.336-138.8-106.89-138.8-72.59 0-126.83 50.255-126.83 135.61 0 80.569 54.244 127.63 138 127.63zm-66.208-167.52c3.987-29.515 24.728-51.053 53.445-51.053 25.526 0 39.087 13.561 40.683 49.458zm227.34 162.73h70.198s-2.393-23.932-2.393-47.064v-209l-70.995 3.191s3.19 26.324 3.19 51.85zm30.313-301.53c24.729 0 41.48-14.359 41.48-38.29 0-21.538-15.156-34.301-37.492-34.301-23.93 0-41.479 12.763-41.479 35.099 0 22.335 16.751 37.492 37.491 37.492zm272.01 303.92 78.973-2.394s-15.954-19.942-29.515-38.29l-70.197-92.532 29.514-39.087c33.503-44.671 56.637-82.961 56.637-82.961h-58.232s-7.977 13.561-38.29 60.625l-15.954 23.931-56.636-87.747-79.77 3.191s15.955 17.549 31.909 41.48l62.22 89.342-38.29 47.862c-27.92 35.098-55.04 74.186-55.04 74.186h64.612s13.561-24.729 43.076-68.601l11.966-17.551zm224.95-43.077c-39.088 0-55.839-36.694-55.839-90.139 0-51.053 18.347-82.163 53.446-82.163 42.278 0 55.04 35.896 55.04 93.33 0 50.255-18.347 78.972-52.647 78.972zm-7.978 45.47c79.771 0 129.23-53.446 129.23-139.6 0-74.984-43.075-123.64-115.67-123.64-80.566 0-129.23 53.446-129.23 140.4 0 74.185 43.075 122.85 115.66 122.85zm298.34 0c28.717 0 52.648-10.371 52.648-10.371v-44.671s-21.538 7.978-43.075 7.978c-28.717 0-40.683-16.753-40.683-48.661v-116.46l82.163 0.798 1.595-46.267h-83.758v-59.03h-30.312l-35.897 59.03-28.716 5.584v38.289h30.311s-2.393 22.336-2.393 41.48v89.342c0 58.233 33.504 82.962 98.117 82.962zm220.96-45.47c-38.288 0-55.041-36.694-55.041-90.139 0-51.053 17.55-82.163 52.648-82.163 43.076 0 55.839 35.896 55.839 93.33 0 50.255-18.346 78.972-53.446 78.972zm-7.976 45.47c80.568 0 129.23-53.446 129.23-139.6 0-74.984-43.076-123.64-115.67-123.64-79.77 0-129.23 53.446-129.23 140.4 0 74.185 43.076 122.85 115.67 122.85z" fill="#4c4d4f" stroke-width=".18846"/>
    </g>
  </g>
</svg>
