<svg xmlns="http://www.w3.org/2000/svg" viewBox="0 0 512.003 512.003"><path d="M256.003 512.003c141 0 256-115 256-256.003 0-141-115-256-256-256S0 115 0 256c0 141.002 115 256.003 256.003 256.003z" fill="#5dddd3"/><path d="M15.909 345.006h480.183C459.931 442.511 366.082 512 256 512c-110.087 0-203.933-69.489-240.091-166.994z" fill="#1a91a1"/><path d="M150.175 107.879c15.484-3.617 26.099-6.468 41.826-8.543 1.569-5.309 6.5-9.209 12.297-9.209h103.409c5.881 0 10.872 4.013 12.362 9.438 15.465 2.038 26.065 4.808 41.761 8.312 16.874 3.764 31.431 27.248 31.431 44.52v140.454l4.989 4.808v52.463H113.747v-53.635l4.989-3.635V152.397c0-17.288 14.602-40.586 31.434-44.52l.005.002z" fill="#ffba1b"/><path d="M337.46 323.015h44.221a3.739 3.739 0 0 1 3.73 3.727v9.057a3.742 3.742 0 0 1-3.73 3.73H337.46a3.737 3.737 0 0 1-3.727-3.73v-9.057a3.736 3.736 0 0 1 3.727-3.727zm-194.178-42.128h19.646a3.674 3.674 0 0 1 3.664 3.664v15.318a3.674 3.674 0 0 1-3.664 3.664h-19.646a3.674 3.674 0 0 1-3.664-3.664v-15.318a3.674 3.674 0 0 1 3.664-3.664zm-10.138 42.128h44.221a3.739 3.739 0 0 1 3.73 3.727v9.057a3.742 3.742 0 0 1-3.73 3.73h-44.221a3.739 3.739 0 0 1-3.727-3.73v-9.057a3.736 3.736 0 0 1 3.727-3.727zm218.75-42.125h19.646a3.676 3.676 0 0 1 3.664 3.662v15.318a3.674 3.674 0 0 1-3.664 3.664h-19.646a3.675 3.675 0 0 1-3.662-3.664v-15.318a3.673 3.673 0 0 1 3.662-3.662z" fill="#f5a209"/><path d="M118.738 292.853l-14.584-9.401c-3.176-2.049-6.657-4.918-6.657-8.829v-.034c-11.885-2.581-15.03-5.167-16.184-11.14-6.479-.553-11.567-5.802-11.567-12.609 0-6.804 5.666-12.656 12.656-12.656 6.988 0 12.651 6.196 12.651 12.656s-4.081 10.912-9.592 12.278c1.015 3.305 3.955 4.811 12.037 7.098V228.28h-4.401c-3.294 0-5.994-2.696-5.994-5.994v-47.618c0-3.294 2.696-5.994 5.994-5.994h4.401v-11.03c0-3.911 2.998-6.327 6.657-5.382l14.584 3.775v3.609l-14.875-3.848c-2.405-.624-2.995.934-2.995 3.321v9.558h5.217c3.297 0 5.996 2.696 5.996 5.994v47.618c0 3.294-2.699 5.994-5.996 5.994h-5.217v45.226c0 3.035 2.282 5.466 4.585 6.951l13.286 8.564v3.832-.003z" fill="#1a91a1"/><path d="M183.516 391.507v14.909c0 1.889-3.52 15.457-6.529 15.457h-6.377c-.989 0-1.826-.551-2.062-1.296h-1.894c-.236.745-1.07 1.296-2.064 1.296h-6.374c-.989 0-1.828-.551-2.064-1.296h-1.891c-.236.745-1.07 1.296-2.062 1.296h-6.377c-3.006 0-6.526-13.569-6.526-15.457v-14.909h44.221-.001zm189.667 0v14.909c0 1.889-3.52 15.457-6.523 15.457h-6.379c-.989 0-1.826-.551-2.062-1.296h-1.889c-.241.745-1.075 1.296-2.067 1.296h-6.377c-.991 0-1.828-.551-2.062-1.296h-1.891c-.239.745-1.073 1.296-2.064 1.296h-6.374c-3.006 0-6.529-13.569-6.529-15.457v-14.909h44.221-.004z" fill="#666"/><path d="M116.585 350.087h279.311c10.948 0 19.909 8.152 19.909 18.114 0 1.241-.142 2.452-.407 3.628H97.077a16.46 16.46 0 0 1-.404-3.628c0-9.964 8.961-18.114 19.912-18.114z" fill="#ecf0f1"/><path d="M415.733 371.832c.047.514.071 1.036.071 1.563 0 9.965-8.96 18.114-19.909 18.114h-279.31c-10.951 0-19.911-8.15-19.911-18.114 0-.527.024-1.049.073-1.563h318.986z" fill="#c3cccf"/><path d="M217.772 329.224h76.458c1.904 0 3.46 1.138 3.46 2.529s-1.555 2.526-3.46 2.526h-76.458c-1.904 0-3.46-1.136-3.46-2.526s1.556-2.529 3.46-2.529zm0-32.373h76.458c1.904 0 3.46 1.136 3.46 2.529 0 1.388-1.555 2.526-3.46 2.526h-76.458c-1.904 0-3.46-1.138-3.46-2.526.001-1.394 1.556-2.529 3.46-2.529zm0 10.791h76.458c1.904 0 3.46 1.138 3.46 2.529s-1.555 2.526-3.46 2.526h-76.458c-1.904 0-3.46-1.138-3.46-2.526.001-1.391 1.556-2.529 3.46-2.529zm0 10.791h76.458c1.904 0 3.46 1.138 3.46 2.529s-1.555 2.526-3.46 2.526h-76.458c-1.904 0-3.46-1.136-3.46-2.526s1.556-2.529 3.46-2.529z" fill="#f5a209"/><path d="M154.875 140.145h93.932v114.547H124.671v-84.345c0-16.611 13.59-30.204 30.201-30.204l.003.002zm202.252 0h-93.932v114.547h124.136v-84.345c0-16.611-13.592-30.204-30.204-30.204v.002z" fill="#076673"/><path d="M336.049 321.748h44.219a3.739 3.739 0 0 1 3.73 3.727v9.06a3.741 3.741 0 0 1-3.73 3.73h-44.219a3.74 3.74 0 0 1-3.73-3.73v-9.06a3.737 3.737 0 0 1 3.73-3.727zM141.87 279.623h19.646a3.676 3.676 0 0 1 3.664 3.662v15.318a3.674 3.674 0 0 1-3.664 3.664H141.87a3.674 3.674 0 0 1-3.664-3.664v-15.318a3.672 3.672 0 0 1 3.664-3.662zm-10.135 42.125h44.219a3.739 3.739 0 0 1 3.73 3.727v9.06a3.741 3.741 0 0 1-3.73 3.73h-44.219a3.742 3.742 0 0 1-3.73-3.73v-9.06a3.737 3.737 0 0 1 3.73-3.727zm218.751-42.125h19.646a3.672 3.672 0 0 1 3.664 3.662v15.318a3.674 3.674 0 0 1-3.664 3.664h-19.646a3.673 3.673 0 0 1-3.662-3.664v-15.318a3.672 3.672 0 0 1 3.662-3.662z" fill="#fff"/><path d="M315.259 102.213v19.833H196.812v-19.995c1.448-3.78 3.229-6.558 8.593-6.558h101.201c5.44 0 7.274 2.859 8.653 6.723v-.003z" fill="#f5a209"/><path d="M216.049 104.716c0-1.262.299-2.227.9-2.901.601-.674 1.5-1.012 2.702-1.012 1.199 0 2.098.338 2.699 1.012.601.674.902 1.639.902 2.901v.488h-2.311v-.643c0-.564-.108-.96-.323-1.188-.215-.231-.514-.344-.9-.344s-.685.113-.9.344c-.212.231-.323.627-.323 1.188 0 .535.118 1.005.357 1.411.239.407.532.792.889 1.154.357.362.737.727 1.144 1.089.407.362.787.758 1.144 1.188.357.43.653.918.889 1.466.236.548.357 1.193.357 1.933 0 1.259-.31 2.227-.923 2.901-.614.677-1.521 1.012-2.723 1.012-1.199 0-2.106-.336-2.723-1.012-.614-.674-.921-1.642-.921-2.901v-.955h2.311v1.112c0 .561.115.955.346 1.178.231.22.535.333.921.333s.692-.11.923-.333c.231-.223.346-.616.346-1.178 0-.532-.121-1.002-.357-1.411a5.87 5.87 0 0 0-.889-1.154 21.536 21.536 0 0 0-1.144-1.089c-.409-.362-.79-.758-1.144-1.188a6.037 6.037 0 0 1-.889-1.466c-.236-.548-.354-1.191-.354-1.933l-.006-.002zm15.709 6.022v2.064c0 1.259-.307 2.227-.921 2.901-.614.677-1.524 1.012-2.723 1.012s-2.109-.336-2.723-1.012c-.616-.674-.921-1.642-.921-2.901v-8.087c0-1.262.307-2.227.921-2.901.616-.674 1.524-1.012 2.723-1.012s2.109.338 2.723 1.012c.614.674.921 1.639.921 2.901v1.511h-2.311v-1.668c0-.564-.115-.96-.344-1.188-.231-.231-.535-.344-.921-.344s-.695.113-.923.344c-.231.231-.344.627-.344 1.188v8.399c0 .561.115.955.344 1.178.228.22.538.333.923.333.386 0 .692-.11.921-.333.228-.223.344-.616.344-1.178v-2.222h2.311v.003zm3.935 5.797h-2.445V100.98h2.445v6.665h2.778v-6.665h2.489v15.554h-2.489v-6.665h-2.778v6.666zm9.288-3.575c0 .561.115.96.346 1.188.231.231.538.346.923.346.386 0 .692-.115.921-.346.228-.228.344-.627.344-1.188v-8.399c0-.564-.115-.96-.344-1.188-.231-.231-.535-.344-.921-.344s-.692.113-.923.344-.346.627-.346 1.188v8.399zm-2.445-8.244c0-1.262.32-2.227.955-2.901.64-.674 1.555-1.012 2.757-1.012 1.199 0 2.119.338 2.754 1.012.637.674.957 1.639.957 2.901v8.087c0 1.259-.32 2.227-.957 2.901-.637.677-1.555 1.012-2.754 1.012-1.201 0-2.119-.336-2.757-1.012-.635-.674-.955-1.642-.955-2.901v-8.087zm11.242 8.244c0 .561.115.96.346 1.188.228.231.535.346.921.346s.692-.115.921-.346c.231-.228.346-.627.346-1.188v-8.399c0-.564-.115-.96-.346-1.188-.231-.231-.535-.344-.921-.344s-.692.113-.921.344c-.231.231-.346.627-.346 1.188v8.399zm-2.442-8.244c0-1.262.317-2.227.955-2.901.637-.674 1.555-1.012 2.754-1.012 1.201 0 2.119.338 2.757 1.012.637.674.955 1.639.955 2.901v8.087c0 1.259-.32 2.227-.955 2.901-.637.677-1.555 1.012-2.757 1.012-1.199 0-2.119-.336-2.754-1.012-.637-.674-.955-1.642-.955-2.901v-8.087zm9-3.736h2.445v13.333h4.021v2.222h-6.466V100.98zm14.665 0c1.275 0 2.195.296 2.767.889.572.593.855 1.49.855 2.689v.556c0 .8-.126 1.458-.375 1.978a2.416 2.416 0 0 1-1.201 1.154c.666.254 1.138.664 1.411 1.233.273.572.412 1.272.412 2.101v1.267c0 1.199-.312 2.114-.934 2.744-.624.63-1.548.944-2.778.944h-3.843V100.98h3.688-.002zm-1.243 8.554v4.776h1.398c.414 0 .729-.11.947-.333.212-.22.323-.622.323-1.199v-1.356c0-.724-.123-1.22-.37-1.49-.244-.265-.648-.399-1.212-.399h-1.089.003zm0-6.332v4.11h.955c.459 0 .818-.121 1.078-.357.257-.239.388-.669.388-1.291v-.868c0-.564-.097-.971-.299-1.222-.199-.254-.514-.378-.944-.378h-1.178v.006zm8.91-2.224v12c0 .561.115.955.344 1.178.231.22.538.333.921.333.386 0 .695-.113.923-.333.228-.223.344-.616.344-1.178v-12h2.311v11.843c0 1.256-.307 2.227-.921 2.898-.614.677-1.524 1.012-2.723 1.012-1.199 0-2.109-.338-2.723-1.012-.614-.671-.921-1.642-.921-2.898v-11.843h2.445zm6.198 3.735c0-1.262.302-2.227.9-2.901.601-.674 1.5-1.012 2.699-1.012 1.201 0 2.101.338 2.702 1.012.598.674.9 1.639.9 2.901v.488h-2.311v-.643c0-.564-.108-.96-.323-1.188-.215-.231-.514-.344-.9-.344s-.685.113-.9.344c-.215.231-.323.627-.323 1.188 0 .535.118 1.005.354 1.411.239.407.535.792.889 1.154.357.362.737.727 1.144 1.089.409.362.79.758 1.146 1.188.354.43.651.918.889 1.466.236.548.354 1.193.354 1.933 0 1.259-.307 2.227-.921 2.901-.614.677-1.521 1.012-2.723 1.012-1.199 0-2.106-.336-2.723-1.012-.614-.674-.921-1.642-.921-2.901v-.955h2.311v1.112c0 .561.115.955.344 1.178.231.22.538.333.923.333s.69-.11.921-.333c.228-.223.346-.616.346-1.178 0-.532-.118-1.002-.357-1.411a5.757 5.757 0 0 0-.889-1.154 23.257 23.257 0 0 0-1.146-1.089 10.615 10.615 0 0 1-1.141-1.188 6.141 6.141 0 0 1-.892-1.466c-.236-.548-.354-1.191-.354-1.933v-.002z" fill="#fff"/><path d="M393.264 292.853l14.584-9.401c3.176-2.049 6.657-4.918 6.657-8.829v-.034c11.885-2.581 15.03-5.167 16.184-11.14 6.481-.553 11.567-5.802 11.567-12.609 0-6.804-5.666-12.656-12.653-12.656-6.988 0-12.653 6.196-12.653 12.656s4.084 10.912 9.592 12.278c-1.015 3.305-3.953 4.811-12.037 7.098V228.28h4.399c3.294 0 5.994-2.696 5.994-5.994v-47.618c0-3.294-2.696-5.994-5.994-5.994h-4.399v-11.03c0-3.911-2.998-6.327-6.657-5.382l-14.584 3.775v3.609l14.875-3.848c2.403-.624 2.995.934 2.995 3.321v9.558h-5.217c-3.294 0-5.994 2.696-5.994 5.994v47.618c0 3.294 2.699 5.994 5.994 5.994h5.217v45.226c0 3.035-2.282 5.466-4.585 6.951l-13.288 8.564v3.832l.003-.003z" fill="#1a91a1"/><path d="M124.674 226.066l78.643-85.919h45.493v2.266L146.038 254.696h-21.362v-28.627l-.002-.003zm124.136-62.994l-84.138 91.622h13.863l70.276-76.526v-15.096zm108.317-22.925h-23.736l-70.197 76.694v37.853h12.916l99.223-108.401c-5.072-3.853-11.383-6.146-18.206-6.146zm-62.383 114.547l89.544-97.508a29.882 29.882 0 0 1 3.009 11.819l-78.69 85.688h-13.863z" fill="#0e7886"/><path d="M171.99 125.262c4.186 0 7.601-3.415 7.601-7.601s-3.415-7.604-7.601-7.604c-4.189 0-7.604 3.418-7.604 7.604s3.415 7.601 7.604 7.601z" fill="#ff5b61"/><path d="M154.448 125.262c2.794 0 5.068-2.277 5.068-5.068s-2.277-5.068-5.068-5.068-5.068 2.279-5.068 5.068a5.079 5.079 0 0 0 5.068 5.068z" fill="#20d0c2"/><path d="M340.012 125.262c4.186 0 7.604-3.415 7.604-7.601s-3.418-7.604-7.604-7.604-7.601 3.418-7.601 7.604 3.415 7.601 7.601 7.601z" fill="#ff5b61"/><path d="M357.555 125.262c2.791 0 5.068-2.277 5.068-5.068s-2.279-5.068-5.068-5.068a5.078 5.078 0 0 0-5.068 5.068 5.077 5.077 0 0 0 5.068 5.068z" fill="#20d0c2"/><path d="M200.353 279.182h111.294l50.923-20.465H149.43l50.923 20.465zM362.019 260.9l-.567 13.06-16.302 1.681-8.357 4.729-21.779 62.619-1.807-60.083 48.809-22.01.003.004zm-212.041 0l48.809 22.01-1.807 60.083-21.779-62.619-8.357-4.729-16.302-1.681-.567-13.06.003-.004z" fill="#f5a209"/></svg>