<svg width="300" height="320" viewBox="0 0 79.374998 84.666669" xmlns="http://www.w3.org/2000/svg"><g fill-rule="evenodd" stroke-width=".342"><path d="M15.091 59.83l-1.605 13.845h-4.5L7.257 59.83h3.07l.969 10.12c.067-.751.195-2.567.39-5.444.101-1.606.215-3.166.334-4.676zm10.613 4.423H22.67v-.751c0-.641-.03-1.044-.09-1.215-.06-.17-.21-.256-.448-.256a.475.475 0 0 0-.434.235c-.096.157-.145.392-.145.705 0 .424.023.737.073.933.046.2.191.417.433.652.238.238.733.584 1.48 1.036.997.598 1.648 1.161 1.96 1.692.31.527.468 1.295.468 2.304 0 1.128-.12 1.98-.358 2.552a2.65 2.65 0 0 1-1.195 1.329c-.561.31-1.233.463-2.024.463-.872 0-1.622-.168-2.241-.499-.623-.335-1.05-.787-1.283-1.357-.232-.57-.349-1.431-.349-2.585v-.666h3.053v.873c0 .74.038 1.221.114 1.445.078.221.23.332.453.332.244 0 .413-.075.51-.225.095-.149.145-.466.145-.944 0-.662-.062-1.075-.186-1.242-.132-.168-.798-.662-1.998-1.485-1.009-.694-1.625-1.325-1.846-1.895-.221-.566-.332-1.239-.332-2.018 0-1.108.12-1.923.357-2.447.239-.527.643-.933 1.213-1.218.57-.285 1.233-.427 1.986-.427.75 0 1.387.117 1.91.349.527.235.928.541 1.21.926.28.38.45.737.509 1.064.06.328.09.84.09 1.535v.805zm8.979 2.735h-4.466v3.002c0 .627.037 1.033.11 1.214.075.181.218.27.43.27.265 0 .442-.12.53-.359.09-.242.133-.709.133-1.4v-1.83h3.262v1.026c0 .858-.043 1.517-.13 1.976-.09.46-.297.951-.62 1.474A3.203 3.203 0 0 1 32.7 73.54c-.498.26-1.12.392-1.87.392-.727 0-1.37-.129-1.928-.389-.555-.256-.988-.608-1.3-1.057A4.14 4.14 0 0 1 26.96 71c-.12-.538-.18-1.321-.18-2.354v-4.041c0-1.211.133-2.165.4-2.867.268-.698.705-1.236 1.312-1.606.61-.374 1.308-.56 2.1-.56.965 0 1.761.225 2.39.674a3.55 3.55 0 0 1 1.322 1.784c.253.737.378 1.78.378 3.123v1.834zm-3.437-2.243v-1.012c0-.72-.032-1.179-.096-1.389-.064-.21-.195-.313-.393-.313-.244 0-.395.09-.453.267-.058.178-.087.655-.087 1.435v1.012h1.029zm7.627.448h-3.228v-.93c0-1.071.102-1.897.303-2.481.2-.58.607-1.094 1.215-1.539.608-.445 1.395-.67 2.37-.67 1.163 0 2.04.254 2.63.76.592.501.946 1.121 1.065 1.855.12.733.18 2.247.18 4.536v6.951H40.06V72.44c-.21.498-.483.868-.814 1.118-.332.25-.727.374-1.19.374-.601 0-1.154-.207-1.657-.62-.503-.416-.753-1.321-.753-2.72v-1.14c0-1.036.134-1.741.401-2.119.268-.377.93-.815 1.99-1.314 1.13-.544 1.735-.908 1.817-1.096.078-.19.119-.57.119-1.15 0-.724-.044-1.194-.134-1.414-.087-.218-.236-.328-.442-.328-.236 0-.38.093-.436.278-.058.181-.087.662-.087 1.435v1.45zm1.099 1.898c-.555.495-.878.908-.966 1.243-.09.335-.133.812-.133 1.439 0 .719.037 1.178.116 1.388.076.21.23.314.46.314.217 0 .357-.082.424-.246.067-.164.099-.591.099-1.29v-2.848zm12.243-2.026H48.97v-1.602c0-.556-.038-.933-.113-1.133-.076-.2-.215-.299-.419-.299-.203 0-.34.085-.41.26-.07.174-.104.563-.104 1.168v6.534c0 .495.052.866.156 1.112.103.245.256.37.46.37.235 0 .395-.129.48-.385.084-.256.125-.74.125-1.456v-1.642h3.07c-.006 1.104-.038 1.934-.099 2.486-.058.552-.25 1.118-.572 1.698-.32.58-.742 1.019-1.26 1.314-.517.296-1.157.442-1.921.442-.972 0-1.745-.203-2.315-.613-.567-.406-.971-.976-1.206-1.709-.236-.737-.355-1.777-.355-3.13v-3.935c0-1.179.096-2.065.29-2.664.192-.598.605-1.132 1.24-1.602.63-.47 1.398-.705 2.305-.705.898 0 1.666.235 2.306.701.637.467 1.06 1.054 1.27 1.767.213.712.317 1.72.317 3.023zm4.077.128h-3.227v-.93c0-1.071.101-1.897.302-2.481.2-.58.607-1.094 1.215-1.539.608-.445 1.396-.67 2.37-.67 1.163 0 2.041.254 2.631.76.59.501.945 1.121 1.065 1.855.119.733.18 2.247.18 4.537v6.95h-3.35V72.44c-.21.498-.482.869-.814 1.118-.332.25-.727.374-1.19.374-.601 0-1.154-.207-1.656-.62-.503-.416-.753-1.321-.753-2.72v-1.14c0-1.036.134-1.741.401-2.119.267-.377.93-.815 1.988-1.314 1.132-.544 1.736-.908 1.818-1.096.078-.19.12-.57.12-1.15 0-.724-.044-1.194-.135-1.414-.087-.218-.235-.328-.442-.328-.235 0-.38.093-.436.278-.058.181-.087.662-.087 1.435v1.45zm1.1 1.898c-.556.495-.88.908-.966 1.243-.09.335-.134.812-.134 1.439 0 .719.038 1.178.116 1.388.076.21.23.314.46.314.218 0 .357-.082.424-.246.067-.164.1-.591.1-1.289v-2.849zm8.117-7.26l-.061 1.224c.308-.498.646-.869 1.015-1.114a2.137 2.137 0 0 1 1.21-.367c.534 0 .996.174 1.386.527.387.352.63.758.727 1.218.096.46.145 1.24.145 2.34v5.836c0 1.26-.06 2.154-.183 2.689-.122.53-.372.958-.75 1.274-.378.317-.834.474-1.37.474-.424 0-.82-.121-1.183-.367-.363-.246-.695-.609-.997-1.093v3.169H62.01V59.83h3.498zm.986 4.027c0-.858-.026-1.375-.079-1.556-.05-.182-.192-.27-.427-.27-.23 0-.375.102-.442.312-.067.207-.1.713-.1 1.514v5.74c0 .834.036 1.357.103 1.564.07.21.218.313.447.313.224 0 .36-.096.416-.289.055-.188.082-.655.082-1.392v-5.936zm-37.155-8.56L3.213 28.862 30.276 2.335l9 9.196 9.087-9.196 27.046 26.744-26.267 26.22-10.026-9.143z" fill="#131a42"/><g fill="#fff"><path d="M25.44 44.241L10.032 28.803l15.779-15.206 7.472 7.457-7.015 7.933 6.952 7.658zm27.07-15.315l-6.867-7.517 7.005-7.344 15.943 15.062L53.269 44.36l-7.822-7.897z"/><path d="M32.144 28.605l7.382-6.96 6.959 7.383-7.382 6.96z"/></g></g></svg>