<svg width="300" height="320" version="1.1" viewBox="0 0 79.374998 84.666669" xmlns="http://www.w3.org/2000/svg">
  <g transform="translate(0 -212.33)">
    <g id="engep" transform="matrix(.43149 0 0 .43149 -128.85 63.108)" stroke-width=".65407">
      <g transform="matrix(.85995 0 0 .85995 1357.4 1568.5)" stroke-width=".65407">
        <g transform="matrix(.33448 0 0 .33448 -886.43 -1428.5)">
          <g id="seacap" transform="matrix(7.6076 0 0 7.6078 -4393.8 -2837.4)" fill-rule="evenodd" stroke-width=".34245">
            <path d="m458.04 438.96-1.7 14.663h-4.767l-1.829-14.663h3.2517l1.0254 10.718c0.0707-0.79583 0.20624-2.719 0.41304-5.7664 0.10755-1.7008 0.22768-3.3525 0.35381-4.9517zm11.24 4.6842h-3.215v-0.79584c0-0.6788-0.0311-1.105-0.0955-1.2862-0.062-0.18103-0.22186-0.27112-0.4741-0.27112-0.20352 0-0.35726 0.0826-0.45903 0.2488-0.10162 0.16583-0.15378 0.41474-0.15378 0.7466 0 0.44869 0.0243 0.78054 0.0768 0.98816 0.0493 0.21123 0.20299 0.44116 0.45851 0.68996 0.25259 0.2526 0.77646 0.61859 1.5678 1.0976 1.0558 0.63334 1.746 1.2296 2.0751 1.7914 0.32948 0.55819 0.49608 1.3725 0.49608 2.4402 0 1.1951-0.12607 2.0968-0.3787 2.7037-0.25259 0.60725-0.67469 1.0786-1.2655 1.4068-0.59456 0.32826-1.3062 0.4904-2.1434 0.4904-0.92401 0-1.7182-0.17752-2.3743-0.52797-0.65944-0.35468-1.1121-0.83341-1.3582-1.4371-0.24639-0.60314-0.3696-1.516-0.3696-2.7382v-0.70491h3.2335v0.92401c0 0.78435 0.0401 1.2933 0.11998 1.5309 0.0831 0.23405 0.2435 0.35108 0.48046 0.35108 0.25877 0 0.43774-0.0795 0.53898-0.23766 0.1018-0.15828 0.15432-0.49416 0.15432-0.99968 0-0.70126-0.0649-1.1387-0.19717-1.3159-0.13902-0.17752-0.84423-0.70163-2.1156-1.5728-1.0687-0.73543-1.7216-1.4031-1.9556-2.0064-0.23389-0.59987-0.35143-1.3126-0.35143-2.1382 0-1.173 0.12662-2.0366 0.37871-2.591 0.25276-0.55819 0.68106-0.98801 1.2847-1.2898 0.60315-0.30182 1.3055-0.45281 2.1031-0.45281 0.79464 0 1.469 0.12464 2.0234 0.36961 0.55734 0.24896 0.98238 0.57344 1.2808 0.98078 0.29601 0.40342 0.47756 0.78039 0.53916 1.1273 0.0644 0.34733 0.0955 0.89005 0.0955 1.6256v0.85246zm9.509 2.8964h-4.7298v3.1794c0 0.66356 0.0398 1.0936 0.11656 1.2857 0.0802 0.19217 0.23114 0.28689 0.45591 0.28689 0.28004 0 0.46812-0.1286 0.56078-0.38111 0.095-0.25636 0.14137-0.75052 0.14137-1.4822v-1.9386h3.455v1.0865c0 0.90873-0.0462 1.6066-0.1385 2.0927-0.0955 0.48662-0.31418 1.0072-0.65565 1.5616-0.34198 0.55439-0.77938 0.96895-1.3056 1.2481-0.5268 0.27524-1.1859 0.41508-1.9804 0.41508-0.76992 0-1.4505-0.13615-2.0416-0.41146-0.58838-0.27112-1.0469-0.64448-1.3764-1.12-0.32947-0.47497-0.55441-0.99917-0.68087-1.5726-0.12609-0.56934-0.191-1.399-0.191-2.4925v-4.2806c0-1.2825 0.14174-2.293 0.42488-3.0363 0.2833-0.73886 0.74557-1.3085 1.3889-1.7008 0.6469-0.3957 1.3858-0.59215 2.2233-0.59215 1.0225 0 1.8662 0.23781 2.5315 0.71278 0.66527 0.47547 1.1332 1.1052 1.4012 1.8899 0.26785 0.78057 0.40014 1.8856 0.40014 3.3074v1.9422zm-3.6398-2.376v-1.0711c0-0.76202-0.0337-1.2487-0.10145-1.471-0.0676-0.22238-0.20625-0.33152-0.41593-0.33152-0.25877 0-0.41869 0.0942-0.48029 0.28278-0.0617 0.1884-0.0923 0.69374-0.0923 1.5198v1.0711h1.09zm8.0778 0.47512h-3.4183v-0.9844c0-1.1352 0.10756-2.0102 0.32037-2.6286 0.2121-0.61482 0.6433-1.1581 1.2869-1.6292 0.64382-0.47137 1.4781-0.70918 2.5097-0.70918 1.232 0 2.1617 0.26802 2.7868 0.80337 0.62562 0.53159 1.0011 1.1882 1.1276 1.965 0.12608 0.77679 0.19062 2.3796 0.19062 4.8048v7.3615h-3.5473v-1.3085c-0.2217 0.52799-0.51152 0.91988-0.86244 1.1842-0.35106 0.26406-0.76994 0.39601-1.2593 0.39601-0.63763 0-1.2226-0.21878-1.7556-0.65614-0.53245-0.4415-0.79741-1.3995-0.79741-2.8815v-1.207c0-1.0971 0.14173-1.8442 0.42487-2.244 0.2833-0.39981 0.98529-0.86359 2.1062-1.3916 1.1981-0.57671 1.8386-0.96157 1.9249-1.1613 0.0833-0.20008 0.12609-0.60367 0.12609-1.2183 0-0.7658-0.0458-1.2636-0.14174-1.4971-0.0917-0.23027-0.24933-0.34678-0.46759-0.34678-0.24984 0-0.40358 0.098-0.46228 0.29395-0.0617 0.19217-0.0921 0.70145-0.0921 1.5197v1.535zm1.1638 2.01c-0.58788 0.52421-0.92987 0.96176-1.0224 1.3164-0.0955 0.35434-0.14137 0.85983-0.14137 1.5235 0 0.76188 0.0396 1.2485 0.1232 1.4709 0.0802 0.22254 0.24298 0.33202 0.48648 0.33202 0.23078 0 0.37886-0.0869 0.44957-0.26049 0.0707-0.17357 0.1045-0.62594 0.1045-1.3652v-3.0172zm12.967-2.1455h-3.4365v-1.6972c0-0.58837-0.0401-0.98818-0.11997-1.1994-0.0802-0.21124-0.22823-0.31659-0.44358-0.31659-0.21533 0-0.36051 0.0901-0.43411 0.2749-0.0739 0.18478-0.1108 0.59608-0.1108 1.2373v6.9203c0 0.52421 0.0552 0.91631 0.16583 1.1768 0.10829 0.25995 0.27111 0.39225 0.48698 0.39225 0.24883 0 0.41835-0.13616 0.5081-0.4077 0.0888-0.27112 0.13238-0.78415 0.13238-1.5424v-1.7385h3.2517c-6e-3 1.1692-0.0403 2.0477-0.1045 2.6323-0.0617 0.58461-0.26511 1.1845-0.60659 1.7993-0.33906 0.61429-0.78503 1.0786-1.3333 1.3916-0.54824 0.31297-1.2259 0.46756-2.0358 0.46756-1.0287 0-1.8477-0.215-2.4514-0.64877-0.60026-0.42984-1.0285-1.0335-1.2778-1.8103-0.24935-0.78056-0.37581-1.882-0.37581-3.3149v-4.1674c0-1.2485 0.10162-2.1874 0.30801-2.8213 0.20334-0.63334 0.64073-1.1989 1.3122-1.697 0.66819-0.49778 1.481-0.74675 2.4418-0.74675 0.9513 0 1.7647 0.24897 2.4418 0.74298 0.6747 0.49399 1.1241 1.1162 1.3462 1.8708 0.22495 0.75397 0.33529 1.8216 0.33529 3.202zm4.318 0.13561h-3.4183v-0.9844c0-1.1352 0.10756-2.0102 0.32001-2.6286 0.21244-0.61482 0.64366-1.158 1.2875-1.6292 0.64331-0.47137 1.4781-0.70918 2.5096-0.70918 1.2317 0 2.1619 0.26802 2.787 0.80337 0.62514 0.53157 1.0009 1.1882 1.127 1.965 0.12645 0.77679 0.19099 2.3796 0.19099 4.8048v7.3615h-3.5473v-1.3085c-0.22206 0.52799-0.51137 0.91988-0.86244 1.1841-0.35143 0.26406-0.76978 0.39603-1.2597 0.39603-0.63763 0-1.2226-0.21878-1.755-0.65617-0.53247-0.44149-0.79757-1.3995-0.79757-2.8815v-1.207c0-1.0971 0.14191-1.8442 0.42503-2.244 0.28315-0.39981 0.9853-0.86359 2.106-1.3916 1.1982-0.5767 1.8386-0.96156 1.9251-1.1613 0.0827-0.20005 0.12609-0.60364 0.12609-1.2183 0-0.7658-0.0462-1.2636-0.14192-1.4971-0.0921-0.23029-0.24933-0.3468-0.46793-0.3468-0.24934 0-0.40309 0.098-0.46195 0.29394-0.0617 0.19218-0.0921 0.70146-0.0921 1.5198v1.535zm1.1639 2.01c-0.58804 0.52422-0.93038 0.96176-1.0225 1.3164-0.0953 0.35434-0.14137 0.85983-0.14137 1.5235 0 0.76187 0.0396 1.2485 0.1232 1.4709 0.0799 0.22256 0.24314 0.33203 0.4863 0.33203 0.23096 0 0.3787-0.0869 0.44973-0.26047 0.0707-0.17357 0.10468-0.62597 0.10468-1.3652v-3.0172zm8.5979-7.6897-0.0651 1.2974c0.32672-0.52797 0.68399-0.92024 1.075-1.1804 0.39072-0.26047 0.81901-0.38864 1.2813-0.38864 0.56625 0 1.0558 0.18481 1.4685 0.55817 0.40976 0.37338 0.66801 0.80337 0.76976 1.2898 0.1018 0.48663 0.15378 1.3126 0.15378 2.4777v6.1817c0 1.3348-0.0642 2.2813-0.19337 2.8472-0.12932 0.56177-0.39451 1.0146-0.79465 1.3502-0.40067 0.3353-0.88389 0.50158-1.4503 0.50158-0.44993 0-0.86862-0.12825-1.2537-0.38866-0.38489-0.26013-0.7358-0.64499-1.0563-1.1575v3.3561h-3.6398v-16.745h3.7049zm1.0438 4.2654c0-0.90873-0.0277-1.4556-0.0831-1.648-0.0525-0.19217-0.20331-0.28638-0.45265-0.28638-0.24349 0-0.39741 0.10917-0.46846 0.33151-0.0707 0.21878-0.10468 0.75449-0.10468 1.6028v6.0796c0 0.88265 0.0372 1.437 0.10792 1.6556 0.0736 0.22256 0.23079 0.33203 0.47427 0.33203 0.23732 0 0.38162-0.10199 0.44031-0.3056 0.0586-0.20006 0.0863-0.69408 0.0863-1.4746v-6.287z" fill="#131a42"/>
            <path d="m473.13 434.16-27.669-27.998 28.661-28.094 9.5329 9.7392 9.623-9.7392 28.645 28.324-27.82 27.77-10.618-9.6836z" fill="#131a42"/>
            <g fill="#fff">
              <path d="m469 422.45-16.318-16.35 16.711-16.104 7.9136 7.8967-7.4297 8.4018 7.3629 8.1107z"/>
              <path d="m497.67 406.23-7.2723-7.9615 7.4187-7.7771 16.885 15.952-16.227 16.132-8.2844-8.3636z"/>
              <path d="m476.1 405.89 7.8185-7.3703 7.3705 7.8188-7.8186 7.3703z"/>
            </g>
          </g>
        </g>
      </g>
    </g>
  </g>
</svg>
