<svg width="300" height="320" viewBox="0 0 79.374998 84.666669" xmlns="http://www.w3.org/2000/svg"><defs><filter id="a" x="-.027" y="-.024" width="1.053" height="1.048" color-interpolation-filters="sRGB"><feGaussianBlur stdDeviation="2.937"/></filter></defs><g transform="translate(4.878 -193.907) scale(.34637)" stroke-width=".533"><rect x="27.287" y="604.95" width="150.24" height="150.24" rx="34.134" ry="34.134" fill="#b3b3b3"/><path transform="translate(-70.887 457.8) scale(.42837)" d="M409.21 374.42c-10.575 0-19.311 7.836-20.729 18.021-11.405 8.004-21.387 22.511-28.947 41.381-6.877-1.026-13.51-1.559-19.801-1.559-10.37 0-19.471 1.497-27.035 4.348a20.875 20.875 0 0 0-14.686-6.02c-11.564 0-20.934 9.368-20.934 20.934 0 7.949 4.434 14.869 10.965 18.413-.17 14.087 6.697 30.434 19.188 47.02a145.941 145.941 0 0 0-3.213 3.914c-11.384 14.4-17.687 28.22-18.664 40.438-5.7 3.74-9.469 10.178-9.469 17.508 0 11.556 9.37 20.934 20.934 20.934a20.83 20.83 0 0 0 10.39-2.774c9.123 4.207 20.818 6.418 34.614 6.418 5.272 0 10.733-.318 16.34-.931 7.662 20.486 18.092 36.25 30.115 44.783 0 .045-.004.09-.004.136 0 11.566 9.372 20.934 20.938 20.934 11.564 0 20.934-9.368 20.934-20.934 0-.158-.008-.313-.011-.47 11.132-8.098 20.885-22.394 28.299-40.902 6.871 1.024 13.499 1.554 19.785 1.554 10.966 0 20.513-1.676 28.326-4.855a20.84 20.84 0 0 0 13.398 4.855c11.566 0 20.939-9.378 20.939-20.934 0-7.997-4.484-14.94-11.072-18.465-.395-12.117-5.82-26.074-16.135-40.898a145.932 145.932 0 0 0-3.194-4.408c16.125-19.053 24.296-38.266 21.672-54.01 5.542-3.767 9.184-10.122 9.184-17.324 0-11.566-9.37-20.934-20.934-20.934-7.281 0-13.688 3.717-17.44 9.354-7.687-2.309-16.69-3.514-26.835-3.514-5.273 0-10.735.317-16.344.932-7.593-20.296-17.904-35.96-29.791-44.541-1.25-10.37-10.075-18.402-20.783-18.402zm1.967 6.488c2.762 0 5.004 2.259 5.004 5.043 0 .109-.018.215-.026.32.055.018.105.046.159.065l.023.01a6.539 6.539 0 0 1 1.728.926l.002.002.018.015a6.577 6.577 0 0 1 1.363 1.391l.002.002c.007.01.012.023.02.033.182.256.35.523.494.805.043.084.072.177.111.264.099.214.198.429.274.656.067.202.109.416.156.627.028.125.069.246.09.375a6.574 6.574 0 0 1-.002 2.117l-.002.012c-.45 2.764-2.616 4.942-5.363 5.394-.906 1.273-2.377 2.108-4.051 2.108-.523 0-1.027-.09-1.498-.243v9.319h4a.504.504 0 0 1 0 1.01h-9.004a.503.503 0 0 1-.5-.506c0-.279.224-.504.5-.504h4.002v-8.932h-.004l.004-.002v-.031h-.002a3.941 3.941 0 0 1-2.5.898c-2.21 0-4-1.804-4-4.033 0-.232.025-.46.064-.68-2.09-.476-3.784-1.967-4.576-3.927a7.111 7.111 0 0 1-.18-.506 6.491 6.491 0 0 1-.275-1.299 6.227 6.227 0 0 1-.035-.644 6.622 6.622 0 0 1 .101-1.114c.049-.284.108-.565.192-.836l.002-.004c0-.003 0-.005.002-.008a6.525 6.525 0 0 1 .398-.974 6.59 6.59 0 0 1 .416-.729l.004-.006.004-.006a6.479 6.479 0 0 1 5.383-2.879c.923 0 1.798.205 2.596.555.441-2.325 2.47-4.084 4.906-4.084zm-22.574 18.113c1.735 9.808 10.296 17.266 20.607 17.266 10.19 0 18.675-7.28 20.55-16.916 9.682 8.03 18.155 21.482 24.632 38.676-13.828 1.955-28.451 5.661-43.312 10.98-15.824-6.754-31.508-11.629-46.207-14.316 6.389-15.833 14.517-28.222 23.73-35.689zm-48.87 38.818c5.658 0 11.609.453 17.774 1.32-4.565 12.633-8.085 26.983-10.297 42.507-13.954 9.596-26.225 20.074-36.162 30.953-10.72-14.44-16.91-28.521-17.393-40.617 1.406.297 2.862.457 4.357.457 11.566 0 20.941-9.378 20.941-20.934 0-3.737-.99-7.236-2.705-10.271 6.608-2.24 14.503-3.414 23.484-3.414zm182.27.7c.626.028 1.276.13 1.95.316 5.393 1.488 6.673 6.907 5.771 10.172-.7 2.54-3.66 5.202-5.156 7.012-.09.109-.165.211-.244.314-.112.147-.236.3-.32.432-.01.014-.016.028-.026.043a2.22 2.22 0 0 0-.261.537l-.473 1.713-.193.703-.29-.092c.08.123.152.251.23.375l-.825 2.992c-.146.53-.757 1.526-3.068 1.301l-.206.736a.727.727 0 0 1-.894.508l-2.065-.57a.728.728 0 0 1-.51-.895l.206-.74c-2.232-1.083-2.207-2.48-2.207-2.48l1.062-3.846-.037-.012s.794-2.46.631-3.552c-.06-.397-.38-1.23-.717-2.282a26.217 26.217 0 0 1-.392-1.35c-.035-.133-.063-.276-.096-.413a15.96 15.96 0 0 1-.22-1.088 12.36 12.36 0 0 1-.137-1.004l-.006-.065c-.008-.106-.011-.212-.016-.318a8.49 8.49 0 0 1 .04-1.332c.007-.074.014-.148.025-.22a6.14 6.14 0 0 1 .154-.768c.818-2.967 3.917-6.33 8.29-6.127zm-223.54.26c.16-.006.325.022.483.083l6.469 2.516v.002c.635.247.948.96.701 1.596l-.234.603a1.232 1.232 0 0 1-1.557.713 3.396 3.396 0 0 1-.119.375l-1.707 4.389-5.586 14.355a3.49 3.49 0 0 1-2.953 2.205 3.694 3.694 0 0 1-.754-.012c-.018-.002-.036 0-.055-.004-.068-.009-.136-.024-.205-.037a3.487 3.487 0 0 1-.568-.158 3.503 3.503 0 0 1-1.994-4.535l7.293-18.744a3.55 3.55 0 0 1 .162-.354l-.021-.008a1.235 1.235 0 0 1-.702-1.598l.235-.603a1.232 1.232 0 0 1 1.113-.785zm64.396 1.204c12.903 2.273 26.642 6.322 40.596 11.902a284.891 284.891 0 0 0-23.3 10.381 280.67 280.67 0 0 0-26.745 15.262c2.188-13.716 5.404-26.376 9.449-37.545zm113.28 2.014c9.236 0 17.415 1.026 24.373 3a20.908 20.908 0 0 0-1.037 6.508c0 11.556 9.374 20.934 20.939 20.934 2.29 0 4.492-.373 6.554-1.053 1.716 13.735-5.655 30.412-19.79 47.207-9.686-11.995-21.96-23.709-36.093-34.549-1.985-14.953-5.18-28.86-9.351-41.246 4.962-.515 9.786-.8 14.404-.8zm-19.812 1.453c3.654 10.821 6.555 22.928 8.53 35.957a282.152 282.152 0 0 0-23.57-15.27 282 282 0 0 0-22.634-11.763c12.948-4.267 25.685-7.28 37.674-8.924zm-45.32 11.594a274.913 274.913 0 0 1 27.482 13.928c9.715 5.627 18.898 11.718 27.414 18.13 1.26 10.475 1.937 21.461 1.937 32.792 0 12.125-.772 23.857-2.209 34.988-9.314 6.267-19.45 12.216-30.297 17.643a271.613 271.613 0 0 1-28.363 12.23 274.303 274.303 0 0 1-27.48-13.93 274.894 274.894 0 0 1-27.412-18.124 274.95 274.95 0 0 1-1.949-32.807c0-12.118.776-23.842 2.211-34.967 9.412-6.343 19.57-12.288 30.311-17.664a271.689 271.689 0 0 1 28.355-12.219zm-1.729 24.561c-8.801 0-16.943 2.857-23.566 7.682h.076c-10.076 7.272-16.64 19.1-16.64 32.469 0 16.586 10.093 30.817 24.48 36.895a39.882 39.882 0 0 0 15.65 3.18h.091c12.503-.028 23.676-5.81 31.02-14.827h-.064a39.847 39.847 0 0 0 8.974-25.248c0-3.914-.57-7.693-1.619-11.27l.078-.072a39.448 39.448 0 0 0-1.084-3.18l-.103.002a40.108 40.108 0 0 0-10.861-15.516l.053-.093c-7.05-6.212-16.286-9.997-26.393-10.02l-.092-.002zm-63.025 9.553a275.254 275.254 0 0 0-1.703 30.736c0 9.631.505 19.017 1.432 28.08-12.473-9.989-23.103-20.476-31.455-30.871 8.786-9.742 19.524-19.18 31.727-27.945zm125.74 2.69c12.265 9.84 22.925 20.33 31.445 31.02-8.614 9.475-19.325 18.904-31.727 27.793a275.21 275.21 0 0 0 1.71-30.768c0-9.62-.504-18.994-1.428-28.047zm-161.23 29.59c9.485 11.672 21.683 23.365 36.133 34.388 1.987 14.923 5.173 28.81 9.336 41.174-4.96.515-9.785.8-14.402.8-11.697 0-21.698-1.644-29.67-4.78 3.47-3.737 5.608-8.726 5.608-14.223 0-11.566-9.376-20.936-20.941-20.936a20.95 20.95 0 0 0-5.536.746c1.634-10.331 7.4-22.005 17.115-34.3.76-.96 1.56-1.914 2.358-2.87zm195.95 5.695a140.98 140.98 0 0 1 2.389 3.3c9.058 13.02 14.12 25.165 15.035 35.664a21.053 21.053 0 0 0-4.186-.42c-11.564 0-20.936 9.368-20.936 20.934 0 4.312 1.307 8.318 3.543 11.648-6.775 2.428-14.966 3.7-24.332 3.7-5.654 0-11.6-.452-17.762-1.317 4.57-12.653 8.098-27.03 10.31-42.582 14.088-9.747 26.231-20.267 35.938-30.928zm-153.59 33.307a287.758 287.758 0 0 0 23.568 15.21 281.948 281.948 0 0 0 22.645 11.769c-12.953 4.27-25.695 7.286-37.688 8.93-3.65-10.808-6.55-22.898-8.525-35.909zm111.45 1.775c-2.187 13.733-5.411 26.403-9.46 37.584-12.904-2.27-26.643-6.313-40.595-11.891a284.38 284.38 0 0 0 23.311-10.387 274.819 274.819 0 0 0 26.744-15.307zm-163.71 1.338c.248-.012.6.07 1.098.363 1.596.642 1.164 1.356 1.164 1.356l-1.262 2.763.645.344-.36.723c.723.319 1.29.887 1.612 1.582.347.044 3.834.558 4.387 3.715.58 3.318-2.003 9.074-3.256 11.07a6.195 6.195 0 0 1-2.47 2.242 5.444 5.444 0 0 1-1.347.469c-.022.004-.044.004-.066.008a4.847 4.847 0 0 1-.62.08 4.423 4.423 0 0 1-.7-.02c.426 1.703.78 3.165.828 3.37l3.064.558-.34 1.865-14.254-2.602.34-1.863 3.992.729.418-2.418-5.88.107-.024-1.215 6.117-.113.17-.984-9.36-4.69 1.09-2.174 9.69 4.856c.24-.076.509-.126.838-.104 1.347.09 1.992.496 2.506 1.803l-.002-.012s.12.048.29.102l.016.004c.461.143 1.337.313 1.807-.313.653-.87 2.766-6.217 2.893-7.726.127-1.51-.5-2.414-2.125-2.168l.232-.24c-.144.055-.29.11-.441.144h-.002c-.407.09-.839.103-1.274.023a3.176 3.176 0 0 1-.969-.359l-.232.469 1.033.53-1.107 2.165-2.53-1.295-.212 1.168-1.39-.254.29-1.586-2.652-1.357-1.125-.576-.291 1.594-1.387-.252.367-2.012-1.873-.959 1.108-2.166 2.261 1.156 2.54 1.301 3.896-6.78.851.456 1.477-2.576s.118-.281.531-.301zm215.7 9.342a2.615 2.615 0 0 1 1.85 4.462 2.62 2.62 0 0 1-.658.467l1.437 3.473-.02.008c.266-.041.536-.068.813-.068.71 0 1.375.159 1.99.416a5.488 5.488 0 0 1 1.123.617l-.076-.074 2.455-2.536a1.997 1.997 0 0 1 .703-2.498h.002a2.006 2.006 0 0 1 1.123-.344c.167 0 .328.027.483.065.038.01.074.024.111.035a2 2 0 0 1 .338.139 2.032 2.032 0 0 1 .775.719c.19.307.305.666.305 1.054 0 .695-.351 1.309-.886 1.67-.05.034-.11.05-.163.078a2 2 0 0 1-.963.266 2 2 0 0 1-1.105-.334l-2.352 2.428a5.274 5.274 0 0 1 1.422 3.584c0 .087-.009.172-.013.26l3.923.435a2.606 2.606 0 0 1 4.616-.569v.002a2.617 2.617 0 0 1-2.17 4.076 2.605 2.605 0 0 1-2.592-2.41l-3.947-.437a5.279 5.279 0 0 1-2.207 3.05c-.011.008-.023.013-.034.02-.142.092-.288.18-.44.258-.078.041-.16.076-.241.113a5.227 5.227 0 0 1-1.27.403l.055 1.45.055 1.475a3.023 3.023 0 0 1 2.734 3.004v.002a3.035 3.035 0 0 1-6.068 0c0-1.416.973-2.597 2.285-2.931l-.059.002-.017-.465-.094-2.463a5.15 5.15 0 0 1-1.309-.225c-.08-.024-.16-.044-.238-.072a5.343 5.343 0 0 1-2.103-1.39 5.307 5.307 0 0 1-.95-1.4l-2.15.687c.019.154.047.305.047.464a3.883 3.883 0 0 1-3.885 3.887 3.886 3.886 0 1 1 2.172-7.107 3.899 3.899 0 0 1 1.39 1.677l2.067-.658a5.287 5.287 0 0 1-.127-1.139 5.282 5.282 0 0 1 3.41-4.937l-1.427-3.45.074-.03c-.065.005-.127.02-.194.02a2.614 2.614 0 1 1 0-5.228zm-109.66 17.89c15.821 6.753 31.502 11.626 46.2 14.313-6.437 15.95-14.64 28.404-23.939 35.854-2.707-8.426-10.605-14.521-19.932-14.521-9.44 0-17.416 6.242-20.029 14.826-10.096-7.918-18.928-21.71-25.627-39.492 13.832-1.953 28.46-5.659 43.326-10.98zm.073 41.272l2.193.828c0 .002.005.103.004.137l.04-.11 10.23 3.65c.003-.01.015-.017.019-.027l2.039.8c-.627 1.756-2.8 2.678-5.334 3.036a23.665 23.665 0 0 0-2.172-2.014 19.786 19.786 0 0 0 2.916-.484l-6.738-2.404c.483.652 1.171 1.376 2.24 2.14.142.102.353.258.611.455.07.054.144.11.22.17a24.159 24.159 0 0 1 2.463 2.195l.165.17.154.169c1.484 1.612 2.703 3.56 2.105 5.234-.334.937-1.199 1.515-2.388 1.908l-.028.008c-.242.08-.498.152-.765.217-.25.061-.512.115-.781.166-.6.11-1.237.204-1.916.281l-.018-.017c-.476-.485-.978-.979-1.494-1.487-.17-.166-.356-.347-.547-.537a55.817 55.817 0 0 0 2.865-.342l-5.547-1.978a34.1 34.1 0 0 0 1.856 2.021c.056.058.114.114.17.17l.172.172c.275.275.537.532.77.76.44.434.87.858 1.282 1.273l.018.018.168.17.166.168v.002c.456.469.868.922 1.25 1.37.323.379.62.752.867 1.116l.002.002.006.008c.533.789.866 1.542.906 2.264v.002c.018.324-.004.644-.115.955-.598 1.675-2.774 2.412-4.943 2.72a51.532 51.532 0 0 0-2.067-2.054 15.557 15.557 0 0 0 2.912-.4l-1.712-.612-4.307-1.537c.447.48.922.956 1.387 1.412l.004.004a70.589 70.589 0 0 0 .957.926l.045.043.193.184a61.272 61.272 0 0 1 2.129 2.095l.156.165.17.181c1.729 1.878 2.852 3.69 2.227 5.444l-2.108-.752c.002-.005 0-.013.002-.018l-10.127-3.615.033-.09c-.014.018-.073.075-.074.076l-2.047-.73c.147-.276 1.459-2.603 5.82-2.815a88.034 88.034 0 0 0 1.782 1.727l.59.56c-.325-.01-.585-.024-.76-.035-1.122-.072-2.014-.018-2.735.098l6.194 2.21a29.191 29.191 0 0 0-1.955-2.073c-.064-.064-.13-.126-.194-.188-.306-.295-.604-.58-.882-.844-.53-.502-1.045-.99-1.53-1.468-.062-.063-.12-.125-.181-.186l-.182-.18a22.31 22.31 0 0 1-1.121-1.228c-.623-.732-1.111-1.44-1.387-2.131-.042-.107-.07-.213-.101-.318-.03-.1-.06-.202-.08-.301a2.676 2.676 0 0 1-.053-.613c.002-.075.002-.15.01-.225.021-.19.056-.38.123-.568a2.56 2.56 0 0 1 .258-.512c.047-.073.104-.14.158-.207.059-.075.118-.15.185-.219a3.168 3.168 0 0 1 .41-.354 4.24 4.24 0 0 1 .374-.246c.948-.548 2.263-.862 3.8-1.078a62.346 62.346 0 0 0 1.78 1.801c.075.074.138.144.215.219-.596.062-1.217.142-1.823.232l3.998 1.426a71.44 71.44 0 0 0-1.345-1.365l-.174-.17a7.59 7.59 0 0 0-.143-.14c-.009-.011-.021-.021-.031-.032-.054-.053-.099-.102-.152-.154h-.002a80.642 80.642 0 0 1-1.87-1.88l-.158-.167-.154-.166c-1.786-1.933-2.936-3.685-2.357-5.307.6-1.684 2.717-2.225 5.427-2.515.38.334.803.672 1.28 1.013.455.326.891.666 1.306 1.01-.636.048-1.368.111-2.105.188l4.492 1.603a17.1 17.1 0 0 0-1.463-1.484c-.063-.058-.124-.116-.19-.174l-.2-.172c-.49-.422-1.03-.849-1.624-1.273a16.358 16.358 0 0 1-.982-.764c-.066-.056-.135-.112-.2-.168a7.101 7.101 0 0 1-.187-.168c-3.242-2.925-2.826-5.969-2.765-6.275zm2.25 1.453c.058.305.193.708.449 1.19l8.146 2.905c.508-.174.925-.373 1.22-.593zm-.366 7.574c-.832.122-1.563.279-2.033.49l9.188 3.28c-.076-.37-.337-.885-.774-1.493zm-2.56.895c-.001.003-.005.006-.006.01-.107.298.139.807.56 1.406l7.338 2.617c.8-.163 1.451-.359 1.713-.604l-9.605-3.43zm-.832 7.41c-.767.155-1.417.34-1.793.576l9.027 3.22c-.27-.47-.76-1.065-1.316-1.685zm-2.158 1.037c-.018.345.323.892.828 1.514l6.611 2.359 1.078.385c.476-.18.815-.378.986-.575a.563.563 0 0 0 .11-.17c.008-.023.009-.053.011-.08l-9.623-3.433h-.002zm-1.756 7.476c-.537.17-.916.362-1.17.538l9.658 3.449c-.097-.347-.311-.746-.617-1.178z" fill-opacity=".374" filter="url(#a)"/><g fill="#fff"><path d="M105.709 622.226a2.797 2.797 0 0 1 1.832 3.099c11.527 5.073 20.235 27.41 20.235 54.12 0 28.31-9.782 51.704-22.333 54.84-.416.135-.92.22-1.483.284l-.008-.007-.202.022.007.008c.024.024.049.048.072.073l.071.072c.724.744 1.265 1.419 1.299 2.04 13.99-2.777 24.969-27.43 24.969-57.333 0-29.54-10.714-53.953-24.46-57.222zm-7.72.42c-13.05 4.562-23.027 28.294-23.027 56.801 0 29.862 10.949 54.49 24.908 57.325-.533-.627-.84-1.214-.637-1.78.102-.288.314-.5.6-.664-12.62-2.99-22.48-26.458-22.48-54.878 0-26.813 8.776-49.216 20.366-54.176a2.79 2.79 0 0 1 .27-2.624zm4.228 111.993l.092.093c-.256.027-.521.061-.781.1l1.713.61a30.603 30.603 0 0 0-.577-.584l-.074-.073a3.264 3.264 0 0 0-.061-.06l-.014-.014-.065-.066c-.078 0-.156-.004-.234-.006zm-1.163.277c-.33.067-.607.146-.769.247l3.868 1.38c-.116-.202-.326-.456-.564-.722zm-.925.445c-.008.147.138.382.355.648l2.832 1.01c.296-.016.59-.044.884-.08a.241.241 0 0 0 .047-.073c.003-.01.003-.023.004-.035l-4.122-1.47zm.687 1.02c.192.207.396.41.596.607.382.033.766.054 1.152.054l.097-.002-1.845-.659z"/><path d="M72.904 641.9c-6.295 0-11.505 1.281-15.285 3.688l.58.226a.528.528 0 0 1 .3.684l-.1.259a.528.528 0 0 1-.666.305c-.014.054-.03.108-.051.16l-.732 1.88c3.367-3.124 8.883-4.813 15.954-4.813 12.244 0 27.662 4.868 42.299 13.345 12.886 7.463 23.63 16.816 30.25 26.328 5.989 8.609 7.904 16.327 5.493 21.933.177.072.345.16.497.272l-.032-.032 1.051-1.086a.862.862 0 0 1 1.514-.807c1.324-6.027-.92-13.535-6.561-21.644-6.815-9.795-17.83-19.396-31.014-27.035-14.99-8.683-30.843-13.662-43.497-13.662zm-19.16 7.167c-.374.482-.713.986-1.018 1.512-7.758 13.391 8.057 36.567 36.004 52.754 14.988 8.682 30.841 13.663 43.497 13.663 7.861 0 14.036-1.997 17.838-5.691l-.04-1.055a2.243 2.243 0 0 1-1.563-.723c-3.337 3.294-8.964 5.076-16.235 5.076-12.247 0-27.663-4.859-42.296-13.337-23.382-13.542-38.424-32.556-36.637-45.069a1.485 1.485 0 0 1-.678-.09 1.5 1.5 0 0 1-.854-1.943l1.983-5.096zm99.03 56.348l-1.007 1.04c.374.404.609.94.609 1.535 0 .038-.004.074-.006.112l.147.016c.473-.849.854-1.742 1.143-2.674a.848.848 0 0 1-.412.114.857.857 0 0 1-.474-.143zm-1.422 4.464c-.253.166-.54.285-.85.34l.023.62c.291-.309.567-.629.827-.96z"/><path d="M131.33 643.687c-12.243 0-26.843 3.933-41.116 11.075-13.63 6.82-25.21 15.729-32.611 25.096-7.598 9.611-9.923 18.62-6.545 25.367.02.04.044.08.064.12l2.842 1.424a.949.949 0 0 1 .359-.044c.577.038.853.212 1.073.772v-.005s.197.086.418.099c-1.098-1.01-1.978-2.156-2.618-3.435-.202-.404-.378-.82-.53-1.245l-.483-.246-.124.682-.594-.108.157-.861-.803-.411.475-.928.969.495c-1.274-5.557 1.215-12.601 7.217-20.195 7.188-9.092 18.483-17.77 31.802-24.437 13.746-6.878 28.344-10.823 40.048-10.823 7.014 0 12.607 1.378 16.381 3.961-.256-.794-.54-1.893-.283-2.826.011-.039.026-.078.039-.117-4.074-2.23-9.546-3.41-16.138-3.41zm21.333 7.742c-.458.5-.871.942-.95 1.225l-.284 1.035-.124-.04c.229.354.439.719.627 1.095 6.222 12.437-10.863 33.632-38.082 47.25-13.75 6.882-28.347 10.825-40.052 10.825-7.334 0-13.115-1.506-16.886-4.32a2.12 2.12 0 0 1-1.171.23c.182.728.334 1.355.354 1.442l1.313.24-.145.799-.855-.156c4.173 2.712 10.097 4.154 17.39 4.154 12.242 0 26.846-3.93 41.12-11.075 28.4-14.21 45.965-36.848 39.154-50.458a13.835 13.835 0 0 0-1.409-2.246zm-100.53 55.59c.254.358.524.705.811 1.04l.34-.006.072-.422-1.222-.612z"/></g><path d="M150.298 641.185a8.967 8.967 0 0 0-8.97 8.968c0 4.95 4.015 8.967 8.97 8.967a8.968 8.968 0 0 0 0-17.935zm.684 3.405c.268.012.546.055.835.135 2.31.638 2.858 2.959 2.472 4.358-.386 1.398-2.386 2.891-2.573 3.571l-.203.734.008.002-.47 1.702c-.062.228-.324.654-1.314.557l-.088.316a.311.311 0 0 1-.383.217l-.884-.244a.312.312 0 0 1-.219-.383l.088-.317c-.956-.464-.945-1.063-.945-1.063l.455-1.647-.016-.005s.34-1.054.27-1.522c-.07-.469-.986-2.334-.585-3.787.351-1.27 1.678-2.711 3.552-2.624z" fill="#eb6d3f"/><path d="M55.032 641.185a8.968 8.968 0 0 0 0 17.935 8.967 8.967 0 1 0 0-17.935zm.19 3.516a.524.524 0 0 1 .207.036l2.771 1.077v.001a.528.528 0 0 1 .3.684l-.1.258a.528.528 0 0 1-.667.306c-.014.054-.03.107-.05.16l-3.125 8.03a1.501 1.501 0 0 1-2.797-1.089l3.124-8.03a1.48 1.48 0 0 1 .07-.15l-.01-.004a.53.53 0 0 1-.3-.684l.1-.259a.528.528 0 0 1 .477-.336z" fill="#96d0d3"/><path d="M102.663 725.081c-4.955 0-8.97 4.013-8.97 8.968s4.015 8.967 8.97 8.967c4.953 0 8.967-4.013 8.967-8.967s-4.013-8.968-8.967-8.968zm-.967 2.41l.94.356v.058l.018-.047 4.382 1.564c.002-.004.007-.008.008-.012l.874.343c-.269.752-1.2 1.147-2.285 1.3-.314-.333-.647-.63-.93-.862.414-.038.857-.11 1.249-.208l-2.887-1.03c.207.28.502.59.96.917.06.044.151.11.262.195l.094.073.091.073c.279.222.63.523.964.868l.07.072.067.072c.635.691 1.158 1.525.901 2.243-.26.73-1.257.962-2.518 1.105-.206-.21-.424-.424-.647-.644l-.235-.23a23.91 23.91 0 0 0 1.228-.147l-2.376-.847c.24.286.52.59.794.866l.073.072.074.074c.118.118.23.228.33.325.19.189.378.373.557.553l.072.073.07.072v.001c.886.91 1.51 1.719 1.25 2.449-.256.718-1.188 1.033-2.118 1.165-.272-.29-.573-.583-.885-.88a6.644 6.644 0 0 0 1.248-.171l-2.579-.92a22.73 22.73 0 0 0 1.006 1.003l.019.018.083.079c.319.303.63.602.912.897l.067.07.072.078c.741.805 1.222 1.58.954 2.332l-.903-.322.001-.007-4.338-1.549.014-.039a.602.602 0 0 1-.031.033l-.877-.313c.063-.118.625-1.114 2.493-1.205.24.24.496.486.763.74l.253.24a10.3 10.3 0 0 1-.326-.016 5.231 5.231 0 0 0-1.171.042l2.653.947a12.505 12.505 0 0 0-.837-.888l-.083-.08a62.755 62.755 0 0 0-.378-.362 46.346 46.346 0 0 1-.656-.63l-.077-.079c-.026-.026-.053-.05-.078-.077-.82-.831-1.376-1.585-1.118-2.306.248-.695 1.105-.964 2.221-1.12.262.28.552.567.855.864-.256.027-.521.061-.781.1l1.713.61a30.603 30.603 0 0 0-.577-.584l-.074-.073a3.264 3.264 0 0 0-.061-.06l-.014-.013c-.305-.3-.6-.59-.867-.871l-.067-.072-.066-.071c-.765-.828-1.258-1.579-1.01-2.274.257-.721 1.164-.953 2.325-1.077.162.143.344.288.548.434.195.14.382.285.56.433-.273.02-.587.047-.902.08l1.924.687a7.38 7.38 0 0 0-.627-.636l-.08-.075-.087-.073c-.21-.18-.441-.364-.695-.546a7.007 7.007 0 0 1-.421-.327l-.086-.072a3.042 3.042 0 0 1-.08-.072c-1.389-1.253-1.21-2.557-1.185-2.688zm.963.623c.026.131.083.304.193.51l3.49 1.245a1.93 1.93 0 0 0 .522-.255zm-.156 3.245c-.357.052-.67.12-.87.21l3.935 1.405c-.033-.159-.144-.38-.332-.64zm-1.097.383l-.002.004c-.046.128.06.346.24.603l3.143 1.12c.343-.069.622-.153.734-.258l-4.115-1.469zm-.356 3.174c-.329.067-.607.146-.768.247l3.867 1.38c-.116-.202-.326-.456-.564-.722zm-.925.445c-.007.148.139.382.355.648l3.294 1.176c.263-.1.431-.212.47-.32.003-.01.002-.022.004-.033l-4.123-1.471zm-.752 3.202c-.23.073-.392.156-.501.23l4.137 1.478a1.726 1.726 0 0 0-.264-.504z" fill="#e7d14f"/><path d="M54.518 695.708a8.968 8.968 0 0 0 0 17.936 8.969 8.969 0 0 0 0-17.936zm1.726 2.438c.106-.005.257.03.47.156.683.275.498.58.498.58l-.54 1.184.276.148-.154.31c.31.136.552.379.69.677.149.019 1.643.239 1.88 1.591.248 1.422-.858 3.887-1.395 4.742-.504.802-1.396 1.283-2.23 1.19.184.73.335 1.357.356 1.444l1.312.24-.145.798-6.106-1.114.145-.798 1.71.312.18-1.036-2.52.046-.01-.52 2.62-.049.073-.422-4.009-2.009.467-.93 4.15 2.08a.949.949 0 0 1 .36-.045c.577.038.853.212 1.073.772v-.005s.625.284.905-.089c.28-.372 1.184-2.663 1.239-3.31.054-.646-.214-1.034-.91-.928l.099-.103a1.364 1.364 0 0 1-.19.062c-.174.039-.36.044-.546.01a1.36 1.36 0 0 1-.415-.154l-.1.2.444.227-.475.928-1.083-.554-.092.5-.594-.109.123-.68-1.618-.827-.124.682-.594-.108.157-.861-.802-.411.474-.928 2.056 1.052 1.67-2.904.364.195.633-1.103s.05-.12.228-.129z" fill="#eb6d3f"/><path d="M150.1 699.058a8.966 8.966 0 0 0-8.968 8.967 8.969 8.969 0 0 0 17.938 0 8.967 8.967 0 0 0-8.97-8.967zm-1.455 3.091a1.12 1.12 0 0 1 .792 1.912 1.124 1.124 0 0 1-.282.2l.616 1.488-.008.003c.113-.017.229-.03.348-.03.5 0 .958.168 1.333.443l-.032-.031 1.051-1.086a.862.862 0 1 1 .31.364l-1.008 1.04c.375.403.61.94.61 1.535 0 .037-.004.074-.006.111l1.68.187a1.116 1.116 0 0 1 1.978-.244v.001a1.121 1.121 0 0 1-.93 1.746 1.116 1.116 0 0 1-1.11-1.032l-1.691-.188a2.263 2.263 0 0 1-1.796 1.647l.047 1.253a1.295 1.295 0 0 1 1.172 1.287 1.3 1.3 0 0 1-2.6 0c0-.606.417-1.112.979-1.255h-.025l-.048-1.253a2.26 2.26 0 0 1-1.97-1.323l-.921.294c.008.066.02.131.02.2a1.66 1.66 0 0 1-1.329 1.63 1.665 1.665 0 1 1 1.19-2.292l.886-.281a2.262 2.262 0 0 1 1.406-2.603l-.611-1.478.032-.013c-.028.002-.055.008-.083.008a1.12 1.12 0 1 1 0-2.24z" fill="#96d0d3"/><path d="M102.663 617.12a8.966 8.966 0 0 0-8.969 8.967 8.969 8.969 0 0 0 17.938 0 8.967 8.967 0 0 0-8.97-8.968zm.842 2.779c1.183 0 2.144.967 2.144 2.16 0 .047-.008.092-.011.137a2.8 2.8 0 0 1 1.939 2.67 2.8 2.8 0 0 1-2.336 2.768 2.125 2.125 0 0 1-1.736.902c-.224 0-.44-.038-.641-.103v3.991h1.713a.216.216 0 0 1 0 .433h-3.857a.216.216 0 0 1-.214-.217c0-.119.096-.216.214-.216h1.714v-3.826h-.001.001v-.014a1.688 1.688 0 0 1-1.071.385 1.72 1.72 0 0 1-1.686-2.019 2.798 2.798 0 0 1-2.17-2.732c0-1.55 1.246-2.807 2.785-2.807.395 0 .77.087 1.112.237a2.146 2.146 0 0 1 2.101-1.75zm-.928 8.635l-.01.003h.002l.009-.003z" fill="#e7d14f"/><path d="M102.663 662.235c-9.481 0-17.168 7.679-17.168 17.152 0 9.472 7.687 17.151 17.168 17.151h.063c9.452-.033 17.104-7.7 17.104-17.151 0-9.452-7.652-17.117-17.104-17.15l-.063-.002z" fill="none" stroke="#fff" stroke-width=".063"/><path d="M102.689 662.188c-3.77 0-7.258 1.224-10.095 3.29l.866-.006.386.213.728.158.056.285 1.158.043-.157-.371-1.029-.028.243-.229-.085-.272h-.929l1.014-.756h.971l.456.628.758.043.456-.443.344.172-.629.614-.827.014c.043 0 .072.6.072.6l1.055-.03.115-.285.727-.042.086-.429-.428-.072.143-.384.328-.1 1.143.056-.631.572.103.442.656.1-.043-.8.628-.328 1.115-.128 1.285.569.327.145v.614l.516.128-.258.486h-.728l-.216.556-1.665-.393 1.309-.696-.5-.424-1.128.143-.098.102-.005-.002-.017.024-.325.337-.536.046.043.267.186.078-.007.088-.436.063-.032.253-.418.022-.076-.504-.75.229-1.53.897.172.63.427.28.857.118v.973l.396-.064.365-.76.91-.289v-1.167l.506-.383 1.225.29-.086.77h.329l.9-.442.043 1.013.3.184.355.216-.028.6-.327.112-.3.102.042.199.258.118v-.001l.499.227-.015.414-.22.019v-.012l-.264-.08-.692-.214-.04-.306h-.002l.279-.192v-.279l-.3-.075-.074.258-.526.08-.052-.017v.026l-.183.029-.149-.3-.172-.076h-.375l-.17.14v.31l.32.106.317.046-.071.03-.289.32-.127-.16-.28-.073-.76.716.1.081-1.124.622-1.058 1.1-.07.49-1.06.695-.525.528.057 1.057-.728-.34.006-.617h-2.028l-1.049.532-.456.84-.18.666.295.647.826.1 1.315-.878.115.435-.401.757 1 .171.1 1.545 1.371.232.87-1.006 1.058.215.371.516 1.014-.06.028-.3.556.272.63.984 1.084.015.4.7.057.857.772.293v.001l.428.162 1.513.015.443.728.67.215-.128.6-.736.934-.214 2.067-.663.526-.986-.03-.327.57v.005l.243 1.068-.243.31-.83 1.06-.341.629-1.022.49-.672.103-.027.285.47.135-.056.307-.423.407.257.322.508.014-.029.393-.134.385-.044.314.752.633-.1.329-1.022-.02-1.019-.888-.793-1.393.111-1.345-.6-.8.244-1.356-.357-.1v-2.942s-1-.757-1.056-.757-.529-.128-.529-.128l-.1-.557-1.299-1.627.128-.586.043-.957.899-.628-.128-1.071-1.314-.1-1.027-1.171-.73-.2-.47-.086.057-.428-.6-.085v.242l-1.5-.37-.603-.924.246-.448-.95-1.385-.163-1.013h-.385l.128.984.657 1.015-.072.4-.556-.086-.685-1.168v-1.36l-.714-.342v-.979a17.077 17.077 0 0 0-1.372 6.725c0 9.475 7.708 17.183 17.182 17.183h.04c5.356-.012 10.142-2.488 13.288-6.351h-.567v-1.143l-.656-.883v-1.374l-.5-.498-.043-.572.635-1.214-1.206-2.127.143-1.444-1.086-.112-.399-.4h-.729l-.37.342h-1.285l-.044.114h-.714l-1.641-1.87.012-1.457.272-.1.1-.557h-.384l-.158-.585 1.9-1.37v-.971l.93-.517.375.038h.766l.598-.321 1.927-.15v.986l1.521.384.3.215h.28v-.536l.877-.085.836.62h1.37l.097-.087a16.9 16.9 0 0 0-.465-1.362l-.895.015-.45-.493-.086-.792-.46.25-.247.97-.664-.707-.027-.668-.641-.552-.237-.235h-.745l.236.662.896.5.155.165-.193.097.007.524-.435.183-.374-.082-.231-.33.605.033.163-.221-1.342-.905-.102-.385-.545.492-.553-.113-.84 1.093-.166.428-.538.049-.795.005-.476-.223-.14-.944.17-.451.81-.178.884.178.107-.489-.375-.088.128-.76.889-.14.621-.878.642-.108.58.086h.212l-.116-.825-.704.284-.248-.615-.408-.057-.077-.423.334-.363.792-.31.205-.365a17.11 17.11 0 0 0-11.306-4.292l-.04-.001zm8.627 5.732l.143.686.3.486.199.228.364.142-.342.408-.664.064h-.5l.056-.592.416-.086-.035-.28-.388-.242-.27-.185v-.272l.157-.243.564-.114zm-.844.772l.33.143-.03.37-.706.5h-.4v-.357l.344-.55.462-.106zm-9.015 2.085l.224.046-.095.2-.244.02-.05.237-.189.117-.301.025-.018-.125h-.116v-.254h.492l.102-.261.195-.005zm-1.304.266l.215.17-.037.249-.357.03.019-.25.16-.199z" fill="#fff"/></g></svg>