<svg width="300" height="320" version="1.1" viewBox="0 0 79.374998 84.666669" xmlns="http://www.w3.org/2000/svg">
  <g transform="translate(0 -212.33)">
    <g id="engep" transform="matrix(.43149 0 0 .43149 -128.85 63.108)" stroke-width=".65407">
      <g transform="matrix(.85995 0 0 .85995 1357.4 1568.5)" stroke-width=".65407">
        <g transform="matrix(.33448 0 0 .33448 -886.43 -1428.5)">
          <g id="soulcode" transform="matrix(1.1423 0 0 1.1423 -1171.6 -424.69)" stroke-width=".36316">
            <path d="m522.23 690.34c-56.398-82.219-172.95-84.728-178.81-183.86-2.821-47.77 38.136-83.467 79.95-83.051 59.147 0.58907 84.048 69.104 83.002 95.825-12.76-43.636-44.703-59.22-69.503-58.05-27.562 1.3018-48.153 19.8-48.899 45.276-2.4046 82.058 135.18 40.936 205.69 201.74 49.002 111.75-36.465 259.43-181.21 254.17-208.94-7.6008-242-275.16-87.879-313.71-94.545 73.191-55.593 244.8 87.879 248.28 116.78 0.85433 164.44-129.38 109.78-206.61z" fill-opacity=".21569"/>
            <path d="m507.53 671.97c-56.398-82.219-172.95-84.728-178.81-183.86-2.821-47.77 38.136-83.467 79.95-83.051 59.147 0.58906 84.048 69.104 83.002 95.825-12.76-43.636-44.703-59.22-69.503-58.05-27.562 1.3018-48.153 19.8-48.899 45.276-2.4046 82.058 135.18 40.936 205.69 201.74 49.002 111.75-36.465 259.43-181.21 254.17-208.94-7.6008-242-275.16-87.879-313.71-94.545 73.191-55.593 244.8 87.879 248.28 116.78 0.85434 164.44-129.38 109.78-206.61z" fill="#c8dadd"/>
            <path d="m428.22 796.55c-17.739 0-34.073-21.326-36.706-38.977-2.1204-14.215 10.372-33.177 19.111-38.649-6.4107 19.996 5.4353 20.497 5.4353 20.497 3.5162 0.94219 19.384-18.652 10.652-36.182 13.254 10.862 12.453 25.238 20.217 31.037 5.0342 3.7602 5.5252-14.924 3.1369-20.109 8.721 10.961 18.132 28.453 14.904 43.406-3.7679 17.455-16.33 38.977-36.75 38.977z" fill-opacity=".21569" fill-rule="evenodd"/>
            <path d="m413.53 778.18c-17.739 0-34.073-21.326-36.706-38.977-2.1204-14.215 10.372-33.177 19.111-38.649-6.4107 19.996 5.4353 20.497 5.4353 20.497 3.5162 0.94219 19.384-18.652 10.652-36.182 13.254 10.862 12.453 25.238 20.217 31.037 5.0342 3.7602 5.5252-14.924 3.1369-20.109 8.721 10.961 18.132 28.453 14.904 43.406-3.7679 17.455-16.33 38.977-36.75 38.977z" fill="#c8dadd" fill-rule="evenodd"/>
            <path d="m377.51 656.27a109.16 109.16 0 0 0 -76.489 134.1 109.16 109.16 0 0 0 134.11 76.487 109.16 109.16 0 0 0 75.272 -72.753 92.821 90.378 74.698 0 1 -55.845 45.926 92.821 90.378 74.698 0 1 -111.67 -65.682 92.821 90.378 74.698 0 1 62.683 -113.38 92.821 90.378 74.698 0 1 38.652 -1.6776 109.16 109.16 0 0 0 -66.704 -3.0189z" fill-opacity=".21569"/>
            <path d="m362.81 637.9a109.16 109.16 0 0 0 -76.489 134.1 109.16 109.16 0 0 0 134.11 76.487 109.16 109.16 0 0 0 75.272 -72.753 92.821 90.378 74.698 0 1 -55.845 45.926 92.821 90.378 74.698 0 1 -111.67 -65.682 92.821 90.378 74.698 0 1 62.683 -113.38 92.821 90.378 74.698 0 1 38.652 -1.6776 109.16 109.16 0 0 0 -66.704 -3.0189z" fill="#357189"/>
          </g>
        </g>
      </g>
    </g>
  </g>
</svg>
