<svg width="300" height="320" viewBox="0 0 79.374998 84.666669" xmlns="http://www.w3.org/2000/svg"><g stroke-width=".363"><path d="M56.564 42.674c-7.995-11.657-24.52-12.012-25.35-26.067-.4-6.772 5.407-11.833 11.335-11.774 8.385.083 11.916 9.797 11.767 13.585-1.809-6.186-6.337-8.396-9.853-8.23-3.908.185-6.827 2.807-6.933 6.42-.34 11.633 19.165 5.803 29.161 28.6 6.948 15.844-5.17 36.78-25.69 36.035-29.622-1.078-34.31-39.01-12.46-44.476-13.403 10.377-7.88 34.706 12.46 35.2 16.556.121 23.313-18.343 15.563-29.292z" fill-opacity=".216"/><path d="M54.48 40.07c-7.995-11.657-24.52-12.013-25.35-26.067-.4-6.773 5.407-11.834 11.335-11.775 8.385.084 11.915 9.798 11.767 13.586-1.809-6.187-6.338-8.396-9.853-8.23-3.908.185-6.827 2.807-6.933 6.419-.341 11.634 19.165 5.804 29.161 28.601 6.947 15.843-5.17 36.78-25.69 36.035-29.623-1.078-34.31-39.01-12.46-44.476-13.403 10.377-7.88 34.706 12.46 35.2 16.556.12 23.313-18.343 15.563-29.292z" fill="#c8dadd"/><path d="M43.236 57.731c-2.515 0-4.83-3.023-5.204-5.525-.3-2.016 1.47-4.704 2.71-5.48-.909 2.835.77 2.906.77 2.906.499.134 2.749-2.644 1.51-5.13 1.88 1.54 1.766 3.578 2.867 4.4.714.534.783-2.115.445-2.85 1.236 1.554 2.57 4.034 2.113 6.154-.535 2.474-2.316 5.525-5.21 5.525z" fill-opacity=".216" fill-rule="evenodd"/><path d="M41.154 55.127c-2.515 0-4.83-3.023-5.204-5.526-.3-2.015 1.47-4.703 2.71-5.48-.91 2.836.77 2.907.77 2.907.498.133 2.748-2.645 1.51-5.13 1.879 1.54 1.765 3.578 2.866 4.4.714.533.784-2.116.445-2.85C45.487 45 46.82 47.48 46.364 49.6c-.534 2.475-2.315 5.526-5.21 5.526z" fill="#c8dadd" fill-rule="evenodd"/><path d="M36.047 37.843a15.476 15.476 0 0 0-10.844 19.012A15.476 15.476 0 0 0 44.216 67.7a15.476 15.476 0 0 0 10.672-10.314 13.16 12.813 74.698 0 1-7.918 6.51 13.16 12.813 74.698 0 1-15.831-9.311 13.16 12.813 74.698 0 1 8.886-16.074 13.16 12.813 74.698 0 1 5.48-.238 15.476 15.476 0 0 0-9.457-.428z" fill-opacity=".216"/><path d="M33.963 35.24a15.476 15.476 0 0 0-10.844 19.01 15.476 15.476 0 0 0 19.013 10.845A15.476 15.476 0 0 0 52.804 54.78a13.16 12.813 74.698 0 1-7.918 6.511 13.16 12.813 74.698 0 1-15.831-9.312 13.16 12.813 74.698 0 1 8.886-16.074 13.16 12.813 74.698 0 1 5.48-.238 15.476 15.476 0 0 0-9.457-.428z" fill="#357189"/></g></svg>