<svg
    xmlns="http://www.w3.org/2000/svg" xmlns:xlink="http://www.w3.org/1999/xlink" height="0" width="0"
  >
  <defs>

<symbol id="facebook" width="25" height="25" version="1.1" viewBox="0 0 6 6" >
  <g transform="translate(0 -291.71)" fill="#2a7fff">
    <path id="facebook" d="m4.348 292.14h-3.3336a0.42842 0.42842 0 0 0 -0.42842 0.42844v3.3336c0 0.23686 0.19203 0.42842 0.42842 0.42842h3.3336a0.42842 0.42842 0 0 0 0.42889 -0.42842v-3.3336a0.42842 0.42842 0 0 0 -0.42889 -0.42844zm-0.07302 0.92272s-0.62045-0.22647-0.62045 0.23431v0.34801h0.6052l-0.05361 0.57492h-0.55159v1.9593h-0.74131v-1.9593h-0.36326v-0.57492h0.36326v-0.60475s-0.00762-0.46701 0.60151-0.6015c0.4275-0.0948 0.84321 0.0419 0.84321 0.0419z" fill="#fff" stroke-width=".28222"/>
  </g>
</symbol>


  <symbol id="github" width="25" height="25" version="1.1" viewBox="0 0 12 14">
  <g transform="translate(0,-284)" fill="#fff">
    <g id="github" transform="matrix(.023812 0 0 .023812 1.3584 285.51)" fill="#fff">
      <path d="m158.17 352.6c-3.049 0.568-4.381 1.999-3.999 4.281 0.38 2.283 2.093 3.046 5.138 2.283 3.049-0.76 4.38-2.095 3.997-3.997-0.378-2.092-2.091-2.95-5.136-2.567zm-16.275 2.286c-3.046 0-4.568 1.041-4.568 3.139 0 2.474 1.619 3.518 4.853 3.138 3.046 0 4.57-1.047 4.57-3.138 0-2.471-1.619-3.522-4.855-3.139zm-22.269-0.863c-0.76 2.095 0.478 3.519 3.711 4.284 2.855 1.137 4.664 0.568 5.424-1.714 0.572-2.091-0.666-3.61-3.711-4.568-2.856-0.759-4.663-0.102-5.424 1.998z"/>
      <path d="m414.41 24.123c-16.084-16.081-35.446-24.123-58.101-24.123h-274.08c-22.648 0-42.017 8.042-58.102 24.123-16.081 16.084-24.123 35.453-24.123 58.102v274.09c0 22.65 8.042 42.017 24.123 58.098 16.084 16.084 35.454 24.126 58.102 24.126h63.953c4.184 0 7.327-0.144 9.42-0.424 2.092-0.288 4.184-1.526 6.279-3.717 2.096-2.187 3.14-5.376 3.14-9.562 0-0.568-0.05-7.046-0.144-19.417-0.097-12.375-0.144-22.176-0.144-29.41l-6.567 1.143c-4.187 0.76-9.469 1.095-15.846 0.999-6.374-0.096-12.99-0.76-19.841-1.998-6.855-1.239-13.229-4.093-19.13-8.562-5.898-4.477-10.085-10.328-12.56-17.559l-2.856-6.571c-1.903-4.373-4.899-9.229-8.992-14.554-4.093-5.332-8.232-8.949-12.419-10.852l-1.999-1.428c-1.331-0.951-2.568-2.098-3.711-3.429-1.141-1.335-1.997-2.669-2.568-3.997-0.571-1.335-0.097-2.43 1.427-3.289 1.524-0.855 4.281-1.279 8.28-1.279l5.708 0.855c3.808 0.76 8.516 3.042 14.134 6.851 5.614 3.806 10.229 8.754 13.846 14.843 4.38 7.806 9.657 13.75 15.846 17.843 6.184 4.097 12.419 6.143 18.699 6.143s11.704-0.476 16.274-1.424c4.565-0.954 8.848-2.385 12.847-4.288 1.713-12.751 6.377-22.559 13.988-29.41-10.848-1.143-20.602-2.854-29.265-5.14-8.658-2.286-17.605-5.995-26.835-11.136-9.234-5.14-16.894-11.512-22.985-19.13-6.09-7.618-11.088-17.61-14.987-29.978-3.901-12.375-5.852-26.652-5.852-42.829 0-23.029 7.521-42.637 22.557-58.814-7.044-17.32-6.379-36.732 1.997-58.242 5.52-1.714 13.706-0.428 24.554 3.855 10.85 4.286 18.794 7.951 23.84 10.992 5.046 3.042 9.089 5.614 12.135 7.71 17.705-4.949 35.976-7.423 54.818-7.423 18.841 0 37.115 2.474 54.821 7.423l10.849-6.852c7.426-4.57 16.18-8.757 26.269-12.562 10.088-3.806 17.795-4.854 23.127-3.14 8.562 21.51 9.328 40.922 2.279 58.241 15.036 16.179 22.559 35.786 22.559 58.815 0 16.18-1.951 30.505-5.852 42.969-3.898 12.467-8.939 22.463-15.13 29.981-6.184 7.519-13.894 13.843-23.124 18.986-9.232 5.137-18.178 8.853-26.84 11.132-8.661 2.286-18.414 4.004-29.263 5.147 9.891 8.562 14.839 22.072 14.839 40.538v68.238c0 3.237 0.472 5.852 1.424 7.851 0.958 1.998 2.478 3.374 4.571 4.141 2.102 0.76 3.949 1.235 5.571 1.424 1.622 0.191 3.949 0.287 6.995 0.287h63.953c22.648 0 42.018-8.042 58.095-24.126 16.084-16.084 24.126-35.454 24.126-58.102v-274.08c-2e-3 -22.649-8.044-42.021-24.125-58.102z"/>
      <path d="m86.793 319.2c-1.331 0.948-1.141 2.471 0.572 4.565 1.906 1.902 3.427 2.189 4.57 0.855 1.331-0.948 1.141-2.471-0.575-4.569-1.902-1.71-3.424-1.997-4.567-0.851zm-9.419-7.138c-0.57 1.335 0.096 2.478 1.999 3.426 1.521 0.955 2.762 0.767 3.711-0.568 0.57-1.335-0.096-2.478-1.999-3.433-1.903-0.572-3.14-0.38-3.711 0.575zm18.272 18.274c-1.715 0.948-1.715 2.666 0 5.137 1.713 2.478 3.328 3.142 4.853 1.998 1.714-1.334 1.714-3.142 0-5.427-1.521-2.468-3.14-3.046-4.853-1.708zm9.995 12.843c-1.714 1.526-1.336 3.327 1.142 5.428 2.281 2.279 4.185 2.566 5.708 0.849 1.524-1.519 1.143-3.326-1.142-5.42-2.281-2.28-4.185-2.568-5.708-0.857z"/>
    </g>
  </g>
</symbol>


<symbol id="twitter" width="25" height="25" version="1.1" viewBox="0 0 12 15">
  <g transform="translate(0,-284)" fill="#2a7fff">
    <path id="twitter" d="m9.7445 285.43h-6.5264c-1.0814 0-1.9579 0.87648-1.9579 1.9579v6.5264c0 1.0814 0.87648 1.9579 1.9579 1.9579h6.5264c1.0814 0 1.9579-0.8765 1.9579-1.9579v-6.5264c2.1e-5 -1.0814-0.87648-1.9579-1.9579-1.9579zm-0.66568 4.049 0.0039 0.16643c0 1.6995-1.2929 3.6574-3.6574 3.6574-0.72573 0-1.4012-0.21276-1.9703-0.5776 0.10052 0.0117 0.20296 0.0183 0.30675 0.0183 0.60239 0 1.1565-0.20559 1.5964-0.55018-0.56257-0.0104-1.037-0.38245-1.2009-0.8928a1.3413 1.3413 0 0 0 0.24212 0.0222c0.11748 0 0.23102-0.015 0.33871-0.0444-0.58803-0.11879-1.0312-0.63762-1.0312-1.2602v-0.0163c0.1736 0.0966 0.37135 0.15402 0.58215 0.16121-0.3446-0.23038-0.57171-0.62392-0.57171-1.0697 0-0.2356 0.06331-0.45619 0.1736-0.64611 0.63372 0.77795 1.5813 1.2896 2.6497 1.3431-0.0222-0.094-0.03328-0.19254-0.03328-0.29303 0-0.70942 0.57562-1.2851 1.2857-1.2851 0.36939 0 0.70355 0.15597 0.93849 0.40593a2.6031 2.6031 0 0 0 0.81646 -0.31196c-0.09594 0.30022-0.29955 0.55213-0.56519 0.71137a2.5769 2.5769 0 0 0 0.73814 -0.20232c-0.17229 0.25713-0.39092 0.4836-0.64217 0.66373z" fill="#fff" stroke-width=".28222"/>
  </g>
</symbol>



<symbol id="whatsapp" width="25" height="25" version="1.1" viewBox="0 0 12 15">
  <g transform="matrix(.70014 0 0 .70014 1.6888 -196.49)" fill="#fff" stroke-width="1.4283">
    <g id="whatsapp" transform="matrix(.11602 0 0 .11602 1.5943 285.1)" fill="#fff" stroke-width="1.4283">
      <path id="WhatsApp" d="m90 43.841c0 24.213-19.779 43.841-44.182 43.841-7.747 0-15.025-1.98-21.357-5.455l-24.461 7.773 7.975-23.522c-4.023-6.606-6.34-14.354-6.34-22.637 0-24.213 19.781-43.841 44.183-43.841 24.405 0 44.182 19.628 44.182 43.841zm-44.182-36.859c-20.484 0-37.146 16.535-37.146 36.859 0 8.065 2.629 15.534 7.076 21.61l-4.641 13.689 14.275-4.537c5.865 3.851 12.891 6.097 20.437 6.097 20.481 0 37.146-16.533 37.146-36.857s-16.664-36.861-37.147-36.861zm22.311 46.956c-0.273-0.447-0.994-0.717-2.076-1.254-1.084-0.537-6.41-3.138-7.4-3.495-0.993-0.358-1.717-0.538-2.438 0.537-0.721 1.076-2.797 3.495-3.43 4.212-0.632 0.719-1.263 0.809-2.347 0.271-1.082-0.537-4.571-1.673-8.708-5.333-3.219-2.848-5.393-6.364-6.025-7.441-0.631-1.075-0.066-1.656 0.475-2.191 0.488-0.482 1.084-1.255 1.625-1.882 0.543-0.628 0.723-1.075 1.082-1.793 0.363-0.717 0.182-1.344-0.09-1.883-0.27-0.537-2.438-5.825-3.34-7.977-0.902-2.15-1.803-1.792-2.436-1.792-0.631 0-1.354-0.09-2.076-0.09s-1.896 0.269-2.889 1.344c-0.992 1.076-3.789 3.676-3.789 8.963 0 5.288 3.879 10.397 4.422 11.113 0.541 0.716 7.49 11.92 18.5 16.223 11.011 4.301 11.011 2.866 12.997 2.686 1.984-0.179 6.406-2.599 7.312-5.107 0.9-2.512 0.9-4.663 0.631-5.111z" fill="#fff" stroke-width="1.4283"/>
    </g>
  </g>
</symbol>


<symbol id="envelope" width="25" height="25" version="1.1" viewBox="0 0 12 15" >
  <g transform="matrix(.73653 0 0 .73653 1.8172 -206.97)" stroke-width="1.3577">
    <g id="envelope" transform="matrix(.02041 0 0 .02041 1.1265 285.3)" fill="#fff" stroke-width="1.3577">
      <path d="m49.106 178.73c6.472 4.567 25.981 18.131 58.528 40.685 32.548 22.554 57.482 39.92 74.803 52.099 1.903 1.335 5.946 4.237 12.131 8.71 6.186 4.476 11.326 8.093 15.416 10.852 4.093 2.758 9.041 5.852 14.849 9.277 5.806 3.422 11.279 5.996 16.418 7.7 5.14 1.718 9.898 2.569 14.275 2.569h0.575c4.377 0 9.137-0.852 14.277-2.569 5.137-1.704 10.615-4.281 16.416-7.7 5.804-3.429 10.752-6.52 14.845-9.277 4.093-2.759 9.229-6.376 15.417-10.852 6.184-4.477 10.232-7.375 12.135-8.71 17.508-12.179 62.051-43.11 133.62-92.79 13.894-9.703 25.502-21.411 34.827-35.116 9.332-13.699 13.993-28.07 13.993-43.105 0-12.564-4.523-23.319-13.565-32.264-9.041-8.947-19.749-13.418-32.117-13.418h-420.26c-14.655 0-25.933 4.948-33.832 14.844-7.898 9.898-11.847 22.27-11.847 37.115 0 11.991 5.236 24.985 15.703 38.974 10.466 13.99 21.604 24.983 33.403 32.976z"/>
      <path d="m483.07 209.28c-62.424 42.251-109.82 75.087-142.18 98.501-10.849 7.991-19.65 14.229-26.409 18.699-6.759 4.473-15.748 9.041-26.98 13.702-11.228 4.668-21.692 6.995-31.401 6.995h-0.578c-9.707 0-20.177-2.327-31.405-6.995-11.228-4.661-20.223-9.229-26.98-13.702-6.755-4.47-15.559-10.708-26.407-18.699-25.697-18.842-72.995-51.68-141.9-98.501-10.852-7.228-20.464-15.513-28.839-24.838v226.68c0 12.57 4.471 23.319 13.418 32.265 8.945 8.949 19.701 13.422 32.264 13.422h420.27c12.56 0 23.315-4.473 32.261-13.422 8.949-8.949 13.418-19.694 13.418-32.265v-226.68c-8.186 9.132-17.7 17.417-28.555 24.838z"/>
    </g>
  </g>
</symbol>




<symbol id="bus" width="25" height="25" version="1.1" viewBox="0 0 12 15">
   <title>Desenho de um ônibus</title>
  <g transform="translate(0,-284)">
    <g id="bus" transform="matrix(.37544 0 0 .37544 -26.447 157.04)" stroke-width=".7517">
      <path d="m87.26 371.01c8.4877 0 15.41-6.9226 15.41-15.41 0-8.4877-6.9226-15.41-15.41-15.41-8.4877 0-15.41 6.9226-15.41 15.41 0 8.4878 6.9226 15.41 15.41 15.41z" fill="#5dddd3"/>
      <path d="m72.808 360.96h28.905c-2.1768 5.8694-7.8261 10.052-14.453 10.052-6.6268 0-12.276-4.183-14.453-10.052z" fill="#1a91a1"/>
      <path d="m80.89 346.69c0.93208-0.21773 1.5711-0.38934 2.5178-0.51426 0.09444-0.31959 0.39128-0.55435 0.74024-0.55435h6.2249c0.35401 0 0.65446 0.24157 0.74415 0.56814 0.93094 0.12261 1.569 0.28942 2.5139 0.50035 1.0158 0.22657 1.892 1.6402 1.892 2.68v8.4548l0.30032 0.28942v3.1581h-17.126v-3.2286l0.30032-0.21882v-8.4549c0-1.0407 0.87899-2.4431 1.8922-2.68l2.23e-4 1.2e-4z" fill="#ffba1b"/>
      <path d="m92.164 359.64h2.6619c0.12347 0 0.22453 0.10089 0.22453 0.22435v0.54519c0 0.12352-0.10106 0.22453-0.22453 0.22453h-2.6619c-0.12365 0-0.22435-0.10103-0.22435-0.22453v-0.54519c0-0.12352 0.1009-0.22435 0.22435-0.22435zm-11.689-2.536h1.1826c0.12141 0 0.22056 0.0993 0.22056 0.22057v0.92208c0 0.12131-0.09914 0.22056-0.22056 0.22056h-1.1826c-0.12141 0-0.22056-0.0993-0.22056-0.22056v-0.92208c-6.3e-5 -0.12118 0.09914-0.22057 0.22056-0.22057zm-0.61027 2.536h2.662c0.12347 0 0.22453 0.10089 0.22453 0.22435v0.54519c0 0.12352-0.10106 0.22453-0.22453 0.22453h-2.662c-0.12347 0-0.22435-0.10103-0.22435-0.22453v-0.54519c-5.9e-5 -0.12352 0.10089-0.22435 0.22435-0.22435zm13.168-2.5358h1.1826c0.12123 0 0.22056 0.0993 0.22056 0.22043v0.92209c0 0.12131-0.09914 0.22057-0.22056 0.22057h-1.1826c-0.12124 0-0.22044-0.0993-0.22044-0.22057v-0.92209c6e-5 -0.12131 0.0992-0.22043 0.22044-0.22043z" fill="#f5a209"/>
      <path d="m78.997 357.82-0.8779-0.56591c-0.19118-0.12338-0.40073-0.29605-0.40073-0.53147v-3e-3c-0.71543-0.15536-0.90475-0.31103-0.97422-0.67059-0.39002-0.0333-0.6963-0.34925-0.6963-0.75902 0-0.40957 0.34108-0.76185 0.76185-0.76185 0.42065 0 0.76154 0.37299 0.76154 0.76185 0 0.38887-0.24566 0.65687-0.5774 0.7391 0.06109 0.19894 0.23808 0.28959 0.72458 0.42727v-2.5244h-0.26493c-0.19828 0-0.36082-0.1623-0.36082-0.36083v-2.8664c0-0.19828 0.16229-0.36082 0.36082-0.36082h0.26493v-0.66396c0-0.23543 0.18046-0.38087 0.40073-0.32399l0.87791 0.22725v0.21725l-0.89543-0.23163c-0.14477-0.0376-0.18028 0.0562-0.18028 0.19991v0.57535h0.31404c0.19847 0 0.36094 0.16229 0.36094 0.36082v2.8664c0 0.19829-0.16247 0.36082-0.36094 0.36082h-0.31404v2.7224c0 0.18269 0.13737 0.32904 0.276 0.41842l0.79976 0.51553v0.23066-1.8e-4z" fill="#1a91a1"/>
      <g transform="matrix(.060196 0 0 .060196 71.85 340.19)" fill="#666">
        <path d="m183.52 391.51v14.909c0 1.889-3.52 15.457-6.529 15.457h-6.377c-0.989 0-1.826-0.551-2.062-1.296h-1.894c-0.236 0.745-1.07 1.296-2.064 1.296h-6.374c-0.989 0-1.828-0.551-2.064-1.296h-1.891c-0.236 0.745-1.07 1.296-2.062 1.296h-6.377c-3.006 0-6.526-13.569-6.526-15.457v-14.909h44.221z"/>
        <path d="m373.18 391.51v14.909c0 1.889-3.52 15.457-6.523 15.457h-6.379c-0.989 0-1.826-0.551-2.062-1.296h-1.889c-0.241 0.745-1.075 1.296-2.067 1.296h-6.377c-0.991 0-1.828-0.551-2.062-1.296h-1.891c-0.239 0.745-1.073 1.296-2.064 1.296h-6.374c-3.006 0-6.529-13.569-6.529-15.457v-14.909h44.221z"/>
      </g>
      <path d="m78.868 361.27h16.814c0.65903 0 1.1985 0.49073 1.1985 1.0904 0 0.0748-0.0086 0.1476-0.0245 0.21839h-19.162c-0.01597-0.0707-0.02431-0.14369-0.02431-0.21839 0-0.5998 0.53942-1.0904 1.1986-1.0904z" fill="#ecf0f1"/>
      <path d="m96.876 362.57c0.0027 0.031 0.0043 0.0624 0.0043 0.0941 0 0.59987-0.53936 1.0904-1.1984 1.0904h-16.813c-0.65921 0-1.1986-0.4906-1.1986-1.0904 0-0.0317 0.0012-0.0632 0.0044-0.0941h19.202z" fill="#c3cccf"/>
      <path d="m84.959 360.01h4.6025c0.11461 0 0.20828 0.0685 0.20828 0.15224 0 0.0837-0.0936 0.15206-0.20828 0.15206h-4.6025c-0.11461 0-0.20828-0.0684-0.20828-0.15206 0-0.0837 0.09367-0.15224 0.20828-0.15224zm0-1.9488h4.6025c0.11461 0 0.20828 0.0684 0.20828 0.15224 0 0.0836-0.0936 0.15207-0.20828 0.15207h-4.6025c-0.11461 0-0.20828-0.0685-0.20828-0.15207 5.9e-5 -0.0839 0.09367-0.15224 0.20828-0.15224zm0 0.64959h4.6025c0.11461 0 0.20828 0.0685 0.20828 0.15224 0 0.0837-0.0936 0.15206-0.20828 0.15206h-4.6025c-0.11461 0-0.20828-0.0685-0.20828-0.15206 5.9e-5 -0.0837 0.09367-0.15224 0.20828-0.15224zm0 0.64959h4.6025c0.11461 0 0.20828 0.0685 0.20828 0.15224 0 0.0837-0.0936 0.15205-0.20828 0.15205h-4.6025c-0.11461 0-0.20828-0.0684-0.20828-0.15205 0-0.0837 0.09367-0.15224 0.20828-0.15224z" fill="#f5a209"/>
      <path d="m81.173 348.63h5.6544v6.8953h-7.4725v-5.0773c0-0.99992 0.81807-1.8182 1.818-1.8182zm12.175 0h-5.6544v6.8953h7.4725v-5.0773c0-0.99992-0.81819-1.8182-1.8182-1.8182z" fill="#076673"/>
      <path d="m92.079 359.56h2.6618c0.12347 0 0.22453 0.10089 0.22453 0.22435v0.54537c0 0.12339-0.10089 0.22453-0.22453 0.22453h-2.6618c-0.12365 0-0.22453-0.10102-0.22453-0.22453v-0.54537c0-0.12352 0.1009-0.22435 0.22453-0.22435zm-11.689-2.5358h1.1826c0.12123 0 0.22056 0.0993 0.22056 0.22044v0.92208c0 0.12131-0.09914 0.22057-0.22056 0.22057h-1.1826c-0.12124 0-0.22056-0.0992-0.22056-0.22057v-0.92208c0-0.1213 0.09914-0.22044 0.22056-0.22044zm-0.61009 2.5358h2.6618c0.12347 0 0.22453 0.10089 0.22453 0.22435v0.54537c0 0.12339-0.1009 0.22453-0.22453 0.22453h-2.6618c-0.12347 0-0.22453-0.10102-0.22453-0.22453v-0.54537c0-0.12352 0.10089-0.22435 0.22453-0.22435zm13.168-2.5358h1.1826c0.12142 0 0.22056 0.0992 0.22056 0.22044v0.92208c0 0.12131-0.09914 0.22057-0.22056 0.22057h-1.1826c-0.12123 0-0.22044-0.0992-0.22044-0.22057v-0.92208c0-0.1213 0.09914-0.22044 0.22044-0.22044z" fill="#fff"/>
      <path d="m90.827 346.34v1.1939h-7.1301v-1.2036c0.08716-0.22754 0.19438-0.39477 0.51727-0.39477h6.0919c0.32747 0 0.43787 0.1721 0.52088 0.40469z" fill="#f5a209"/>
      <path d="m84.855 346.49c0-0.0759 0.01801-0.13406 0.05418-0.17463 0.03618-0.0406 0.0903-0.0609 0.16265-0.0609 0.07217 0 0.12629 0.0203 0.16247 0.0609 0.03618 0.0406 0.0543 0.0987 0.0543 0.17463v0.0294h-0.13911v-0.0387c0-0.0339-0.0065-0.0579-0.01946-0.0715-0.013-0.0139-0.03096-0.0207-0.05418-0.0207-0.02325 0-0.04123 7e-3 -0.05418 0.0207-0.01274 0.0139-0.01946 0.0378-0.01946 0.0715 0 0.0322 0.0072 0.0606 0.02151 0.0849 0.01439 0.0245 0.03201 0.0477 0.05352 0.0694 0.0215 0.0218 0.04436 0.0437 0.06887 0.0655 0.0245 0.0218 0.04738 0.0456 0.06887 0.0715 0.02151 0.0259 0.03932 0.0553 0.05352 0.0883s0.02151 0.0718 0.02151 0.11637c0 0.0758-0.01868 0.13405-0.05556 0.17463-0.03697 0.0407-0.09156 0.061-0.16392 0.061-0.07217 0-0.12677-0.0203-0.16391-0.061-0.03696-0.0406-0.05544-0.0988-0.05544-0.17463v-0.0575h0.13911v0.067c0 0.0338 7e-3 0.0575 0.02084 0.0709 0.01393 0.0133 0.03221 0.02 0.05544 0.02 0.02325 0 0.04166-7e-3 0.05556-0.02 0.01393-0.0134 0.0208-0.0371 0.0208-0.0709 0-0.032-0.0073-0.0603-0.02151-0.0849-0.0142-0.0244-0.03222-0.0477-0.05352-0.0694-0.02132-0.0218-0.04418-0.0437-0.06887-0.0655-0.02461-0.0218-0.04756-0.0456-0.06887-0.0715-0.0215-0.0259-0.03928-0.0554-0.05352-0.0883-0.0142-0.033-0.02132-0.0718-0.02132-0.11637l-3.92e-4 -1.2e-4zm0.94563 0.36251v0.12429c0 0.0758-0.01849 0.13405-0.05544 0.17463-0.03696 0.0407-0.09174 0.0609-0.16392 0.0609-0.07217 0-0.12695-0.0202-0.16392-0.0609-0.03708-0.0406-0.05544-0.0988-0.05544-0.17463v-0.48681c0-0.0759 0.01849-0.13405 0.05544-0.17463 0.03708-0.0406 0.09174-0.0608 0.16392-0.0608 0.07217 0 0.12695 0.0203 0.16392 0.0608 0.03696 0.0406 0.05544 0.0987 0.05544 0.17463v0.091h-0.13912v-0.10037c0-0.0339-7e-3 -0.0579-0.02072-0.0715-0.01393-0.0139-0.03221-0.0207-0.05544-0.0207s-0.04184 7e-3 -0.05556 0.0207c-0.01393 0.0139-0.02072 0.0378-0.02072 0.0715v0.5056c0 0.0338 0.0069 0.0575 0.02072 0.0709 0.01373 0.0133 0.03237 0.02 0.05556 0.02 0.02323 0 0.04166-6e-3 0.05544-0.02 0.01373-0.0135 0.02072-0.0371 0.02072-0.0709v-0.13376h0.13912v1.8e-4zm0.23687 0.34895h-0.14718v-0.93635h0.14718v0.40121h0.16722v-0.40121h0.14983v0.93629h-0.14983v-0.4012h-0.16722zm0.5591-0.2152c0 0.0338 7e-3 0.0579 0.02084 0.0715 0.01393 0.0139 0.03238 0.0209 0.05556 0.0209 0.02325 0 0.04165-7e-3 0.05544-0.0209 0.01373-0.0138 0.02073-0.0378 0.02073-0.0715v-0.50559c0-0.0339-0.0069-0.0579-0.02073-0.0715-0.01393-0.0139-0.03221-0.0207-0.05544-0.0207-0.02325 0-0.04166 7e-3 -0.05556 0.0207-0.01393 0.0139-0.02084 0.0378-0.02084 0.0715zm-0.14718-0.49626c0-0.0759 0.01927-0.13406 0.05748-0.17463 0.03851-0.0406 0.0936-0.0609 0.16596-0.0609 0.07217 0 0.12755 0.0203 0.16578 0.0609 0.03834 0.0406 0.05761 0.0987 0.05761 0.17463v0.4868c0 0.0758-0.01927 0.13407-0.05761 0.17465-0.03834 0.0407-0.0936 0.0608-0.16578 0.0608-0.07229 0-0.12756-0.0203-0.16596-0.0608-0.03823-0.0406-0.05748-0.0988-0.05748-0.17465zm0.67673 0.49626c0 0.0338 7e-3 0.0579 0.0208 0.0715 0.01373 0.0139 0.03221 0.0209 0.05544 0.0209 0.02325 0 0.04166-7e-3 0.05544-0.0209 0.01393-0.0138 0.0208-0.0378 0.0208-0.0715v-0.50559c0-0.0339-0.0069-0.0579-0.0208-0.0715-0.01393-0.0139-0.0322-0.0207-0.05544-0.0207-0.02325 0-0.04166 7e-3 -0.05544 0.0207-0.01393 0.0139-0.0208 0.0378-0.0208 0.0715zm-0.147-0.49626c0-0.0759 0.01907-0.13406 0.05749-0.17463 0.03834-0.0406 0.0936-0.0609 0.16578-0.0609 0.07229 0 0.12756 0.0203 0.16596 0.0609 0.03834 0.0406 0.05749 0.0987 0.05749 0.17463v0.4868c0 0.0758-0.01927 0.13407-0.05749 0.17465-0.03834 0.0407-0.0936 0.0608-0.16596 0.0608-0.07217 0-0.12756-0.0203-0.16578-0.0608-0.03834-0.0406-0.05749-0.0988-0.05749-0.17465zm0.54177-0.22489h0.14718v0.80259h0.24204v0.13376h-0.38923zm0.88278 0c0.07675 0 0.13214 0.0178 0.16656 0.0534 0.03444 0.0358 0.05146 0.0897 0.05146 0.16187v0.0334c0 0.0481-0.0075 0.0878-0.02257 0.1191-0.01529 0.0312-0.03933 0.0542-0.07229 0.0694 0.04008 0.0153 0.06849 0.0399 0.08494 0.0742 0.01643 0.0345 0.02482 0.0766 0.02482 0.12651v0.0763c0 0.0722-0.01876 0.12729-0.05622 0.16519-0.03756 0.038-0.09318 0.0568-0.16723 0.0568h-0.23133v-0.93635h0.222-1.22e-4zm-0.07483 0.51491v0.28751h0.08416c0.02494 0 0.04388-7e-3 0.05701-0.0202 0.01274-0.0133 0.01946-0.0375 0.01946-0.0722v-0.0817c0-0.0436-0.0074-0.0735-0.02226-0.0897-0.01467-0.016-0.03902-0.024-0.07295-0.024h-0.06556 1.8e-4zm0-0.38116v0.24741h0.05749c0.02764 0 0.04924-7e-3 0.06489-0.0215 0.01546-0.0144 0.02336-0.0403 0.02336-0.0777v-0.0523c0-0.0339-0.0059-0.0584-0.01797-0.0736-0.01196-0.0153-0.03096-0.0228-0.05682-0.0228h-0.0709v4.1e-4zm0.53635-0.13388v0.72236c0 0.0338 0.0069 0.0575 0.02072 0.0709 0.01393 0.0133 0.03238 0.02 0.05544 0.02 0.02325 0 0.04184-7e-3 0.05556-0.02 0.01373-0.0134 0.02072-0.0371 0.02072-0.0709v-0.72236h0.13911v0.71292c0 0.0755-0.01849 0.13406-0.05544 0.17444-0.03696 0.0407-0.09174 0.0608-0.16391 0.0608-0.07217 0-0.12695-0.0203-0.16392-0.0608-0.03696-0.0404-0.05544-0.0988-0.05544-0.17444v-0.71292h0.14718zm0.3731 0.22484c0-0.0759 0.01818-0.13406 0.05418-0.17463 0.03618-0.0406 0.0903-0.0609 0.16247-0.0609 0.07229 0 0.12647 0.0203 0.16265 0.0609 0.03599 0.0406 0.05416 0.0987 0.05416 0.17463v0.0294h-0.13911v-0.0387c0-0.0339-0.0065-0.0579-0.01942-0.0715-0.013-0.0139-0.03096-0.0207-0.05418-0.0207-0.02325 0-0.04123 7e-3 -0.05418 0.0207-0.013 0.0139-0.01946 0.0378-0.01946 0.0715 0 0.0322 0.0072 0.0606 0.02132 0.0849 0.01439 0.0244 0.03221 0.0477 0.05352 0.0694 0.02151 0.0218 0.04436 0.0437 0.06887 0.0655 0.02461 0.0218 0.04756 0.0456 0.06899 0.0715 0.02132 0.0259 0.03917 0.0553 0.05352 0.0883 0.0142 0.033 0.02131 0.0718 0.02131 0.11637 0 0.0758-0.01849 0.13406-0.05544 0.17463-0.03696 0.0407-0.09156 0.0609-0.16391 0.0609-0.07217 0-0.12677-0.0202-0.16392-0.0609-0.03696-0.0406-0.05544-0.0988-0.05544-0.17463v-0.0575h0.13912v0.067c0 0.0338 0.0069 0.0575 0.02072 0.0709 0.01393 0.0133 0.03238 0.02 0.05557 0.02 0.02316 0 0.04153-7e-3 0.05544-0.02 0.01373-0.0134 0.0208-0.0371 0.0208-0.0709 0-0.032-0.0072-0.0603-0.02151-0.0849-0.0142-0.0245-0.03201-0.0477-0.05352-0.0694-0.0215-0.0219-0.04436-0.0437-0.06899-0.0655-0.0245-0.0218-0.04738-0.0456-0.06869-0.0715-0.02151-0.0259-0.03932-0.0554-0.0537-0.0883-0.0142-0.033-0.02132-0.0718-0.02132-0.11637v-1.2e-4z" fill="#fff"/>
      <path d="m95.523 357.82 0.8779-0.56591c0.19118-0.12338 0.40073-0.29605 0.40073-0.53147v-3e-3c0.71544-0.15536 0.90476-0.31103 0.97422-0.67059 0.39013-0.0333 0.69629-0.34925 0.69629-0.75902 0-0.40957-0.34107-0.76185-0.76167-0.76185-0.42065 0-0.76166 0.37299-0.76166 0.76185 0 0.38887 0.24584 0.65687 0.5774 0.7391-0.0611 0.19894-0.23796 0.28959-0.72458 0.42727v-2.5244h0.2648c0.19828 0 0.36082-0.1623 0.36082-0.36083v-2.8664c0-0.19828-0.16229-0.36082-0.36082-0.36082h-0.2648v-0.66396c0-0.23543-0.18047-0.38087-0.40073-0.32399l-0.8779 0.22725v0.21725l0.89542-0.23163c0.14465-0.0376 0.18029 0.0562 0.18029 0.19991v0.57535h-0.31404c-0.19829 0-0.36082 0.16229-0.36082 0.36082v2.8664c0 0.19829 0.16247 0.36082 0.36082 0.36082h0.31404v2.7224c0 0.18269-0.13737 0.32904-0.276 0.41842l-0.79989 0.51553v0.23066l1.81e-4 -1.8e-4z" fill="#1a91a1"/>
      <path d="m79.355 353.8 4.734-5.172h2.7385v0.13641l-6.1865 6.759h-1.2859v-1.7232zm7.4725-3.792l-5.0648 5.5153h0.8345l4.2304-4.6066v-0.90873zm6.5203-1.38h-1.4288l-4.2256 4.6167v2.2786h0.7775l5.9729-6.5254c-0.30532-0.23194-0.68522-0.36996-1.0959-0.36996zm-3.7552 6.8953l5.3902-5.8696c0.10595 0.21676 0.16987 0.45755 0.18113 0.71146l-4.7369 5.1581h-0.8345z" fill="#0e7886"/>
      <path d="m82.203 347.73c0.25198 0 0.45755-0.20556 0.45755-0.45755s-0.20557-0.45773-0.45755-0.45773c-0.25216 0-0.45773 0.20574-0.45773 0.45773s0.20557 0.45755 0.45773 0.45755z" fill="#ff5b61"/>
      <path d="m81.147 347.73c0.16819 0 0.30507-0.13706 0.30507-0.30507 0-0.168-0.13707-0.30508-0.30507-0.30508-0.16801 0-0.30508 0.13719-0.30508 0.30508 0 0.16812 0.13725 0.30507 0.30508 0.30507z" fill="#20d0c2"/>
      <path d="m92.317 347.73c0.25198 0 0.45774-0.20556 0.45774-0.45755s-0.20575-0.45773-0.45774-0.45773c-0.25198 0-0.45755 0.20574-0.45755 0.45773s0.20557 0.45755 0.45755 0.45755z" fill="#ff5b61"/>
      <path d="m93.373 347.73c0.168 0 0.30507-0.13706 0.30507-0.30507 0-0.168-0.13718-0.30508-0.30507-0.30508-0.16813 0-0.30508 0.13719-0.30508 0.30508 0 0.16812 0.13707 0.30507 0.30508 0.30507z" fill="#20d0c2"/>
      <path d="m83.91 357h6.6995l3.0654-1.2319h-12.83zm9.7317-1.1005l-0.03414 0.78616-0.98132 0.10116-0.50306 0.28466-1.311 3.7694-0.10877-3.6168 2.9381-1.3249 1.81e-4 2.3e-4zm-12.764 0l2.9381 1.3249-0.10877 3.6168-1.311-3.7694-0.50306-0.28466-0.98132-0.10115-0.03414-0.78617 1.81e-4 -2.3e-4z" fill="#f5a209"/>
    </g>
  </g>
</symbol>


<symbol id="house" width="25" height="25" version="1.1" viewBox="0 0 12 15">
   <title>Desenho de uma casa</title>
  <g transform="translate(0,-284)">
    <g id="house" transform="matrix(.01828 0 0 .01828 1.9605 286.06)">
      <rect x="328.42" y="25.263" width="37.895" height="37.895" fill="#695a69"/>
      <path d="m12.632 202.1v202.1h176.84v-151.58h101.05v151.58h176.84v-202.1h-227.37zm138.95 50.527v101.05h-88.421v-113.68h88.422v12.632zm176.84 88.421v-101.05h88.422v113.68h-88.422z" fill="#f2d057"/>
      <polygon points="12.632 202.1 240 202.1 467.37 202.1 480 202.1 416.84 63.158 366.32 63.158 328.42 63.158 240 63.158 63.158 63.158 0 202.1" fill="#bf515a"/>
      <polygon points="126.32 341.05 75.789 290.53 75.789 341.05" fill="#95ffff"/>
      <polygon points="138.95 290.53 75.789 290.53 126.32 341.05 138.95 341.05" fill="#80d7f0"/>
      <rect x="75.789" y="252.63" width="63.158" height="25.263" fill="#6eb1e2"/>
      <path d="m75.789 240h-12.631v113.68h88.422v-113.68h-12.632zm63.158 101.05h-63.158v-50.526h63.158zm0-63.158h-63.158v-25.263h63.158z" fill="#695a69"/>
      <polygon points="341.05 341.05 391.58 341.05 341.05 290.53" fill="#95ffff"/>
      <polygon points="341.05 290.53 391.58 341.05 404.21 341.05 404.21 290.53" fill="#80d7f0"/>
      <rect x="341.05" y="252.63" width="63.158" height="25.263" fill="#6eb1e2"/>
      <path d="m404.21 353.68h12.632v-113.68h-88.422v113.68h75.79zm-63.158-101.05h63.158v25.263h-63.158zm0 37.894h63.158v50.526h-63.158z" fill="#695a69"/>
      <polygon points="290.53 454.74 290.53 404.21 290.53 252.63 189.47 252.63 189.47 404.21 189.47 454.74" fill="#944851"/>
      <rect x="12.632" y="404.21" width="176.84" height="50.526" fill="#e9a868"/>
      <rect x="290.53" y="404.21" width="176.84" height="50.526" fill="#e9a868"/>
    </g>
  </g>
</symbol>




<symbol id="linke" width="49.134" height="49.134" version="1.1" viewBox="0 0 14 15">
   <title>Logo do linkedin</title>
  <g transform="translate(0,-284)" fill="#2a7fff">
    <path id="linkendin" d="m11.395 285.6c-0.38283-0.38291-0.84406-0.57441-1.3834-0.57441h-6.5265c-0.53929 0-1.0005 0.1915-1.3835 0.57441-0.38292 0.383-0.57441 0.84421-0.57441 1.3835v6.5264c0 0.53927 0.1915 1.0005 0.57441 1.3835 0.38299 0.38299 0.84423 0.57449 1.3835 0.57449h6.5265c0.53929 0 1.0005-0.1915 1.3834-0.57449 0.38299-0.38299 0.57449-0.84422 0.57449-1.3835v-6.5264c-2.2e-5 -0.53931-0.19152-1.0006-0.57441-1.3835zm-6.6862 8.1683h-1.5704v-4.7181h1.5704zm-0.14268-5.5916c-0.16314 0.15638-0.37844 0.23458-0.64587 0.23458h-0.0069c-0.25831 0-0.46785-0.0782-0.6288-0.23458-0.16097-0.15637-0.2414-0.3501-0.2414-0.58124 0-0.23567 0.08277-0.43059 0.24814-0.58473 0.16549-0.15408 0.37961-0.23117 0.64244-0.23117 0.26286 0 0.47362 0.0771 0.63228 0.23117 0.15861 0.15414 0.24021 0.34906 0.24471 0.58473-2.3e-5 0.23104-0.08151 0.42478-0.24464 0.58124zm5.7922 5.5916h-1.5704v-2.5222c0-0.71147-0.26279-1.0673-0.78856-1.0673-0.1994 0-0.36718 0.0555-0.5031 0.16657-0.13608 0.11098-0.23802 0.24583-0.30591 0.40459-0.03179 0.0815-0.0476 0.20835-0.0476 0.38053v2.6378h-1.5704c0.0136-2.8462 0.0136-4.419 0-4.7181h1.5704v0.66611c0.3302-0.51626 0.79908-0.77493 1.4073-0.77493 0.54386 0 0.98129 0.17906 1.3121 0.53705 0.33087 0.35806 0.49626 0.88614 0.49626 1.584v2.706z" fill="#fff" stroke-width=".28222"/>
  </g>
</symbol>


<symbol id="student" width="49.134" height="49.134" version="1.1" viewBox="0 0 12 15">
   <title>Desenho de uma estudante lendo um livro</title>
  <g transform="translate(0,-284)">
    <g id="guiauenfiano" transform="matrix(.4277 0 0 .4277 -31.606 161.47)" stroke-width=".65986">
      <path d="m89.52 288.4c7.3565 0 13.32 5.9635 13.32 13.32 0 7.3564-5.9634 13.32-13.32 13.32-7.3563 0-13.32-5.9635-13.32-13.32 0-7.3564 5.9635-13.32 13.32-13.32z" fill="#ff757c"/>
      <path d="m84.754 300.77c0.68582-1.1527 1.7666-2.4907 0.66907-4.5249-1.6157-7.0641 5.83-8.4963 6.9557-5.581 1.832 0.69072 1.7831 4.4933 0.84103 6.4832-0.04199 0.81877-0.89332 1.5329 0.64518 3.6454l0.11071-0.0241-1.02e-4 1e-4c-1.9959 0.57848-7.1116 0.31219-9.2216 9.1e-4z" fill="#666"/>
      <path d="m88.177 299.28c-0.06858 1.2651-0.5176 1.7427-1.1402 2.0753-0.31676 0.27982-2.7004 0.35486-3.3974 1.48-0.14537 0.23469-0.21978 2.7045-0.62166 3.847 2.9135 1.9081 10.092 1.9081 13.006 0-0.40199-1.1425-0.36755-3.6121-0.51292-3.8468-0.73582-1.1884-3.2408-1.2022-3.5322-1.445-0.60892-0.34085-1.0463-0.84205-1.1141-2.1105 0 0-0.91007 0.70599-1.4759 0.59735-0.56599-0.10854-1.2112-0.59735-1.2112-0.59735z" fill="#fed198"/>
      <path d="m88.146 299.62c0.33165 0.1973 0.88473 0.81486 1.4023 0.82189 0.51579 8e-3 1.2422-0.75566 1.3459-0.8119-9e-3 -0.0719-0.01639-0.14683-0.02237-0.22471l-0.0085 7e-3 -3.29e-4 3.2e-4 -3.29e-4 1e-4c-0.0278 0.0218-0.91809 0.71736-1.4752 0.60835-0.54882-0.10744-1.1722-0.5791-1.2092-0.60756l-0.01052-8e-3c-0.0056 0.0743-0.01305 0.146-0.02155 0.21485z" fill="#f0b97d"/>
      <path d="m86.71 297.2c0.56141 1.2023 0.76907 1.6717 1.4663 2.2121 0 0 0.64518 0.4981 1.2111 0.60893 0.56578 0.11054 1.4759-0.60893 1.4759-0.60893 0.69737-0.54044 0.90482-1.0099 1.4662-2.2121 0.13767 0.0733 0.28154 0.17275 0.39314 0.0445 0.11176-0.12815 0.64347-1.7914 0.54778-2.0157-0.09568-0.2245-0.18908-0.0813-0.33154 0.0203 0.0074-0.0484-0.11264 0.60101-0.11093 0.50237 0.01345-0.78516-0.53836-0.90987-0.71137-2.9872-2.5446 2.5246-4.9217 1.366-5.7499 1.5352-0.23986 0.0488-0.31041 0.66343-0.26614 0.94976-0.89826-0.64107 0.1933 1.9693 0.21614 1.9953 0.11187 0.12815 0.25557 0.0286 0.39314-0.0445h1.05e-4z" fill="#fed198"/>
      <path d="m87.036 301.35c-0.85523 0.45694-2.4213-0.0953-3.3971 1.4804-0.14501 0.2345-0.70138 2.7045-1.1035 3.847 2.9134 2.2464 11.056 2.2596 13.969 0-0.40199-1.1425-0.84951-3.6124-0.99473-3.8469-0.97812-1.58-2.6568-1.0243-3.5132-1.484l-2.3874 4.8802-2.5734-4.8767h1.02e-4z" fill="#0e7886"/>
      <g transform="matrix(.052031 0 0 .052031 76.2 288.4)" fill="#fff">
        <path d="m229.91 289.86c14.276 5.089 38.563 5.12 53.626-0.02l-25.821 52.782z"/>
        <path d="m112.33 281.98c88.599-11.582 123.86 10.649 143.67 28.154-29.446-16.953-85.965-15.833-141.18-5.966z"/>
        <path d="m399.68 281.98c-88.599-11.582-123.86 10.647-143.67 28.151 35.134-20.229 101.16-12.971 141.14-5.651z"/>
      </g>
      <path d="m80.908 304.41c3.2508-0.74078 6.8939-0.97465 8.6617 0.0431 1.7679-1.0178 5.3118-0.78389 8.5627-0.0431-0.18617 6.3954-0.03086 1.0576-0.27888 9.5936-0.19043-0.0359-5.3283-0.80009-7.8119-0.0548-0.41354-2e-4 -0.50938-2e-4 -0.92464 0-2.7267-0.79306-7.7514 0.0213-7.9303 0.0548-0.25609-8.8136-0.08652-2.9677-0.27868-9.5936z" fill="#15bdb1"/>
      <g transform="matrix(.052031 0 0 .052031 76.2 288.4)" fill="#dfe1e3">
        <path d="m98.368 296.66 0.95 9.767c60.355-12.812 125.92-16.137 158.45 2.593l2e-3 -2e-3c-0.115-0.088-48.306-36.323-159.4-12.36z"/>
        <path d="m413.63 297.21-0.95 9.767c-60.355-12.812-125.92-16.137-158.45 2.593l-2e-3 -2e-3c0.115-0.086 48.306-36.323 159.4-12.36v2e-3z"/>
      </g>
      <path d="m82.676 307.02-0.9055 0.0484-0.90123 0.0638c-0.37306 0.0266-0.31078 0.69478 0.06093 0.6507l0.98245-0.11635 0.74602-0.0627c0.37306-0.0316 0.26786-0.59732 0.01732-0.5838zm-0.12451 2.0785l-1.4044 0.16415c-0.30126 0.035-0.22862 0.70612 0.06093 0.6506l1.4086-0.27097c0.29439-0.0567 0.23211-0.57859-0.06515-0.54378zm0.17852-0.72859c0.37259-0.0348 0.44866 0.5408 0.07732 0.58827l-1.7781 0.22715c-0.37124 0.0475-0.43342-0.61568-0.06093-0.65059zm0.24824-0.72724c0.43628-0.0409 0.49721 0.60976 0.06093 0.65059l-2.0664 0.19355c-0.43618 0.0409-0.49695-0.60973-0.06093-0.65059l2.0664-0.19355z" fill="#fed198"/>
      <g transform="matrix(.052031 0 0 .052031 76.2 288.4)" fill="#fff">
        <path d="m122.2 360.6 0.611 6.535 4.357-0.41c0.734-2.447 0.423-4.758-0.655-6.989l-4.315 0.862z"/>
        <path d="m129.69 372.75 0.692 7.422 4.07-0.381c1.44-2.805 1.376-5.468-0.743-7.937l-4.022 0.895z"/>
        <path d="m124.25 386.62 0.611 6.533 4.99-0.467c0.518-2.397 0.32-4.727-0.655-6.987z"/>
        <path d="m120.16 401.06 0.794 5.17 5.003-0.858c0.454-1.969 0.192-3.817-0.849-5.532l-4.948 1.217z"/>
      </g>
      <path d="m96.365 307.02 0.9055 0.0484 0.90122 0.0638c0.37306 0.0266 0.31078 0.69478-0.06093 0.6507l-0.98245-0.11635-0.74602-0.0627c-0.37312-0.0316-0.26791-0.59732-0.01731-0.5838zm0.12446 2.0785l1.4044 0.16415c0.30126 0.035 0.22862 0.70612-0.06093 0.6506l-1.4086-0.27097c-0.29429-0.0567-0.23211-0.57859 0.06515-0.54378zm-0.17852-0.72859c-0.37259-0.0348-0.44866 0.5408-0.07732 0.58827l1.7781 0.22715c0.37124 0.0475 0.43342-0.61568 0.06093-0.65059l-1.7617-0.16483zm-0.24824-0.72724c-0.43628-0.0409-0.49721 0.60976-0.06093 0.65059l2.0664 0.19355c0.43617 0.0409 0.49695-0.60973 0.06093-0.65059l-2.0664-0.19355z" fill="#fed198"/>
      <g transform="matrix(.052031 0 0 .052031 76.2 288.4)" fill="#fff">
        <path d="m389.8 360.6-0.611 6.535-4.359-0.41c-0.734-2.447-0.423-4.758 0.655-6.989l4.315 0.862z"/>
        <path d="m382.31 372.75-0.692 7.422-4.07-0.381c-1.44-2.805-1.376-5.468 0.743-7.937l4.022 0.895z"/>
        <path d="m387.75 386.62-0.611 6.533-4.99-0.467c-0.518-2.397-0.32-4.727 0.655-6.987z"/>
        <path d="m391.84 401.06-0.794 5.17-5.003-0.858c-0.454-1.969-0.192-3.817 0.849-5.532l4.948 1.217z"/>
      </g>
      <path d="m89.127 304.24h0.91434v9.7084h-0.91434z" fill="#20d0c2"/>
    </g>
  </g>
</symbol>





<symbol id="rodolfo-peixoto-logo" width="100%" height="100%" version="1.1" viewBox="5 -2 15 33" >
  <g transform="matrix(.808 0 0 .808 .72456 -211.54)" stroke-width="1.2376">
    <g id="rodolfo-peixoto-logo" transform="matrix(.25615 0 0 .25615 .5528 262.29)" stroke-width="1.3636">
      <g id="marca" transform="matrix(.017971 0 0 .017971 -397.52 -18.266)">
        <g fill="#303036" stroke-width="1.3636">
          <path class="fil0" d="m22490 4515v-3310h1467c296 0 520 30 673 89s276 164 368 314c91 151 137 317 137 499 0 235-76 433-228 594s-386 263-704 307c117 55 204 111 264 165 128 117 249 264 363 440l572 902h-547l-438-689c-127-199-232-351-315-457-83-105-157-179-222-221s-132-71-200-88c-49-10-130-15-244-15h-507v1470zm439-1849h941c200 0 356-21 468-63 113-41 198-107 256-199 58-90 88-189 88-296 0-157-57-286-170-387s-292-151-536-151h-1047z"/>
          <path class="fil0" d="m27766 4548v-3310h-1467c-295 0-520 30-673 89s-276 164-368 315c-91 150-137 316-137 498 0 235 77 433 228 594 152 161 386 263 704 307-116 55-204 111-264 165-128 117-249 264-363 440l-572 902h547l438-689c127-199 232-351 315-457 83-105 157-179 223-221 64-42 131-71 199-88 49-10 130-15 244-15h507v1470zm-439-1849h-940c-201 0-356-21-469-63-112-41-198-107-256-199-58-90-88-189-88-296 0-157 57-286 170-387s292-151 536-151h1047z"/>
          <path class="fil0" d="m27767 4520v3310h-1467c-295 0-519-30-673-89-153-59-276-164-367-314-92-151-137-317-137-499 0-235 76-433 228-594s386-263 703-307c-116-55-204-111-264-165-128-117-249-264-362-440l-573-902h547l438 689c127 199 233 351 315 457 83 105 157 179 223 221 65 42 132 71 199 88 50 10 131 15 244 15h507v-1470zm-439 1849h-940c-200 0-356 21-469 63-112 41-198 107-255 199-59 90-88 189-88 296 0 157 56 286 169 387 114 101 292 151 537 151h1046z"/>
          <path class="fil0" d="m22491 4500v3310h1467c295 0 519-30 673-89 153-60 276-165 367-315 92-150 137-317 137-498 0-235-76-433-228-595-151-161-386-262-703-306 116-56 204-111 264-165 128-117 249-264 362-441l573-901h-547l-438 688c-127 200-233 352-315 457-83 106-157 179-223 222-65 41-132 70-199 87-50 10-131 16-244 16h-507v-1470zm439 1849h940c201 0 356 21 469 62 112 41 198 107 255 199 59 91 88 190 88 297 0 156-56 286-169 387s-292 151-536 151h-1047z"/>
        </g>
      </g>
      <g id="logo-marca" transform="matrix(.022528 0 0 .022528 -294.54 -107.5)">
        <path class="fil2" d="m13807 10690 77.377-2.394s-13.561-18.347-26.324-38.29l-65.412-110.88c39.885-13.561 72.59-47.862 72.59-92.533 0-69.4-50.254-112.48-138-112.48h-109.28s3.191 25.526 3.191 51.052v303.12h71.792s-2.393-23.932-2.393-47.064v-78.175h42.278zm-116.46-173.9v-136.41h29.515c48.66 0 74.185 24.729 74.185 63.018 0 43.076-24.729 73.388-84.555 73.388zm348.59 130.82c-39.087 0-55.84-36.694-55.84-90.139 0-51.053 18.348-82.163 53.446-82.163 42.278 0 55.041 35.896 55.041 93.33 0 50.255-18.346 78.972-52.647 78.972zm-7.977 45.47c79.77 0 129.23-53.446 129.23-139.6 0-74.984-43.075-123.64-115.67-123.64-80.566 0-129.23 53.446-129.23 140.4 0 74.185 43.075 122.85 115.67 122.85zm292.75 0c34.301 0 56.636-12.765 67.006-26.326l1.596 23.933 66.209-2.394s-3.192-26.325-3.192-52.649v-329.45l-70.197 2.394s3.192 23.132 3.192 51.85v86.151c-9.573-7.977-24.729-16.752-56.637-16.752-64.613 0-121.25 48.659-121.25 141.99 0 70.197 44.671 121.25 113.27 121.25zm17.55-47.863c-44.671 0-61.424-37.491-61.424-85.353 0-52.649 22.336-84.556 62.221-84.556 23.133 0 38.289 9.572 46.267 20.74v129.23c-7.179 9.572-23.932 19.942-47.064 19.942zm303.12 2.393c-38.29 0-55.041-36.694-55.041-90.139 0-51.053 17.549-82.163 52.647-82.163 43.077 0 55.839 35.896 55.839 93.33 0 50.255-18.347 78.972-53.445 78.972zm-7.977 45.47c80.567 0 129.23-53.446 129.23-139.6 0-74.984-43.075-123.64-115.66-123.64-79.769 0-129.23 53.446-129.23 140.4 0 74.185 43.075 122.85 115.67 122.85zm194.64-4.787h70.197s-2.393-23.932-2.393-47.064v-335.83l-70.995 2.393s3.191 26.324 3.191 52.648zm157.94 0h70.197s-2.393-23.932-2.393-47.064v-160.34l74.186 1.595 2.393-47.064h-76.579v-35.896c0-29.515 10.371-46.266 32.706-46.266 20.739 0 31.907 9.571 64.612 11.965l9.573-51.85c-27.122-1.596-43.873-9.573-77.376-9.573-63.019 0-96.521 39.087-96.521 92.533v39.087h-28.718v43.873h27.92zm296.74-40.683c-38.29 0-55.041-36.694-55.041-90.139 0-51.053 17.549-82.163 52.647-82.163 43.076 0 55.839 35.896 55.839 93.33 0 50.255-18.347 78.972-53.445 78.972zm-7.977 45.47c80.566 0 129.23-53.446 129.23-139.6 0-74.984-43.076-123.64-115.67-123.64-79.77 0-129.23 53.446-129.23 140.4 0 74.185 43.075 122.85 115.67 122.85zm322.27-4.787h72.592s-2.393-23.932-2.393-47.064v-78.175h33.503c84.556 0 136.4-55.839 136.4-123.64 0-54.244-46.266-105.3-133.22-105.3h-110.08s3.19 25.526 3.19 51.052zm70.199-172.3v-135.61h29.514c46.267 0 69.399 26.324 69.399 61.423 0 44.671-22.335 74.185-73.388 74.185zm339.02 177.09c55.839 0 86.151-16.753 86.151-16.753v-47.064s-33.504 13.561-75.781 13.561c-46.267 0-78.174-28.717-79.77-74.186h165.12c9.572-74.983-22.336-138.8-106.89-138.8-72.59 0-126.83 50.255-126.83 135.61 0 80.569 54.244 127.63 138 127.63zm-66.208-167.52c3.987-29.515 24.728-51.053 53.445-51.053 25.526 0 39.087 13.561 40.683 49.458zm227.34 162.73h70.198s-2.393-23.932-2.393-47.064v-209l-70.995 3.191s3.19 26.324 3.19 51.85zm30.313-301.53c24.729 0 41.48-14.359 41.48-38.29 0-21.538-15.156-34.301-37.492-34.301-23.93 0-41.479 12.763-41.479 35.099 0 22.335 16.751 37.492 37.491 37.492zm272.01 303.92 78.973-2.394s-15.954-19.942-29.515-38.29l-70.197-92.532 29.514-39.087c33.503-44.671 56.637-82.961 56.637-82.961h-58.232s-7.977 13.561-38.29 60.625l-15.954 23.931-56.636-87.747-79.77 3.191s15.955 17.549 31.909 41.48l62.22 89.342-38.29 47.862c-27.92 35.098-55.04 74.186-55.04 74.186h64.612s13.561-24.729 43.076-68.601l11.966-17.551zm224.95-43.077c-39.088 0-55.839-36.694-55.839-90.139 0-51.053 18.347-82.163 53.446-82.163 42.278 0 55.04 35.896 55.04 93.33 0 50.255-18.347 78.972-52.647 78.972zm-7.978 45.47c79.771 0 129.23-53.446 129.23-139.6 0-74.984-43.075-123.64-115.67-123.64-80.566 0-129.23 53.446-129.23 140.4 0 74.185 43.075 122.85 115.66 122.85zm298.34 0c28.717 0 52.648-10.371 52.648-10.371v-44.671s-21.538 7.978-43.075 7.978c-28.717 0-40.683-16.753-40.683-48.661v-116.46l82.163 0.798 1.595-46.267h-83.758v-59.03h-30.312l-35.897 59.03-28.716 5.584v38.289h30.311s-2.393 22.336-2.393 41.48v89.342c0 58.233 33.504 82.962 98.117 82.962zm220.96-45.47c-38.288 0-55.041-36.694-55.041-90.139 0-51.053 17.55-82.163 52.648-82.163 43.076 0 55.839 35.896 55.839 93.33 0 50.255-18.346 78.972-53.446 78.972zm-7.976 45.47c80.568 0 129.23-53.446 129.23-139.6 0-74.984-43.076-123.64-115.67-123.64-79.77 0-129.23 53.446-129.23 140.4 0 74.185 43.076 122.85 115.67 122.85z" fill="#4c4d4f" stroke-width="1.3636"/>
      </g>
    </g>
  </g>
</symbol>








  </defs>
</svg>