<svg xmlns="http://www.w3.org/2000/svg" viewBox="0 0 60 60"><path d="M30.5 0C14.233 0 1 13.233 1 29.5a29.47 29.47 0 0 0 3.896 14.65L.051 58.684a1 1 0 0 0 1.203 1.283l15.867-4.175A29.578 29.578 0 0 0 30.5 59C46.767 59 60 45.767 60 29.5S46.767 0 30.5 0zm18.408 42.895l-1.758 1.759C44.93 46.874 42.453 48 39.79 48c-3.59 0-7.461-2.05-11.503-6.093L18.093 31.714c-3.188-3.188-5.147-6.285-5.823-9.206-.82-3.547.215-6.796 3.077-9.657l1.759-1.759c1.131-1.131 2.96-1.409 4.377-.659 2.662 1.409 5.42 6.025 5.726 6.547.552.967.721 1.967.483 2.824a2.61 2.61 0 0 1-1.188 1.552c-.808.676-1.755 1.518-1.922 1.732-1.016 1.499-.9 2.65.409 3.96l7.962 7.962c1.32 1.321 2.451 1.43 3.974.398.201-.157 1.042-1.104 1.718-1.912.505-.835 1.332-1.292 2.338-1.292.659 0 1.36.2 2.027.58.532.313 5.149 3.071 6.557 5.732a3.707 3.707 0 0 1-.659 4.379z" fill="#FFF"/></svg>